G04 #@! TF.GenerationSoftware,KiCad,Pcbnew,9.0.4*
G04 #@! TF.CreationDate,2025-09-15T17:08:43+02:00*
G04 #@! TF.ProjectId,ValveToggler,56616c76-6554-46f6-9767-6c65722e6b69,rev?*
G04 #@! TF.SameCoordinates,Original*
G04 #@! TF.FileFunction,Copper,L4,Bot*
G04 #@! TF.FilePolarity,Positive*
%FSLAX46Y46*%
G04 Gerber Fmt 4.6, Leading zero omitted, Abs format (unit mm)*
G04 Created by KiCad (PCBNEW 9.0.4) date 2025-09-15 17:08:43*
%MOMM*%
%LPD*%
G01*
G04 APERTURE LIST*
G04 Aperture macros list*
%AMRoundRect*
0 Rectangle with rounded corners*
0 $1 Rounding radius*
0 $2 $3 $4 $5 $6 $7 $8 $9 X,Y pos of 4 corners*
0 Add a 4 corners polygon primitive as box body*
4,1,4,$2,$3,$4,$5,$6,$7,$8,$9,$2,$3,0*
0 Add four circle primitives for the rounded corners*
1,1,$1+$1,$2,$3*
1,1,$1+$1,$4,$5*
1,1,$1+$1,$6,$7*
1,1,$1+$1,$8,$9*
0 Add four rect primitives between the rounded corners*
20,1,$1+$1,$2,$3,$4,$5,0*
20,1,$1+$1,$4,$5,$6,$7,0*
20,1,$1+$1,$6,$7,$8,$9,0*
20,1,$1+$1,$8,$9,$2,$3,0*%
G04 Aperture macros list end*
G04 #@! TA.AperFunction,SMDPad,CuDef*
%ADD10C,4.200000*%
G04 #@! TD*
G04 #@! TA.AperFunction,ComponentPad*
%ADD11RoundRect,1.750000X1.750000X0.000010X-1.750000X0.000010X-1.750000X-0.000010X1.750000X-0.000010X0*%
G04 #@! TD*
G04 #@! TA.AperFunction,ComponentPad*
%ADD12RoundRect,0.249999X-0.850001X0.850001X-0.850001X-0.850001X0.850001X-0.850001X0.850001X0.850001X0*%
G04 #@! TD*
G04 #@! TA.AperFunction,ComponentPad*
%ADD13C,2.200000*%
G04 #@! TD*
G04 #@! TA.AperFunction,ComponentPad*
%ADD14RoundRect,0.249999X0.850001X-0.850001X0.850001X0.850001X-0.850001X0.850001X-0.850001X-0.850001X0*%
G04 #@! TD*
G04 #@! TA.AperFunction,ComponentPad*
%ADD15C,1.600000*%
G04 #@! TD*
G04 #@! TA.AperFunction,ComponentPad*
%ADD16C,2.340000*%
G04 #@! TD*
G04 #@! TA.AperFunction,ComponentPad*
%ADD17RoundRect,0.250000X0.550000X-0.550000X0.550000X0.550000X-0.550000X0.550000X-0.550000X-0.550000X0*%
G04 #@! TD*
G04 #@! TA.AperFunction,ComponentPad*
%ADD18RoundRect,0.249999X0.850001X0.850001X-0.850001X0.850001X-0.850001X-0.850001X0.850001X-0.850001X0*%
G04 #@! TD*
G04 #@! TA.AperFunction,ComponentPad*
%ADD19R,2.000000X1.905000*%
G04 #@! TD*
G04 #@! TA.AperFunction,ComponentPad*
%ADD20O,2.000000X1.905000*%
G04 #@! TD*
G04 #@! TA.AperFunction,ComponentPad*
%ADD21R,1.800000X1.800000*%
G04 #@! TD*
G04 #@! TA.AperFunction,ComponentPad*
%ADD22C,1.800000*%
G04 #@! TD*
G04 #@! TA.AperFunction,ComponentPad*
%ADD23C,3.500000*%
G04 #@! TD*
G04 #@! TA.AperFunction,ComponentPad*
%ADD24RoundRect,0.250000X0.550000X0.550000X-0.550000X0.550000X-0.550000X-0.550000X0.550000X-0.550000X0*%
G04 #@! TD*
G04 #@! TA.AperFunction,ComponentPad*
%ADD25R,1.100000X1.800000*%
G04 #@! TD*
G04 #@! TA.AperFunction,ComponentPad*
%ADD26RoundRect,0.275000X-0.275000X-0.625000X0.275000X-0.625000X0.275000X0.625000X-0.275000X0.625000X0*%
G04 #@! TD*
G04 #@! TA.AperFunction,ComponentPad*
%ADD27R,1.700000X1.700000*%
G04 #@! TD*
G04 #@! TA.AperFunction,ComponentPad*
%ADD28RoundRect,0.250000X-0.550000X-0.550000X0.550000X-0.550000X0.550000X0.550000X-0.550000X0.550000X0*%
G04 #@! TD*
G04 #@! TA.AperFunction,ComponentPad*
%ADD29RoundRect,0.249999X-0.850001X-0.850001X0.850001X-0.850001X0.850001X0.850001X-0.850001X0.850001X0*%
G04 #@! TD*
G04 #@! TA.AperFunction,ComponentPad*
%ADD30C,2.000000*%
G04 #@! TD*
G04 #@! TA.AperFunction,Conductor*
%ADD31C,1.000000*%
G04 #@! TD*
G04 #@! TA.AperFunction,Conductor*
%ADD32C,0.700000*%
G04 #@! TD*
G04 #@! TA.AperFunction,Conductor*
%ADD33C,2.000000*%
G04 #@! TD*
G04 #@! TA.AperFunction,Conductor*
%ADD34C,1.500000*%
G04 #@! TD*
G04 APERTURE END LIST*
D10*
X76374000Y-68326000D03*
D11*
X60742000Y-51508000D03*
X60742000Y-51508000D03*
X52542000Y-51408000D03*
X52542000Y-51408000D03*
D12*
X102997000Y-62992000D03*
D13*
X102997000Y-68072000D03*
D14*
X88265000Y-86741000D03*
D13*
X88265000Y-76581000D03*
D12*
X102997000Y-76581000D03*
D13*
X102997000Y-81661000D03*
D15*
X46670000Y-84750000D03*
X56830000Y-84750000D03*
X91720295Y-73225991D03*
X91720295Y-63065991D03*
X88672295Y-63065991D03*
X88672295Y-73225991D03*
D16*
X71374000Y-76437000D03*
X81374000Y-73937000D03*
X71374000Y-71437000D03*
D17*
X80000000Y-50205113D03*
D15*
X80000000Y-47705113D03*
X94768295Y-73225991D03*
X94768295Y-63065991D03*
D18*
X85343402Y-86767456D03*
D13*
X75183402Y-86767456D03*
D19*
X99568000Y-67945000D03*
D20*
X99568000Y-65405000D03*
X99568000Y-62865000D03*
D15*
X75874988Y-56120800D03*
X75874988Y-51120800D03*
D21*
X110500000Y-86300000D03*
D22*
X107960000Y-86300000D03*
D15*
X95113214Y-87017770D03*
X105273214Y-87017770D03*
D23*
X52428000Y-56551000D03*
X52428000Y-61551000D03*
D18*
X72160000Y-86500000D03*
D13*
X62000000Y-86500000D03*
D17*
X59690000Y-74805000D03*
D15*
X62230000Y-74805000D03*
X64770000Y-74805000D03*
X67310000Y-74805000D03*
X67310000Y-67185000D03*
X64770000Y-67185000D03*
X62230000Y-67185000D03*
X59690000Y-67185000D03*
X59710000Y-64500000D03*
X62250000Y-64500000D03*
X75183045Y-83674545D03*
X85343045Y-83674545D03*
D23*
X109000000Y-67945000D03*
X109000000Y-62945000D03*
D15*
X91500000Y-59000000D03*
X86500000Y-59000000D03*
D16*
X104255369Y-49603308D03*
X94255369Y-52103308D03*
X104255369Y-54603308D03*
D15*
X56830000Y-68750000D03*
X46670000Y-68750000D03*
D19*
X70975471Y-49804903D03*
D20*
X70975471Y-52344903D03*
X70975471Y-54884903D03*
D10*
X115000000Y-92000000D03*
D15*
X81280546Y-80682207D03*
X71120546Y-80682207D03*
X103632000Y-72136000D03*
X113792000Y-72136000D03*
D23*
X108989000Y-81498000D03*
X108989000Y-76498000D03*
D19*
X99187000Y-82804000D03*
D20*
X99187000Y-80264000D03*
X99187000Y-77724000D03*
D10*
X46000000Y-92000000D03*
X115000000Y-48000000D03*
D24*
X62000000Y-78750000D03*
D15*
X59500000Y-78750000D03*
D25*
X97663000Y-73691000D03*
D26*
X98933000Y-71621000D03*
X100203000Y-73691000D03*
D15*
X46670000Y-65750000D03*
X56830000Y-65750000D03*
X67945000Y-64770000D03*
X67945000Y-59770000D03*
X91694000Y-86741000D03*
X91694000Y-76581000D03*
D27*
X80137000Y-54991000D03*
D16*
X71374000Y-65532000D03*
X81374000Y-63032000D03*
X71374000Y-60532000D03*
D25*
X65000000Y-79400000D03*
D26*
X66270000Y-77330000D03*
X67540000Y-79400000D03*
D24*
X63627000Y-58293000D03*
D15*
X61127000Y-58293000D03*
D28*
X83945000Y-48190000D03*
D15*
X83945000Y-50730000D03*
X83945000Y-53270000D03*
X83945000Y-55810000D03*
X91565000Y-55810000D03*
X91565000Y-53270000D03*
X91565000Y-50730000D03*
X91565000Y-48190000D03*
D10*
X46000000Y-48000000D03*
D23*
X52600000Y-72750000D03*
X52600000Y-77750000D03*
D15*
X56830000Y-81750000D03*
X46670000Y-81750000D03*
D12*
X58500000Y-55626000D03*
D13*
X58500000Y-60706000D03*
D15*
X93980000Y-59182000D03*
X104140000Y-59182000D03*
D29*
X62611000Y-83185000D03*
D13*
X72771000Y-83185000D03*
D21*
X107800000Y-58100000D03*
D22*
X110340000Y-58100000D03*
D30*
X66802000Y-49276000D03*
X66802000Y-54276000D03*
D31*
X67736000Y-53850000D02*
X69300000Y-53850000D01*
D32*
X81638000Y-56492000D02*
X81638000Y-52363979D01*
X105267000Y-60633000D02*
X101800000Y-60633000D01*
X68453000Y-58547000D02*
X79583000Y-58547000D01*
X65024000Y-85952288D02*
X62457288Y-88519000D01*
D31*
X58500000Y-60330000D02*
X59875113Y-60330000D01*
X69300000Y-53850000D02*
X70805097Y-52344903D01*
D32*
X110500000Y-86300000D02*
X111887000Y-84913000D01*
D31*
X60896113Y-59309000D02*
X60896113Y-58523887D01*
D32*
X59500000Y-86805000D02*
X59500000Y-78750000D01*
D31*
X74750000Y-52350000D02*
X75874988Y-51225012D01*
X61127000Y-57161630D02*
X61773630Y-56515000D01*
D32*
X65000000Y-79000000D02*
X65024000Y-79024000D01*
D33*
X58420000Y-60250000D02*
X58500000Y-60330000D01*
D32*
X80000000Y-47705113D02*
X83460113Y-47705113D01*
X111887000Y-84913000D02*
X111887000Y-80137000D01*
X96146991Y-71774991D02*
X97663000Y-73291000D01*
D31*
X70975471Y-52344903D02*
X70980568Y-52350000D01*
D32*
X86500000Y-59000000D02*
X82900000Y-59000000D01*
X46670000Y-63058000D02*
X49478000Y-60250000D01*
D31*
X66802000Y-54276000D02*
X67310000Y-54276000D01*
X70805097Y-52344903D02*
X70975471Y-52344903D01*
D32*
X99441000Y-77978000D02*
X99187000Y-77724000D01*
X79777732Y-52363979D02*
X78359000Y-50945247D01*
X90269295Y-72163705D02*
X90658009Y-71774991D01*
D31*
X61127000Y-58293000D02*
X61127000Y-57161630D01*
D32*
X99187000Y-77724000D02*
X92837000Y-77724000D01*
D31*
X67310000Y-54276000D02*
X67736000Y-53850000D01*
D32*
X65024000Y-79024000D02*
X65024000Y-85952288D01*
X92837000Y-77724000D02*
X91694000Y-76581000D01*
X81015000Y-57115000D02*
X81638000Y-56492000D01*
D31*
X61773630Y-56515000D02*
X64563000Y-56515000D01*
X59875113Y-60330000D02*
X60896113Y-59309000D01*
D33*
X52350000Y-60250000D02*
X58420000Y-60250000D01*
D32*
X110729404Y-78979404D02*
X101839404Y-78979404D01*
X67945000Y-59055000D02*
X68453000Y-58547000D01*
D31*
X70980568Y-52350000D02*
X74750000Y-52350000D01*
D32*
X78359000Y-50945247D02*
X78359000Y-49346113D01*
X78359000Y-49346113D02*
X80000000Y-47705113D01*
X90269295Y-75156295D02*
X90269295Y-72163705D01*
X49478000Y-60250000D02*
X52350000Y-60250000D01*
X101839404Y-78979404D02*
X100838000Y-77978000D01*
X46670000Y-65750000D02*
X46670000Y-63058000D01*
X90658009Y-71774991D02*
X96146991Y-71774991D01*
D31*
X64563000Y-56515000D02*
X66802000Y-54276000D01*
D32*
X62457288Y-88519000D02*
X61214000Y-88519000D01*
D31*
X60896113Y-58523887D02*
X61127000Y-58293000D01*
D32*
X59690000Y-74805000D02*
X59690000Y-78560000D01*
X91694000Y-76581000D02*
X90269295Y-75156295D01*
D31*
X75874988Y-51225012D02*
X75874988Y-51120800D01*
D32*
X107800000Y-58100000D02*
X105267000Y-60633000D01*
X111887000Y-80137000D02*
X110729404Y-78979404D01*
X100838000Y-77978000D02*
X99441000Y-77978000D01*
X81638000Y-52363979D02*
X79777732Y-52363979D01*
X79583000Y-58547000D02*
X81015000Y-57115000D01*
X82900000Y-59000000D02*
X81015000Y-57115000D01*
X59690000Y-78560000D02*
X59500000Y-78750000D01*
X67945000Y-59770000D02*
X67945000Y-59055000D01*
X61214000Y-88519000D02*
X59500000Y-86805000D01*
X101800000Y-60633000D02*
X99568000Y-62865000D01*
X83460113Y-47705113D02*
X83945000Y-48190000D01*
X93980000Y-59182000D02*
X93980000Y-54483000D01*
X80000000Y-50205113D02*
X83420113Y-50205113D01*
X83420113Y-50205113D02*
X83945000Y-50730000D01*
X93980000Y-54483000D02*
X92767000Y-53270000D01*
X92767000Y-53270000D02*
X91565000Y-53270000D01*
X91565000Y-55810000D02*
X91565000Y-58935000D01*
X91565000Y-58935000D02*
X91500000Y-59000000D01*
D34*
X66802000Y-51159212D02*
X66802000Y-49276000D01*
X111801000Y-73193000D02*
X111801000Y-65746000D01*
X44577000Y-85274710D02*
X51381290Y-92079000D01*
D31*
X102997000Y-76581000D02*
X108906000Y-76581000D01*
D34*
X113919000Y-86360000D02*
X113919000Y-76835000D01*
X63351212Y-54610000D02*
X66802000Y-51159212D01*
X66802000Y-49276000D02*
X66294000Y-49276000D01*
D31*
X109000000Y-62945000D02*
X103044000Y-62945000D01*
D34*
X65725000Y-48707000D02*
X57143000Y-48707000D01*
X57143000Y-48707000D02*
X54442000Y-51408000D01*
X44577000Y-55753000D02*
X44577000Y-85274710D01*
X51381290Y-92079000D02*
X108200000Y-92079000D01*
X58500000Y-55626000D02*
X59516000Y-54610000D01*
D31*
X67760000Y-49810000D02*
X70970374Y-49810000D01*
D34*
X113919000Y-76835000D02*
X113919000Y-75311000D01*
D31*
X66802000Y-49276000D02*
X67310000Y-49784000D01*
X70970374Y-49810000D02*
X70975471Y-49804903D01*
D34*
X113919000Y-75311000D02*
X111801000Y-73193000D01*
X59516000Y-54610000D02*
X63351212Y-54610000D01*
D31*
X103044000Y-62945000D02*
X102997000Y-62992000D01*
X108906000Y-76581000D02*
X108989000Y-76498000D01*
D34*
X66294000Y-49276000D02*
X65725000Y-48707000D01*
D31*
X67310000Y-49784000D02*
X67734000Y-49784000D01*
D34*
X111801000Y-65746000D02*
X109000000Y-62945000D01*
X108200000Y-92079000D02*
X113919000Y-86360000D01*
D31*
X67734000Y-49784000D02*
X67760000Y-49810000D01*
D34*
X111801000Y-73686000D02*
X111801000Y-73193000D01*
X48922000Y-51408000D02*
X44577000Y-55753000D01*
X108989000Y-76498000D02*
X111801000Y-73686000D01*
X54442000Y-51408000D02*
X48922000Y-51408000D01*
D31*
X99187000Y-80264000D02*
X101600000Y-80264000D01*
X103160000Y-81498000D02*
X102997000Y-81661000D01*
X101600000Y-80264000D02*
X102997000Y-81661000D01*
X108989000Y-81498000D02*
X103160000Y-81498000D01*
X102997000Y-66675000D02*
X102997000Y-68072000D01*
X101727000Y-65405000D02*
X102997000Y-66675000D01*
X108873000Y-68072000D02*
X109000000Y-67945000D01*
X99568000Y-65405000D02*
X101727000Y-65405000D01*
X102997000Y-68072000D02*
X108873000Y-68072000D01*
D34*
X54028180Y-56551000D02*
X59071180Y-51508000D01*
X52428000Y-56551000D02*
X54028180Y-56551000D01*
X59071180Y-51508000D02*
X62642000Y-51508000D01*
D31*
X70975471Y-54884903D02*
X70980568Y-54890000D01*
X75520800Y-56120800D02*
X75874988Y-56120800D01*
D32*
X91565000Y-48190000D02*
X89629113Y-46254113D01*
X80137000Y-54991000D02*
X77109000Y-54991000D01*
D31*
X70805097Y-54884903D02*
X70975471Y-54884903D01*
X74290000Y-54890000D02*
X75520800Y-56120800D01*
X69048000Y-56642000D02*
X70805097Y-54884903D01*
X63627000Y-58293000D02*
X65278000Y-58293000D01*
D32*
X59710000Y-63861000D02*
X59710000Y-64500000D01*
X89629113Y-46254113D02*
X78793863Y-46254113D01*
X63627000Y-58293000D02*
X63627000Y-59944000D01*
X78793863Y-46254113D02*
X77343000Y-47704976D01*
X75979200Y-56120800D02*
X75874988Y-56120800D01*
X59710000Y-64500000D02*
X59710000Y-67165000D01*
X77343000Y-54757000D02*
X75979200Y-56120800D01*
D31*
X66929000Y-56642000D02*
X69048000Y-56642000D01*
X70980568Y-54890000D02*
X74290000Y-54890000D01*
D32*
X77343000Y-47704976D02*
X77343000Y-54757000D01*
X63627000Y-59944000D02*
X59710000Y-63861000D01*
X77109000Y-54991000D02*
X75979200Y-56120800D01*
X59710000Y-67165000D02*
X59690000Y-67185000D01*
D31*
X65278000Y-58293000D02*
X66929000Y-56642000D01*
D32*
X67310000Y-67185000D02*
X67310000Y-65278000D01*
X67818000Y-64770000D02*
X67945000Y-64770000D01*
X67310000Y-65278000D02*
X67818000Y-64770000D01*
X62000000Y-78750000D02*
X62000000Y-76900000D01*
X62230000Y-76670000D02*
X62230000Y-74805000D01*
X62611000Y-83185000D02*
X62611000Y-85889000D01*
X62611000Y-85889000D02*
X62000000Y-86500000D01*
X62000000Y-78750000D02*
X62103000Y-78853000D01*
X62230000Y-72370000D02*
X62230000Y-74805000D01*
X62103000Y-78853000D02*
X62103000Y-80518000D01*
X62611000Y-81026000D02*
X62611000Y-83185000D01*
X64770000Y-69830000D02*
X62230000Y-72370000D01*
X62103000Y-80518000D02*
X62611000Y-81026000D01*
X64770000Y-67185000D02*
X64770000Y-69830000D01*
X62000000Y-76900000D02*
X62230000Y-76670000D01*
X70104000Y-81788000D02*
X70104000Y-85471000D01*
X71120546Y-80771454D02*
X70104000Y-81788000D01*
X71133000Y-86500000D02*
X72160000Y-86500000D01*
X70104000Y-85471000D02*
X71133000Y-86500000D01*
X71120546Y-80682207D02*
X71120546Y-80771454D01*
X81374000Y-63159000D02*
X81374000Y-63032000D01*
X83693000Y-80518000D02*
X83693000Y-65478000D01*
X83693000Y-65478000D02*
X81374000Y-63159000D01*
X81374000Y-63032000D02*
X73874000Y-63032000D01*
X73874000Y-63032000D02*
X71374000Y-65532000D01*
X73787000Y-82169000D02*
X82042000Y-82169000D01*
X72771000Y-83185000D02*
X73787000Y-82169000D01*
X82042000Y-82169000D02*
X83693000Y-80518000D01*
X113792000Y-59817000D02*
X112075000Y-58100000D01*
X113792000Y-72136000D02*
X113792000Y-59817000D01*
X112075000Y-58100000D02*
X110340000Y-58100000D01*
X107338000Y-87122000D02*
X108060000Y-86400000D01*
X108060000Y-86400000D02*
X107960000Y-86300000D01*
X105273214Y-87017770D02*
X105377444Y-87122000D01*
X105377444Y-87122000D02*
X107338000Y-87122000D01*
X48874000Y-72750000D02*
X46670000Y-70546000D01*
X52600000Y-72750000D02*
X48874000Y-72750000D01*
X46670000Y-70546000D02*
X46670000Y-68750000D01*
X46670000Y-80076000D02*
X46670000Y-81750000D01*
X52600000Y-77750000D02*
X48996000Y-77750000D01*
X48996000Y-77750000D02*
X46670000Y-80076000D01*
X88265000Y-57404000D02*
X86671000Y-55810000D01*
X58281000Y-79781000D02*
X56830000Y-78330000D01*
X58281000Y-87237000D02*
X58281000Y-79781000D01*
X66270000Y-77730000D02*
X66270000Y-86315751D01*
X56830000Y-65750000D02*
X56830000Y-68750000D01*
X89392000Y-61452000D02*
X88265000Y-60325000D01*
X66270000Y-86315751D02*
X63050751Y-89535000D01*
X56830000Y-78330000D02*
X56830000Y-68750000D01*
X91720295Y-62274923D02*
X90897372Y-61452000D01*
X86671000Y-55810000D02*
X83945000Y-55810000D01*
X88265000Y-60325000D02*
X88265000Y-57404000D01*
X63050751Y-89535000D02*
X60579000Y-89535000D01*
X60579000Y-89535000D02*
X58281000Y-87237000D01*
X90897372Y-61452000D02*
X89392000Y-61452000D01*
X91720295Y-63065991D02*
X91720295Y-62274923D01*
X104140000Y-59182000D02*
X104140000Y-54710000D01*
X94250000Y-52100000D02*
X96750000Y-54600000D01*
X104140000Y-54710000D02*
X104250000Y-54600000D01*
X96750000Y-54600000D02*
X104250000Y-54600000D01*
X65548000Y-64500000D02*
X67691000Y-62357000D01*
X67691000Y-62357000D02*
X69549000Y-62357000D01*
X62250000Y-64500000D02*
X65548000Y-64500000D01*
X69549000Y-62357000D02*
X69549000Y-69612000D01*
X62230000Y-64520000D02*
X62250000Y-64500000D01*
X69549000Y-69612000D02*
X71374000Y-71437000D01*
X69549000Y-62357000D02*
X71374000Y-60532000D01*
X62230000Y-67185000D02*
X62230000Y-64520000D01*
X56830000Y-81750000D02*
X56830000Y-84750000D01*
X67540000Y-75035000D02*
X67310000Y-74805000D01*
X67540000Y-79000000D02*
X67540000Y-75035000D01*
X56830000Y-87530000D02*
X59978000Y-90678000D01*
X59978000Y-90678000D02*
X63373000Y-90678000D01*
X67540000Y-86511000D02*
X67540000Y-79000000D01*
X56830000Y-81750000D02*
X56830000Y-87530000D01*
X63373000Y-90678000D02*
X67540000Y-86511000D01*
X65575000Y-73025000D02*
X64770000Y-73830000D01*
X68761000Y-73841000D02*
X67945000Y-73025000D01*
X75184000Y-87016000D02*
X73808000Y-88392000D01*
X64770000Y-73830000D02*
X64770000Y-74805000D01*
X73808000Y-88392000D02*
X70692000Y-88392000D01*
X75183402Y-86767456D02*
X75184000Y-86768054D01*
X68761000Y-86461000D02*
X68761000Y-73841000D01*
X70692000Y-88392000D02*
X68761000Y-86461000D01*
X67945000Y-73025000D02*
X65575000Y-73025000D01*
X75184000Y-86768054D02*
X75184000Y-87016000D01*
X85343402Y-86740402D02*
X85343402Y-86767456D01*
X95113214Y-87131786D02*
X93853000Y-88392000D01*
X81915000Y-83312000D02*
X85343402Y-86740402D01*
X75197498Y-83660092D02*
X75197498Y-83631331D01*
X75197498Y-83631331D02*
X75516829Y-83312000D01*
X88265000Y-86741000D02*
X85369858Y-86741000D01*
X95113214Y-87017770D02*
X95113214Y-87131786D01*
X89916000Y-88392000D02*
X88265000Y-86741000D01*
X85369858Y-86741000D02*
X85343402Y-86767456D01*
X75183045Y-83674545D02*
X75197498Y-83660092D01*
X75516829Y-83312000D02*
X81915000Y-83312000D01*
X93853000Y-88392000D02*
X89916000Y-88392000D01*
X93317295Y-62456295D02*
X91312000Y-60451000D01*
X104250000Y-49600000D02*
X92695000Y-49600000D01*
X88265000Y-76581000D02*
X86233000Y-74549000D01*
X86233000Y-64389000D02*
X87556009Y-63065991D01*
X87556009Y-63065991D02*
X88672295Y-63065991D01*
X83945000Y-53270000D02*
X85668000Y-53270000D01*
X89789000Y-65659000D02*
X92075000Y-65659000D01*
X90169000Y-60451000D02*
X89662000Y-59944000D01*
X92695000Y-49600000D02*
X91565000Y-50730000D01*
X89662000Y-59944000D02*
X89662000Y-50730000D01*
X92075000Y-65659000D02*
X93317295Y-64416705D01*
X86233000Y-74549000D02*
X86233000Y-64389000D01*
X93317295Y-64416705D02*
X93317295Y-62456295D01*
X88208000Y-50730000D02*
X89662000Y-50730000D01*
X89662000Y-50730000D02*
X91565000Y-50730000D01*
X88672295Y-64542295D02*
X89789000Y-65659000D01*
X88672295Y-63065991D02*
X88672295Y-64542295D01*
X85668000Y-53270000D02*
X88208000Y-50730000D01*
X91312000Y-60451000D02*
X90169000Y-60451000D01*
X99187000Y-82804000D02*
X98933000Y-83058000D01*
X91694000Y-86741000D02*
X91694000Y-83058000D01*
X91694000Y-83058000D02*
X85598000Y-83058000D01*
X98933000Y-83058000D02*
X91694000Y-83058000D01*
X85348254Y-83636396D02*
X85343045Y-83641605D01*
X85598000Y-83058000D02*
X85348254Y-83307746D01*
X85348254Y-83307746D02*
X85348254Y-83636396D01*
X85343045Y-83641605D02*
X85343045Y-83674545D01*
X103124000Y-72136000D02*
X103632000Y-72136000D01*
X96462000Y-75242000D02*
X94768295Y-73548295D01*
X94768295Y-73548295D02*
X94768295Y-73225991D01*
X94768295Y-73225991D02*
X91720295Y-73225991D01*
X100203000Y-73291000D02*
X100203000Y-73903000D01*
X101969000Y-73291000D02*
X103124000Y-72136000D01*
X100203000Y-73291000D02*
X101969000Y-73291000D01*
X100203000Y-73903000D02*
X98864000Y-75242000D01*
X98864000Y-75242000D02*
X96462000Y-75242000D01*
X97162991Y-70250991D02*
X98933000Y-72021000D01*
X90123295Y-70250991D02*
X97162991Y-70250991D01*
X88672295Y-71701991D02*
X90123295Y-70250991D01*
X88672295Y-73225991D02*
X88672295Y-71701991D01*
X94768295Y-63065991D02*
X94768295Y-65558295D01*
X94768295Y-65558295D02*
X97155000Y-67945000D01*
X97155000Y-67945000D02*
X99568000Y-67945000D01*
X81280000Y-73970000D02*
X81313000Y-73937000D01*
X71247000Y-76437000D02*
X71374000Y-76437000D01*
X81374000Y-73937000D02*
X73874000Y-73937000D01*
X81280546Y-80682207D02*
X81280000Y-80681661D01*
X81280000Y-80681661D02*
X81280000Y-73970000D01*
X73874000Y-73937000D02*
X71374000Y-76437000D01*
X70739000Y-76945000D02*
X71247000Y-76437000D01*
X81313000Y-73937000D02*
X81374000Y-73937000D01*
G04 #@! TA.AperFunction,Conductor*
G36*
X89333922Y-47024298D02*
G01*
X89354564Y-47040932D01*
X90328181Y-48014548D01*
X90361666Y-48075871D01*
X90364500Y-48102229D01*
X90364500Y-48284486D01*
X90394059Y-48471118D01*
X90452454Y-48650836D01*
X90520343Y-48784075D01*
X90538240Y-48819199D01*
X90649310Y-48972073D01*
X90782927Y-49105690D01*
X90935801Y-49216760D01*
X90972675Y-49235548D01*
X91104163Y-49302545D01*
X91104165Y-49302545D01*
X91104168Y-49302547D01*
X91193734Y-49331649D01*
X91225803Y-49342069D01*
X91283478Y-49381507D01*
X91310676Y-49445866D01*
X91298761Y-49514712D01*
X91251516Y-49566188D01*
X91225803Y-49577931D01*
X91104163Y-49617454D01*
X90935800Y-49703240D01*
X90848579Y-49766610D01*
X90782927Y-49814310D01*
X90782925Y-49814312D01*
X90782924Y-49814312D01*
X90654056Y-49943181D01*
X90592733Y-49976666D01*
X90566375Y-49979500D01*
X88134080Y-49979500D01*
X87993320Y-50007500D01*
X87992456Y-50007671D01*
X87989088Y-50008341D01*
X87989082Y-50008343D01*
X87852511Y-50064912D01*
X87852498Y-50064919D01*
X87729584Y-50147048D01*
X87729580Y-50147051D01*
X85393451Y-52483181D01*
X85332128Y-52516666D01*
X85305770Y-52519500D01*
X84943625Y-52519500D01*
X84876586Y-52499815D01*
X84855944Y-52483181D01*
X84727075Y-52354312D01*
X84727073Y-52354310D01*
X84574199Y-52243240D01*
X84542146Y-52226908D01*
X84405836Y-52157454D01*
X84331472Y-52133291D01*
X84284195Y-52117930D01*
X84226521Y-52078493D01*
X84199323Y-52014134D01*
X84211238Y-51945288D01*
X84258482Y-51893812D01*
X84284194Y-51882069D01*
X84405832Y-51842547D01*
X84574199Y-51756760D01*
X84727073Y-51645690D01*
X84860690Y-51512073D01*
X84971760Y-51359199D01*
X85057547Y-51190832D01*
X85115940Y-51011118D01*
X85126171Y-50946520D01*
X85145500Y-50824486D01*
X85145500Y-50635513D01*
X85115940Y-50448881D01*
X85084894Y-50353334D01*
X85057547Y-50269168D01*
X85057545Y-50269165D01*
X85057545Y-50269163D01*
X84971759Y-50100800D01*
X84945690Y-50064919D01*
X84860690Y-49947927D01*
X84727073Y-49814310D01*
X84574199Y-49703240D01*
X84405836Y-49617454D01*
X84226118Y-49559059D01*
X84039486Y-49529500D01*
X84039481Y-49529500D01*
X83850519Y-49529500D01*
X83850516Y-49529500D01*
X83812475Y-49535524D01*
X83745628Y-49527611D01*
X83639026Y-49483455D01*
X83639020Y-49483453D01*
X83494033Y-49454613D01*
X83494031Y-49454613D01*
X81257896Y-49454613D01*
X81190857Y-49434928D01*
X81151164Y-49393734D01*
X81068083Y-49253251D01*
X81068076Y-49253242D01*
X80951870Y-49137036D01*
X80951862Y-49137030D01*
X80810396Y-49053368D01*
X80810393Y-49053367D01*
X80652573Y-49007515D01*
X80652567Y-49007514D01*
X80615701Y-49004613D01*
X80615694Y-49004613D01*
X79384306Y-49004613D01*
X79384298Y-49004613D01*
X79347432Y-49007514D01*
X79347426Y-49007515D01*
X79189606Y-49053367D01*
X79189603Y-49053368D01*
X79048137Y-49137030D01*
X79048129Y-49137036D01*
X78931923Y-49253242D01*
X78931917Y-49253250D01*
X78848255Y-49394716D01*
X78848254Y-49394719D01*
X78802402Y-49552539D01*
X78802401Y-49552545D01*
X78799500Y-49589411D01*
X78799500Y-50820814D01*
X78802401Y-50857680D01*
X78802402Y-50857686D01*
X78848254Y-51015506D01*
X78848255Y-51015509D01*
X78931917Y-51156975D01*
X78931923Y-51156983D01*
X79048129Y-51273189D01*
X79048133Y-51273192D01*
X79048135Y-51273194D01*
X79189602Y-51356857D01*
X79231224Y-51368949D01*
X79347426Y-51402710D01*
X79347429Y-51402710D01*
X79347431Y-51402711D01*
X79384306Y-51405613D01*
X79384314Y-51405613D01*
X80615686Y-51405613D01*
X80615694Y-51405613D01*
X80652569Y-51402711D01*
X80652571Y-51402710D01*
X80652573Y-51402710D01*
X80694191Y-51390618D01*
X80810398Y-51356857D01*
X80951865Y-51273194D01*
X81068081Y-51156978D01*
X81151164Y-51016492D01*
X81202233Y-50968809D01*
X81257896Y-50955613D01*
X82665934Y-50955613D01*
X82732973Y-50975298D01*
X82778728Y-51028102D01*
X82783864Y-51041291D01*
X82789535Y-51058745D01*
X82832454Y-51190836D01*
X82893167Y-51309990D01*
X82918240Y-51359199D01*
X83029310Y-51512073D01*
X83162927Y-51645690D01*
X83315801Y-51756760D01*
X83395347Y-51797290D01*
X83484163Y-51842545D01*
X83484165Y-51842545D01*
X83484168Y-51842547D01*
X83573734Y-51871649D01*
X83605803Y-51882069D01*
X83663478Y-51921507D01*
X83690676Y-51985866D01*
X83678761Y-52054712D01*
X83631516Y-52106188D01*
X83605803Y-52117931D01*
X83484163Y-52157454D01*
X83315800Y-52243240D01*
X83228579Y-52306610D01*
X83162927Y-52354310D01*
X83162925Y-52354312D01*
X83162924Y-52354312D01*
X83029312Y-52487924D01*
X83029312Y-52487925D01*
X83029310Y-52487927D01*
X83008430Y-52516666D01*
X82918240Y-52640800D01*
X82832454Y-52809163D01*
X82774059Y-52988881D01*
X82744500Y-53175513D01*
X82744500Y-53364486D01*
X82774059Y-53551118D01*
X82832454Y-53730836D01*
X82892917Y-53849500D01*
X82918240Y-53899199D01*
X83029310Y-54052073D01*
X83162927Y-54185690D01*
X83315801Y-54296760D01*
X83395347Y-54337290D01*
X83484163Y-54382545D01*
X83484165Y-54382545D01*
X83484168Y-54382547D01*
X83565825Y-54409079D01*
X83605803Y-54422069D01*
X83663478Y-54461507D01*
X83690676Y-54525866D01*
X83678761Y-54594712D01*
X83631516Y-54646188D01*
X83605803Y-54657931D01*
X83484163Y-54697454D01*
X83315800Y-54783240D01*
X83266758Y-54818872D01*
X83162927Y-54894310D01*
X83162925Y-54894312D01*
X83162924Y-54894312D01*
X83029312Y-55027924D01*
X83029312Y-55027925D01*
X83029310Y-55027927D01*
X83020673Y-55039815D01*
X82918240Y-55180800D01*
X82832454Y-55349163D01*
X82774059Y-55528881D01*
X82744500Y-55715513D01*
X82744500Y-55904486D01*
X82774059Y-56091118D01*
X82832454Y-56270836D01*
X82899244Y-56401918D01*
X82918240Y-56439199D01*
X83029310Y-56592073D01*
X83162927Y-56725690D01*
X83315801Y-56836760D01*
X83395347Y-56877290D01*
X83484163Y-56922545D01*
X83484165Y-56922545D01*
X83484168Y-56922547D01*
X83580497Y-56953846D01*
X83663881Y-56980940D01*
X83850514Y-57010500D01*
X83850519Y-57010500D01*
X84039486Y-57010500D01*
X84226118Y-56980940D01*
X84405832Y-56922547D01*
X84574199Y-56836760D01*
X84727073Y-56725690D01*
X84855944Y-56596819D01*
X84917267Y-56563334D01*
X84943625Y-56560500D01*
X86308770Y-56560500D01*
X86375809Y-56580185D01*
X86396451Y-56596819D01*
X87478181Y-57678548D01*
X87511666Y-57739871D01*
X87514500Y-57766229D01*
X87514500Y-60398918D01*
X87514500Y-60398920D01*
X87514499Y-60398920D01*
X87543340Y-60543907D01*
X87543343Y-60543917D01*
X87599913Y-60680490D01*
X87599915Y-60680493D01*
X87609274Y-60694501D01*
X87682049Y-60803418D01*
X87682052Y-60803421D01*
X88549300Y-61670667D01*
X88582785Y-61731990D01*
X88577801Y-61801681D01*
X88535930Y-61857615D01*
X88481018Y-61880821D01*
X88391175Y-61895051D01*
X88211458Y-61953445D01*
X88043095Y-62039231D01*
X87981652Y-62083873D01*
X87890222Y-62150301D01*
X87890220Y-62150303D01*
X87890219Y-62150303D01*
X87761351Y-62279172D01*
X87700028Y-62312657D01*
X87673670Y-62315491D01*
X87482089Y-62315491D01*
X87337101Y-62344331D01*
X87337091Y-62344334D01*
X87200520Y-62400903D01*
X87200507Y-62400910D01*
X87077593Y-62483039D01*
X87077589Y-62483042D01*
X85650048Y-63910583D01*
X85645591Y-63917254D01*
X85602544Y-63981681D01*
X85567914Y-64033507D01*
X85567913Y-64033509D01*
X85511343Y-64170082D01*
X85511340Y-64170092D01*
X85482500Y-64315079D01*
X85482500Y-64315082D01*
X85482500Y-74622918D01*
X85482500Y-74622920D01*
X85482499Y-74622920D01*
X85511340Y-74767907D01*
X85511342Y-74767913D01*
X85567916Y-74904495D01*
X85568342Y-74905132D01*
X85568356Y-74905178D01*
X85568368Y-74905171D01*
X85585196Y-74930357D01*
X85650051Y-75027420D01*
X85650052Y-75027421D01*
X86763719Y-76141087D01*
X86797204Y-76202410D01*
X86798511Y-76248166D01*
X86764500Y-76462902D01*
X86764500Y-76699097D01*
X86801446Y-76932368D01*
X86874433Y-77156996D01*
X86962359Y-77329558D01*
X86981657Y-77367433D01*
X87120483Y-77558510D01*
X87287490Y-77725517D01*
X87478567Y-77864343D01*
X87530802Y-77890958D01*
X87689003Y-77971566D01*
X87689005Y-77971566D01*
X87689008Y-77971568D01*
X87799595Y-78007500D01*
X87913631Y-78044553D01*
X88146903Y-78081500D01*
X88146908Y-78081500D01*
X88383097Y-78081500D01*
X88616368Y-78044553D01*
X88652712Y-78032744D01*
X88840992Y-77971568D01*
X89051433Y-77864343D01*
X89242510Y-77725517D01*
X89409517Y-77558510D01*
X89548343Y-77367433D01*
X89655568Y-77156992D01*
X89728553Y-76932368D01*
X89735436Y-76888913D01*
X89765500Y-76699097D01*
X89765500Y-76462902D01*
X89728553Y-76229631D01*
X89676439Y-76069242D01*
X89655568Y-76005008D01*
X89655566Y-76005005D01*
X89655566Y-76005003D01*
X89588911Y-75874186D01*
X89548343Y-75794567D01*
X89409517Y-75603490D01*
X89242510Y-75436483D01*
X89051433Y-75297657D01*
X89022412Y-75282870D01*
X88840996Y-75190433D01*
X88616368Y-75117446D01*
X88383097Y-75080500D01*
X88383092Y-75080500D01*
X88146908Y-75080500D01*
X88146903Y-75080500D01*
X87932166Y-75114511D01*
X87862872Y-75105556D01*
X87825087Y-75079719D01*
X87019819Y-74274451D01*
X86986334Y-74213128D01*
X86983500Y-74186770D01*
X86983500Y-73131504D01*
X87471795Y-73131504D01*
X87471795Y-73320477D01*
X87501354Y-73507109D01*
X87559749Y-73686827D01*
X87604931Y-73775500D01*
X87645535Y-73855190D01*
X87756605Y-74008064D01*
X87890222Y-74141681D01*
X88043096Y-74252751D01*
X88085685Y-74274451D01*
X88211458Y-74338536D01*
X88211460Y-74338536D01*
X88211463Y-74338538D01*
X88242917Y-74348758D01*
X88391176Y-74396931D01*
X88577809Y-74426491D01*
X88577814Y-74426491D01*
X88766781Y-74426491D01*
X88953413Y-74396931D01*
X88993161Y-74384016D01*
X89133127Y-74338538D01*
X89301494Y-74252751D01*
X89454368Y-74141681D01*
X89587985Y-74008064D01*
X89699055Y-73855190D01*
X89784842Y-73686823D01*
X89843235Y-73507109D01*
X89848850Y-73471658D01*
X89872795Y-73320477D01*
X89872795Y-73131504D01*
X89843235Y-72944872D01*
X89816141Y-72861488D01*
X89784842Y-72765159D01*
X89784840Y-72765156D01*
X89784840Y-72765154D01*
X89718477Y-72634910D01*
X89699055Y-72596792D01*
X89587985Y-72443918D01*
X89459113Y-72315046D01*
X89444406Y-72288112D01*
X89427818Y-72262300D01*
X89426926Y-72256099D01*
X89425629Y-72253723D01*
X89422795Y-72227365D01*
X89422795Y-72064221D01*
X89442480Y-71997182D01*
X89459114Y-71976540D01*
X90397844Y-71037810D01*
X90459167Y-71004325D01*
X90485525Y-71001491D01*
X96800761Y-71001491D01*
X96867800Y-71021176D01*
X96888442Y-71037810D01*
X97946181Y-72095549D01*
X97979666Y-72156872D01*
X97982500Y-72183230D01*
X97982500Y-72300594D01*
X97988685Y-72368657D01*
X97988686Y-72368662D01*
X97988687Y-72368664D01*
X98037485Y-72525263D01*
X98037488Y-72525272D01*
X98122348Y-72665648D01*
X98122351Y-72665652D01*
X98238347Y-72781648D01*
X98238351Y-72781651D01*
X98378727Y-72866511D01*
X98378730Y-72866512D01*
X98535343Y-72915315D01*
X98603406Y-72921500D01*
X98603409Y-72921500D01*
X99128500Y-72921500D01*
X99195539Y-72941185D01*
X99241294Y-72993989D01*
X99252500Y-73045500D01*
X99252500Y-73740770D01*
X99232815Y-73807809D01*
X99216181Y-73828451D01*
X98589451Y-74455181D01*
X98528128Y-74488666D01*
X98501770Y-74491500D01*
X96824229Y-74491500D01*
X96757190Y-74471815D01*
X96736548Y-74455181D01*
X95955994Y-73674626D01*
X95922509Y-73613303D01*
X95925743Y-73548630D01*
X95939235Y-73507109D01*
X95946690Y-73460036D01*
X95968795Y-73320477D01*
X95968795Y-73131504D01*
X95939235Y-72944872D01*
X95912141Y-72861488D01*
X95880842Y-72765159D01*
X95880840Y-72765156D01*
X95880840Y-72765154D01*
X95814477Y-72634910D01*
X95795055Y-72596792D01*
X95683985Y-72443918D01*
X95550368Y-72310301D01*
X95397494Y-72199231D01*
X95229131Y-72113445D01*
X95049413Y-72055050D01*
X94862781Y-72025491D01*
X94862776Y-72025491D01*
X94673814Y-72025491D01*
X94673809Y-72025491D01*
X94487176Y-72055050D01*
X94307458Y-72113445D01*
X94139095Y-72199231D01*
X94052289Y-72262300D01*
X93986222Y-72310301D01*
X93986220Y-72310303D01*
X93986219Y-72310303D01*
X93857351Y-72439172D01*
X93796028Y-72472657D01*
X93769670Y-72475491D01*
X92718920Y-72475491D01*
X92651881Y-72455806D01*
X92631239Y-72439172D01*
X92502370Y-72310303D01*
X92502368Y-72310301D01*
X92349494Y-72199231D01*
X92181131Y-72113445D01*
X92001413Y-72055050D01*
X91814781Y-72025491D01*
X91814776Y-72025491D01*
X91625814Y-72025491D01*
X91625809Y-72025491D01*
X91439176Y-72055050D01*
X91259458Y-72113445D01*
X91091095Y-72199231D01*
X91004289Y-72262300D01*
X90938222Y-72310301D01*
X90938220Y-72310303D01*
X90938219Y-72310303D01*
X90804607Y-72443915D01*
X90804607Y-72443916D01*
X90804605Y-72443918D01*
X90792838Y-72460114D01*
X90693535Y-72596791D01*
X90607749Y-72765154D01*
X90549354Y-72944872D01*
X90519795Y-73131504D01*
X90519795Y-73320477D01*
X90549354Y-73507109D01*
X90607749Y-73686827D01*
X90652931Y-73775500D01*
X90693535Y-73855190D01*
X90804605Y-74008064D01*
X90938222Y-74141681D01*
X91091096Y-74252751D01*
X91133685Y-74274451D01*
X91259458Y-74338536D01*
X91259460Y-74338536D01*
X91259463Y-74338538D01*
X91290917Y-74348758D01*
X91439176Y-74396931D01*
X91625809Y-74426491D01*
X91625814Y-74426491D01*
X91814781Y-74426491D01*
X92001413Y-74396931D01*
X92041161Y-74384016D01*
X92181127Y-74338538D01*
X92349494Y-74252751D01*
X92502368Y-74141681D01*
X92631239Y-74012810D01*
X92692562Y-73979325D01*
X92718920Y-73976491D01*
X93769670Y-73976491D01*
X93836709Y-73996176D01*
X93857351Y-74012810D01*
X93986222Y-74141681D01*
X94139096Y-74252751D01*
X94181685Y-74274451D01*
X94307458Y-74338536D01*
X94307460Y-74338536D01*
X94307463Y-74338538D01*
X94405200Y-74370295D01*
X94487170Y-74396929D01*
X94487171Y-74396929D01*
X94487177Y-74396931D01*
X94528639Y-74403497D01*
X94591771Y-74433425D01*
X94596921Y-74438289D01*
X95238352Y-75079719D01*
X95879049Y-75720416D01*
X95983584Y-75824951D01*
X95983587Y-75824953D01*
X95983588Y-75824954D01*
X96106503Y-75907083D01*
X96106506Y-75907085D01*
X96136479Y-75919500D01*
X96136480Y-75919500D01*
X96243088Y-75963659D01*
X96359241Y-75986763D01*
X96378468Y-75990587D01*
X96388081Y-75992500D01*
X96388082Y-75992500D01*
X98937920Y-75992500D01*
X99035462Y-75973096D01*
X99082913Y-75963658D01*
X99219495Y-75907084D01*
X99268729Y-75874186D01*
X99289195Y-75860512D01*
X99293071Y-75857921D01*
X99342416Y-75824952D01*
X100139549Y-75027819D01*
X100200872Y-74994334D01*
X100227230Y-74991500D01*
X100532591Y-74991500D01*
X100532594Y-74991500D01*
X100600657Y-74985315D01*
X100757270Y-74936512D01*
X100800945Y-74910110D01*
X100897648Y-74851651D01*
X100897647Y-74851651D01*
X100897653Y-74851648D01*
X101013648Y-74735653D01*
X101045560Y-74682864D01*
X101098511Y-74595272D01*
X101098514Y-74595263D01*
X101107902Y-74565137D01*
X101147315Y-74438657D01*
X101153500Y-74370594D01*
X101153500Y-74165500D01*
X101173185Y-74098461D01*
X101225989Y-74052706D01*
X101277500Y-74041500D01*
X102042920Y-74041500D01*
X102165084Y-74017199D01*
X102187913Y-74012658D01*
X102324495Y-73956084D01*
X102402759Y-73903790D01*
X102447416Y-73873952D01*
X103043207Y-73278158D01*
X103104530Y-73244674D01*
X103169207Y-73247909D01*
X103171163Y-73248544D01*
X103171168Y-73248547D01*
X103262304Y-73278159D01*
X103350881Y-73306940D01*
X103537514Y-73336500D01*
X103537519Y-73336500D01*
X103726486Y-73336500D01*
X103913118Y-73306940D01*
X103919664Y-73304813D01*
X104092832Y-73248547D01*
X104261199Y-73162760D01*
X104414073Y-73051690D01*
X104547690Y-72918073D01*
X104658760Y-72765199D01*
X104744547Y-72596832D01*
X104802940Y-72417118D01*
X104810614Y-72368664D01*
X104832500Y-72230486D01*
X104832500Y-72041513D01*
X104802940Y-71854881D01*
X104751716Y-71697233D01*
X104744547Y-71675168D01*
X104744545Y-71675165D01*
X104744545Y-71675163D01*
X104686172Y-71560600D01*
X104658760Y-71506801D01*
X104547690Y-71353927D01*
X104414073Y-71220310D01*
X104261199Y-71109240D01*
X104092836Y-71023454D01*
X103913118Y-70965059D01*
X103726486Y-70935500D01*
X103726481Y-70935500D01*
X103537519Y-70935500D01*
X103537514Y-70935500D01*
X103350881Y-70965059D01*
X103171163Y-71023454D01*
X103002800Y-71109240D01*
X102915579Y-71172610D01*
X102849927Y-71220310D01*
X102849925Y-71220312D01*
X102849924Y-71220312D01*
X102716312Y-71353924D01*
X102716312Y-71353925D01*
X102716310Y-71353927D01*
X102668610Y-71419579D01*
X102605240Y-71506800D01*
X102524202Y-71665847D01*
X102501398Y-71697233D01*
X101694451Y-72504181D01*
X101633128Y-72537666D01*
X101606770Y-72540500D01*
X100949008Y-72540500D01*
X100884859Y-72522617D01*
X100757272Y-72445488D01*
X100757263Y-72445485D01*
X100600664Y-72396687D01*
X100600662Y-72396686D01*
X100600657Y-72396685D01*
X100532594Y-72390500D01*
X100007500Y-72390500D01*
X99940461Y-72370815D01*
X99894706Y-72318011D01*
X99883500Y-72266500D01*
X99883500Y-70941408D01*
X99882963Y-70935500D01*
X99877315Y-70873343D01*
X99828512Y-70716730D01*
X99828511Y-70716727D01*
X99743651Y-70576351D01*
X99743648Y-70576347D01*
X99627652Y-70460351D01*
X99627648Y-70460348D01*
X99487272Y-70375488D01*
X99487263Y-70375485D01*
X99330664Y-70326687D01*
X99330662Y-70326686D01*
X99330657Y-70326685D01*
X99262594Y-70320500D01*
X98603406Y-70320500D01*
X98535343Y-70326685D01*
X98535339Y-70326686D01*
X98535335Y-70326687D01*
X98427519Y-70360284D01*
X98357659Y-70361436D01*
X98302948Y-70329580D01*
X97641412Y-69668043D01*
X97641411Y-69668042D01*
X97556172Y-69611088D01*
X97556171Y-69611087D01*
X97518491Y-69585910D01*
X97518479Y-69585903D01*
X97381908Y-69529334D01*
X97381898Y-69529331D01*
X97236911Y-69500491D01*
X97236909Y-69500491D01*
X90049377Y-69500491D01*
X90049375Y-69500491D01*
X89904387Y-69529331D01*
X89904377Y-69529334D01*
X89767806Y-69585903D01*
X89767794Y-69585910D01*
X89730115Y-69611087D01*
X89730114Y-69611088D01*
X89644874Y-69668042D01*
X89644873Y-69668043D01*
X88089342Y-71223575D01*
X88089338Y-71223580D01*
X88054781Y-71275301D01*
X88054781Y-71275302D01*
X88007208Y-71346499D01*
X87950638Y-71483073D01*
X87950635Y-71483083D01*
X87921795Y-71628070D01*
X87921795Y-72227365D01*
X87902110Y-72294404D01*
X87885477Y-72315046D01*
X87756604Y-72443919D01*
X87645535Y-72596791D01*
X87559749Y-72765154D01*
X87501354Y-72944872D01*
X87471795Y-73131504D01*
X86983500Y-73131504D01*
X86983500Y-64751229D01*
X87003185Y-64684190D01*
X87019819Y-64663548D01*
X87708273Y-63975094D01*
X87769596Y-63941609D01*
X87839288Y-63946593D01*
X87883635Y-63975094D01*
X87885476Y-63976935D01*
X87918961Y-64038258D01*
X87921795Y-64064616D01*
X87921795Y-64616213D01*
X87921795Y-64616215D01*
X87921794Y-64616215D01*
X87950635Y-64761202D01*
X87950638Y-64761212D01*
X88007208Y-64897785D01*
X88007209Y-64897786D01*
X88007211Y-64897790D01*
X88033639Y-64937342D01*
X88075227Y-64999585D01*
X88089346Y-65020715D01*
X88089347Y-65020716D01*
X89310580Y-66241948D01*
X89310584Y-66241951D01*
X89433498Y-66324080D01*
X89433511Y-66324087D01*
X89570082Y-66380656D01*
X89570087Y-66380658D01*
X89570091Y-66380658D01*
X89570092Y-66380659D01*
X89715079Y-66409500D01*
X89715082Y-66409500D01*
X92148920Y-66409500D01*
X92273618Y-66384695D01*
X92293913Y-66380658D01*
X92430495Y-66324084D01*
X92510100Y-66270894D01*
X92553416Y-66241952D01*
X93202445Y-65592921D01*
X93806114Y-64989254D01*
X93867437Y-64955769D01*
X93937129Y-64960753D01*
X93993062Y-65002625D01*
X94017479Y-65068089D01*
X94017795Y-65076935D01*
X94017795Y-65632213D01*
X94017795Y-65632215D01*
X94017794Y-65632215D01*
X94046635Y-65777202D01*
X94046638Y-65777212D01*
X94103208Y-65913785D01*
X94103213Y-65913794D01*
X94110282Y-65924373D01*
X94110284Y-65924375D01*
X94170208Y-66014060D01*
X94185346Y-66036715D01*
X94185347Y-66036716D01*
X96572049Y-68423416D01*
X96676584Y-68527951D01*
X96676587Y-68527953D01*
X96676588Y-68527954D01*
X96799503Y-68610083D01*
X96799506Y-68610085D01*
X96849665Y-68630861D01*
X96856080Y-68633518D01*
X96936088Y-68666659D01*
X97052241Y-68689763D01*
X97075380Y-68694365D01*
X97081081Y-68695500D01*
X97081082Y-68695500D01*
X97081083Y-68695500D01*
X97228918Y-68695500D01*
X98043501Y-68695500D01*
X98110540Y-68715185D01*
X98156295Y-68767989D01*
X98167501Y-68819500D01*
X98167501Y-68929018D01*
X98182354Y-69022804D01*
X98239950Y-69135842D01*
X98239952Y-69135844D01*
X98239954Y-69135847D01*
X98329652Y-69225545D01*
X98329654Y-69225546D01*
X98329658Y-69225550D01*
X98442694Y-69283145D01*
X98442698Y-69283147D01*
X98536475Y-69297999D01*
X98536481Y-69298000D01*
X100599518Y-69297999D01*
X100693304Y-69283146D01*
X100806342Y-69225550D01*
X100896050Y-69135842D01*
X100953646Y-69022804D01*
X100953646Y-69022802D01*
X100953647Y-69022801D01*
X100968499Y-68929024D01*
X100968500Y-68929019D01*
X100968499Y-66960982D01*
X100953646Y-66867196D01*
X100896050Y-66754158D01*
X100896046Y-66754154D01*
X100896045Y-66754152D01*
X100806347Y-66664454D01*
X100806344Y-66664452D01*
X100806342Y-66664450D01*
X100729517Y-66625305D01*
X100693301Y-66606852D01*
X100617518Y-66594850D01*
X100606140Y-66589456D01*
X100593581Y-66588558D01*
X100575168Y-66574774D01*
X100554383Y-66564921D01*
X100547726Y-66554231D01*
X100537648Y-66546686D01*
X100529610Y-66525135D01*
X100517452Y-66505609D01*
X100517631Y-66493018D01*
X100513232Y-66481222D01*
X100518121Y-66458745D01*
X100518450Y-66435747D01*
X100525762Y-66423620D01*
X100528084Y-66412949D01*
X100549235Y-66384697D01*
X100592114Y-66341818D01*
X100653437Y-66308333D01*
X100679794Y-66305500D01*
X101302638Y-66305500D01*
X101369677Y-66325185D01*
X101390319Y-66341819D01*
X101910055Y-66861555D01*
X101943540Y-66922878D01*
X101938556Y-66992570D01*
X101910056Y-67036917D01*
X101852482Y-67094490D01*
X101713657Y-67285566D01*
X101606433Y-67496003D01*
X101533446Y-67720631D01*
X101496500Y-67953902D01*
X101496500Y-68190097D01*
X101533446Y-68423368D01*
X101606433Y-68647996D01*
X101706513Y-68844412D01*
X101713657Y-68858433D01*
X101852483Y-69049510D01*
X102019490Y-69216517D01*
X102210567Y-69355343D01*
X102309991Y-69406002D01*
X102421003Y-69462566D01*
X102421005Y-69462566D01*
X102421008Y-69462568D01*
X102537723Y-69500491D01*
X102645631Y-69535553D01*
X102878903Y-69572500D01*
X102878908Y-69572500D01*
X103115097Y-69572500D01*
X103348368Y-69535553D01*
X103398906Y-69519132D01*
X103572992Y-69462568D01*
X103783433Y-69355343D01*
X103974510Y-69216517D01*
X104141517Y-69049510D01*
X104160332Y-69023613D01*
X104215661Y-68980949D01*
X104260649Y-68972500D01*
X107038453Y-68972500D01*
X107105492Y-68992185D01*
X107145839Y-69034499D01*
X107208088Y-69142317D01*
X107372137Y-69356109D01*
X107379704Y-69365970D01*
X107579029Y-69565295D01*
X107579033Y-69565298D01*
X107579035Y-69565300D01*
X107802683Y-69736912D01*
X107802690Y-69736916D01*
X108046809Y-69877859D01*
X108046814Y-69877861D01*
X108046817Y-69877863D01*
X108112745Y-69905171D01*
X108297169Y-69981562D01*
X108307261Y-69985742D01*
X108579558Y-70058704D01*
X108812043Y-70089311D01*
X108820432Y-70090416D01*
X108859049Y-70095500D01*
X108859056Y-70095500D01*
X109140944Y-70095500D01*
X109140951Y-70095500D01*
X109420442Y-70058704D01*
X109692739Y-69985742D01*
X109953183Y-69877863D01*
X110197317Y-69736912D01*
X110420965Y-69565300D01*
X110425447Y-69560818D01*
X110438819Y-69547447D01*
X110500142Y-69513962D01*
X110569834Y-69518946D01*
X110625767Y-69560818D01*
X110650184Y-69626282D01*
X110650500Y-69635128D01*
X110650500Y-73102447D01*
X110650499Y-73102454D01*
X110650499Y-73131504D01*
X110650499Y-73158087D01*
X110630813Y-73225126D01*
X110630810Y-73225127D01*
X110614180Y-73245766D01*
X109511187Y-74348758D01*
X109449864Y-74382243D01*
X109407321Y-74384016D01*
X109129961Y-74347501D01*
X109129956Y-74347500D01*
X109129951Y-74347500D01*
X108848049Y-74347500D01*
X108848041Y-74347500D01*
X108568560Y-74384295D01*
X108296256Y-74457259D01*
X108035820Y-74565135D01*
X108035809Y-74565140D01*
X107791690Y-74706083D01*
X107791684Y-74706087D01*
X107791683Y-74706088D01*
X107778609Y-74716120D01*
X107568029Y-74877704D01*
X107368704Y-75077029D01*
X107281687Y-75190432D01*
X107210757Y-75282870D01*
X107197089Y-75300682D01*
X107197083Y-75300690D01*
X107056140Y-75544809D01*
X107056132Y-75544825D01*
X107031642Y-75603952D01*
X106987801Y-75658356D01*
X106921507Y-75680421D01*
X106917081Y-75680500D01*
X104602827Y-75680500D01*
X104535788Y-75660815D01*
X104490033Y-75608011D01*
X104483754Y-75591108D01*
X104448744Y-75470601D01*
X104365081Y-75329135D01*
X104365079Y-75329133D01*
X104365076Y-75329129D01*
X104248870Y-75212923D01*
X104248861Y-75212916D01*
X104107397Y-75129255D01*
X104107394Y-75129254D01*
X103949574Y-75083402D01*
X103949568Y-75083401D01*
X103912695Y-75080500D01*
X102081317Y-75080500D01*
X102081292Y-75080501D01*
X102044429Y-75083402D01*
X101886605Y-75129254D01*
X101886602Y-75129255D01*
X101745138Y-75212916D01*
X101745129Y-75212923D01*
X101628923Y-75329129D01*
X101628916Y-75329138D01*
X101545255Y-75470602D01*
X101545254Y-75470605D01*
X101499402Y-75628425D01*
X101499401Y-75628431D01*
X101496500Y-75665297D01*
X101496500Y-77496682D01*
X101496501Y-77496707D01*
X101499402Y-77533570D01*
X101545254Y-77691394D01*
X101545255Y-77691397D01*
X101545256Y-77691399D01*
X101547573Y-77695317D01*
X101628916Y-77832861D01*
X101628923Y-77832870D01*
X101745129Y-77949076D01*
X101745133Y-77949079D01*
X101745135Y-77949081D01*
X101886601Y-78032744D01*
X101927247Y-78044553D01*
X102044425Y-78078597D01*
X102044428Y-78078597D01*
X102044430Y-78078598D01*
X102081305Y-78081500D01*
X103912694Y-78081499D01*
X103949570Y-78078598D01*
X104107399Y-78032744D01*
X104248865Y-77949081D01*
X104365081Y-77832865D01*
X104448744Y-77691399D01*
X104448745Y-77691395D01*
X104448746Y-77691394D01*
X104483752Y-77570905D01*
X104521358Y-77512019D01*
X104584831Y-77482813D01*
X104602828Y-77481500D01*
X107002050Y-77481500D01*
X107069089Y-77501185D01*
X107109436Y-77543499D01*
X107197088Y-77695317D01*
X107347209Y-77890958D01*
X107368704Y-77918970D01*
X107568029Y-78118295D01*
X107568033Y-78118298D01*
X107568035Y-78118300D01*
X107791683Y-78289912D01*
X107791690Y-78289916D01*
X108035809Y-78430859D01*
X108035814Y-78430861D01*
X108035817Y-78430863D01*
X108296261Y-78538742D01*
X108568558Y-78611704D01*
X108848049Y-78648500D01*
X108848056Y-78648500D01*
X109129944Y-78648500D01*
X109129951Y-78648500D01*
X109409442Y-78611704D01*
X109681739Y-78538742D01*
X109942183Y-78430863D01*
X110186317Y-78289912D01*
X110409965Y-78118300D01*
X110609300Y-77918965D01*
X110780912Y-77695317D01*
X110921863Y-77451183D01*
X111029742Y-77190739D01*
X111102704Y-76918442D01*
X111139500Y-76638951D01*
X111139500Y-76357049D01*
X111102982Y-76079674D01*
X111113747Y-76010643D01*
X111138237Y-75975814D01*
X111959818Y-75154232D01*
X112021141Y-75120748D01*
X112090833Y-75125732D01*
X112135180Y-75154233D01*
X112732181Y-75751234D01*
X112765666Y-75812557D01*
X112768500Y-75838915D01*
X112768500Y-85832085D01*
X112748815Y-85899124D01*
X112732181Y-85919766D01*
X107759766Y-90892181D01*
X107698443Y-90925666D01*
X107672085Y-90928500D01*
X64483230Y-90928500D01*
X64416191Y-90908815D01*
X64370436Y-90856011D01*
X64360492Y-90786853D01*
X64389517Y-90723297D01*
X64395549Y-90716819D01*
X68087819Y-87024549D01*
X68149142Y-86991064D01*
X68218834Y-86996048D01*
X68263181Y-87024549D01*
X70213580Y-88974948D01*
X70213584Y-88974951D01*
X70336498Y-89057080D01*
X70336511Y-89057087D01*
X70473082Y-89113656D01*
X70473087Y-89113658D01*
X70473091Y-89113658D01*
X70473092Y-89113659D01*
X70618079Y-89142500D01*
X70618082Y-89142500D01*
X73881920Y-89142500D01*
X73979462Y-89123096D01*
X74026913Y-89113658D01*
X74163495Y-89057084D01*
X74212729Y-89024186D01*
X74286416Y-88974952D01*
X74958568Y-88302798D01*
X75019889Y-88269315D01*
X75060412Y-88268161D01*
X75060459Y-88267574D01*
X75065310Y-88267956D01*
X75301499Y-88267956D01*
X75534770Y-88231009D01*
X75573976Y-88218270D01*
X75759394Y-88158024D01*
X75969835Y-88050799D01*
X76160912Y-87911973D01*
X76327919Y-87744966D01*
X76466745Y-87553889D01*
X76573970Y-87343448D01*
X76646955Y-87118824D01*
X76668687Y-86981613D01*
X76683902Y-86885553D01*
X76683902Y-86649358D01*
X76646955Y-86416087D01*
X76602790Y-86280163D01*
X76573970Y-86191464D01*
X76573968Y-86191461D01*
X76573968Y-86191459D01*
X76497408Y-86041202D01*
X76466745Y-85981023D01*
X76327919Y-85789946D01*
X76160912Y-85622939D01*
X75969835Y-85484113D01*
X75759398Y-85376889D01*
X75534770Y-85303902D01*
X75301499Y-85266956D01*
X75301494Y-85266956D01*
X75065310Y-85266956D01*
X75065305Y-85266956D01*
X74832033Y-85303902D01*
X74607405Y-85376889D01*
X74396968Y-85484113D01*
X74309822Y-85547429D01*
X74205892Y-85622939D01*
X74205890Y-85622941D01*
X74205889Y-85622941D01*
X74038887Y-85789943D01*
X74038887Y-85789944D01*
X74038885Y-85789946D01*
X74009744Y-85830055D01*
X73900059Y-85981022D01*
X73894983Y-85990985D01*
X73847008Y-86041780D01*
X73779187Y-86058574D01*
X73713052Y-86036036D01*
X73669601Y-85981320D01*
X73660499Y-85934688D01*
X73660499Y-85584317D01*
X73660498Y-85584292D01*
X73660210Y-85580638D01*
X73657598Y-85547430D01*
X73611744Y-85389601D01*
X73528081Y-85248135D01*
X73528079Y-85248133D01*
X73528076Y-85248129D01*
X73411870Y-85131923D01*
X73411861Y-85131916D01*
X73270397Y-85048255D01*
X73270394Y-85048254D01*
X73112574Y-85002402D01*
X73112568Y-85002401D01*
X73075695Y-84999500D01*
X71244317Y-84999500D01*
X71244292Y-84999501D01*
X71207429Y-85002402D01*
X71049605Y-85048254D01*
X71049602Y-85048255D01*
X71041618Y-85052977D01*
X70973893Y-85070157D01*
X70907632Y-85047996D01*
X70863870Y-84993529D01*
X70854500Y-84946243D01*
X70854500Y-82150229D01*
X70863144Y-82120788D01*
X70869668Y-82090802D01*
X70873422Y-82085786D01*
X70874185Y-82083190D01*
X70890814Y-82062553D01*
X71034343Y-81919023D01*
X71095665Y-81885541D01*
X71122023Y-81882707D01*
X71215032Y-81882707D01*
X71401664Y-81853147D01*
X71581378Y-81794754D01*
X71749745Y-81708967D01*
X71902619Y-81597897D01*
X72036236Y-81464280D01*
X72147306Y-81311406D01*
X72233093Y-81143039D01*
X72291486Y-80963325D01*
X72301425Y-80900573D01*
X72321046Y-80776693D01*
X72321046Y-80587720D01*
X72291486Y-80401088D01*
X72233091Y-80221370D01*
X72159545Y-80077029D01*
X72147306Y-80053008D01*
X72036236Y-79900134D01*
X71902619Y-79766517D01*
X71749745Y-79655447D01*
X71749743Y-79655446D01*
X71581382Y-79569661D01*
X71401664Y-79511266D01*
X71215032Y-79481707D01*
X71215027Y-79481707D01*
X71026065Y-79481707D01*
X71026060Y-79481707D01*
X70839427Y-79511266D01*
X70659709Y-79569661D01*
X70491346Y-79655447D01*
X70420282Y-79707079D01*
X70338473Y-79766517D01*
X70338471Y-79766519D01*
X70338470Y-79766519D01*
X70204858Y-79900131D01*
X70204858Y-79900132D01*
X70204856Y-79900134D01*
X70170682Y-79947170D01*
X70093786Y-80053007D01*
X70008000Y-80221370D01*
X69949605Y-80401088D01*
X69920046Y-80587720D01*
X69920046Y-80776692D01*
X69928469Y-80829874D01*
X69919514Y-80899168D01*
X69893677Y-80936953D01*
X69723181Y-81107450D01*
X69661858Y-81140935D01*
X69592167Y-81135951D01*
X69536233Y-81094080D01*
X69511816Y-81028615D01*
X69511500Y-81019769D01*
X69511500Y-73767079D01*
X69482659Y-73622092D01*
X69482658Y-73622091D01*
X69482658Y-73622087D01*
X69452229Y-73548625D01*
X69426087Y-73485511D01*
X69426080Y-73485498D01*
X69343952Y-73362585D01*
X69294161Y-73312794D01*
X69239416Y-73258049D01*
X69079407Y-73098040D01*
X68423421Y-72442052D01*
X68423420Y-72442051D01*
X68419111Y-72439172D01*
X68325307Y-72376495D01*
X68300495Y-72359916D01*
X68300493Y-72359915D01*
X68300490Y-72359913D01*
X68163917Y-72303343D01*
X68163907Y-72303340D01*
X68018920Y-72274500D01*
X68018918Y-72274500D01*
X65501082Y-72274500D01*
X65501080Y-72274500D01*
X65356092Y-72303340D01*
X65356082Y-72303343D01*
X65219509Y-72359913D01*
X65194693Y-72376495D01*
X65096579Y-72442051D01*
X65096578Y-72442052D01*
X64187047Y-73351584D01*
X64187044Y-73351588D01*
X64171554Y-73374772D01*
X64167731Y-73380495D01*
X64136215Y-73427661D01*
X64104914Y-73474507D01*
X64048343Y-73611082D01*
X64048340Y-73611092D01*
X64019500Y-73756079D01*
X64019500Y-73806374D01*
X63999815Y-73873413D01*
X63983182Y-73894055D01*
X63854309Y-74022928D01*
X63743240Y-74175800D01*
X63657454Y-74344163D01*
X63617931Y-74465803D01*
X63578493Y-74523478D01*
X63514134Y-74550676D01*
X63445288Y-74538761D01*
X63393812Y-74491516D01*
X63382069Y-74465803D01*
X63343630Y-74347501D01*
X63342547Y-74344168D01*
X63342545Y-74344165D01*
X63342545Y-74344163D01*
X63256759Y-74175800D01*
X63231968Y-74141678D01*
X63145690Y-74022927D01*
X63016818Y-73894055D01*
X62983334Y-73832732D01*
X62980500Y-73806374D01*
X62980500Y-72732229D01*
X63000185Y-72665190D01*
X63016819Y-72644548D01*
X65352948Y-70308419D01*
X65352951Y-70308416D01*
X65435084Y-70185495D01*
X65491658Y-70048913D01*
X65505055Y-69981562D01*
X65520500Y-69903920D01*
X65520500Y-68183625D01*
X65540185Y-68116586D01*
X65556819Y-68095944D01*
X65685690Y-67967073D01*
X65796760Y-67814199D01*
X65882547Y-67645832D01*
X65922069Y-67524195D01*
X65961507Y-67466521D01*
X66025866Y-67439323D01*
X66094712Y-67451238D01*
X66146188Y-67498482D01*
X66157931Y-67524196D01*
X66197454Y-67645836D01*
X66279990Y-67807821D01*
X66283240Y-67814199D01*
X66394310Y-67967073D01*
X66527927Y-68100690D01*
X66680801Y-68211760D01*
X66696410Y-68219713D01*
X66849163Y-68297545D01*
X66849165Y-68297545D01*
X66849168Y-68297547D01*
X66945497Y-68328846D01*
X67028881Y-68355940D01*
X67215514Y-68385500D01*
X67215519Y-68385500D01*
X67404486Y-68385500D01*
X67591118Y-68355940D01*
X67770832Y-68297547D01*
X67939199Y-68211760D01*
X68092073Y-68100690D01*
X68225690Y-67967073D01*
X68336760Y-67814199D01*
X68422547Y-67645832D01*
X68480940Y-67466118D01*
X68485184Y-67439323D01*
X68510500Y-67279486D01*
X68510500Y-67090513D01*
X68480940Y-66903881D01*
X68432289Y-66754152D01*
X68422547Y-66724168D01*
X68422545Y-66724165D01*
X68422545Y-66724163D01*
X68356656Y-66594850D01*
X68336760Y-66555801D01*
X68225690Y-66402927D01*
X68096818Y-66274055D01*
X68082111Y-66247121D01*
X68065523Y-66221309D01*
X68064631Y-66215108D01*
X68063334Y-66212732D01*
X68060500Y-66186374D01*
X68060500Y-66073076D01*
X68080185Y-66006037D01*
X68132989Y-65960282D01*
X68165095Y-65950604D01*
X68226118Y-65940940D01*
X68405832Y-65882547D01*
X68574199Y-65796760D01*
X68601614Y-65776841D01*
X68667419Y-65753361D01*
X68735473Y-65769185D01*
X68784169Y-65819290D01*
X68798500Y-65877159D01*
X68798500Y-69685918D01*
X68798500Y-69685920D01*
X68798499Y-69685920D01*
X68827340Y-69830907D01*
X68827343Y-69830917D01*
X68883914Y-69967492D01*
X68916812Y-70016727D01*
X68916813Y-70016730D01*
X68966046Y-70090414D01*
X68966052Y-70090421D01*
X69813625Y-70937993D01*
X69847110Y-70999316D01*
X69843878Y-71063983D01*
X69842171Y-71069236D01*
X69803500Y-71313399D01*
X69803500Y-71560600D01*
X69840911Y-71796809D01*
X69842171Y-71804760D01*
X69918561Y-72039863D01*
X70030788Y-72260121D01*
X70176090Y-72460112D01*
X70350888Y-72634910D01*
X70550879Y-72780212D01*
X70771137Y-72892439D01*
X71006240Y-72968829D01*
X71250399Y-73007500D01*
X71250400Y-73007500D01*
X71497600Y-73007500D01*
X71497601Y-73007500D01*
X71741760Y-72968829D01*
X71976863Y-72892439D01*
X72197121Y-72780212D01*
X72397112Y-72634910D01*
X72571910Y-72460112D01*
X72717212Y-72260121D01*
X72829439Y-72039863D01*
X72905829Y-71804760D01*
X72944500Y-71560601D01*
X72944500Y-71313399D01*
X72905829Y-71069240D01*
X72829439Y-70834137D01*
X72717212Y-70613879D01*
X72571910Y-70413888D01*
X72397112Y-70239090D01*
X72197121Y-70093788D01*
X71976863Y-69981561D01*
X71741760Y-69905171D01*
X71741758Y-69905170D01*
X71741757Y-69905170D01*
X71554199Y-69875464D01*
X71497601Y-69866500D01*
X71250399Y-69866500D01*
X71201567Y-69874234D01*
X71006236Y-69905171D01*
X71000983Y-69906878D01*
X70931142Y-69908868D01*
X70874993Y-69876625D01*
X70335819Y-69337451D01*
X70302334Y-69276128D01*
X70299500Y-69249770D01*
X70299500Y-68219713D01*
X75023500Y-68219713D01*
X75023500Y-68432286D01*
X75051660Y-68610085D01*
X75056754Y-68642243D01*
X75080454Y-68715185D01*
X75122444Y-68844414D01*
X75218951Y-69033820D01*
X75343890Y-69205786D01*
X75494213Y-69356109D01*
X75666179Y-69481048D01*
X75666181Y-69481049D01*
X75666184Y-69481051D01*
X75855588Y-69577557D01*
X76057757Y-69643246D01*
X76267713Y-69676500D01*
X76267714Y-69676500D01*
X76480286Y-69676500D01*
X76480287Y-69676500D01*
X76690243Y-69643246D01*
X76892412Y-69577557D01*
X77081816Y-69481051D01*
X77107259Y-69462566D01*
X77253786Y-69356109D01*
X77253788Y-69356106D01*
X77253792Y-69356104D01*
X77404104Y-69205792D01*
X77404106Y-69205788D01*
X77404109Y-69205786D01*
X77529048Y-69033820D01*
X77529047Y-69033820D01*
X77529051Y-69033816D01*
X77625557Y-68844412D01*
X77691246Y-68642243D01*
X77724500Y-68432287D01*
X77724500Y-68219713D01*
X77691246Y-68009757D01*
X77625557Y-67807588D01*
X77529051Y-67618184D01*
X77529049Y-67618181D01*
X77529048Y-67618179D01*
X77404109Y-67446213D01*
X77253786Y-67295890D01*
X77081820Y-67170951D01*
X76892414Y-67074444D01*
X76892413Y-67074443D01*
X76892412Y-67074443D01*
X76690243Y-67008754D01*
X76690241Y-67008753D01*
X76690240Y-67008753D01*
X76528957Y-66983208D01*
X76480287Y-66975500D01*
X76267713Y-66975500D01*
X76219042Y-66983208D01*
X76057760Y-67008753D01*
X75855585Y-67074444D01*
X75666179Y-67170951D01*
X75494213Y-67295890D01*
X75343890Y-67446213D01*
X75218951Y-67618179D01*
X75122444Y-67807585D01*
X75056753Y-68009760D01*
X75023500Y-68219713D01*
X70299500Y-68219713D01*
X70299500Y-66935938D01*
X70319185Y-66868899D01*
X70371989Y-66823144D01*
X70441147Y-66813200D01*
X70496384Y-66835619D01*
X70550879Y-66875212D01*
X70771137Y-66987439D01*
X71006240Y-67063829D01*
X71250399Y-67102500D01*
X71250400Y-67102500D01*
X71497600Y-67102500D01*
X71497601Y-67102500D01*
X71741760Y-67063829D01*
X71976863Y-66987439D01*
X72197121Y-66875212D01*
X72397112Y-66729910D01*
X72571910Y-66555112D01*
X72717212Y-66355121D01*
X72829439Y-66134863D01*
X72905829Y-65899760D01*
X72944500Y-65655601D01*
X72944500Y-65408399D01*
X72905829Y-65164240D01*
X72904124Y-65158995D01*
X72902126Y-65089156D01*
X72934371Y-65032995D01*
X74148549Y-63818819D01*
X74209872Y-63785334D01*
X74236230Y-63782500D01*
X79917798Y-63782500D01*
X79984837Y-63802185D01*
X80028281Y-63850202D01*
X80030786Y-63855118D01*
X80030788Y-63855121D01*
X80176090Y-64055112D01*
X80350888Y-64229910D01*
X80550879Y-64375212D01*
X80771137Y-64487439D01*
X81006240Y-64563829D01*
X81250399Y-64602500D01*
X81250400Y-64602500D01*
X81497599Y-64602500D01*
X81497601Y-64602500D01*
X81658381Y-64577034D01*
X81727672Y-64585988D01*
X81765458Y-64611826D01*
X82906181Y-65752548D01*
X82939666Y-65813871D01*
X82942500Y-65840229D01*
X82942500Y-73042328D01*
X82922815Y-73109367D01*
X82870011Y-73155122D01*
X82800853Y-73165066D01*
X82737297Y-73136041D01*
X82718182Y-73115214D01*
X82672029Y-73051690D01*
X82571910Y-72913888D01*
X82397112Y-72739090D01*
X82197121Y-72593788D01*
X81976863Y-72481561D01*
X81741760Y-72405171D01*
X81741758Y-72405170D01*
X81741757Y-72405170D01*
X81554199Y-72375464D01*
X81497601Y-72366500D01*
X81250399Y-72366500D01*
X81193800Y-72375464D01*
X81006243Y-72405170D01*
X81006240Y-72405171D01*
X80789819Y-72475491D01*
X80771134Y-72481562D01*
X80550878Y-72593788D01*
X80350885Y-72739092D01*
X80176092Y-72913885D01*
X80030786Y-73113881D01*
X80028281Y-73118798D01*
X79980305Y-73169593D01*
X79917798Y-73186500D01*
X73800080Y-73186500D01*
X73655092Y-73215340D01*
X73655086Y-73215342D01*
X73518508Y-73271914D01*
X73518496Y-73271921D01*
X73469269Y-73304813D01*
X73395588Y-73354044D01*
X73395580Y-73354050D01*
X71873005Y-74876625D01*
X71811682Y-74910110D01*
X71747015Y-74906878D01*
X71741760Y-74905171D01*
X71741757Y-74905170D01*
X71515677Y-74869363D01*
X71497601Y-74866500D01*
X71250399Y-74866500D01*
X71232323Y-74869363D01*
X71006243Y-74905170D01*
X70771134Y-74981562D01*
X70550878Y-75093788D01*
X70350885Y-75239092D01*
X70176092Y-75413885D01*
X70030788Y-75613878D01*
X69918562Y-75834134D01*
X69842170Y-76069243D01*
X69803500Y-76313399D01*
X69803500Y-76560600D01*
X69840911Y-76796809D01*
X69842171Y-76804760D01*
X69918561Y-77039863D01*
X70030788Y-77260121D01*
X70176090Y-77460112D01*
X70350888Y-77634910D01*
X70550879Y-77780212D01*
X70771137Y-77892439D01*
X71006240Y-77968829D01*
X71250399Y-78007500D01*
X71250400Y-78007500D01*
X71497600Y-78007500D01*
X71497601Y-78007500D01*
X71741760Y-77968829D01*
X71976863Y-77892439D01*
X72197121Y-77780212D01*
X72397112Y-77634910D01*
X72571910Y-77460112D01*
X72717212Y-77260121D01*
X72829439Y-77039863D01*
X72905829Y-76804760D01*
X72944500Y-76560601D01*
X72944500Y-76313399D01*
X72905829Y-76069240D01*
X72904124Y-76063995D01*
X72902126Y-75994156D01*
X72934371Y-75937995D01*
X74148549Y-74723819D01*
X74209872Y-74690334D01*
X74236230Y-74687500D01*
X79917798Y-74687500D01*
X79984837Y-74707185D01*
X80028281Y-74755202D01*
X80030786Y-74760118D01*
X80030788Y-74760121D01*
X80176090Y-74960112D01*
X80350888Y-75134910D01*
X80478386Y-75227542D01*
X80521051Y-75282870D01*
X80529500Y-75327859D01*
X80529500Y-79684128D01*
X80509815Y-79751167D01*
X80493181Y-79771809D01*
X80364858Y-79900131D01*
X80364858Y-79900132D01*
X80364856Y-79900134D01*
X80330682Y-79947170D01*
X80253786Y-80053007D01*
X80168000Y-80221370D01*
X80109605Y-80401088D01*
X80080046Y-80587720D01*
X80080046Y-80776693D01*
X80109605Y-80963325D01*
X80168000Y-81143043D01*
X80216488Y-81238205D01*
X80229384Y-81306875D01*
X80203107Y-81371615D01*
X80146001Y-81411872D01*
X80106003Y-81418500D01*
X73713080Y-81418500D01*
X73568092Y-81447340D01*
X73568082Y-81447343D01*
X73431509Y-81503913D01*
X73390841Y-81531087D01*
X73390840Y-81531087D01*
X73308589Y-81586043D01*
X73308583Y-81586047D01*
X73210910Y-81683720D01*
X73149587Y-81717204D01*
X73103832Y-81718511D01*
X72889097Y-81684500D01*
X72889092Y-81684500D01*
X72652908Y-81684500D01*
X72652903Y-81684500D01*
X72419631Y-81721446D01*
X72195003Y-81794433D01*
X71984566Y-81901657D01*
X71941241Y-81933135D01*
X71793490Y-82040483D01*
X71793488Y-82040485D01*
X71793487Y-82040485D01*
X71626485Y-82207487D01*
X71626485Y-82207488D01*
X71626483Y-82207490D01*
X71581572Y-82269305D01*
X71487657Y-82398566D01*
X71380433Y-82609003D01*
X71307446Y-82833631D01*
X71270500Y-83066902D01*
X71270500Y-83303097D01*
X71307446Y-83536368D01*
X71380433Y-83760996D01*
X71479622Y-83955663D01*
X71487657Y-83971433D01*
X71626483Y-84162510D01*
X71793490Y-84329517D01*
X71984567Y-84468343D01*
X72044221Y-84498738D01*
X72195003Y-84575566D01*
X72195005Y-84575566D01*
X72195008Y-84575568D01*
X72315412Y-84614689D01*
X72419631Y-84648553D01*
X72652903Y-84685500D01*
X72652908Y-84685500D01*
X72889097Y-84685500D01*
X73122368Y-84648553D01*
X73158712Y-84636744D01*
X73346992Y-84575568D01*
X73557433Y-84468343D01*
X73748510Y-84329517D01*
X73906664Y-84171362D01*
X73967984Y-84137880D01*
X74037675Y-84142864D01*
X74093609Y-84184735D01*
X74104825Y-84202747D01*
X74156285Y-84303744D01*
X74267355Y-84456618D01*
X74400972Y-84590235D01*
X74553846Y-84701305D01*
X74582267Y-84715786D01*
X74722208Y-84787090D01*
X74722210Y-84787090D01*
X74722213Y-84787092D01*
X74818542Y-84818391D01*
X74901926Y-84845485D01*
X75088559Y-84875045D01*
X75088564Y-84875045D01*
X75277531Y-84875045D01*
X75464163Y-84845485D01*
X75514824Y-84829024D01*
X75643877Y-84787092D01*
X75812244Y-84701305D01*
X75965118Y-84590235D01*
X76098735Y-84456618D01*
X76209805Y-84303744D01*
X76295592Y-84135377D01*
X76295591Y-84135377D01*
X76297804Y-84131036D01*
X76299740Y-84132022D01*
X76337891Y-84084659D01*
X76404180Y-84062580D01*
X76408633Y-84062500D01*
X81552770Y-84062500D01*
X81619809Y-84082185D01*
X81640451Y-84098819D01*
X83806583Y-86264950D01*
X83840068Y-86326273D01*
X83842902Y-86352631D01*
X83842902Y-87683138D01*
X83842903Y-87683163D01*
X83845804Y-87720026D01*
X83891656Y-87877850D01*
X83891657Y-87877853D01*
X83891658Y-87877855D01*
X83909970Y-87908819D01*
X83975318Y-88019317D01*
X83975325Y-88019326D01*
X84091531Y-88135532D01*
X84091535Y-88135535D01*
X84091537Y-88135537D01*
X84233003Y-88219200D01*
X84239557Y-88221104D01*
X84390827Y-88265053D01*
X84390830Y-88265053D01*
X84390832Y-88265054D01*
X84427707Y-88267956D01*
X86259096Y-88267955D01*
X86295972Y-88265054D01*
X86453801Y-88219200D01*
X86595267Y-88135537D01*
X86711483Y-88019321D01*
X86711486Y-88019314D01*
X86716263Y-88013158D01*
X86718425Y-88014835D01*
X86759901Y-87976097D01*
X86828641Y-87963581D01*
X86893235Y-87990216D01*
X86903264Y-87999211D01*
X87013129Y-88109076D01*
X87013133Y-88109079D01*
X87013135Y-88109081D01*
X87154601Y-88192744D01*
X87196223Y-88204836D01*
X87312425Y-88238597D01*
X87312428Y-88238597D01*
X87312430Y-88238598D01*
X87349305Y-88241500D01*
X88652769Y-88241499D01*
X88719808Y-88261184D01*
X88740450Y-88277818D01*
X89333048Y-88870415D01*
X89333049Y-88870416D01*
X89437584Y-88974951D01*
X89437587Y-88974953D01*
X89437588Y-88974954D01*
X89560503Y-89057083D01*
X89560506Y-89057085D01*
X89610665Y-89077861D01*
X89617080Y-89080518D01*
X89697088Y-89113659D01*
X89813241Y-89136763D01*
X89836380Y-89141365D01*
X89842081Y-89142500D01*
X89842082Y-89142500D01*
X93926920Y-89142500D01*
X94024462Y-89123096D01*
X94071913Y-89113658D01*
X94208495Y-89057084D01*
X94257729Y-89024186D01*
X94331416Y-88974952D01*
X95051779Y-88254589D01*
X95113102Y-88221104D01*
X95139460Y-88218270D01*
X95207700Y-88218270D01*
X95394332Y-88188710D01*
X95574046Y-88130317D01*
X95742413Y-88044530D01*
X95895287Y-87933460D01*
X96028904Y-87799843D01*
X96139974Y-87646969D01*
X96225761Y-87478602D01*
X96284154Y-87298888D01*
X96293868Y-87237555D01*
X96313714Y-87112256D01*
X96313714Y-86923283D01*
X104072714Y-86923283D01*
X104072714Y-87112256D01*
X104102273Y-87298888D01*
X104160668Y-87478606D01*
X104233637Y-87621815D01*
X104246454Y-87646969D01*
X104357524Y-87799843D01*
X104491141Y-87933460D01*
X104644015Y-88044530D01*
X104656317Y-88050798D01*
X104812377Y-88130315D01*
X104812379Y-88130315D01*
X104812382Y-88130317D01*
X104897649Y-88158022D01*
X104992095Y-88188710D01*
X105178728Y-88218270D01*
X105178733Y-88218270D01*
X105367700Y-88218270D01*
X105554332Y-88188710D01*
X105734046Y-88130317D01*
X105902413Y-88044530D01*
X106055287Y-87933460D01*
X106079928Y-87908819D01*
X106141251Y-87875334D01*
X106167609Y-87872500D01*
X107411920Y-87872500D01*
X107517997Y-87851399D01*
X107556913Y-87843658D01*
X107693495Y-87787084D01*
X107756529Y-87744966D01*
X107816416Y-87704952D01*
X107888313Y-87633054D01*
X107892381Y-87629631D01*
X107919694Y-87617627D01*
X107945872Y-87603334D01*
X107954278Y-87602430D01*
X107956347Y-87601521D01*
X107958928Y-87601930D01*
X107972230Y-87600500D01*
X108062351Y-87600500D01*
X108062352Y-87600500D01*
X108264534Y-87568477D01*
X108459219Y-87505220D01*
X108641610Y-87412287D01*
X108797692Y-87298888D01*
X108807213Y-87291971D01*
X108807215Y-87291968D01*
X108807219Y-87291966D01*
X108951966Y-87147219D01*
X108951968Y-87147215D01*
X108951971Y-87147213D01*
X109065418Y-86991064D01*
X109072287Y-86981610D01*
X109165220Y-86799219D01*
X109228477Y-86604534D01*
X109260500Y-86402352D01*
X109260500Y-86197648D01*
X109245363Y-86102080D01*
X109228477Y-85995465D01*
X109175391Y-85832085D01*
X109165220Y-85800781D01*
X109165218Y-85800778D01*
X109165218Y-85800776D01*
X109120782Y-85713567D01*
X109072287Y-85618390D01*
X109020732Y-85547430D01*
X108951971Y-85452786D01*
X108807213Y-85308028D01*
X108641613Y-85187715D01*
X108641612Y-85187714D01*
X108641610Y-85187713D01*
X108584653Y-85158691D01*
X108459223Y-85094781D01*
X108264534Y-85031522D01*
X108080668Y-85002401D01*
X108062352Y-84999500D01*
X107857648Y-84999500D01*
X107839332Y-85002401D01*
X107655465Y-85031522D01*
X107460776Y-85094781D01*
X107278386Y-85187715D01*
X107112786Y-85308028D01*
X106968028Y-85452786D01*
X106847715Y-85618386D01*
X106754781Y-85800776D01*
X106691522Y-85995465D01*
X106659500Y-86197648D01*
X106659500Y-86247500D01*
X106656949Y-86256185D01*
X106658238Y-86265147D01*
X106647259Y-86289187D01*
X106639815Y-86314539D01*
X106632974Y-86320466D01*
X106629213Y-86328703D01*
X106606978Y-86342992D01*
X106587011Y-86360294D01*
X106576496Y-86362581D01*
X106570435Y-86366477D01*
X106535500Y-86371500D01*
X106350752Y-86371500D01*
X106283713Y-86351815D01*
X106250434Y-86320386D01*
X106246186Y-86314539D01*
X106188904Y-86235697D01*
X106055287Y-86102080D01*
X105902413Y-85991010D01*
X105883395Y-85981320D01*
X105734050Y-85905224D01*
X105554332Y-85846829D01*
X105367700Y-85817270D01*
X105367695Y-85817270D01*
X105178733Y-85817270D01*
X105178728Y-85817270D01*
X104992095Y-85846829D01*
X104812377Y-85905224D01*
X104644014Y-85991010D01*
X104582042Y-86036036D01*
X104491141Y-86102080D01*
X104491139Y-86102082D01*
X104491138Y-86102082D01*
X104357526Y-86235694D01*
X104357526Y-86235695D01*
X104357524Y-86235697D01*
X104325214Y-86280168D01*
X104246454Y-86388570D01*
X104160668Y-86556933D01*
X104102273Y-86736651D01*
X104072714Y-86923283D01*
X96313714Y-86923283D01*
X96284154Y-86736651D01*
X96225759Y-86556933D01*
X96171552Y-86450546D01*
X96139974Y-86388571D01*
X96028904Y-86235697D01*
X95895287Y-86102080D01*
X95742413Y-85991010D01*
X95723395Y-85981320D01*
X95574050Y-85905224D01*
X95394332Y-85846829D01*
X95207700Y-85817270D01*
X95207695Y-85817270D01*
X95018733Y-85817270D01*
X95018728Y-85817270D01*
X94832095Y-85846829D01*
X94652377Y-85905224D01*
X94484014Y-85991010D01*
X94422042Y-86036036D01*
X94331141Y-86102080D01*
X94331139Y-86102082D01*
X94331138Y-86102082D01*
X94197526Y-86235694D01*
X94197526Y-86235695D01*
X94197524Y-86235697D01*
X94165214Y-86280168D01*
X94086454Y-86388570D01*
X94000668Y-86556933D01*
X93942273Y-86736651D01*
X93912714Y-86923283D01*
X93912714Y-87112256D01*
X93924524Y-87186820D01*
X93915570Y-87256113D01*
X93889732Y-87293899D01*
X93578451Y-87605181D01*
X93517128Y-87638666D01*
X93490770Y-87641500D01*
X92767012Y-87641500D01*
X92699973Y-87621815D01*
X92654218Y-87569011D01*
X92644274Y-87499853D01*
X92666694Y-87444614D01*
X92690183Y-87412284D01*
X92720760Y-87370199D01*
X92806547Y-87201832D01*
X92864940Y-87022118D01*
X92869069Y-86996048D01*
X92894500Y-86835486D01*
X92894500Y-86646513D01*
X92864940Y-86459881D01*
X92822317Y-86328703D01*
X92806547Y-86280168D01*
X92806545Y-86280165D01*
X92806545Y-86280163D01*
X92761290Y-86191347D01*
X92720760Y-86111801D01*
X92609690Y-85958927D01*
X92480818Y-85830055D01*
X92447334Y-85768732D01*
X92444500Y-85742374D01*
X92444500Y-83932500D01*
X92464185Y-83865461D01*
X92516989Y-83819706D01*
X92568500Y-83808500D01*
X97688017Y-83808500D01*
X97755056Y-83828185D01*
X97798502Y-83876205D01*
X97801353Y-83881801D01*
X97801354Y-83881804D01*
X97858950Y-83994842D01*
X97858952Y-83994844D01*
X97858954Y-83994847D01*
X97948652Y-84084545D01*
X97948654Y-84084546D01*
X97948658Y-84084550D01*
X98048419Y-84135381D01*
X98061698Y-84142147D01*
X98155475Y-84156999D01*
X98155481Y-84157000D01*
X100218518Y-84156999D01*
X100312304Y-84142146D01*
X100425342Y-84084550D01*
X100515050Y-83994842D01*
X100572646Y-83881804D01*
X100572646Y-83881802D01*
X100572647Y-83881801D01*
X100587499Y-83788024D01*
X100587500Y-83788019D01*
X100587499Y-81819982D01*
X100572646Y-81726196D01*
X100515050Y-81613158D01*
X100515046Y-81613154D01*
X100515045Y-81613152D01*
X100425347Y-81523454D01*
X100425344Y-81523452D01*
X100425342Y-81523450D01*
X100348517Y-81484305D01*
X100312301Y-81465852D01*
X100236518Y-81453850D01*
X100225140Y-81448456D01*
X100212581Y-81447558D01*
X100194168Y-81433774D01*
X100173383Y-81423921D01*
X100166726Y-81413231D01*
X100156648Y-81405686D01*
X100148610Y-81384135D01*
X100136452Y-81364609D01*
X100136631Y-81352018D01*
X100132232Y-81340222D01*
X100137121Y-81317745D01*
X100137450Y-81294747D01*
X100144762Y-81282620D01*
X100147084Y-81271949D01*
X100168235Y-81243697D01*
X100211114Y-81200818D01*
X100272437Y-81167333D01*
X100298794Y-81164500D01*
X101175638Y-81164500D01*
X101242677Y-81184185D01*
X101263319Y-81200819D01*
X101466714Y-81404214D01*
X101500199Y-81465537D01*
X101501507Y-81511291D01*
X101496500Y-81542907D01*
X101496500Y-81779097D01*
X101533446Y-82012368D01*
X101606433Y-82236996D01*
X101693029Y-82406949D01*
X101713657Y-82447433D01*
X101852483Y-82638510D01*
X102019490Y-82805517D01*
X102210567Y-82944343D01*
X102309991Y-82995002D01*
X102421003Y-83051566D01*
X102421005Y-83051566D01*
X102421008Y-83051568D01*
X102468220Y-83066908D01*
X102645631Y-83124553D01*
X102878903Y-83161500D01*
X102878908Y-83161500D01*
X103115097Y-83161500D01*
X103348368Y-83124553D01*
X103367628Y-83118295D01*
X103572992Y-83051568D01*
X103783433Y-82944343D01*
X103974510Y-82805517D01*
X104141517Y-82638510D01*
X104278758Y-82449613D01*
X104334088Y-82406949D01*
X104379076Y-82398500D01*
X106954129Y-82398500D01*
X107021168Y-82418185D01*
X107061516Y-82460500D01*
X107147257Y-82609008D01*
X107197088Y-82695317D01*
X107325409Y-82862547D01*
X107368704Y-82918970D01*
X107568029Y-83118295D01*
X107568033Y-83118298D01*
X107568035Y-83118300D01*
X107791683Y-83289912D01*
X107791690Y-83289916D01*
X108035809Y-83430859D01*
X108035814Y-83430861D01*
X108035817Y-83430863D01*
X108237261Y-83514303D01*
X108290529Y-83536368D01*
X108296261Y-83538742D01*
X108568558Y-83611704D01*
X108848049Y-83648500D01*
X108848056Y-83648500D01*
X109129944Y-83648500D01*
X109129951Y-83648500D01*
X109409442Y-83611704D01*
X109681739Y-83538742D01*
X109942183Y-83430863D01*
X110186317Y-83289912D01*
X110409965Y-83118300D01*
X110609300Y-82918965D01*
X110780912Y-82695317D01*
X110921863Y-82451183D01*
X111029742Y-82190739D01*
X111102704Y-81918442D01*
X111139500Y-81638951D01*
X111139500Y-81357049D01*
X111102704Y-81077558D01*
X111029742Y-80805261D01*
X110921863Y-80544817D01*
X110921861Y-80544814D01*
X110921859Y-80544809D01*
X110780916Y-80300690D01*
X110780915Y-80300689D01*
X110780912Y-80300683D01*
X110609300Y-80077035D01*
X110609298Y-80077033D01*
X110609295Y-80077029D01*
X110409970Y-79877704D01*
X110404489Y-79873498D01*
X110186317Y-79706088D01*
X110186311Y-79706084D01*
X110186309Y-79706083D01*
X109942190Y-79565140D01*
X109942179Y-79565135D01*
X109681743Y-79457259D01*
X109409439Y-79384295D01*
X109129958Y-79347500D01*
X109129951Y-79347500D01*
X108848049Y-79347500D01*
X108848041Y-79347500D01*
X108568560Y-79384295D01*
X108296256Y-79457259D01*
X108035820Y-79565135D01*
X108035809Y-79565140D01*
X107791690Y-79706083D01*
X107791684Y-79706087D01*
X107791683Y-79706088D01*
X107772893Y-79720506D01*
X107568029Y-79877704D01*
X107368704Y-80077029D01*
X107197089Y-80300682D01*
X107197084Y-80300689D01*
X107061516Y-80535500D01*
X107010949Y-80583716D01*
X106954129Y-80597500D01*
X104106889Y-80597500D01*
X104039850Y-80577815D01*
X104019208Y-80561181D01*
X103974512Y-80516485D01*
X103974510Y-80516483D01*
X103783433Y-80377657D01*
X103730231Y-80350549D01*
X103572996Y-80270433D01*
X103348368Y-80197446D01*
X103115097Y-80160500D01*
X103115092Y-80160500D01*
X102878908Y-80160500D01*
X102878907Y-80160500D01*
X102847291Y-80165507D01*
X102777998Y-80156551D01*
X102740214Y-80130714D01*
X102174041Y-79564540D01*
X102174038Y-79564537D01*
X102104514Y-79518083D01*
X102026544Y-79465985D01*
X102026542Y-79465984D01*
X101944607Y-79432046D01*
X101944606Y-79432046D01*
X101862666Y-79398105D01*
X101862658Y-79398103D01*
X101688696Y-79363500D01*
X101688692Y-79363500D01*
X101688691Y-79363500D01*
X100298794Y-79363500D01*
X100231755Y-79343815D01*
X100211113Y-79327181D01*
X100115923Y-79231991D01*
X100115921Y-79231989D01*
X99943627Y-79106810D01*
X99753872Y-79010124D01*
X99753869Y-79010123D01*
X99551329Y-78944315D01*
X99340988Y-78911000D01*
X99340983Y-78911000D01*
X99033017Y-78911000D01*
X99033012Y-78911000D01*
X98822670Y-78944315D01*
X98620130Y-79010123D01*
X98620127Y-79010124D01*
X98430372Y-79106810D01*
X98342071Y-79170965D01*
X98258079Y-79231989D01*
X98258077Y-79231991D01*
X98258076Y-79231991D01*
X98107491Y-79382576D01*
X98107491Y-79382577D01*
X98107489Y-79382579D01*
X98076297Y-79425511D01*
X97982310Y-79554872D01*
X97885624Y-79744627D01*
X97885623Y-79744630D01*
X97819815Y-79947170D01*
X97786500Y-80157511D01*
X97786500Y-80370488D01*
X97819815Y-80580829D01*
X97885623Y-80783369D01*
X97885624Y-80783372D01*
X97971587Y-80952082D01*
X97982310Y-80973127D01*
X98107489Y-81145421D01*
X98107491Y-81145423D01*
X98205765Y-81243697D01*
X98239250Y-81305020D01*
X98234266Y-81374712D01*
X98192394Y-81430645D01*
X98137481Y-81453851D01*
X98061696Y-81465854D01*
X97948658Y-81523450D01*
X97948657Y-81523451D01*
X97948652Y-81523454D01*
X97858954Y-81613152D01*
X97858951Y-81613157D01*
X97858950Y-81613158D01*
X97845811Y-81638944D01*
X97801352Y-81726198D01*
X97786500Y-81819975D01*
X97786500Y-82183500D01*
X97766815Y-82250539D01*
X97714011Y-82296294D01*
X97662500Y-82307500D01*
X85524080Y-82307500D01*
X85379092Y-82336340D01*
X85379082Y-82336343D01*
X85242511Y-82392912D01*
X85242498Y-82392919D01*
X85119578Y-82475052D01*
X85116250Y-82477784D01*
X85066559Y-82502492D01*
X85061934Y-82503602D01*
X84882210Y-82561999D01*
X84713845Y-82647785D01*
X84648435Y-82695309D01*
X84560972Y-82758855D01*
X84560970Y-82758857D01*
X84560969Y-82758857D01*
X84427357Y-82892469D01*
X84427357Y-82892470D01*
X84427355Y-82892472D01*
X84408107Y-82918965D01*
X84316285Y-83045345D01*
X84230499Y-83213708D01*
X84172104Y-83393426D01*
X84142545Y-83580058D01*
X84142545Y-83769031D01*
X84172104Y-83955663D01*
X84230499Y-84135381D01*
X84316289Y-84303752D01*
X84318831Y-84307900D01*
X84317522Y-84308701D01*
X84338721Y-84368114D01*
X84322896Y-84436168D01*
X84272790Y-84484863D01*
X84204312Y-84498738D01*
X84139203Y-84473389D01*
X84127242Y-84462874D01*
X82556049Y-82891681D01*
X82522564Y-82830358D01*
X82527548Y-82760666D01*
X82556049Y-82716319D01*
X84275949Y-80996418D01*
X84275950Y-80996417D01*
X84275951Y-80996416D01*
X84275952Y-80996415D01*
X84324362Y-80923964D01*
X84358084Y-80873495D01*
X84406701Y-80756124D01*
X84414659Y-80736912D01*
X84439631Y-80611368D01*
X84443500Y-80591918D01*
X84443500Y-65404082D01*
X84443500Y-65404079D01*
X84414659Y-65259092D01*
X84414658Y-65259091D01*
X84414658Y-65259087D01*
X84399155Y-65221659D01*
X84358087Y-65122511D01*
X84358080Y-65122498D01*
X84275952Y-64999585D01*
X84232136Y-64955769D01*
X84171416Y-64895049D01*
X83542858Y-64266491D01*
X82903228Y-63626860D01*
X82869743Y-63565537D01*
X82872977Y-63500863D01*
X82905829Y-63399760D01*
X82944500Y-63155601D01*
X82944500Y-62908399D01*
X82905829Y-62664240D01*
X82829439Y-62429137D01*
X82717212Y-62208879D01*
X82571910Y-62008888D01*
X82397112Y-61834090D01*
X82197121Y-61688788D01*
X81976863Y-61576561D01*
X81741760Y-61500171D01*
X81741758Y-61500170D01*
X81741757Y-61500170D01*
X81554199Y-61470464D01*
X81497601Y-61461500D01*
X81250399Y-61461500D01*
X81193800Y-61470464D01*
X81006243Y-61500170D01*
X80771134Y-61576562D01*
X80550878Y-61688788D01*
X80350885Y-61834092D01*
X80176092Y-62008885D01*
X80030786Y-62208881D01*
X80028281Y-62213798D01*
X79980305Y-62264593D01*
X79917798Y-62281500D01*
X73800080Y-62281500D01*
X73655092Y-62310340D01*
X73655082Y-62310343D01*
X73518511Y-62366912D01*
X73518504Y-62366916D01*
X73503114Y-62377199D01*
X73495367Y-62382376D01*
X73495366Y-62382376D01*
X73395585Y-62449046D01*
X73395578Y-62449052D01*
X71873005Y-63971625D01*
X71811682Y-64005110D01*
X71747015Y-64001878D01*
X71741760Y-64000171D01*
X71741757Y-64000170D01*
X71535515Y-63967505D01*
X71497601Y-63961500D01*
X71250399Y-63961500D01*
X71212485Y-63967505D01*
X71006243Y-64000170D01*
X70771134Y-64076562D01*
X70550879Y-64188787D01*
X70496385Y-64228380D01*
X70430578Y-64251859D01*
X70362524Y-64236033D01*
X70313830Y-64185927D01*
X70299500Y-64128061D01*
X70299500Y-62719229D01*
X70319185Y-62652190D01*
X70335815Y-62631552D01*
X70874995Y-62092371D01*
X70936316Y-62058888D01*
X71000995Y-62062124D01*
X71006240Y-62063829D01*
X71250399Y-62102500D01*
X71250400Y-62102500D01*
X71497600Y-62102500D01*
X71497601Y-62102500D01*
X71741760Y-62063829D01*
X71976863Y-61987439D01*
X72197121Y-61875212D01*
X72397112Y-61729910D01*
X72571910Y-61555112D01*
X72717212Y-61355121D01*
X72829439Y-61134863D01*
X72905829Y-60899760D01*
X72944500Y-60655601D01*
X72944500Y-60408399D01*
X72905829Y-60164240D01*
X72829439Y-59929137D01*
X72717212Y-59708879D01*
X72571910Y-59508888D01*
X72397112Y-59334090D01*
X72197121Y-59188788D01*
X71976863Y-59076561D01*
X71741760Y-59000171D01*
X71741758Y-59000170D01*
X71741757Y-59000170D01*
X71554199Y-58970464D01*
X71497601Y-58961500D01*
X71250399Y-58961500D01*
X71193800Y-58970464D01*
X71006243Y-59000170D01*
X70771134Y-59076562D01*
X70550878Y-59188788D01*
X70350885Y-59334092D01*
X70176092Y-59508885D01*
X70030788Y-59708878D01*
X69918562Y-59929134D01*
X69842170Y-60164243D01*
X69803500Y-60408399D01*
X69803500Y-60655600D01*
X69842170Y-60899757D01*
X69842171Y-60899760D01*
X69843878Y-60905015D01*
X69845868Y-60974857D01*
X69813625Y-61031005D01*
X69274451Y-61570181D01*
X69213128Y-61603666D01*
X69186770Y-61606500D01*
X67617076Y-61606500D01*
X67588242Y-61612234D01*
X67588243Y-61612235D01*
X67472093Y-61635339D01*
X67472083Y-61635342D01*
X67392081Y-61668479D01*
X67392082Y-61668480D01*
X67335506Y-61691915D01*
X67263340Y-61740135D01*
X67212582Y-61774049D01*
X67212579Y-61774052D01*
X65273451Y-63713181D01*
X65212128Y-63746666D01*
X65185770Y-63749500D01*
X63248625Y-63749500D01*
X63181586Y-63729815D01*
X63160944Y-63713181D01*
X63032075Y-63584312D01*
X63032073Y-63584310D01*
X62879199Y-63473240D01*
X62867321Y-63467188D01*
X62710836Y-63387454D01*
X62531118Y-63329059D01*
X62344486Y-63299500D01*
X62344481Y-63299500D01*
X62155519Y-63299500D01*
X62155514Y-63299500D01*
X61968881Y-63329059D01*
X61789163Y-63387454D01*
X61620800Y-63473240D01*
X61575394Y-63506230D01*
X61467927Y-63584310D01*
X61467925Y-63584312D01*
X61467924Y-63584312D01*
X61334312Y-63717924D01*
X61334312Y-63717925D01*
X61334310Y-63717927D01*
X61313430Y-63746666D01*
X61223240Y-63870800D01*
X61137454Y-64039163D01*
X61097931Y-64160803D01*
X61058493Y-64218478D01*
X60994134Y-64245676D01*
X60925288Y-64233761D01*
X60873812Y-64186516D01*
X60862069Y-64160803D01*
X60843091Y-64102397D01*
X60822547Y-64039168D01*
X60822545Y-64039165D01*
X60822545Y-64039163D01*
X60786033Y-63967505D01*
X60773137Y-63898836D01*
X60799413Y-63834095D01*
X60808828Y-63823538D01*
X64209952Y-60422415D01*
X64283002Y-60313087D01*
X64292084Y-60299495D01*
X64333089Y-60200500D01*
X64348659Y-60162912D01*
X64377500Y-60017917D01*
X64377500Y-59870082D01*
X64377500Y-59550895D01*
X64397185Y-59483856D01*
X64438380Y-59444163D01*
X64578859Y-59361085D01*
X64578860Y-59361083D01*
X64578865Y-59361081D01*
X64695081Y-59244865D01*
X64695083Y-59244862D01*
X64697691Y-59241501D01*
X64700408Y-59239538D01*
X64700598Y-59239349D01*
X64700628Y-59239379D01*
X64754333Y-59200593D01*
X64795671Y-59193500D01*
X65366693Y-59193500D01*
X65366694Y-59193499D01*
X65540666Y-59158895D01*
X65622606Y-59124953D01*
X65704547Y-59091013D01*
X65792959Y-59031936D01*
X65852036Y-58992464D01*
X67265680Y-57578818D01*
X67327003Y-57545334D01*
X67353361Y-57542500D01*
X69136693Y-57542500D01*
X69136694Y-57542499D01*
X69310666Y-57507895D01*
X69392606Y-57473953D01*
X69474547Y-57440013D01*
X69566844Y-57378342D01*
X69622036Y-57341464D01*
X70694032Y-56269465D01*
X70755353Y-56235982D01*
X70801108Y-56234675D01*
X70821488Y-56237903D01*
X70821489Y-56237903D01*
X71129459Y-56237903D01*
X71231429Y-56221751D01*
X71339799Y-56204588D01*
X71542343Y-56138778D01*
X71732098Y-56042093D01*
X71904392Y-55916914D01*
X71994487Y-55826819D01*
X72055810Y-55793334D01*
X72082168Y-55790500D01*
X73865638Y-55790500D01*
X73932677Y-55810185D01*
X73953319Y-55826819D01*
X74804970Y-56678470D01*
X74827774Y-56709856D01*
X74848228Y-56749999D01*
X74959298Y-56902873D01*
X75092915Y-57036490D01*
X75245789Y-57147560D01*
X75325335Y-57188090D01*
X75414151Y-57233345D01*
X75414153Y-57233345D01*
X75414156Y-57233347D01*
X75473983Y-57252786D01*
X75593869Y-57291740D01*
X75780502Y-57321300D01*
X75780507Y-57321300D01*
X75969474Y-57321300D01*
X76156106Y-57291740D01*
X76335820Y-57233347D01*
X76504187Y-57147560D01*
X76657061Y-57036490D01*
X76790678Y-56902873D01*
X76901748Y-56749999D01*
X76987535Y-56581632D01*
X77045928Y-56401918D01*
X77065093Y-56280914D01*
X77075488Y-56215286D01*
X77075488Y-56137241D01*
X77095173Y-56070202D01*
X77111807Y-56049560D01*
X77383548Y-55777819D01*
X77444871Y-55744334D01*
X77471229Y-55741500D01*
X78762501Y-55741500D01*
X78829540Y-55761185D01*
X78875295Y-55813989D01*
X78886501Y-55865500D01*
X78886501Y-55872518D01*
X78901354Y-55966304D01*
X78958950Y-56079342D01*
X78958952Y-56079344D01*
X78958954Y-56079347D01*
X79048652Y-56169045D01*
X79048654Y-56169046D01*
X79048658Y-56169050D01*
X79161694Y-56226645D01*
X79161698Y-56226647D01*
X79255475Y-56241499D01*
X79255481Y-56241500D01*
X81018518Y-56241499D01*
X81112304Y-56226646D01*
X81225342Y-56169050D01*
X81315050Y-56079342D01*
X81372646Y-55966304D01*
X81372646Y-55966302D01*
X81372647Y-55966301D01*
X81387499Y-55872524D01*
X81387500Y-55872519D01*
X81387499Y-54109482D01*
X81372646Y-54015696D01*
X81315050Y-53902658D01*
X81315046Y-53902654D01*
X81315045Y-53902652D01*
X81225347Y-53812954D01*
X81225344Y-53812952D01*
X81225342Y-53812950D01*
X81148517Y-53773805D01*
X81112301Y-53755352D01*
X81018524Y-53740500D01*
X79255482Y-53740500D01*
X79174519Y-53753323D01*
X79161696Y-53755354D01*
X79048658Y-53812950D01*
X79048657Y-53812951D01*
X79048652Y-53812954D01*
X78958954Y-53902652D01*
X78958951Y-53902657D01*
X78901352Y-54015698D01*
X78886500Y-54109475D01*
X78886500Y-54116500D01*
X78866815Y-54183539D01*
X78814011Y-54229294D01*
X78762500Y-54240500D01*
X78217500Y-54240500D01*
X78150461Y-54220815D01*
X78104706Y-54168011D01*
X78093500Y-54116500D01*
X78093500Y-48067205D01*
X78113185Y-48000166D01*
X78129819Y-47979524D01*
X79068411Y-47040932D01*
X79129734Y-47007447D01*
X79156092Y-47004613D01*
X89266883Y-47004613D01*
X89333922Y-47024298D01*
G37*
G04 #@! TD.AperFunction*
G04 #@! TA.AperFunction,Conductor*
G36*
X117942539Y-45020185D02*
G01*
X117988294Y-45072989D01*
X117999500Y-45124500D01*
X117999500Y-94875500D01*
X117979815Y-94942539D01*
X117927011Y-94988294D01*
X117875500Y-94999500D01*
X43124500Y-94999500D01*
X43057461Y-94979815D01*
X43011706Y-94927011D01*
X43000500Y-94875500D01*
X43000500Y-91893713D01*
X44649500Y-91893713D01*
X44649500Y-92106286D01*
X44682753Y-92316239D01*
X44748444Y-92518414D01*
X44844951Y-92707820D01*
X44969890Y-92879786D01*
X45120213Y-93030109D01*
X45292179Y-93155048D01*
X45292181Y-93155049D01*
X45292184Y-93155051D01*
X45481588Y-93251557D01*
X45683757Y-93317246D01*
X45893713Y-93350500D01*
X45893714Y-93350500D01*
X46106286Y-93350500D01*
X46106287Y-93350500D01*
X46316243Y-93317246D01*
X46518412Y-93251557D01*
X46707816Y-93155051D01*
X46834524Y-93062993D01*
X46879786Y-93030109D01*
X46879793Y-93030103D01*
X46953343Y-92956553D01*
X47030104Y-92879792D01*
X47030106Y-92879788D01*
X47030109Y-92879786D01*
X47155048Y-92707820D01*
X47155047Y-92707820D01*
X47155051Y-92707816D01*
X47251557Y-92518412D01*
X47317246Y-92316243D01*
X47350500Y-92106287D01*
X47350500Y-91893713D01*
X47317246Y-91683757D01*
X47251557Y-91481588D01*
X47155051Y-91292184D01*
X47155049Y-91292181D01*
X47155048Y-91292179D01*
X47030109Y-91120213D01*
X46879786Y-90969890D01*
X46707820Y-90844951D01*
X46518414Y-90748444D01*
X46518413Y-90748443D01*
X46518412Y-90748443D01*
X46316243Y-90682754D01*
X46316241Y-90682753D01*
X46316240Y-90682753D01*
X46154957Y-90657208D01*
X46106287Y-90649500D01*
X45893713Y-90649500D01*
X45845042Y-90657208D01*
X45683760Y-90682753D01*
X45481585Y-90748444D01*
X45292179Y-90844951D01*
X45120213Y-90969890D01*
X44969890Y-91120213D01*
X44844951Y-91292179D01*
X44748444Y-91481585D01*
X44682753Y-91683760D01*
X44649500Y-91893713D01*
X43000500Y-91893713D01*
X43000500Y-55662455D01*
X43426499Y-55662455D01*
X43426499Y-55848656D01*
X43426500Y-55848681D01*
X43426500Y-85179748D01*
X43426499Y-85179763D01*
X43426499Y-85184164D01*
X43426499Y-85365256D01*
X43430355Y-85389601D01*
X43450967Y-85519738D01*
X43454827Y-85544113D01*
X43454830Y-85544124D01*
X43510787Y-85716346D01*
X43510788Y-85716349D01*
X43554619Y-85802370D01*
X43568725Y-85830055D01*
X43593006Y-85877707D01*
X43699440Y-86024203D01*
X43699444Y-86024207D01*
X43699447Y-86024211D01*
X43777316Y-86102080D01*
X43831829Y-86156593D01*
X43831840Y-86156603D01*
X50500611Y-92825374D01*
X50500625Y-92825389D01*
X50503736Y-92828500D01*
X50503737Y-92828501D01*
X50631789Y-92956553D01*
X50631792Y-92956555D01*
X50631795Y-92956558D01*
X50733023Y-93030103D01*
X50733025Y-93030105D01*
X50778291Y-93062993D01*
X50778293Y-93062994D01*
X50778296Y-93062996D01*
X50854175Y-93101658D01*
X50939650Y-93145211D01*
X50939653Y-93145212D01*
X51025766Y-93173191D01*
X51111881Y-93201171D01*
X51290743Y-93229501D01*
X51290744Y-93229501D01*
X51476947Y-93229501D01*
X51476971Y-93229500D01*
X108104319Y-93229500D01*
X108104343Y-93229501D01*
X108109454Y-93229501D01*
X108290545Y-93229501D01*
X108290546Y-93229501D01*
X108469409Y-93201171D01*
X108641639Y-93145211D01*
X108802994Y-93062996D01*
X108848266Y-93030104D01*
X108949501Y-92956553D01*
X109077553Y-92828501D01*
X109077554Y-92828499D01*
X109084614Y-92821439D01*
X109084620Y-92821432D01*
X110012339Y-91893713D01*
X113649500Y-91893713D01*
X113649500Y-92106286D01*
X113682753Y-92316239D01*
X113748444Y-92518414D01*
X113844951Y-92707820D01*
X113969890Y-92879786D01*
X114120213Y-93030109D01*
X114292179Y-93155048D01*
X114292181Y-93155049D01*
X114292184Y-93155051D01*
X114481588Y-93251557D01*
X114683757Y-93317246D01*
X114893713Y-93350500D01*
X114893714Y-93350500D01*
X115106286Y-93350500D01*
X115106287Y-93350500D01*
X115316243Y-93317246D01*
X115518412Y-93251557D01*
X115707816Y-93155051D01*
X115834524Y-93062993D01*
X115879786Y-93030109D01*
X115879793Y-93030103D01*
X115953343Y-92956553D01*
X116030104Y-92879792D01*
X116030106Y-92879788D01*
X116030109Y-92879786D01*
X116155048Y-92707820D01*
X116155047Y-92707820D01*
X116155051Y-92707816D01*
X116251557Y-92518412D01*
X116317246Y-92316243D01*
X116350500Y-92106287D01*
X116350500Y-91893713D01*
X116317246Y-91683757D01*
X116251557Y-91481588D01*
X116155051Y-91292184D01*
X116155049Y-91292181D01*
X116155048Y-91292179D01*
X116030109Y-91120213D01*
X115879786Y-90969890D01*
X115707820Y-90844951D01*
X115518414Y-90748444D01*
X115518413Y-90748443D01*
X115518412Y-90748443D01*
X115316243Y-90682754D01*
X115316241Y-90682753D01*
X115316240Y-90682753D01*
X115154957Y-90657208D01*
X115106287Y-90649500D01*
X114893713Y-90649500D01*
X114845042Y-90657208D01*
X114683760Y-90682753D01*
X114481585Y-90748444D01*
X114292179Y-90844951D01*
X114120213Y-90969890D01*
X113969890Y-91120213D01*
X113844951Y-91292179D01*
X113748444Y-91481585D01*
X113682753Y-91683760D01*
X113649500Y-91893713D01*
X110012339Y-91893713D01*
X114661432Y-87244620D01*
X114661439Y-87244614D01*
X114668499Y-87237554D01*
X114668501Y-87237553D01*
X114796553Y-87109501D01*
X114902996Y-86962994D01*
X114985211Y-86801639D01*
X115041171Y-86629409D01*
X115042834Y-86618912D01*
X115069501Y-86450547D01*
X115069501Y-86269454D01*
X115069501Y-86265053D01*
X115069500Y-86265038D01*
X115069500Y-75406681D01*
X115069501Y-75406656D01*
X115069501Y-75220454D01*
X115059012Y-75154233D01*
X115041171Y-75041591D01*
X115007029Y-74936511D01*
X114985212Y-74869363D01*
X114985206Y-74869350D01*
X114933521Y-74767913D01*
X114933520Y-74767913D01*
X114904273Y-74710513D01*
X114902996Y-74708006D01*
X114902994Y-74708003D01*
X114902993Y-74708001D01*
X114796559Y-74561506D01*
X114796555Y-74561502D01*
X114796553Y-74561499D01*
X114668501Y-74433447D01*
X114668500Y-74433446D01*
X114665389Y-74430335D01*
X114665374Y-74430321D01*
X113783234Y-73548181D01*
X113749749Y-73486858D01*
X113754733Y-73417166D01*
X113796605Y-73361233D01*
X113862069Y-73336816D01*
X113870915Y-73336500D01*
X113886486Y-73336500D01*
X114073118Y-73306940D01*
X114079664Y-73304813D01*
X114252832Y-73248547D01*
X114421199Y-73162760D01*
X114574073Y-73051690D01*
X114707690Y-72918073D01*
X114818760Y-72765199D01*
X114904547Y-72596832D01*
X114962940Y-72417118D01*
X114970614Y-72368664D01*
X114992500Y-72230486D01*
X114992500Y-72041513D01*
X114962940Y-71854881D01*
X114911716Y-71697233D01*
X114904547Y-71675168D01*
X114904545Y-71675165D01*
X114904545Y-71675163D01*
X114846172Y-71560600D01*
X114818760Y-71506801D01*
X114707690Y-71353927D01*
X114578818Y-71225055D01*
X114545334Y-71163732D01*
X114542500Y-71137374D01*
X114542500Y-59743081D01*
X114542499Y-59743080D01*
X114534030Y-59700500D01*
X114513659Y-59598088D01*
X114470337Y-59493500D01*
X114457084Y-59461505D01*
X114457082Y-59461502D01*
X114457080Y-59461498D01*
X114374952Y-59338585D01*
X114341585Y-59305218D01*
X114270416Y-59234049D01*
X113886867Y-58850500D01*
X112553421Y-57517052D01*
X112553414Y-57517046D01*
X112479729Y-57467812D01*
X112479729Y-57467813D01*
X112430491Y-57434913D01*
X112293917Y-57378343D01*
X112293907Y-57378340D01*
X112148920Y-57349500D01*
X112148918Y-57349500D01*
X111465418Y-57349500D01*
X111398379Y-57329815D01*
X111365100Y-57298385D01*
X111331971Y-57252787D01*
X111331967Y-57252782D01*
X111187213Y-57108028D01*
X111021613Y-56987715D01*
X111021612Y-56987714D01*
X111021610Y-56987713D01*
X110964653Y-56958691D01*
X110839223Y-56894781D01*
X110644534Y-56831522D01*
X110461697Y-56802564D01*
X110442352Y-56799500D01*
X110237648Y-56799500D01*
X110218303Y-56802564D01*
X110035465Y-56831522D01*
X109840776Y-56894781D01*
X109658386Y-56987715D01*
X109492786Y-57108028D01*
X109348028Y-57252786D01*
X109227715Y-57418386D01*
X109134781Y-57600776D01*
X109071522Y-57795465D01*
X109046894Y-57950964D01*
X109039500Y-57997648D01*
X109039500Y-58202352D01*
X109041966Y-58217924D01*
X109071522Y-58404534D01*
X109134781Y-58599223D01*
X109227715Y-58781613D01*
X109348028Y-58947213D01*
X109492786Y-59091971D01*
X109626046Y-59188788D01*
X109658390Y-59212287D01*
X109722338Y-59244870D01*
X109840776Y-59305218D01*
X109840778Y-59305218D01*
X109840781Y-59305220D01*
X109929634Y-59334090D01*
X110035465Y-59368477D01*
X110136557Y-59384488D01*
X110237648Y-59400500D01*
X110237649Y-59400500D01*
X110442351Y-59400500D01*
X110442352Y-59400500D01*
X110644534Y-59368477D01*
X110839219Y-59305220D01*
X111021610Y-59212287D01*
X111141816Y-59124953D01*
X111187213Y-59091971D01*
X111187215Y-59091968D01*
X111187219Y-59091966D01*
X111331966Y-58947219D01*
X111334650Y-58943524D01*
X111365100Y-58901615D01*
X111369431Y-58898274D01*
X111371705Y-58893297D01*
X111396804Y-58877166D01*
X111420429Y-58858949D01*
X111427102Y-58857695D01*
X111430483Y-58855523D01*
X111465418Y-58850500D01*
X111712770Y-58850500D01*
X111779809Y-58870185D01*
X111800451Y-58886819D01*
X113005181Y-60091548D01*
X113038666Y-60152871D01*
X113041500Y-60179229D01*
X113041500Y-65129925D01*
X113021815Y-65196964D01*
X112969011Y-65242719D01*
X112899853Y-65252663D01*
X112836297Y-65223638D01*
X112807016Y-65186221D01*
X112785002Y-65143018D01*
X112784996Y-65143006D01*
X112775492Y-65129925D01*
X112773913Y-65127751D01*
X112773911Y-65127749D01*
X112713582Y-65044712D01*
X112678558Y-64996505D01*
X112678555Y-64996502D01*
X112678553Y-64996499D01*
X112550501Y-64868447D01*
X112550500Y-64868446D01*
X112547389Y-64865335D01*
X112547374Y-64865321D01*
X111149241Y-63467188D01*
X111115756Y-63405865D01*
X111113983Y-63363321D01*
X111114636Y-63358366D01*
X111150500Y-63085951D01*
X111150500Y-62804049D01*
X111113704Y-62524558D01*
X111040742Y-62252261D01*
X111022773Y-62208881D01*
X110970994Y-62083873D01*
X110932863Y-61991817D01*
X110932861Y-61991814D01*
X110932859Y-61991809D01*
X110791916Y-61747690D01*
X110791915Y-61747689D01*
X110791912Y-61747683D01*
X110620300Y-61524035D01*
X110620298Y-61524033D01*
X110620295Y-61524029D01*
X110420970Y-61324704D01*
X110420965Y-61324700D01*
X110197317Y-61153088D01*
X110197311Y-61153084D01*
X110197309Y-61153083D01*
X109953190Y-61012140D01*
X109953179Y-61012135D01*
X109692743Y-60904259D01*
X109420439Y-60831295D01*
X109140958Y-60794500D01*
X109140951Y-60794500D01*
X108859049Y-60794500D01*
X108859041Y-60794500D01*
X108579560Y-60831295D01*
X108307256Y-60904259D01*
X108046820Y-61012135D01*
X108046809Y-61012140D01*
X107802690Y-61153083D01*
X107802682Y-61153089D01*
X107579029Y-61324704D01*
X107379704Y-61524029D01*
X107303058Y-61623916D01*
X107213885Y-61740129D01*
X107208089Y-61747682D01*
X107208084Y-61747689D01*
X107072516Y-61982500D01*
X107021949Y-62030716D01*
X106965129Y-62044500D01*
X104589173Y-62044500D01*
X104522134Y-62024815D01*
X104476379Y-61972011D01*
X104470097Y-61955095D01*
X104448746Y-61881605D01*
X104448744Y-61881602D01*
X104448744Y-61881601D01*
X104365081Y-61740135D01*
X104365076Y-61740129D01*
X104248870Y-61623923D01*
X104248861Y-61623916D01*
X104107397Y-61540255D01*
X104107394Y-61540254D01*
X103949574Y-61494402D01*
X103949568Y-61494401D01*
X103912695Y-61491500D01*
X102081317Y-61491500D01*
X102081292Y-61491501D01*
X102044429Y-61494402D01*
X101886605Y-61540254D01*
X101886602Y-61540255D01*
X101745138Y-61623916D01*
X101745129Y-61623923D01*
X101628923Y-61740129D01*
X101628919Y-61740135D01*
X101545255Y-61881602D01*
X101545254Y-61881605D01*
X101499402Y-62039425D01*
X101499401Y-62039431D01*
X101496500Y-62076297D01*
X101496500Y-63907682D01*
X101496501Y-63907707D01*
X101499402Y-63944570D01*
X101545254Y-64102394D01*
X101545255Y-64102397D01*
X101628916Y-64243861D01*
X101628923Y-64243870D01*
X101677872Y-64292819D01*
X101711357Y-64354142D01*
X101706373Y-64423834D01*
X101664501Y-64479767D01*
X101599037Y-64504184D01*
X101590191Y-64504500D01*
X100679794Y-64504500D01*
X100612755Y-64484815D01*
X100592113Y-64468181D01*
X100496923Y-64372991D01*
X100496921Y-64372989D01*
X100324627Y-64247810D01*
X100315988Y-64243408D01*
X100134872Y-64151124D01*
X100134869Y-64151123D01*
X99932329Y-64085315D01*
X99721988Y-64052000D01*
X99721983Y-64052000D01*
X99414017Y-64052000D01*
X99414012Y-64052000D01*
X99203670Y-64085315D01*
X99001130Y-64151123D01*
X99001127Y-64151124D01*
X98811372Y-64247810D01*
X98783933Y-64267746D01*
X98639079Y-64372989D01*
X98639077Y-64372991D01*
X98639076Y-64372991D01*
X98488491Y-64523576D01*
X98488491Y-64523577D01*
X98488489Y-64523579D01*
X98448180Y-64579060D01*
X98363310Y-64695872D01*
X98266624Y-64885627D01*
X98266623Y-64885630D01*
X98200815Y-65088170D01*
X98167500Y-65298511D01*
X98167500Y-65511488D01*
X98200815Y-65721829D01*
X98266623Y-65924369D01*
X98266624Y-65924372D01*
X98342393Y-66073076D01*
X98363310Y-66114127D01*
X98488489Y-66286421D01*
X98488491Y-66286423D01*
X98586765Y-66384697D01*
X98620250Y-66446020D01*
X98615266Y-66515712D01*
X98573394Y-66571645D01*
X98518481Y-66594851D01*
X98442696Y-66606854D01*
X98329658Y-66664450D01*
X98329657Y-66664451D01*
X98329652Y-66664454D01*
X98239954Y-66754152D01*
X98239951Y-66754157D01*
X98182352Y-66867198D01*
X98167500Y-66960975D01*
X98167500Y-67070500D01*
X98147815Y-67137539D01*
X98095011Y-67183294D01*
X98043500Y-67194500D01*
X97517229Y-67194500D01*
X97450190Y-67174815D01*
X97429548Y-67158181D01*
X95555114Y-65283746D01*
X95521629Y-65222423D01*
X95518795Y-65196065D01*
X95518795Y-64064616D01*
X95538480Y-63997577D01*
X95555114Y-63976935D01*
X95614795Y-63917254D01*
X95683985Y-63848064D01*
X95795055Y-63695190D01*
X95880842Y-63526823D01*
X95939235Y-63347109D01*
X95942094Y-63329059D01*
X95968795Y-63160475D01*
X95968795Y-62971504D01*
X95939235Y-62784872D01*
X95912141Y-62701488D01*
X95880842Y-62605159D01*
X95880840Y-62605156D01*
X95880840Y-62605154D01*
X95818619Y-62483039D01*
X95795055Y-62436792D01*
X95683985Y-62283918D01*
X95550368Y-62150301D01*
X95397494Y-62039231D01*
X95396338Y-62038642D01*
X95229131Y-61953445D01*
X95049413Y-61895050D01*
X94862781Y-61865491D01*
X94862776Y-61865491D01*
X94673814Y-61865491D01*
X94673809Y-61865491D01*
X94487176Y-61895050D01*
X94307458Y-61953445D01*
X94139093Y-62039232D01*
X94110236Y-62060198D01*
X94107374Y-62061218D01*
X94105406Y-62063536D01*
X94074676Y-62072885D01*
X94044430Y-62083677D01*
X94041469Y-62082988D01*
X94038562Y-62083873D01*
X94007666Y-62075127D01*
X93976376Y-62067851D01*
X93973374Y-62065420D01*
X93971333Y-62064843D01*
X93964744Y-62058434D01*
X93944436Y-62041992D01*
X93938896Y-62035723D01*
X93900246Y-61977879D01*
X93795711Y-61873344D01*
X92127564Y-60205197D01*
X92094079Y-60143874D01*
X92099063Y-60074182D01*
X92140935Y-60018249D01*
X92142302Y-60017239D01*
X92282073Y-59915690D01*
X92415690Y-59782073D01*
X92526760Y-59629199D01*
X92596179Y-59492955D01*
X92644153Y-59442159D01*
X92711974Y-59425364D01*
X92778109Y-59447901D01*
X92821561Y-59502616D01*
X92824595Y-59510931D01*
X92867454Y-59642836D01*
X92953240Y-59811199D01*
X93064310Y-59964073D01*
X93197927Y-60097690D01*
X93350801Y-60208760D01*
X93430347Y-60249290D01*
X93519163Y-60294545D01*
X93519165Y-60294545D01*
X93519168Y-60294547D01*
X93576228Y-60313087D01*
X93698881Y-60352940D01*
X93885514Y-60382500D01*
X93885519Y-60382500D01*
X94074486Y-60382500D01*
X94261118Y-60352940D01*
X94440832Y-60294547D01*
X94609199Y-60208760D01*
X94762073Y-60097690D01*
X94895690Y-59964073D01*
X95006760Y-59811199D01*
X95092547Y-59642832D01*
X95150940Y-59463118D01*
X95160858Y-59400500D01*
X95180500Y-59276486D01*
X95180500Y-59087513D01*
X95150940Y-58900881D01*
X95092545Y-58721163D01*
X95006759Y-58552800D01*
X94956670Y-58483859D01*
X94895690Y-58399927D01*
X94766818Y-58271055D01*
X94733334Y-58209732D01*
X94730500Y-58183374D01*
X94730500Y-54409079D01*
X94701659Y-54264092D01*
X94701658Y-54264091D01*
X94701658Y-54264087D01*
X94668294Y-54183539D01*
X94645085Y-54127507D01*
X94643744Y-54125500D01*
X94588340Y-54042581D01*
X94562952Y-54004584D01*
X94424330Y-53865962D01*
X94390845Y-53804639D01*
X94395829Y-53734947D01*
X94437701Y-53679014D01*
X94492611Y-53655808D01*
X94623129Y-53635137D01*
X94626816Y-53633938D01*
X94647861Y-53633336D01*
X94668209Y-53627906D01*
X94682088Y-53632357D01*
X94696656Y-53631941D01*
X94716737Y-53643470D01*
X94734741Y-53649245D01*
X94741876Y-53657904D01*
X94752819Y-53664187D01*
X96271584Y-55182952D01*
X96271589Y-55182956D01*
X96337579Y-55227048D01*
X96337581Y-55227049D01*
X96394498Y-55265080D01*
X96394511Y-55265087D01*
X96531082Y-55321656D01*
X96531087Y-55321658D01*
X96531091Y-55321658D01*
X96531092Y-55321659D01*
X96676079Y-55350500D01*
X96676082Y-55350500D01*
X96676083Y-55350500D01*
X96823917Y-55350500D01*
X102797482Y-55350500D01*
X102864521Y-55370185D01*
X102907967Y-55418206D01*
X102912155Y-55426427D01*
X102956565Y-55487552D01*
X103057459Y-55626420D01*
X103057461Y-55626422D01*
X103232260Y-55801221D01*
X103310764Y-55858256D01*
X103330392Y-55872517D01*
X103338384Y-55878323D01*
X103381051Y-55933653D01*
X103389500Y-55978642D01*
X103389500Y-58183374D01*
X103369815Y-58250413D01*
X103353182Y-58271055D01*
X103224309Y-58399928D01*
X103113240Y-58552800D01*
X103027454Y-58721163D01*
X102969059Y-58900881D01*
X102939500Y-59087513D01*
X102939500Y-59276486D01*
X102969059Y-59463118D01*
X103027454Y-59642836D01*
X103113240Y-59811199D01*
X103224310Y-59964073D01*
X103357927Y-60097690D01*
X103510801Y-60208760D01*
X103590347Y-60249290D01*
X103679163Y-60294545D01*
X103679165Y-60294545D01*
X103679168Y-60294547D01*
X103736228Y-60313087D01*
X103858881Y-60352940D01*
X104045514Y-60382500D01*
X104045519Y-60382500D01*
X104234486Y-60382500D01*
X104421118Y-60352940D01*
X104600832Y-60294547D01*
X104769199Y-60208760D01*
X104922073Y-60097690D01*
X105055690Y-59964073D01*
X105166760Y-59811199D01*
X105252547Y-59642832D01*
X105310940Y-59463118D01*
X105320858Y-59400500D01*
X105340500Y-59276486D01*
X105340500Y-59087513D01*
X105310940Y-58900881D01*
X105252545Y-58721163D01*
X105166759Y-58552800D01*
X105116670Y-58483859D01*
X105055690Y-58399927D01*
X104926818Y-58271055D01*
X104893334Y-58209732D01*
X104890500Y-58183374D01*
X104890500Y-56118292D01*
X104910185Y-56051253D01*
X104958205Y-56007807D01*
X105078490Y-55946520D01*
X105278481Y-55801218D01*
X105453279Y-55626420D01*
X105598581Y-55426429D01*
X105710808Y-55206171D01*
X105787198Y-54971068D01*
X105825869Y-54726909D01*
X105825869Y-54479707D01*
X105787198Y-54235548D01*
X105710808Y-54000445D01*
X105598581Y-53780187D01*
X105453279Y-53580196D01*
X105278481Y-53405398D01*
X105078490Y-53260096D01*
X104858232Y-53147869D01*
X104623129Y-53071479D01*
X104623127Y-53071478D01*
X104623126Y-53071478D01*
X104435568Y-53041772D01*
X104378970Y-53032808D01*
X104131768Y-53032808D01*
X104075169Y-53041772D01*
X103887612Y-53071478D01*
X103652503Y-53147870D01*
X103432247Y-53260096D01*
X103232254Y-53405400D01*
X103057461Y-53580193D01*
X102912156Y-53780188D01*
X102911339Y-53781792D01*
X102910865Y-53782293D01*
X102909612Y-53784339D01*
X102909182Y-53784075D01*
X102863366Y-53832589D01*
X102800853Y-53849500D01*
X97112230Y-53849500D01*
X97045191Y-53829815D01*
X97024549Y-53813181D01*
X95815237Y-52603869D01*
X95781752Y-52542546D01*
X95784989Y-52477865D01*
X95785367Y-52476703D01*
X95787198Y-52471068D01*
X95825869Y-52226909D01*
X95825869Y-51979707D01*
X95787198Y-51735548D01*
X95710808Y-51500445D01*
X95598581Y-51280187D01*
X95453279Y-51080196D01*
X95278481Y-50905398D01*
X95078490Y-50760096D01*
X94858232Y-50647869D01*
X94687609Y-50592430D01*
X94629935Y-50552993D01*
X94602737Y-50488635D01*
X94614652Y-50419788D01*
X94661896Y-50368313D01*
X94725929Y-50350500D01*
X102797482Y-50350500D01*
X102864521Y-50370185D01*
X102907967Y-50418206D01*
X102912155Y-50426427D01*
X102928469Y-50448881D01*
X103057459Y-50626420D01*
X103232257Y-50801218D01*
X103432248Y-50946520D01*
X103652506Y-51058747D01*
X103887609Y-51135137D01*
X104131768Y-51173808D01*
X104131769Y-51173808D01*
X104378969Y-51173808D01*
X104378970Y-51173808D01*
X104623129Y-51135137D01*
X104858232Y-51058747D01*
X105078490Y-50946520D01*
X105278481Y-50801218D01*
X105453279Y-50626420D01*
X105598581Y-50426429D01*
X105710808Y-50206171D01*
X105787198Y-49971068D01*
X105825869Y-49726909D01*
X105825869Y-49479707D01*
X105787198Y-49235548D01*
X105710808Y-49000445D01*
X105598581Y-48780187D01*
X105453279Y-48580196D01*
X105278481Y-48405398D01*
X105078490Y-48260096D01*
X104858232Y-48147869D01*
X104623129Y-48071479D01*
X104623127Y-48071478D01*
X104623126Y-48071478D01*
X104435568Y-48041772D01*
X104378970Y-48032808D01*
X104131768Y-48032808D01*
X104075169Y-48041772D01*
X103887612Y-48071478D01*
X103652503Y-48147870D01*
X103432247Y-48260096D01*
X103232254Y-48405400D01*
X103057461Y-48580193D01*
X102912156Y-48780188D01*
X102911339Y-48781792D01*
X102910865Y-48782293D01*
X102909612Y-48784339D01*
X102909182Y-48784075D01*
X102863366Y-48832589D01*
X102800853Y-48849500D01*
X92778671Y-48849500D01*
X92711632Y-48829815D01*
X92665877Y-48777011D01*
X92655933Y-48707853D01*
X92668185Y-48669207D01*
X92671388Y-48662919D01*
X92677547Y-48650832D01*
X92735940Y-48471118D01*
X92746349Y-48405398D01*
X92765500Y-48284486D01*
X92765500Y-48095513D01*
X92746456Y-47975282D01*
X92735940Y-47908882D01*
X92731011Y-47893713D01*
X113649500Y-47893713D01*
X113649500Y-48106286D01*
X113665571Y-48207758D01*
X113682754Y-48316243D01*
X113733076Y-48471118D01*
X113748444Y-48518414D01*
X113844951Y-48707820D01*
X113969890Y-48879786D01*
X114120213Y-49030109D01*
X114292179Y-49155048D01*
X114292181Y-49155049D01*
X114292184Y-49155051D01*
X114481588Y-49251557D01*
X114683757Y-49317246D01*
X114893713Y-49350500D01*
X114893714Y-49350500D01*
X115106286Y-49350500D01*
X115106287Y-49350500D01*
X115316243Y-49317246D01*
X115518412Y-49251557D01*
X115707816Y-49155051D01*
X115775760Y-49105687D01*
X115879786Y-49030109D01*
X115879788Y-49030106D01*
X115879792Y-49030104D01*
X116030104Y-48879792D01*
X116030106Y-48879788D01*
X116030109Y-48879786D01*
X116155048Y-48707820D01*
X116155047Y-48707820D01*
X116155051Y-48707816D01*
X116251557Y-48518412D01*
X116317246Y-48316243D01*
X116350500Y-48106287D01*
X116350500Y-47893713D01*
X116317246Y-47683757D01*
X116251557Y-47481588D01*
X116155051Y-47292184D01*
X116155049Y-47292181D01*
X116155048Y-47292179D01*
X116030109Y-47120213D01*
X115879786Y-46969890D01*
X115707820Y-46844951D01*
X115518414Y-46748444D01*
X115518413Y-46748443D01*
X115518412Y-46748443D01*
X115316243Y-46682754D01*
X115316241Y-46682753D01*
X115316240Y-46682753D01*
X115154957Y-46657208D01*
X115106287Y-46649500D01*
X114893713Y-46649500D01*
X114845042Y-46657208D01*
X114683760Y-46682753D01*
X114481585Y-46748444D01*
X114292179Y-46844951D01*
X114120213Y-46969890D01*
X113969890Y-47120213D01*
X113844951Y-47292179D01*
X113748444Y-47481585D01*
X113682753Y-47683760D01*
X113649500Y-47893713D01*
X92731011Y-47893713D01*
X92677547Y-47729168D01*
X92677545Y-47729165D01*
X92677545Y-47729163D01*
X92627556Y-47631055D01*
X92591760Y-47560801D01*
X92480690Y-47407927D01*
X92347073Y-47274310D01*
X92194199Y-47163240D01*
X92025836Y-47077454D01*
X91846118Y-47019059D01*
X91659486Y-46989500D01*
X91659481Y-46989500D01*
X91477229Y-46989500D01*
X91410190Y-46969815D01*
X91389548Y-46953181D01*
X90107534Y-45671165D01*
X90107527Y-45671159D01*
X90033842Y-45621925D01*
X90033842Y-45621926D01*
X89984604Y-45589026D01*
X89848030Y-45532456D01*
X89848020Y-45532453D01*
X89703033Y-45503613D01*
X89703031Y-45503613D01*
X78719945Y-45503613D01*
X78719943Y-45503613D01*
X78574955Y-45532453D01*
X78574945Y-45532456D01*
X78438371Y-45589026D01*
X78315447Y-45671161D01*
X78315447Y-45671162D01*
X76760050Y-47226556D01*
X76760044Y-47226564D01*
X76710812Y-47300244D01*
X76710813Y-47300245D01*
X76677921Y-47349472D01*
X76677914Y-47349484D01*
X76621342Y-47486062D01*
X76621340Y-47486068D01*
X76592500Y-47631055D01*
X76592500Y-54394769D01*
X76572815Y-54461808D01*
X76556181Y-54482450D01*
X76142653Y-54895977D01*
X76081330Y-54929462D01*
X76035575Y-54930769D01*
X75969475Y-54920300D01*
X75969469Y-54920300D01*
X75780507Y-54920300D01*
X75714815Y-54930704D01*
X75697938Y-54933377D01*
X75681729Y-54935944D01*
X75612435Y-54926988D01*
X75574651Y-54901151D01*
X74864041Y-54190540D01*
X74864038Y-54190537D01*
X74803479Y-54150073D01*
X74803475Y-54150071D01*
X74798282Y-54146601D01*
X74716547Y-54091987D01*
X74620185Y-54052073D01*
X74614713Y-54049806D01*
X74614705Y-54049802D01*
X74552666Y-54024105D01*
X74552658Y-54024103D01*
X74378696Y-53989500D01*
X74378692Y-53989500D01*
X74378691Y-53989500D01*
X72092362Y-53989500D01*
X72025323Y-53969815D01*
X72004681Y-53953181D01*
X71904394Y-53852894D01*
X71904392Y-53852892D01*
X71732098Y-53727713D01*
X71542343Y-53631027D01*
X71542340Y-53631026D01*
X71339800Y-53565218D01*
X71129459Y-53531903D01*
X71129454Y-53531903D01*
X70821488Y-53531903D01*
X70821483Y-53531903D01*
X70611141Y-53565218D01*
X70408601Y-53631026D01*
X70408598Y-53631027D01*
X70218843Y-53727713D01*
X70143721Y-53782293D01*
X70046550Y-53852892D01*
X70046548Y-53852894D01*
X70046547Y-53852894D01*
X69895962Y-54003479D01*
X69895962Y-54003480D01*
X69895960Y-54003482D01*
X69842200Y-54077475D01*
X69770781Y-54175775D01*
X69674095Y-54365530D01*
X69674094Y-54365533D01*
X69608286Y-54568073D01*
X69574971Y-54778414D01*
X69574971Y-54790167D01*
X69555286Y-54857206D01*
X69538652Y-54877848D01*
X68711319Y-55705181D01*
X68649996Y-55738666D01*
X68623638Y-55741500D01*
X66840304Y-55741500D01*
X66666339Y-55776103D01*
X66666323Y-55776108D01*
X66550453Y-55824102D01*
X66550454Y-55824103D01*
X66502451Y-55843987D01*
X66415799Y-55901888D01*
X66415798Y-55901888D01*
X66354969Y-55942532D01*
X66354961Y-55942538D01*
X64941319Y-57356181D01*
X64914391Y-57370884D01*
X64888573Y-57387477D01*
X64882372Y-57388368D01*
X64879996Y-57389666D01*
X64853638Y-57392500D01*
X64795671Y-57392500D01*
X64728632Y-57372815D01*
X64697691Y-57344499D01*
X64695080Y-57341133D01*
X64578870Y-57224923D01*
X64578862Y-57224917D01*
X64500681Y-57178681D01*
X64437398Y-57141256D01*
X64437397Y-57141255D01*
X64437396Y-57141255D01*
X64437393Y-57141254D01*
X64279573Y-57095402D01*
X64279567Y-57095401D01*
X64242701Y-57092500D01*
X64242694Y-57092500D01*
X63011306Y-57092500D01*
X63011298Y-57092500D01*
X62974432Y-57095401D01*
X62974426Y-57095402D01*
X62816606Y-57141254D01*
X62816603Y-57141255D01*
X62675137Y-57224917D01*
X62675129Y-57224923D01*
X62558923Y-57341129D01*
X62558917Y-57341137D01*
X62475255Y-57482603D01*
X62475254Y-57482606D01*
X62429402Y-57640426D01*
X62429401Y-57640432D01*
X62426500Y-57677298D01*
X62426500Y-58908701D01*
X62429401Y-58945567D01*
X62429402Y-58945573D01*
X62475254Y-59103393D01*
X62475255Y-59103396D01*
X62558917Y-59244862D01*
X62558923Y-59244870D01*
X62675129Y-59361076D01*
X62675140Y-59361085D01*
X62815620Y-59444163D01*
X62823370Y-59452463D01*
X62833703Y-59457182D01*
X62846788Y-59477543D01*
X62863304Y-59495231D01*
X62866313Y-59507925D01*
X62871477Y-59515960D01*
X62876500Y-59550895D01*
X62876500Y-59581769D01*
X62856815Y-59648808D01*
X62840181Y-59669450D01*
X59127052Y-63382578D01*
X59127051Y-63382579D01*
X59111492Y-63405865D01*
X59087194Y-63442231D01*
X59066475Y-63473240D01*
X59065260Y-63475058D01*
X59035044Y-63506483D01*
X58927933Y-63584305D01*
X58927924Y-63584312D01*
X58794312Y-63717924D01*
X58794312Y-63717925D01*
X58794310Y-63717927D01*
X58773430Y-63746666D01*
X58683240Y-63870800D01*
X58597454Y-64039163D01*
X58539059Y-64218881D01*
X58509500Y-64405513D01*
X58509500Y-64594486D01*
X58539059Y-64781118D01*
X58597454Y-64960836D01*
X58678961Y-65120801D01*
X58683240Y-65129199D01*
X58794310Y-65282073D01*
X58794312Y-65282075D01*
X58923181Y-65410944D01*
X58956666Y-65472267D01*
X58959500Y-65498625D01*
X58959500Y-66168658D01*
X58939815Y-66235697D01*
X58911360Y-66265828D01*
X58911631Y-66266146D01*
X58908683Y-66268663D01*
X58908393Y-66268971D01*
X58907928Y-66269308D01*
X58774309Y-66402928D01*
X58663240Y-66555800D01*
X58577454Y-66724163D01*
X58519059Y-66903881D01*
X58489500Y-67090513D01*
X58489500Y-67279486D01*
X58519059Y-67466118D01*
X58577454Y-67645836D01*
X58659990Y-67807821D01*
X58663240Y-67814199D01*
X58774310Y-67967073D01*
X58907927Y-68100690D01*
X59060801Y-68211760D01*
X59076410Y-68219713D01*
X59229163Y-68297545D01*
X59229165Y-68297545D01*
X59229168Y-68297547D01*
X59325497Y-68328846D01*
X59408881Y-68355940D01*
X59595514Y-68385500D01*
X59595519Y-68385500D01*
X59784486Y-68385500D01*
X59971118Y-68355940D01*
X60150832Y-68297547D01*
X60319199Y-68211760D01*
X60472073Y-68100690D01*
X60605690Y-67967073D01*
X60716760Y-67814199D01*
X60802547Y-67645832D01*
X60842069Y-67524195D01*
X60881507Y-67466521D01*
X60945866Y-67439323D01*
X61014712Y-67451238D01*
X61066188Y-67498482D01*
X61077931Y-67524196D01*
X61117454Y-67645836D01*
X61199990Y-67807821D01*
X61203240Y-67814199D01*
X61314310Y-67967073D01*
X61447927Y-68100690D01*
X61600801Y-68211760D01*
X61616410Y-68219713D01*
X61769163Y-68297545D01*
X61769165Y-68297545D01*
X61769168Y-68297547D01*
X61865497Y-68328846D01*
X61948881Y-68355940D01*
X62135514Y-68385500D01*
X62135519Y-68385500D01*
X62324486Y-68385500D01*
X62511118Y-68355940D01*
X62690832Y-68297547D01*
X62859199Y-68211760D01*
X63012073Y-68100690D01*
X63145690Y-67967073D01*
X63256760Y-67814199D01*
X63342547Y-67645832D01*
X63382069Y-67524195D01*
X63421507Y-67466521D01*
X63485866Y-67439323D01*
X63554712Y-67451238D01*
X63606188Y-67498482D01*
X63617931Y-67524196D01*
X63657454Y-67645836D01*
X63739990Y-67807821D01*
X63743240Y-67814199D01*
X63854310Y-67967073D01*
X63854312Y-67967075D01*
X63983181Y-68095944D01*
X64016666Y-68157267D01*
X64019500Y-68183625D01*
X64019500Y-69467770D01*
X63999815Y-69534809D01*
X63983181Y-69555451D01*
X61647047Y-71891584D01*
X61647045Y-71891586D01*
X61609968Y-71947080D01*
X61609966Y-71947083D01*
X61564919Y-72014499D01*
X61564912Y-72014511D01*
X61508343Y-72151082D01*
X61508340Y-72151092D01*
X61479500Y-72296079D01*
X61479500Y-73806374D01*
X61459815Y-73873413D01*
X61443182Y-73894055D01*
X61314309Y-74022928D01*
X61203240Y-74175800D01*
X61117454Y-74344163D01*
X61059059Y-74523881D01*
X61029500Y-74710513D01*
X61029500Y-74899486D01*
X61059059Y-75086118D01*
X61117454Y-75265836D01*
X61192891Y-75413888D01*
X61203240Y-75434199D01*
X61314310Y-75587073D01*
X61314312Y-75587075D01*
X61443181Y-75715944D01*
X61476666Y-75777267D01*
X61479500Y-75803625D01*
X61479500Y-76307770D01*
X61472481Y-76331672D01*
X61469560Y-76356414D01*
X61461878Y-76367781D01*
X61459815Y-76374809D01*
X61451236Y-76386578D01*
X61447427Y-76391204D01*
X61417048Y-76421584D01*
X61397335Y-76451088D01*
X61393901Y-76456226D01*
X61393897Y-76456232D01*
X61334914Y-76544507D01*
X61278343Y-76681082D01*
X61278340Y-76681092D01*
X61249500Y-76826079D01*
X61249500Y-77492104D01*
X61229815Y-77559143D01*
X61188621Y-77598836D01*
X61048138Y-77681916D01*
X61048129Y-77681923D01*
X60931923Y-77798129D01*
X60931917Y-77798137D01*
X60848255Y-77939603D01*
X60848254Y-77939606D01*
X60802402Y-78097426D01*
X60802401Y-78097432D01*
X60799500Y-78134298D01*
X60799500Y-79365701D01*
X60802401Y-79402567D01*
X60802402Y-79402573D01*
X60848254Y-79560393D01*
X60848255Y-79560396D01*
X60848256Y-79560398D01*
X60853734Y-79569660D01*
X60931917Y-79701862D01*
X60931923Y-79701870D01*
X61048129Y-79818076D01*
X61048133Y-79818079D01*
X61048135Y-79818081D01*
X61189602Y-79901744D01*
X61263095Y-79923096D01*
X61321980Y-79960702D01*
X61351187Y-80024174D01*
X61352500Y-80042172D01*
X61352500Y-80591918D01*
X61352500Y-80591920D01*
X61352499Y-80591920D01*
X61381340Y-80736907D01*
X61381343Y-80736917D01*
X61437912Y-80873488D01*
X61437916Y-80873495D01*
X61456007Y-80900570D01*
X61456008Y-80900573D01*
X61456009Y-80900573D01*
X61520048Y-80996416D01*
X61824182Y-81300549D01*
X61838886Y-81327478D01*
X61855477Y-81353294D01*
X61856368Y-81359494D01*
X61857666Y-81361871D01*
X61860500Y-81388229D01*
X61860500Y-81560500D01*
X61840815Y-81627539D01*
X61788011Y-81673294D01*
X61736503Y-81684500D01*
X61695318Y-81684500D01*
X61695291Y-81684501D01*
X61658429Y-81687402D01*
X61500605Y-81733254D01*
X61500602Y-81733255D01*
X61359138Y-81816916D01*
X61359129Y-81816923D01*
X61242923Y-81933129D01*
X61242916Y-81933138D01*
X61159255Y-82074602D01*
X61159254Y-82074605D01*
X61113402Y-82232425D01*
X61113401Y-82232431D01*
X61110500Y-82269297D01*
X61110500Y-84100682D01*
X61110501Y-84100707D01*
X61113402Y-84137570D01*
X61159254Y-84295394D01*
X61159255Y-84295397D01*
X61242916Y-84436861D01*
X61242923Y-84436870D01*
X61359129Y-84553076D01*
X61359133Y-84553079D01*
X61359135Y-84553081D01*
X61500601Y-84636744D01*
X61541247Y-84648553D01*
X61658425Y-84682597D01*
X61658428Y-84682597D01*
X61658430Y-84682598D01*
X61695305Y-84685500D01*
X61736499Y-84685499D01*
X61745184Y-84688049D01*
X61754147Y-84686761D01*
X61778184Y-84697738D01*
X61803537Y-84705182D01*
X61809466Y-84712024D01*
X61817703Y-84715786D01*
X61831989Y-84738016D01*
X61849293Y-84757985D01*
X61851580Y-84768501D01*
X61855477Y-84774564D01*
X61860500Y-84809499D01*
X61860500Y-84896984D01*
X61840815Y-84964023D01*
X61788011Y-85009778D01*
X61755899Y-85019457D01*
X61648634Y-85036446D01*
X61424005Y-85109433D01*
X61213566Y-85216657D01*
X61140342Y-85269858D01*
X61022490Y-85355483D01*
X61022488Y-85355485D01*
X61022487Y-85355485D01*
X60855485Y-85522487D01*
X60855485Y-85522488D01*
X60855483Y-85522490D01*
X60837364Y-85547429D01*
X60716657Y-85713566D01*
X60609433Y-85924003D01*
X60536446Y-86148631D01*
X60499500Y-86381902D01*
X60499500Y-86618097D01*
X60536446Y-86851368D01*
X60609433Y-87075996D01*
X60701208Y-87256113D01*
X60716657Y-87286433D01*
X60855483Y-87477510D01*
X61022490Y-87644517D01*
X61213567Y-87783343D01*
X61311925Y-87833459D01*
X61424003Y-87890566D01*
X61424005Y-87890566D01*
X61424008Y-87890568D01*
X61489886Y-87911973D01*
X61648631Y-87963553D01*
X61881903Y-88000500D01*
X61881908Y-88000500D01*
X62118097Y-88000500D01*
X62351368Y-87963553D01*
X62443984Y-87933460D01*
X62575992Y-87890568D01*
X62786433Y-87783343D01*
X62977510Y-87644517D01*
X63144517Y-87477510D01*
X63283343Y-87286433D01*
X63390568Y-87075992D01*
X63463553Y-86851368D01*
X63481722Y-86736652D01*
X63500500Y-86618097D01*
X63500500Y-86381902D01*
X63471316Y-86197648D01*
X63463553Y-86148632D01*
X63463552Y-86148628D01*
X63463552Y-86148627D01*
X63390570Y-85924013D01*
X63390568Y-85924010D01*
X63390568Y-85924008D01*
X63375014Y-85893481D01*
X63361500Y-85837188D01*
X63361500Y-84809499D01*
X63381185Y-84742460D01*
X63433989Y-84696705D01*
X63485500Y-84685499D01*
X63526682Y-84685499D01*
X63526694Y-84685499D01*
X63563570Y-84682598D01*
X63721399Y-84636744D01*
X63862865Y-84553081D01*
X63979081Y-84436865D01*
X64062744Y-84295399D01*
X64108598Y-84137570D01*
X64111500Y-84100695D01*
X64111499Y-82269306D01*
X64108598Y-82232430D01*
X64062744Y-82074601D01*
X63979081Y-81933135D01*
X63979079Y-81933133D01*
X63979076Y-81933129D01*
X63862870Y-81816923D01*
X63862861Y-81816916D01*
X63721397Y-81733255D01*
X63721394Y-81733254D01*
X63563574Y-81687402D01*
X63563568Y-81687401D01*
X63526702Y-81684500D01*
X63526695Y-81684500D01*
X63485500Y-81684500D01*
X63418461Y-81664815D01*
X63372706Y-81612011D01*
X63361500Y-81560500D01*
X63361500Y-80952079D01*
X63332659Y-80807092D01*
X63332658Y-80807091D01*
X63332658Y-80807087D01*
X63320499Y-80777732D01*
X63276087Y-80670511D01*
X63276080Y-80670498D01*
X63193952Y-80547585D01*
X63160313Y-80513946D01*
X63089416Y-80443049D01*
X62889819Y-80243451D01*
X62875115Y-80216523D01*
X62858523Y-80190705D01*
X62857631Y-80184504D01*
X62856334Y-80182128D01*
X62853500Y-80155770D01*
X62853500Y-79946981D01*
X62873185Y-79879942D01*
X62914379Y-79840249D01*
X62951865Y-79818081D01*
X63068081Y-79701865D01*
X63151744Y-79560398D01*
X63197598Y-79402569D01*
X63200500Y-79365694D01*
X63200500Y-78134306D01*
X63197598Y-78097431D01*
X63192969Y-78081499D01*
X63159928Y-77967770D01*
X63151744Y-77939602D01*
X63068081Y-77798135D01*
X63068079Y-77798133D01*
X63068076Y-77798129D01*
X62951870Y-77681923D01*
X62951861Y-77681916D01*
X62811379Y-77598836D01*
X62803628Y-77590535D01*
X62793297Y-77585817D01*
X62780211Y-77565455D01*
X62763696Y-77547767D01*
X62760686Y-77535074D01*
X62755523Y-77527039D01*
X62750500Y-77492104D01*
X62750500Y-77262229D01*
X62770185Y-77195190D01*
X62786815Y-77174551D01*
X62812951Y-77148416D01*
X62832665Y-77118912D01*
X62895084Y-77025495D01*
X62951658Y-76888913D01*
X62964157Y-76826079D01*
X62980500Y-76743920D01*
X62980500Y-75803625D01*
X63000185Y-75736586D01*
X63016819Y-75715944D01*
X63074407Y-75658356D01*
X63145690Y-75587073D01*
X63256760Y-75434199D01*
X63342547Y-75265832D01*
X63382069Y-75144195D01*
X63421507Y-75086521D01*
X63485866Y-75059323D01*
X63554712Y-75071238D01*
X63606188Y-75118482D01*
X63617931Y-75144196D01*
X63657454Y-75265836D01*
X63732891Y-75413888D01*
X63743240Y-75434199D01*
X63854310Y-75587073D01*
X63987927Y-75720690D01*
X64140801Y-75831760D01*
X64154844Y-75838915D01*
X64309163Y-75917545D01*
X64309165Y-75917545D01*
X64309168Y-75917547D01*
X64372094Y-75937993D01*
X64488881Y-75975940D01*
X64675514Y-76005500D01*
X64675519Y-76005500D01*
X64864486Y-76005500D01*
X65051118Y-75975940D01*
X65051515Y-75975811D01*
X65230832Y-75917547D01*
X65399199Y-75831760D01*
X65552073Y-75720690D01*
X65685690Y-75587073D01*
X65796760Y-75434199D01*
X65882547Y-75265832D01*
X65922069Y-75144195D01*
X65961507Y-75086521D01*
X66025866Y-75059323D01*
X66094712Y-75071238D01*
X66146188Y-75118482D01*
X66157931Y-75144196D01*
X66197454Y-75265836D01*
X66272891Y-75413888D01*
X66283240Y-75434199D01*
X66394310Y-75587073D01*
X66527927Y-75720690D01*
X66642077Y-75803625D01*
X66644220Y-75805182D01*
X66686885Y-75860512D01*
X66692864Y-75930126D01*
X66660258Y-75991921D01*
X66599419Y-76026278D01*
X66571334Y-76029500D01*
X65940406Y-76029500D01*
X65872343Y-76035685D01*
X65872339Y-76035686D01*
X65872335Y-76035687D01*
X65715736Y-76084485D01*
X65715727Y-76084488D01*
X65575351Y-76169348D01*
X65575347Y-76169351D01*
X65459351Y-76285347D01*
X65459348Y-76285351D01*
X65374488Y-76425727D01*
X65374485Y-76425736D01*
X65334925Y-76552690D01*
X65325685Y-76582343D01*
X65319500Y-76650406D01*
X65319500Y-78009594D01*
X65325685Y-78077657D01*
X65325686Y-78077662D01*
X65325687Y-78077664D01*
X65374485Y-78234263D01*
X65374488Y-78234272D01*
X65459348Y-78374648D01*
X65459351Y-78374652D01*
X65483181Y-78398482D01*
X65516666Y-78459805D01*
X65519500Y-78486163D01*
X65519500Y-85953521D01*
X65499815Y-86020560D01*
X65483181Y-86041202D01*
X62776202Y-88748181D01*
X62714879Y-88781666D01*
X62688521Y-88784500D01*
X60941230Y-88784500D01*
X60874191Y-88764815D01*
X60853549Y-88748181D01*
X59067819Y-86962451D01*
X59034334Y-86901128D01*
X59031500Y-86874770D01*
X59031500Y-79707079D01*
X59002659Y-79562092D01*
X59002658Y-79562091D01*
X59002658Y-79562087D01*
X58999670Y-79554873D01*
X58946087Y-79425511D01*
X58946083Y-79425504D01*
X58930761Y-79402573D01*
X58909197Y-79370300D01*
X58863952Y-79302584D01*
X57616819Y-78055451D01*
X57583334Y-77994128D01*
X57580500Y-77967770D01*
X57580500Y-69748625D01*
X57600185Y-69681586D01*
X57616819Y-69660944D01*
X57666676Y-69611087D01*
X57745690Y-69532073D01*
X57856760Y-69379199D01*
X57942547Y-69210832D01*
X58000940Y-69031118D01*
X58017111Y-68929017D01*
X58030500Y-68844486D01*
X58030500Y-68655513D01*
X58000940Y-68468881D01*
X57964243Y-68355940D01*
X57942547Y-68289168D01*
X57942545Y-68289165D01*
X57942545Y-68289163D01*
X57875340Y-68157267D01*
X57856760Y-68120801D01*
X57745690Y-67967927D01*
X57616818Y-67839055D01*
X57583334Y-67777732D01*
X57580500Y-67751374D01*
X57580500Y-66748625D01*
X57600185Y-66681586D01*
X57616819Y-66660944D01*
X57670911Y-66606852D01*
X57745690Y-66532073D01*
X57856760Y-66379199D01*
X57942547Y-66210832D01*
X58000940Y-66031118D01*
X58004912Y-66006037D01*
X58030500Y-65844486D01*
X58030500Y-65655513D01*
X58000940Y-65468881D01*
X57973846Y-65385497D01*
X57942547Y-65289168D01*
X57942545Y-65289165D01*
X57942545Y-65289163D01*
X57878894Y-65164242D01*
X57856760Y-65120801D01*
X57745690Y-64967927D01*
X57612073Y-64834310D01*
X57459199Y-64723240D01*
X57413327Y-64699867D01*
X57290836Y-64637454D01*
X57111118Y-64579059D01*
X56924486Y-64549500D01*
X56924481Y-64549500D01*
X56735519Y-64549500D01*
X56735514Y-64549500D01*
X56548881Y-64579059D01*
X56369163Y-64637454D01*
X56200800Y-64723240D01*
X56113579Y-64786610D01*
X56047927Y-64834310D01*
X56047925Y-64834312D01*
X56047924Y-64834312D01*
X55914312Y-64967924D01*
X55914312Y-64967925D01*
X55914310Y-64967927D01*
X55875960Y-65020711D01*
X55803240Y-65120800D01*
X55717454Y-65289163D01*
X55659059Y-65468881D01*
X55629500Y-65655513D01*
X55629500Y-65844486D01*
X55659059Y-66031118D01*
X55717454Y-66210836D01*
X55784193Y-66341818D01*
X55803240Y-66379199D01*
X55914310Y-66532073D01*
X55914312Y-66532075D01*
X56043181Y-66660944D01*
X56076666Y-66722267D01*
X56079500Y-66748625D01*
X56079500Y-67751374D01*
X56059815Y-67818413D01*
X56043182Y-67839055D01*
X55914309Y-67967928D01*
X55803240Y-68120800D01*
X55717454Y-68289163D01*
X55659059Y-68468881D01*
X55629500Y-68655513D01*
X55629500Y-68844486D01*
X55659059Y-69031118D01*
X55717454Y-69210836D01*
X55803240Y-69379199D01*
X55914310Y-69532073D01*
X55914312Y-69532075D01*
X56043181Y-69660944D01*
X56076666Y-69722267D01*
X56079500Y-69748625D01*
X56079500Y-78403918D01*
X56079500Y-78403920D01*
X56079499Y-78403920D01*
X56108340Y-78548907D01*
X56108343Y-78548917D01*
X56164913Y-78685490D01*
X56164915Y-78685493D01*
X56176737Y-78703187D01*
X56176736Y-78703187D01*
X56247046Y-78808414D01*
X56247052Y-78808421D01*
X57494181Y-80055549D01*
X57527666Y-80116872D01*
X57530500Y-80143230D01*
X57530500Y-80557219D01*
X57510815Y-80624258D01*
X57458011Y-80670013D01*
X57388853Y-80679957D01*
X57350206Y-80667704D01*
X57290839Y-80637455D01*
X57111118Y-80579059D01*
X56924486Y-80549500D01*
X56924481Y-80549500D01*
X56735519Y-80549500D01*
X56735514Y-80549500D01*
X56548881Y-80579059D01*
X56369163Y-80637454D01*
X56200800Y-80723240D01*
X56118041Y-80783369D01*
X56047927Y-80834310D01*
X56047925Y-80834312D01*
X56047924Y-80834312D01*
X55914312Y-80967924D01*
X55914312Y-80967925D01*
X55914310Y-80967927D01*
X55870217Y-81028615D01*
X55803240Y-81120800D01*
X55717454Y-81289163D01*
X55659059Y-81468881D01*
X55629500Y-81655513D01*
X55629500Y-81844486D01*
X55659059Y-82031118D01*
X55717454Y-82210836D01*
X55781402Y-82336340D01*
X55803240Y-82379199D01*
X55914310Y-82532073D01*
X55914312Y-82532075D01*
X56043181Y-82660944D01*
X56076666Y-82722267D01*
X56079500Y-82748625D01*
X56079500Y-83751374D01*
X56059815Y-83818413D01*
X56043182Y-83839055D01*
X55914309Y-83967928D01*
X55803240Y-84120800D01*
X55717454Y-84289163D01*
X55659059Y-84468881D01*
X55629500Y-84655513D01*
X55629500Y-84844486D01*
X55659059Y-85031118D01*
X55717454Y-85210836D01*
X55791156Y-85355483D01*
X55803240Y-85379199D01*
X55914310Y-85532073D01*
X55914312Y-85532075D01*
X56043181Y-85660944D01*
X56076666Y-85722267D01*
X56079500Y-85748625D01*
X56079500Y-87603918D01*
X56079500Y-87603920D01*
X56079499Y-87603920D01*
X56108340Y-87748907D01*
X56108343Y-87748917D01*
X56164914Y-87885492D01*
X56164915Y-87885494D01*
X56164916Y-87885495D01*
X56180500Y-87908819D01*
X56183684Y-87913583D01*
X56183685Y-87913586D01*
X56247046Y-88008414D01*
X56247052Y-88008421D01*
X58955452Y-90716819D01*
X58988937Y-90778142D01*
X58983953Y-90847834D01*
X58942081Y-90903767D01*
X58876617Y-90928184D01*
X58867771Y-90928500D01*
X51909205Y-90928500D01*
X51842166Y-90908815D01*
X51821524Y-90892181D01*
X45763819Y-84834476D01*
X45730334Y-84773153D01*
X45727500Y-84746795D01*
X45727500Y-82792496D01*
X45747185Y-82725457D01*
X45799989Y-82679702D01*
X45869147Y-82669758D01*
X45924382Y-82692176D01*
X46040801Y-82776760D01*
X46071685Y-82792496D01*
X46209163Y-82862545D01*
X46209165Y-82862545D01*
X46209168Y-82862547D01*
X46298833Y-82891681D01*
X46388881Y-82920940D01*
X46575514Y-82950500D01*
X46575519Y-82950500D01*
X46764486Y-82950500D01*
X46951118Y-82920940D01*
X46957196Y-82918965D01*
X47130832Y-82862547D01*
X47299199Y-82776760D01*
X47452073Y-82665690D01*
X47585690Y-82532073D01*
X47696760Y-82379199D01*
X47782547Y-82210832D01*
X47840940Y-82031118D01*
X47843910Y-82012368D01*
X47870500Y-81844486D01*
X47870500Y-81655513D01*
X47840940Y-81468881D01*
X47802968Y-81352018D01*
X47782547Y-81289168D01*
X47782545Y-81289165D01*
X47782545Y-81289163D01*
X47720469Y-81167333D01*
X47696760Y-81120801D01*
X47585690Y-80967927D01*
X47456818Y-80839055D01*
X47423334Y-80777732D01*
X47420500Y-80751374D01*
X47420500Y-80438230D01*
X47440185Y-80371191D01*
X47456819Y-80350549D01*
X49270549Y-78536819D01*
X49331872Y-78503334D01*
X49358230Y-78500500D01*
X50500329Y-78500500D01*
X50567368Y-78520185D01*
X50613123Y-78572989D01*
X50614890Y-78577048D01*
X50667132Y-78703174D01*
X50667138Y-78703185D01*
X50806354Y-78944315D01*
X50808088Y-78947317D01*
X50856283Y-79010125D01*
X50979704Y-79170970D01*
X51179029Y-79370295D01*
X51179033Y-79370298D01*
X51179035Y-79370300D01*
X51402683Y-79541912D01*
X51402690Y-79541916D01*
X51646809Y-79682859D01*
X51646814Y-79682861D01*
X51646817Y-79682863D01*
X51737696Y-79720506D01*
X51861552Y-79771809D01*
X51907261Y-79790742D01*
X52179558Y-79863704D01*
X52385196Y-79890777D01*
X52456253Y-79900132D01*
X52459049Y-79900500D01*
X52459056Y-79900500D01*
X52740944Y-79900500D01*
X52740951Y-79900500D01*
X53020442Y-79863704D01*
X53292739Y-79790742D01*
X53553183Y-79682863D01*
X53797317Y-79541912D01*
X54020965Y-79370300D01*
X54220300Y-79170965D01*
X54391912Y-78947317D01*
X54532863Y-78703183D01*
X54640742Y-78442739D01*
X54713704Y-78170442D01*
X54750500Y-77890951D01*
X54750500Y-77609049D01*
X54713704Y-77329558D01*
X54640742Y-77057261D01*
X54532863Y-76796817D01*
X54532861Y-76796814D01*
X54532859Y-76796809D01*
X54391916Y-76552690D01*
X54391912Y-76552683D01*
X54220300Y-76329035D01*
X54220298Y-76329033D01*
X54220295Y-76329029D01*
X54020970Y-76129704D01*
X54020965Y-76129700D01*
X53797317Y-75958088D01*
X53797311Y-75958084D01*
X53797309Y-75958083D01*
X53553190Y-75817140D01*
X53553179Y-75817135D01*
X53292743Y-75709259D01*
X53020439Y-75636295D01*
X52740958Y-75599500D01*
X52740951Y-75599500D01*
X52459049Y-75599500D01*
X52459041Y-75599500D01*
X52179560Y-75636295D01*
X51907256Y-75709259D01*
X51646820Y-75817135D01*
X51646809Y-75817140D01*
X51402690Y-75958083D01*
X51402682Y-75958089D01*
X51179029Y-76129704D01*
X50979704Y-76329029D01*
X50808089Y-76552682D01*
X50808083Y-76552690D01*
X50667140Y-76796809D01*
X50667132Y-76796825D01*
X50614890Y-76922952D01*
X50571049Y-76977356D01*
X50504755Y-76999421D01*
X50500329Y-76999500D01*
X48922076Y-76999500D01*
X48893242Y-77005234D01*
X48893243Y-77005235D01*
X48777093Y-77028339D01*
X48777083Y-77028342D01*
X48697081Y-77061479D01*
X48697082Y-77061480D01*
X48640505Y-77084915D01*
X48599645Y-77112218D01*
X48599643Y-77112219D01*
X48517589Y-77167043D01*
X48517584Y-77167047D01*
X46087052Y-79597578D01*
X46087049Y-79597581D01*
X46048385Y-79655446D01*
X46048386Y-79655447D01*
X46004915Y-79720506D01*
X45966061Y-79814309D01*
X45922220Y-79868712D01*
X45855926Y-79890777D01*
X45788227Y-79873498D01*
X45740616Y-79822361D01*
X45727500Y-79766856D01*
X45727500Y-70855143D01*
X45729515Y-70848278D01*
X45728283Y-70841231D01*
X45739229Y-70815197D01*
X45747185Y-70788104D01*
X45752591Y-70783419D01*
X45755365Y-70776823D01*
X45778651Y-70760838D01*
X45799989Y-70742349D01*
X45807069Y-70741330D01*
X45812969Y-70737281D01*
X45841198Y-70736423D01*
X45869147Y-70732405D01*
X45875655Y-70735377D01*
X45882806Y-70735160D01*
X45907014Y-70749698D01*
X45932703Y-70761430D01*
X45938029Y-70768324D01*
X45942704Y-70771132D01*
X45954680Y-70789877D01*
X45962678Y-70800230D01*
X45964492Y-70803903D01*
X46004916Y-70901495D01*
X46030245Y-70939402D01*
X46034738Y-70946127D01*
X46034740Y-70946130D01*
X46087043Y-71024410D01*
X46087047Y-71024415D01*
X48395578Y-73332947D01*
X48395585Y-73332953D01*
X48461696Y-73377127D01*
X48461705Y-73377131D01*
X48466737Y-73380494D01*
X48518505Y-73415084D01*
X48575080Y-73438518D01*
X48655088Y-73471659D01*
X48755259Y-73491584D01*
X48777670Y-73496042D01*
X48800081Y-73500500D01*
X48800082Y-73500500D01*
X48800083Y-73500500D01*
X48947918Y-73500500D01*
X50500329Y-73500500D01*
X50567368Y-73520185D01*
X50613123Y-73572989D01*
X50614890Y-73577048D01*
X50667132Y-73703174D01*
X50667140Y-73703190D01*
X50782958Y-73903791D01*
X50808088Y-73947317D01*
X50975507Y-74165500D01*
X50979704Y-74170970D01*
X51179029Y-74370295D01*
X51179033Y-74370298D01*
X51179035Y-74370300D01*
X51402683Y-74541912D01*
X51402690Y-74541916D01*
X51646809Y-74682859D01*
X51646814Y-74682861D01*
X51646817Y-74682863D01*
X51907261Y-74790742D01*
X52179558Y-74863704D01*
X52459049Y-74900500D01*
X52459056Y-74900500D01*
X52740944Y-74900500D01*
X52740951Y-74900500D01*
X53020442Y-74863704D01*
X53292739Y-74790742D01*
X53553183Y-74682863D01*
X53797317Y-74541912D01*
X54020965Y-74370300D01*
X54220300Y-74170965D01*
X54391912Y-73947317D01*
X54532863Y-73703183D01*
X54640742Y-73442739D01*
X54713704Y-73170442D01*
X54750500Y-72890951D01*
X54750500Y-72609049D01*
X54713704Y-72329558D01*
X54640742Y-72057261D01*
X54634221Y-72041519D01*
X54572117Y-71891586D01*
X54532863Y-71796817D01*
X54532861Y-71796814D01*
X54532859Y-71796809D01*
X54391916Y-71552690D01*
X54391912Y-71552683D01*
X54220300Y-71329035D01*
X54220298Y-71329033D01*
X54220295Y-71329029D01*
X54020970Y-71129704D01*
X53935321Y-71063983D01*
X53797317Y-70958088D01*
X53797311Y-70958084D01*
X53797309Y-70958083D01*
X53553190Y-70817140D01*
X53553179Y-70817135D01*
X53292743Y-70709259D01*
X53020439Y-70636295D01*
X52740958Y-70599500D01*
X52740951Y-70599500D01*
X52459049Y-70599500D01*
X52459041Y-70599500D01*
X52179560Y-70636295D01*
X51907256Y-70709259D01*
X51646820Y-70817135D01*
X51646809Y-70817140D01*
X51402690Y-70958083D01*
X51402684Y-70958087D01*
X51402683Y-70958088D01*
X51393597Y-70965060D01*
X51179029Y-71129704D01*
X50979704Y-71329029D01*
X50861502Y-71483073D01*
X50843296Y-71506800D01*
X50808089Y-71552682D01*
X50808083Y-71552690D01*
X50667140Y-71796809D01*
X50667132Y-71796825D01*
X50614890Y-71922952D01*
X50571049Y-71977356D01*
X50504755Y-71999421D01*
X50500329Y-71999500D01*
X49236230Y-71999500D01*
X49169191Y-71979815D01*
X49148549Y-71963181D01*
X47456819Y-70271451D01*
X47423334Y-70210128D01*
X47420500Y-70183770D01*
X47420500Y-69748625D01*
X47440185Y-69681586D01*
X47456819Y-69660944D01*
X47506676Y-69611087D01*
X47585690Y-69532073D01*
X47696760Y-69379199D01*
X47782547Y-69210832D01*
X47840940Y-69031118D01*
X47857111Y-68929017D01*
X47870500Y-68844486D01*
X47870500Y-68655513D01*
X47840940Y-68468881D01*
X47804243Y-68355940D01*
X47782547Y-68289168D01*
X47782545Y-68289165D01*
X47782545Y-68289163D01*
X47715340Y-68157267D01*
X47696760Y-68120801D01*
X47585690Y-67967927D01*
X47452073Y-67834310D01*
X47299199Y-67723240D01*
X47130836Y-67637454D01*
X46951118Y-67579059D01*
X46764486Y-67549500D01*
X46764481Y-67549500D01*
X46575519Y-67549500D01*
X46575514Y-67549500D01*
X46388881Y-67579059D01*
X46209163Y-67637454D01*
X46040800Y-67723240D01*
X45943445Y-67793973D01*
X45924707Y-67807588D01*
X45924386Y-67807821D01*
X45858579Y-67831301D01*
X45790525Y-67815476D01*
X45741830Y-67765370D01*
X45727500Y-67707503D01*
X45727500Y-56280914D01*
X45747185Y-56213875D01*
X45763814Y-56193238D01*
X49060767Y-52896284D01*
X49122088Y-52862801D01*
X49191780Y-52867785D01*
X49241907Y-52902475D01*
X49267803Y-52932174D01*
X49267807Y-52932178D01*
X49267814Y-52932186D01*
X49489553Y-53125533D01*
X49489555Y-53125535D01*
X49735551Y-53286884D01*
X49735554Y-53286885D01*
X49735555Y-53286886D01*
X50001237Y-53413238D01*
X50281648Y-53502237D01*
X50571567Y-53552224D01*
X50593828Y-53553365D01*
X50693951Y-53558499D01*
X50693977Y-53558499D01*
X50693984Y-53558500D01*
X50693990Y-53558500D01*
X54390010Y-53558500D01*
X54390016Y-53558500D01*
X54390022Y-53558499D01*
X54390048Y-53558499D01*
X54477451Y-53554017D01*
X54512433Y-53552224D01*
X54802352Y-53502237D01*
X55082763Y-53413238D01*
X55303056Y-53308471D01*
X55372050Y-53297456D01*
X55436048Y-53325491D01*
X55474730Y-53383675D01*
X55475815Y-53453537D01*
X55443991Y-53508134D01*
X54022877Y-54929249D01*
X53961554Y-54962734D01*
X53891862Y-54957750D01*
X53852710Y-54932587D01*
X53852018Y-54933377D01*
X53848970Y-54930704D01*
X53848965Y-54930700D01*
X53625317Y-54759088D01*
X53625311Y-54759084D01*
X53625309Y-54759083D01*
X53381190Y-54618140D01*
X53381179Y-54618135D01*
X53120743Y-54510259D01*
X52848439Y-54437295D01*
X52568958Y-54400500D01*
X52568951Y-54400500D01*
X52287049Y-54400500D01*
X52287041Y-54400500D01*
X52007560Y-54437295D01*
X51735256Y-54510259D01*
X51474820Y-54618135D01*
X51474809Y-54618140D01*
X51230690Y-54759083D01*
X51230682Y-54759089D01*
X51007029Y-54930704D01*
X50807704Y-55130029D01*
X50749277Y-55206173D01*
X50637054Y-55352425D01*
X50636089Y-55353682D01*
X50636083Y-55353690D01*
X50495140Y-55597809D01*
X50495135Y-55597820D01*
X50387259Y-55858256D01*
X50314295Y-56130560D01*
X50277500Y-56410041D01*
X50277500Y-56691958D01*
X50314295Y-56971439D01*
X50387259Y-57243743D01*
X50495135Y-57504179D01*
X50495140Y-57504190D01*
X50636083Y-57748309D01*
X50636088Y-57748317D01*
X50807700Y-57971965D01*
X50807704Y-57971970D01*
X51007029Y-58171295D01*
X51007033Y-58171298D01*
X51007035Y-58171300D01*
X51230683Y-58342912D01*
X51230690Y-58342916D01*
X51474809Y-58483859D01*
X51474814Y-58483861D01*
X51474817Y-58483863D01*
X51735261Y-58591742D01*
X52007558Y-58664704D01*
X52287049Y-58701500D01*
X52287056Y-58701500D01*
X52568944Y-58701500D01*
X52568951Y-58701500D01*
X52848442Y-58664704D01*
X53120739Y-58591742D01*
X53381183Y-58483863D01*
X53625317Y-58342912D01*
X53848965Y-58171300D01*
X54048300Y-57971965D01*
X54219912Y-57748317D01*
X54231577Y-57728111D01*
X54282142Y-57679894D01*
X54300649Y-57672177D01*
X54469813Y-57617213D01*
X54469819Y-57617211D01*
X54502074Y-57600776D01*
X54631174Y-57534996D01*
X54655878Y-57517048D01*
X54661378Y-57513052D01*
X54661378Y-57513051D01*
X54661379Y-57513051D01*
X54777681Y-57428553D01*
X54905733Y-57300501D01*
X54905734Y-57300499D01*
X54912794Y-57293439D01*
X54912800Y-57293432D01*
X56787821Y-55418410D01*
X56849142Y-55384927D01*
X56918834Y-55389911D01*
X56974767Y-55431783D01*
X56999184Y-55497247D01*
X56999500Y-55506093D01*
X56999500Y-56541682D01*
X56999501Y-56541707D01*
X57002402Y-56578570D01*
X57048254Y-56736394D01*
X57048255Y-56736397D01*
X57048256Y-56736399D01*
X57066969Y-56768041D01*
X57131916Y-56877861D01*
X57131923Y-56877870D01*
X57248129Y-56994076D01*
X57248133Y-56994079D01*
X57248135Y-56994081D01*
X57389601Y-57077744D01*
X57431223Y-57089836D01*
X57547425Y-57123597D01*
X57547428Y-57123597D01*
X57547430Y-57123598D01*
X57584305Y-57126500D01*
X59415694Y-57126499D01*
X59452570Y-57123598D01*
X59610399Y-57077744D01*
X59751865Y-56994081D01*
X59868081Y-56877865D01*
X59951744Y-56736399D01*
X59993591Y-56592361D01*
X59997597Y-56578574D01*
X59997598Y-56578568D01*
X59999133Y-56559063D01*
X60000500Y-56541695D01*
X60000500Y-55884500D01*
X60020185Y-55817461D01*
X60072989Y-55771706D01*
X60124500Y-55760500D01*
X63255531Y-55760500D01*
X63255555Y-55760501D01*
X63260666Y-55760501D01*
X63441757Y-55760501D01*
X63441758Y-55760501D01*
X63620621Y-55732171D01*
X63792851Y-55676211D01*
X63954206Y-55593996D01*
X63978283Y-55576503D01*
X64100713Y-55487553D01*
X64228765Y-55359501D01*
X64228766Y-55359499D01*
X64235826Y-55352439D01*
X64235832Y-55352432D01*
X67544432Y-52043832D01*
X67544439Y-52043826D01*
X67551499Y-52036766D01*
X67551501Y-52036765D01*
X67679553Y-51908713D01*
X67785996Y-51762206D01*
X67868211Y-51600851D01*
X67924171Y-51428621D01*
X67929483Y-51395084D01*
X67952501Y-51249759D01*
X67952501Y-51068666D01*
X67952501Y-51064265D01*
X67952500Y-51064250D01*
X67952500Y-50834500D01*
X67972185Y-50767461D01*
X68024989Y-50721706D01*
X68076500Y-50710500D01*
X69456645Y-50710500D01*
X69523684Y-50730185D01*
X69569439Y-50782989D01*
X69579118Y-50815101D01*
X69589825Y-50882707D01*
X69647421Y-50995745D01*
X69647423Y-50995747D01*
X69647425Y-50995750D01*
X69737123Y-51085448D01*
X69737125Y-51085449D01*
X69737129Y-51085453D01*
X69834639Y-51135137D01*
X69850169Y-51143050D01*
X69937587Y-51156894D01*
X69938086Y-51156974D01*
X69943946Y-51157902D01*
X69943952Y-51157903D01*
X72006989Y-51157902D01*
X72100775Y-51143049D01*
X72213813Y-51085453D01*
X72303521Y-50995745D01*
X72361117Y-50882707D01*
X72361117Y-50882705D01*
X72361118Y-50882704D01*
X72371824Y-50815104D01*
X72375971Y-50788922D01*
X72375970Y-48820885D01*
X72361117Y-48727099D01*
X72303521Y-48614061D01*
X72303517Y-48614057D01*
X72303516Y-48614055D01*
X72213818Y-48524357D01*
X72213815Y-48524355D01*
X72213813Y-48524353D01*
X72136988Y-48485208D01*
X72100772Y-48466755D01*
X72006995Y-48451903D01*
X69943953Y-48451903D01*
X69862990Y-48464726D01*
X69850167Y-48466757D01*
X69737129Y-48524353D01*
X69737128Y-48524354D01*
X69737123Y-48524357D01*
X69647425Y-48614055D01*
X69647422Y-48614060D01*
X69589823Y-48727101D01*
X69589823Y-48727102D01*
X69577502Y-48804898D01*
X69547573Y-48868033D01*
X69488261Y-48904964D01*
X69455029Y-48909500D01*
X68245582Y-48909500D01*
X68178543Y-48889815D01*
X68132788Y-48837011D01*
X68127651Y-48823818D01*
X68099896Y-48738396D01*
X68099895Y-48738393D01*
X68064642Y-48669207D01*
X67999815Y-48541978D01*
X67900586Y-48405400D01*
X67870247Y-48363641D01*
X67870243Y-48363636D01*
X67714363Y-48207756D01*
X67714358Y-48207752D01*
X67536025Y-48078187D01*
X67536024Y-48078186D01*
X67536022Y-48078185D01*
X67446966Y-48032808D01*
X67339606Y-47978104D01*
X67339603Y-47978103D01*
X67129952Y-47909985D01*
X66997628Y-47889027D01*
X66912222Y-47875500D01*
X66691778Y-47875500D01*
X66691773Y-47875500D01*
X66606368Y-47889027D01*
X66537075Y-47880073D01*
X66499289Y-47854235D01*
X66474499Y-47829445D01*
X66474494Y-47829441D01*
X66327997Y-47723006D01*
X66327996Y-47723005D01*
X66327994Y-47723004D01*
X66250968Y-47683757D01*
X66166639Y-47640788D01*
X66166633Y-47640786D01*
X65994410Y-47584829D01*
X65994353Y-47584819D01*
X65838404Y-47560119D01*
X65815546Y-47556499D01*
X65634454Y-47556499D01*
X65629343Y-47556499D01*
X65629319Y-47556500D01*
X57238682Y-47556500D01*
X57238658Y-47556499D01*
X57233547Y-47556499D01*
X57052454Y-47556499D01*
X57052449Y-47556499D01*
X56873590Y-47584827D01*
X56759331Y-47621953D01*
X56731310Y-47631058D01*
X56715728Y-47636120D01*
X56701357Y-47640790D01*
X56540002Y-47723006D01*
X56393505Y-47829441D01*
X56393500Y-47829445D01*
X56265444Y-47957502D01*
X54936765Y-49286180D01*
X54875442Y-49319665D01*
X54811577Y-49316690D01*
X54802368Y-49313767D01*
X54802357Y-49313764D01*
X54802352Y-49313763D01*
X54642374Y-49286180D01*
X54512429Y-49263775D01*
X54390048Y-49257500D01*
X54390016Y-49257500D01*
X50693984Y-49257500D01*
X50693951Y-49257500D01*
X50571571Y-49263775D01*
X50571568Y-49263775D01*
X50281652Y-49313762D01*
X50281648Y-49313763D01*
X50001237Y-49402762D01*
X50001234Y-49402763D01*
X50001232Y-49402764D01*
X50001227Y-49402766D01*
X49735551Y-49529115D01*
X49489555Y-49690464D01*
X49489553Y-49690466D01*
X49267814Y-49883814D01*
X49074466Y-50105553D01*
X49074464Y-50105555D01*
X49011530Y-50201507D01*
X48958302Y-50246768D01*
X48907844Y-50257499D01*
X48831454Y-50257499D01*
X48757813Y-50269163D01*
X48664422Y-50283955D01*
X48652589Y-50285829D01*
X48480363Y-50341787D01*
X48480360Y-50341788D01*
X48319002Y-50424006D01*
X48172505Y-50530441D01*
X48172500Y-50530445D01*
X43699443Y-55003502D01*
X43638109Y-55087923D01*
X43628895Y-55100606D01*
X43610949Y-55125306D01*
X43593004Y-55150005D01*
X43510788Y-55311360D01*
X43510787Y-55311363D01*
X43454829Y-55483589D01*
X43426499Y-55662455D01*
X43000500Y-55662455D01*
X43000500Y-47893713D01*
X44649500Y-47893713D01*
X44649500Y-48106286D01*
X44665571Y-48207758D01*
X44682754Y-48316243D01*
X44733076Y-48471118D01*
X44748444Y-48518414D01*
X44844951Y-48707820D01*
X44969890Y-48879786D01*
X45120213Y-49030109D01*
X45292179Y-49155048D01*
X45292181Y-49155049D01*
X45292184Y-49155051D01*
X45481588Y-49251557D01*
X45683757Y-49317246D01*
X45893713Y-49350500D01*
X45893714Y-49350500D01*
X46106286Y-49350500D01*
X46106287Y-49350500D01*
X46316243Y-49317246D01*
X46518412Y-49251557D01*
X46707816Y-49155051D01*
X46775760Y-49105687D01*
X46879786Y-49030109D01*
X46879788Y-49030106D01*
X46879792Y-49030104D01*
X47030104Y-48879792D01*
X47030106Y-48879788D01*
X47030109Y-48879786D01*
X47155048Y-48707820D01*
X47155047Y-48707820D01*
X47155051Y-48707816D01*
X47251557Y-48518412D01*
X47317246Y-48316243D01*
X47350500Y-48106287D01*
X47350500Y-47893713D01*
X47317246Y-47683757D01*
X47251557Y-47481588D01*
X47155051Y-47292184D01*
X47155049Y-47292181D01*
X47155048Y-47292179D01*
X47030109Y-47120213D01*
X46879786Y-46969890D01*
X46707820Y-46844951D01*
X46518414Y-46748444D01*
X46518413Y-46748443D01*
X46518412Y-46748443D01*
X46316243Y-46682754D01*
X46316241Y-46682753D01*
X46316240Y-46682753D01*
X46154957Y-46657208D01*
X46106287Y-46649500D01*
X45893713Y-46649500D01*
X45845042Y-46657208D01*
X45683760Y-46682753D01*
X45481585Y-46748444D01*
X45292179Y-46844951D01*
X45120213Y-46969890D01*
X44969890Y-47120213D01*
X44844951Y-47292179D01*
X44748444Y-47481585D01*
X44682753Y-47683760D01*
X44649500Y-47893713D01*
X43000500Y-47893713D01*
X43000500Y-45124500D01*
X43020185Y-45057461D01*
X43072989Y-45011706D01*
X43124500Y-45000500D01*
X117875500Y-45000500D01*
X117942539Y-45020185D01*
G37*
G04 #@! TD.AperFunction*
M02*
