G04 #@! TF.GenerationSoftware,KiCad,Pcbnew,9.0.4*
G04 #@! TF.CreationDate,2025-09-18T15:30:18+02:00*
G04 #@! TF.ProjectId,ValveToggler,56616c76-6554-46f6-9767-6c65722e6b69,rev?*
G04 #@! TF.SameCoordinates,Original*
G04 #@! TF.FileFunction,Copper,L1,Top*
G04 #@! TF.FilePolarity,Positive*
%FSLAX46Y46*%
G04 Gerber Fmt 4.6, Leading zero omitted, Abs format (unit mm)*
G04 Created by KiCad (PCBNEW 9.0.4) date 2025-09-18 15:30:18*
%MOMM*%
%LPD*%
G01*
G04 APERTURE LIST*
G04 Aperture macros list*
%AMRoundRect*
0 Rectangle with rounded corners*
0 $1 Rounding radius*
0 $2 $3 $4 $5 $6 $7 $8 $9 X,Y pos of 4 corners*
0 Add a 4 corners polygon primitive as box body*
4,1,4,$2,$3,$4,$5,$6,$7,$8,$9,$2,$3,0*
0 Add four circle primitives for the rounded corners*
1,1,$1+$1,$2,$3*
1,1,$1+$1,$4,$5*
1,1,$1+$1,$6,$7*
1,1,$1+$1,$8,$9*
0 Add four rect primitives between the rounded corners*
20,1,$1+$1,$2,$3,$4,$5,0*
20,1,$1+$1,$4,$5,$6,$7,0*
20,1,$1+$1,$6,$7,$8,$9,0*
20,1,$1+$1,$8,$9,$2,$3,0*%
G04 Aperture macros list end*
G04 #@! TA.AperFunction,ComponentPad*
%ADD10R,1.700000X1.700000*%
G04 #@! TD*
G04 #@! TA.AperFunction,ComponentPad*
%ADD11RoundRect,1.750000X1.750000X0.000010X-1.750000X0.000010X-1.750000X-0.000010X1.750000X-0.000010X0*%
G04 #@! TD*
G04 #@! TA.AperFunction,ComponentPad*
%ADD12RoundRect,0.249999X-0.850001X0.850001X-0.850001X-0.850001X0.850001X-0.850001X0.850001X0.850001X0*%
G04 #@! TD*
G04 #@! TA.AperFunction,ComponentPad*
%ADD13C,2.200000*%
G04 #@! TD*
G04 #@! TA.AperFunction,ComponentPad*
%ADD14RoundRect,0.249999X0.850001X-0.850001X0.850001X0.850001X-0.850001X0.850001X-0.850001X-0.850001X0*%
G04 #@! TD*
G04 #@! TA.AperFunction,ComponentPad*
%ADD15C,1.600000*%
G04 #@! TD*
G04 #@! TA.AperFunction,ComponentPad*
%ADD16C,2.340000*%
G04 #@! TD*
G04 #@! TA.AperFunction,ComponentPad*
%ADD17RoundRect,0.250000X0.550000X-0.550000X0.550000X0.550000X-0.550000X0.550000X-0.550000X-0.550000X0*%
G04 #@! TD*
G04 #@! TA.AperFunction,ComponentPad*
%ADD18RoundRect,0.249999X0.850001X0.850001X-0.850001X0.850001X-0.850001X-0.850001X0.850001X-0.850001X0*%
G04 #@! TD*
G04 #@! TA.AperFunction,ComponentPad*
%ADD19R,2.000000X1.905000*%
G04 #@! TD*
G04 #@! TA.AperFunction,ComponentPad*
%ADD20O,2.000000X1.905000*%
G04 #@! TD*
G04 #@! TA.AperFunction,ComponentPad*
%ADD21R,1.800000X1.800000*%
G04 #@! TD*
G04 #@! TA.AperFunction,ComponentPad*
%ADD22C,1.800000*%
G04 #@! TD*
G04 #@! TA.AperFunction,ComponentPad*
%ADD23C,3.500000*%
G04 #@! TD*
G04 #@! TA.AperFunction,SMDPad,CuDef*
%ADD24C,4.200000*%
G04 #@! TD*
G04 #@! TA.AperFunction,ComponentPad*
%ADD25RoundRect,0.250000X0.550000X0.550000X-0.550000X0.550000X-0.550000X-0.550000X0.550000X-0.550000X0*%
G04 #@! TD*
G04 #@! TA.AperFunction,ComponentPad*
%ADD26R,1.100000X1.800000*%
G04 #@! TD*
G04 #@! TA.AperFunction,ComponentPad*
%ADD27RoundRect,0.275000X-0.275000X-0.625000X0.275000X-0.625000X0.275000X0.625000X-0.275000X0.625000X0*%
G04 #@! TD*
G04 #@! TA.AperFunction,ComponentPad*
%ADD28RoundRect,0.250000X-0.550000X-0.550000X0.550000X-0.550000X0.550000X0.550000X-0.550000X0.550000X0*%
G04 #@! TD*
G04 #@! TA.AperFunction,ComponentPad*
%ADD29RoundRect,0.249999X-0.850001X-0.850001X0.850001X-0.850001X0.850001X0.850001X-0.850001X0.850001X0*%
G04 #@! TD*
G04 #@! TA.AperFunction,ComponentPad*
%ADD30C,2.000000*%
G04 #@! TD*
G04 #@! TA.AperFunction,Conductor*
%ADD31C,0.700000*%
G04 #@! TD*
G04 APERTURE END LIST*
D10*
X52600000Y-88100000D03*
D11*
X60742000Y-51508000D03*
X60742000Y-51508000D03*
X52542000Y-51408000D03*
X52542000Y-51408000D03*
D12*
X102997000Y-62992000D03*
D13*
X102997000Y-68072000D03*
D14*
X88265000Y-86741000D03*
D13*
X88265000Y-76581000D03*
D12*
X102997000Y-76581000D03*
D13*
X102997000Y-81661000D03*
D15*
X46670000Y-84750000D03*
X56830000Y-84750000D03*
X91720295Y-73225991D03*
X91720295Y-63065991D03*
X88672295Y-63065991D03*
X88672295Y-73225991D03*
D16*
X71374000Y-76437000D03*
X81374000Y-73937000D03*
X71374000Y-71437000D03*
D17*
X80000000Y-50205113D03*
D15*
X80000000Y-47705113D03*
X94768295Y-73225991D03*
X94768295Y-63065991D03*
D18*
X85343402Y-86767456D03*
D13*
X75183402Y-86767456D03*
D19*
X99568000Y-67945000D03*
D20*
X99568000Y-65405000D03*
X99568000Y-62865000D03*
D15*
X75874988Y-56120800D03*
X75874988Y-51120800D03*
D21*
X107960000Y-86300000D03*
D22*
X110500000Y-86300000D03*
D15*
X105100000Y-87017770D03*
X94940000Y-87017770D03*
D23*
X52428000Y-56551000D03*
X52428000Y-61551000D03*
D18*
X72160000Y-86500000D03*
D13*
X62000000Y-86500000D03*
D17*
X59690000Y-74805000D03*
D15*
X62230000Y-74805000D03*
X64770000Y-74805000D03*
X67310000Y-74805000D03*
X67310000Y-67185000D03*
X64770000Y-67185000D03*
X62230000Y-67185000D03*
X59690000Y-67185000D03*
X59710000Y-64500000D03*
X62250000Y-64500000D03*
X75183045Y-83674545D03*
X85343045Y-83674545D03*
D23*
X109000000Y-67945000D03*
X109000000Y-62945000D03*
D15*
X91500000Y-59000000D03*
X86500000Y-59000000D03*
D16*
X104255369Y-49603308D03*
X94255369Y-52103308D03*
X104255369Y-54603308D03*
D15*
X56830000Y-68750000D03*
X46670000Y-68750000D03*
D24*
X76374000Y-68326000D03*
D19*
X70975471Y-49804903D03*
D20*
X70975471Y-52344903D03*
X70975471Y-54884903D03*
D24*
X115000000Y-92000000D03*
D15*
X81280546Y-80682207D03*
X71120546Y-80682207D03*
X113780000Y-72100000D03*
X103620000Y-72100000D03*
D23*
X108989000Y-81498000D03*
X108989000Y-76498000D03*
D19*
X99187000Y-82804000D03*
D20*
X99187000Y-80264000D03*
X99187000Y-77724000D03*
D24*
X46000000Y-92000000D03*
X115000000Y-48000000D03*
D25*
X62000000Y-78750000D03*
D15*
X59500000Y-78750000D03*
D26*
X97663000Y-73691000D03*
D27*
X98933000Y-71621000D03*
X100203000Y-73691000D03*
D15*
X46670000Y-65750000D03*
X56830000Y-65750000D03*
X67945000Y-64770000D03*
X67945000Y-59770000D03*
X91694000Y-86741000D03*
X91694000Y-76581000D03*
D10*
X80137000Y-54991000D03*
D16*
X71374000Y-65532000D03*
X81374000Y-63032000D03*
X71374000Y-60532000D03*
D26*
X65000000Y-79400000D03*
D27*
X66270000Y-77330000D03*
X67540000Y-79400000D03*
D25*
X63627000Y-58293000D03*
D15*
X61127000Y-58293000D03*
D28*
X83945000Y-48190000D03*
D15*
X83945000Y-50730000D03*
X83945000Y-53270000D03*
X83945000Y-55810000D03*
X91565000Y-55810000D03*
X91565000Y-53270000D03*
X91565000Y-50730000D03*
X91565000Y-48190000D03*
D24*
X46000000Y-48000000D03*
D23*
X52600000Y-72750000D03*
X52600000Y-77750000D03*
D15*
X56830000Y-81750000D03*
X46670000Y-81750000D03*
D12*
X58500000Y-55626000D03*
D13*
X58500000Y-60706000D03*
D15*
X93980000Y-59182000D03*
X104140000Y-59182000D03*
D29*
X62611000Y-83185000D03*
D13*
X72771000Y-83185000D03*
D21*
X110340000Y-58100000D03*
D22*
X107800000Y-58100000D03*
D30*
X66802000Y-49276000D03*
X66802000Y-54276000D03*
D31*
X88957000Y-53270000D02*
X91565000Y-53270000D01*
X83945000Y-50730000D02*
X86417000Y-50730000D01*
X86417000Y-50730000D02*
X88957000Y-53270000D01*
X59710000Y-67165000D02*
X59690000Y-67185000D01*
X66222488Y-58166000D02*
X61904488Y-62484000D01*
X61904488Y-62484000D02*
X58166000Y-62484000D01*
X79883000Y-58166000D02*
X66222488Y-58166000D01*
X83945000Y-55810000D02*
X82239000Y-55810000D01*
X58166000Y-62484000D02*
X56830000Y-63820000D01*
X56830000Y-63820000D02*
X56830000Y-65750000D01*
X82239000Y-55810000D02*
X79883000Y-58166000D01*
G04 #@! TA.AperFunction,Conductor*
G36*
X117942539Y-45020185D02*
G01*
X117988294Y-45072989D01*
X117999500Y-45124500D01*
X117999500Y-94875500D01*
X117979815Y-94942539D01*
X117927011Y-94988294D01*
X117875500Y-94999500D01*
X43124500Y-94999500D01*
X43057461Y-94979815D01*
X43011706Y-94927011D01*
X43000500Y-94875500D01*
X43000500Y-91893713D01*
X44649500Y-91893713D01*
X44649500Y-92106286D01*
X44682753Y-92316239D01*
X44748444Y-92518414D01*
X44844951Y-92707820D01*
X44969890Y-92879786D01*
X45120213Y-93030109D01*
X45292179Y-93155048D01*
X45292181Y-93155049D01*
X45292184Y-93155051D01*
X45481588Y-93251557D01*
X45683757Y-93317246D01*
X45893713Y-93350500D01*
X45893714Y-93350500D01*
X46106286Y-93350500D01*
X46106287Y-93350500D01*
X46316243Y-93317246D01*
X46518412Y-93251557D01*
X46707816Y-93155051D01*
X46729789Y-93139086D01*
X46879786Y-93030109D01*
X46879788Y-93030106D01*
X46879792Y-93030104D01*
X47030104Y-92879792D01*
X47030106Y-92879788D01*
X47030109Y-92879786D01*
X47155048Y-92707820D01*
X47155047Y-92707820D01*
X47155051Y-92707816D01*
X47251557Y-92518412D01*
X47317246Y-92316243D01*
X47350500Y-92106287D01*
X47350500Y-91893713D01*
X113649500Y-91893713D01*
X113649500Y-92106286D01*
X113682753Y-92316239D01*
X113748444Y-92518414D01*
X113844951Y-92707820D01*
X113969890Y-92879786D01*
X114120213Y-93030109D01*
X114292179Y-93155048D01*
X114292181Y-93155049D01*
X114292184Y-93155051D01*
X114481588Y-93251557D01*
X114683757Y-93317246D01*
X114893713Y-93350500D01*
X114893714Y-93350500D01*
X115106286Y-93350500D01*
X115106287Y-93350500D01*
X115316243Y-93317246D01*
X115518412Y-93251557D01*
X115707816Y-93155051D01*
X115729789Y-93139086D01*
X115879786Y-93030109D01*
X115879788Y-93030106D01*
X115879792Y-93030104D01*
X116030104Y-92879792D01*
X116030106Y-92879788D01*
X116030109Y-92879786D01*
X116155048Y-92707820D01*
X116155047Y-92707820D01*
X116155051Y-92707816D01*
X116251557Y-92518412D01*
X116317246Y-92316243D01*
X116350500Y-92106287D01*
X116350500Y-91893713D01*
X116317246Y-91683757D01*
X116251557Y-91481588D01*
X116155051Y-91292184D01*
X116155049Y-91292181D01*
X116155048Y-91292179D01*
X116030109Y-91120213D01*
X115879786Y-90969890D01*
X115707820Y-90844951D01*
X115518414Y-90748444D01*
X115518413Y-90748443D01*
X115518412Y-90748443D01*
X115316243Y-90682754D01*
X115316241Y-90682753D01*
X115316240Y-90682753D01*
X115154957Y-90657208D01*
X115106287Y-90649500D01*
X114893713Y-90649500D01*
X114845042Y-90657208D01*
X114683760Y-90682753D01*
X114481585Y-90748444D01*
X114292179Y-90844951D01*
X114120213Y-90969890D01*
X113969890Y-91120213D01*
X113844951Y-91292179D01*
X113748444Y-91481585D01*
X113682753Y-91683760D01*
X113649500Y-91893713D01*
X47350500Y-91893713D01*
X47317246Y-91683757D01*
X47251557Y-91481588D01*
X47155051Y-91292184D01*
X47155049Y-91292181D01*
X47155048Y-91292179D01*
X47030109Y-91120213D01*
X46879786Y-90969890D01*
X46707820Y-90844951D01*
X46518414Y-90748444D01*
X46518413Y-90748443D01*
X46518412Y-90748443D01*
X46316243Y-90682754D01*
X46316241Y-90682753D01*
X46316240Y-90682753D01*
X46154957Y-90657208D01*
X46106287Y-90649500D01*
X45893713Y-90649500D01*
X45845042Y-90657208D01*
X45683760Y-90682753D01*
X45481585Y-90748444D01*
X45292179Y-90844951D01*
X45120213Y-90969890D01*
X44969890Y-91120213D01*
X44844951Y-91292179D01*
X44748444Y-91481585D01*
X44682753Y-91683760D01*
X44649500Y-91893713D01*
X43000500Y-91893713D01*
X43000500Y-87218475D01*
X51349500Y-87218475D01*
X51349500Y-88981517D01*
X51360292Y-89049657D01*
X51364354Y-89075304D01*
X51421950Y-89188342D01*
X51421952Y-89188344D01*
X51421954Y-89188347D01*
X51511652Y-89278045D01*
X51511654Y-89278046D01*
X51511658Y-89278050D01*
X51624694Y-89335645D01*
X51624698Y-89335647D01*
X51718475Y-89350499D01*
X51718481Y-89350500D01*
X53481518Y-89350499D01*
X53575304Y-89335646D01*
X53688342Y-89278050D01*
X53778050Y-89188342D01*
X53835646Y-89075304D01*
X53835646Y-89075302D01*
X53835647Y-89075301D01*
X53850499Y-88981524D01*
X53850500Y-88981519D01*
X53850499Y-87218482D01*
X53835646Y-87124696D01*
X53778050Y-87011658D01*
X53778046Y-87011654D01*
X53778045Y-87011652D01*
X53688347Y-86921954D01*
X53688344Y-86921952D01*
X53688342Y-86921950D01*
X53611517Y-86882805D01*
X53575301Y-86864352D01*
X53481524Y-86849500D01*
X51718482Y-86849500D01*
X51637519Y-86862323D01*
X51624696Y-86864354D01*
X51511658Y-86921950D01*
X51511657Y-86921951D01*
X51511652Y-86921954D01*
X51421954Y-87011652D01*
X51421951Y-87011657D01*
X51421950Y-87011658D01*
X51402751Y-87049337D01*
X51364352Y-87124698D01*
X51349500Y-87218475D01*
X43000500Y-87218475D01*
X43000500Y-86381902D01*
X60499500Y-86381902D01*
X60499500Y-86618097D01*
X60536446Y-86851368D01*
X60609433Y-87075996D01*
X60682034Y-87218482D01*
X60716657Y-87286433D01*
X60855483Y-87477510D01*
X61022490Y-87644517D01*
X61213567Y-87783343D01*
X61311925Y-87833459D01*
X61424003Y-87890566D01*
X61424005Y-87890566D01*
X61424008Y-87890568D01*
X61489886Y-87911973D01*
X61648631Y-87963553D01*
X61881903Y-88000500D01*
X61881908Y-88000500D01*
X62118097Y-88000500D01*
X62351368Y-87963553D01*
X62387712Y-87951744D01*
X62575992Y-87890568D01*
X62786433Y-87783343D01*
X62977510Y-87644517D01*
X63144517Y-87477510D01*
X63283343Y-87286433D01*
X63390568Y-87075992D01*
X63463553Y-86851368D01*
X63481722Y-86736652D01*
X63500500Y-86618097D01*
X63500500Y-86381902D01*
X63463553Y-86148631D01*
X63390566Y-85924003D01*
X63322258Y-85789943D01*
X63283343Y-85713567D01*
X63189423Y-85584297D01*
X70659500Y-85584297D01*
X70659500Y-87415682D01*
X70659501Y-87415707D01*
X70662402Y-87452570D01*
X70708254Y-87610394D01*
X70708255Y-87610397D01*
X70791916Y-87751861D01*
X70791923Y-87751870D01*
X70908129Y-87868076D01*
X70908138Y-87868083D01*
X70924662Y-87877855D01*
X71049601Y-87951744D01*
X71090247Y-87963553D01*
X71207425Y-87997597D01*
X71207428Y-87997597D01*
X71207430Y-87997598D01*
X71244305Y-88000500D01*
X73075694Y-88000499D01*
X73112570Y-87997598D01*
X73270399Y-87951744D01*
X73411865Y-87868081D01*
X73528081Y-87751865D01*
X73611744Y-87610399D01*
X73639521Y-87514789D01*
X73677125Y-87455907D01*
X73740597Y-87426700D01*
X73809784Y-87436446D01*
X73862719Y-87482049D01*
X73869080Y-87493091D01*
X73900057Y-87553887D01*
X73933923Y-87600499D01*
X74038885Y-87744966D01*
X74205892Y-87911973D01*
X74396969Y-88050799D01*
X74496393Y-88101458D01*
X74607405Y-88158022D01*
X74607407Y-88158022D01*
X74607410Y-88158024D01*
X74714267Y-88192744D01*
X74832033Y-88231009D01*
X75065305Y-88267956D01*
X75065310Y-88267956D01*
X75301499Y-88267956D01*
X75534770Y-88231009D01*
X75573976Y-88218270D01*
X75759394Y-88158024D01*
X75969835Y-88050799D01*
X76160912Y-87911973D01*
X76327919Y-87744966D01*
X76466745Y-87553889D01*
X76573970Y-87343448D01*
X76646955Y-87118824D01*
X76653739Y-87075992D01*
X76683902Y-86885553D01*
X76683902Y-86649358D01*
X76646955Y-86416087D01*
X76588342Y-86235697D01*
X76573970Y-86191464D01*
X76573968Y-86191461D01*
X76573968Y-86191459D01*
X76497702Y-86041780D01*
X76466745Y-85981023D01*
X76372825Y-85851753D01*
X83842902Y-85851753D01*
X83842902Y-87683138D01*
X83842903Y-87683163D01*
X83845804Y-87720026D01*
X83891656Y-87877850D01*
X83891657Y-87877853D01*
X83891658Y-87877855D01*
X83910371Y-87909497D01*
X83975318Y-88019317D01*
X83975325Y-88019326D01*
X84091531Y-88135532D01*
X84091535Y-88135535D01*
X84091537Y-88135537D01*
X84233003Y-88219200D01*
X84273649Y-88231009D01*
X84390827Y-88265053D01*
X84390830Y-88265053D01*
X84390832Y-88265054D01*
X84427707Y-88267956D01*
X86259096Y-88267955D01*
X86295972Y-88265054D01*
X86453801Y-88219200D01*
X86595267Y-88135537D01*
X86711483Y-88019321D01*
X86711486Y-88019314D01*
X86716263Y-88013158D01*
X86718425Y-88014835D01*
X86759901Y-87976097D01*
X86828641Y-87963581D01*
X86893235Y-87990216D01*
X86903264Y-87999211D01*
X87013129Y-88109076D01*
X87013133Y-88109079D01*
X87013135Y-88109081D01*
X87154601Y-88192744D01*
X87196223Y-88204836D01*
X87312425Y-88238597D01*
X87312428Y-88238597D01*
X87312430Y-88238598D01*
X87349305Y-88241500D01*
X89180694Y-88241499D01*
X89217570Y-88238598D01*
X89375399Y-88192744D01*
X89516865Y-88109081D01*
X89633081Y-87992865D01*
X89716744Y-87851399D01*
X89762598Y-87693570D01*
X89765500Y-87656695D01*
X89765499Y-86646513D01*
X90493500Y-86646513D01*
X90493500Y-86835486D01*
X90523059Y-87022118D01*
X90581454Y-87201836D01*
X90630905Y-87298888D01*
X90667240Y-87370199D01*
X90778310Y-87523073D01*
X90911927Y-87656690D01*
X91064801Y-87767760D01*
X91127768Y-87799843D01*
X91233163Y-87853545D01*
X91233165Y-87853545D01*
X91233168Y-87853547D01*
X91307974Y-87877853D01*
X91412881Y-87911940D01*
X91599514Y-87941500D01*
X91599519Y-87941500D01*
X91788486Y-87941500D01*
X91975118Y-87911940D01*
X92154832Y-87853547D01*
X92323199Y-87767760D01*
X92476073Y-87656690D01*
X92609690Y-87523073D01*
X92720760Y-87370199D01*
X92806547Y-87201832D01*
X92864940Y-87022118D01*
X92880594Y-86923283D01*
X93739500Y-86923283D01*
X93739500Y-87112256D01*
X93769059Y-87298888D01*
X93827454Y-87478606D01*
X93911989Y-87644514D01*
X93913240Y-87646969D01*
X94024310Y-87799843D01*
X94157927Y-87933460D01*
X94310801Y-88044530D01*
X94323103Y-88050798D01*
X94479163Y-88130315D01*
X94479165Y-88130315D01*
X94479168Y-88130317D01*
X94564435Y-88158022D01*
X94658881Y-88188710D01*
X94845514Y-88218270D01*
X94845519Y-88218270D01*
X95034486Y-88218270D01*
X95221118Y-88188710D01*
X95400832Y-88130317D01*
X95569199Y-88044530D01*
X95722073Y-87933460D01*
X95855690Y-87799843D01*
X95966760Y-87646969D01*
X96052547Y-87478602D01*
X96110940Y-87298888D01*
X96121610Y-87231519D01*
X96140500Y-87112256D01*
X96140500Y-86923283D01*
X103899500Y-86923283D01*
X103899500Y-87112256D01*
X103929059Y-87298888D01*
X103987454Y-87478606D01*
X104071989Y-87644514D01*
X104073240Y-87646969D01*
X104184310Y-87799843D01*
X104317927Y-87933460D01*
X104470801Y-88044530D01*
X104483103Y-88050798D01*
X104639163Y-88130315D01*
X104639165Y-88130315D01*
X104639168Y-88130317D01*
X104724435Y-88158022D01*
X104818881Y-88188710D01*
X105005514Y-88218270D01*
X105005519Y-88218270D01*
X105194486Y-88218270D01*
X105381118Y-88188710D01*
X105560832Y-88130317D01*
X105729199Y-88044530D01*
X105882073Y-87933460D01*
X106015690Y-87799843D01*
X106126760Y-87646969D01*
X106212547Y-87478602D01*
X106270940Y-87298888D01*
X106281610Y-87231519D01*
X106300500Y-87112256D01*
X106300500Y-86923283D01*
X106270940Y-86736651D01*
X106212545Y-86556933D01*
X106163094Y-86459881D01*
X106126760Y-86388571D01*
X106015690Y-86235697D01*
X105882073Y-86102080D01*
X105729199Y-85991010D01*
X105710181Y-85981320D01*
X105560836Y-85905224D01*
X105381118Y-85846829D01*
X105194486Y-85817270D01*
X105194481Y-85817270D01*
X105005519Y-85817270D01*
X105005514Y-85817270D01*
X104818881Y-85846829D01*
X104639163Y-85905224D01*
X104470800Y-85991010D01*
X104408828Y-86036036D01*
X104317927Y-86102080D01*
X104317925Y-86102082D01*
X104317924Y-86102082D01*
X104184312Y-86235694D01*
X104184312Y-86235695D01*
X104184310Y-86235697D01*
X104152000Y-86280168D01*
X104073240Y-86388570D01*
X103987454Y-86556933D01*
X103929059Y-86736651D01*
X103899500Y-86923283D01*
X96140500Y-86923283D01*
X96110940Y-86736651D01*
X96052545Y-86556933D01*
X96003094Y-86459881D01*
X95966760Y-86388571D01*
X95855690Y-86235697D01*
X95722073Y-86102080D01*
X95569199Y-85991010D01*
X95550181Y-85981320D01*
X95400836Y-85905224D01*
X95221118Y-85846829D01*
X95034486Y-85817270D01*
X95034481Y-85817270D01*
X94845519Y-85817270D01*
X94845514Y-85817270D01*
X94658881Y-85846829D01*
X94479163Y-85905224D01*
X94310800Y-85991010D01*
X94248828Y-86036036D01*
X94157927Y-86102080D01*
X94157925Y-86102082D01*
X94157924Y-86102082D01*
X94024312Y-86235694D01*
X94024312Y-86235695D01*
X94024310Y-86235697D01*
X93992000Y-86280168D01*
X93913240Y-86388570D01*
X93827454Y-86556933D01*
X93769059Y-86736651D01*
X93739500Y-86923283D01*
X92880594Y-86923283D01*
X92884437Y-86899018D01*
X92894500Y-86835485D01*
X92894500Y-86646513D01*
X92864940Y-86459881D01*
X92806545Y-86280163D01*
X92739526Y-86148632D01*
X92720760Y-86111801D01*
X92609690Y-85958927D01*
X92476073Y-85825310D01*
X92323199Y-85714240D01*
X92321876Y-85713566D01*
X92154836Y-85628454D01*
X91975118Y-85570059D01*
X91788486Y-85540500D01*
X91788481Y-85540500D01*
X91599519Y-85540500D01*
X91599514Y-85540500D01*
X91412881Y-85570059D01*
X91233163Y-85628454D01*
X91064800Y-85714240D01*
X90978751Y-85776759D01*
X90911927Y-85825310D01*
X90911925Y-85825312D01*
X90911924Y-85825312D01*
X90778312Y-85958924D01*
X90778312Y-85958925D01*
X90778310Y-85958927D01*
X90751763Y-85995466D01*
X90667240Y-86111800D01*
X90581454Y-86280163D01*
X90523059Y-86459881D01*
X90493500Y-86646513D01*
X89765499Y-86646513D01*
X89765499Y-85825306D01*
X89762598Y-85788430D01*
X89716744Y-85630601D01*
X89648724Y-85515585D01*
X89633083Y-85489138D01*
X89633076Y-85489129D01*
X89516870Y-85372923D01*
X89516861Y-85372916D01*
X89509352Y-85368475D01*
X106659500Y-85368475D01*
X106659500Y-87231517D01*
X106668198Y-87286433D01*
X106674354Y-87325304D01*
X106731950Y-87438342D01*
X106731952Y-87438344D01*
X106731954Y-87438347D01*
X106821652Y-87528045D01*
X106821654Y-87528046D01*
X106821658Y-87528050D01*
X106934694Y-87585645D01*
X106934698Y-87585647D01*
X107028475Y-87600499D01*
X107028481Y-87600500D01*
X108891518Y-87600499D01*
X108985304Y-87585646D01*
X109098342Y-87528050D01*
X109188050Y-87438342D01*
X109245646Y-87325304D01*
X109245646Y-87325302D01*
X109245647Y-87325301D01*
X109260499Y-87231525D01*
X109260500Y-87231519D01*
X109260499Y-87188149D01*
X109280182Y-87121113D01*
X109332985Y-87075357D01*
X109402143Y-87065412D01*
X109465700Y-87094435D01*
X109484817Y-87115265D01*
X109508028Y-87147212D01*
X109508032Y-87147217D01*
X109652786Y-87291971D01*
X109760460Y-87370199D01*
X109818390Y-87412287D01*
X109897450Y-87452570D01*
X110000776Y-87505218D01*
X110000778Y-87505218D01*
X110000781Y-87505220D01*
X110071045Y-87528050D01*
X110195465Y-87568477D01*
X110296557Y-87584488D01*
X110397648Y-87600500D01*
X110397649Y-87600500D01*
X110602351Y-87600500D01*
X110602352Y-87600500D01*
X110804534Y-87568477D01*
X110999219Y-87505220D01*
X111181610Y-87412287D01*
X111337692Y-87298888D01*
X111347213Y-87291971D01*
X111347215Y-87291968D01*
X111347219Y-87291966D01*
X111491966Y-87147219D01*
X111491968Y-87147215D01*
X111491971Y-87147213D01*
X111582856Y-87022118D01*
X111612287Y-86981610D01*
X111705220Y-86799219D01*
X111768477Y-86604534D01*
X111800500Y-86402352D01*
X111800500Y-86197648D01*
X111785363Y-86102080D01*
X111768477Y-85995465D01*
X111713192Y-85825317D01*
X111705220Y-85800781D01*
X111705218Y-85800778D01*
X111705218Y-85800776D01*
X111660782Y-85713567D01*
X111612287Y-85618390D01*
X111587514Y-85584292D01*
X111491971Y-85452786D01*
X111347213Y-85308028D01*
X111181613Y-85187715D01*
X111181612Y-85187714D01*
X111181610Y-85187713D01*
X111124653Y-85158691D01*
X110999223Y-85094781D01*
X110804534Y-85031522D01*
X110620668Y-85002401D01*
X110602352Y-84999500D01*
X110397648Y-84999500D01*
X110379332Y-85002401D01*
X110195465Y-85031522D01*
X110000776Y-85094781D01*
X109818386Y-85187715D01*
X109652786Y-85308028D01*
X109508032Y-85452782D01*
X109508028Y-85452787D01*
X109484817Y-85484735D01*
X109429487Y-85527401D01*
X109359874Y-85533380D01*
X109298079Y-85500774D01*
X109263722Y-85439936D01*
X109260499Y-85411850D01*
X109260499Y-85368482D01*
X109260498Y-85368475D01*
X109245646Y-85274696D01*
X109188050Y-85161658D01*
X109188046Y-85161654D01*
X109188045Y-85161652D01*
X109098347Y-85071954D01*
X109098344Y-85071952D01*
X109098342Y-85071950D01*
X109018205Y-85031118D01*
X108985301Y-85014352D01*
X108891524Y-84999500D01*
X107028482Y-84999500D01*
X106947519Y-85012323D01*
X106934696Y-85014354D01*
X106821658Y-85071950D01*
X106821657Y-85071951D01*
X106821652Y-85071954D01*
X106731954Y-85161652D01*
X106731951Y-85161657D01*
X106674352Y-85274698D01*
X106659500Y-85368475D01*
X89509352Y-85368475D01*
X89375397Y-85289255D01*
X89375394Y-85289254D01*
X89217574Y-85243402D01*
X89217568Y-85243401D01*
X89180695Y-85240500D01*
X87349317Y-85240500D01*
X87349292Y-85240501D01*
X87312429Y-85243402D01*
X87154605Y-85289254D01*
X87154602Y-85289255D01*
X87013138Y-85372916D01*
X87013129Y-85372923D01*
X86896923Y-85489129D01*
X86892139Y-85495298D01*
X86889984Y-85493626D01*
X86848442Y-85532387D01*
X86779696Y-85544867D01*
X86715116Y-85518198D01*
X86705137Y-85509244D01*
X86595272Y-85399379D01*
X86595263Y-85399372D01*
X86453799Y-85315711D01*
X86453796Y-85315710D01*
X86295976Y-85269858D01*
X86295970Y-85269857D01*
X86259097Y-85266956D01*
X84427719Y-85266956D01*
X84427694Y-85266957D01*
X84390831Y-85269858D01*
X84233007Y-85315710D01*
X84233004Y-85315711D01*
X84091540Y-85399372D01*
X84091531Y-85399379D01*
X83975325Y-85515585D01*
X83975318Y-85515594D01*
X83891657Y-85657058D01*
X83891656Y-85657061D01*
X83845804Y-85814881D01*
X83845803Y-85814887D01*
X83842902Y-85851753D01*
X76372825Y-85851753D01*
X76327919Y-85789946D01*
X76160912Y-85622939D01*
X75969835Y-85484113D01*
X75759398Y-85376889D01*
X75534770Y-85303902D01*
X75301499Y-85266956D01*
X75301494Y-85266956D01*
X75065310Y-85266956D01*
X75065305Y-85266956D01*
X74832033Y-85303902D01*
X74607405Y-85376889D01*
X74396968Y-85484113D01*
X74287952Y-85563318D01*
X74205892Y-85622939D01*
X74205890Y-85622941D01*
X74205889Y-85622941D01*
X74038887Y-85789943D01*
X74038887Y-85789944D01*
X74038885Y-85789946D01*
X73993974Y-85851761D01*
X73900059Y-85981022D01*
X73894983Y-85990985D01*
X73847008Y-86041780D01*
X73779187Y-86058574D01*
X73713052Y-86036036D01*
X73669601Y-85981320D01*
X73660499Y-85934688D01*
X73660499Y-85584317D01*
X73660498Y-85584292D01*
X73659378Y-85570059D01*
X73657598Y-85547430D01*
X73611744Y-85389601D01*
X73528081Y-85248135D01*
X73528079Y-85248133D01*
X73528076Y-85248129D01*
X73411870Y-85131923D01*
X73411861Y-85131916D01*
X73270397Y-85048255D01*
X73270394Y-85048254D01*
X73112574Y-85002402D01*
X73112568Y-85002401D01*
X73075695Y-84999500D01*
X71244317Y-84999500D01*
X71244292Y-84999501D01*
X71207429Y-85002402D01*
X71049605Y-85048254D01*
X71049602Y-85048255D01*
X70908138Y-85131916D01*
X70908129Y-85131923D01*
X70791923Y-85248129D01*
X70791916Y-85248138D01*
X70708255Y-85389602D01*
X70708254Y-85389605D01*
X70662402Y-85547425D01*
X70662401Y-85547431D01*
X70659500Y-85584297D01*
X63189423Y-85584297D01*
X63144517Y-85522490D01*
X62977510Y-85355483D01*
X62786433Y-85216657D01*
X62775001Y-85210832D01*
X62575996Y-85109433D01*
X62351368Y-85036446D01*
X62118097Y-84999500D01*
X62118092Y-84999500D01*
X61881908Y-84999500D01*
X61881903Y-84999500D01*
X61648631Y-85036446D01*
X61424003Y-85109433D01*
X61213566Y-85216657D01*
X61113646Y-85289254D01*
X61022490Y-85355483D01*
X61022488Y-85355485D01*
X61022487Y-85355485D01*
X60855485Y-85522487D01*
X60855485Y-85522488D01*
X60855483Y-85522490D01*
X60810572Y-85584305D01*
X60716657Y-85713566D01*
X60609433Y-85924003D01*
X60536446Y-86148631D01*
X60499500Y-86381902D01*
X43000500Y-86381902D01*
X43000500Y-84655513D01*
X55629500Y-84655513D01*
X55629500Y-84844486D01*
X55659059Y-85031118D01*
X55717454Y-85210836D01*
X55791156Y-85355483D01*
X55803240Y-85379199D01*
X55914310Y-85532073D01*
X56047927Y-85665690D01*
X56200801Y-85776760D01*
X56247945Y-85800781D01*
X56369163Y-85862545D01*
X56369165Y-85862545D01*
X56369168Y-85862547D01*
X56465497Y-85893846D01*
X56548881Y-85920940D01*
X56735514Y-85950500D01*
X56735519Y-85950500D01*
X56924486Y-85950500D01*
X57111118Y-85920940D01*
X57156218Y-85906286D01*
X57290832Y-85862547D01*
X57459199Y-85776760D01*
X57612073Y-85665690D01*
X57745690Y-85532073D01*
X57856760Y-85379199D01*
X57942547Y-85210832D01*
X58000940Y-85031118D01*
X58003595Y-85014354D01*
X58030500Y-84844486D01*
X58030500Y-84655513D01*
X58000940Y-84468881D01*
X57947283Y-84303744D01*
X57942547Y-84289168D01*
X57942545Y-84289165D01*
X57942545Y-84289163D01*
X57889336Y-84184735D01*
X57856760Y-84120801D01*
X57745690Y-83967927D01*
X57612073Y-83834310D01*
X57459199Y-83723240D01*
X57290836Y-83637454D01*
X57111118Y-83579059D01*
X56924486Y-83549500D01*
X56924481Y-83549500D01*
X56735519Y-83549500D01*
X56735514Y-83549500D01*
X56548881Y-83579059D01*
X56369163Y-83637454D01*
X56200800Y-83723240D01*
X56137782Y-83769026D01*
X56047927Y-83834310D01*
X56047925Y-83834312D01*
X56047924Y-83834312D01*
X55914312Y-83967924D01*
X55914312Y-83967925D01*
X55914310Y-83967927D01*
X55886118Y-84006730D01*
X55803240Y-84120800D01*
X55717454Y-84289163D01*
X55659059Y-84468881D01*
X55629500Y-84655513D01*
X43000500Y-84655513D01*
X43000500Y-81655513D01*
X45469500Y-81655513D01*
X45469500Y-81844486D01*
X45499059Y-82031118D01*
X45557454Y-82210836D01*
X45643240Y-82379199D01*
X45754310Y-82532073D01*
X45887927Y-82665690D01*
X46040801Y-82776760D01*
X46097234Y-82805514D01*
X46209163Y-82862545D01*
X46209165Y-82862545D01*
X46209168Y-82862547D01*
X46301258Y-82892469D01*
X46388881Y-82920940D01*
X46575514Y-82950500D01*
X46575519Y-82950500D01*
X46764486Y-82950500D01*
X46951118Y-82920940D01*
X46957196Y-82918965D01*
X47130832Y-82862547D01*
X47299199Y-82776760D01*
X47452073Y-82665690D01*
X47585690Y-82532073D01*
X47696760Y-82379199D01*
X47782547Y-82210832D01*
X47840940Y-82031118D01*
X47843910Y-82012368D01*
X47870500Y-81844486D01*
X47870500Y-81655513D01*
X55629500Y-81655513D01*
X55629500Y-81844486D01*
X55659059Y-82031118D01*
X55717454Y-82210836D01*
X55803240Y-82379199D01*
X55914310Y-82532073D01*
X56047927Y-82665690D01*
X56200801Y-82776760D01*
X56257234Y-82805514D01*
X56369163Y-82862545D01*
X56369165Y-82862545D01*
X56369168Y-82862547D01*
X56461258Y-82892469D01*
X56548881Y-82920940D01*
X56735514Y-82950500D01*
X56735519Y-82950500D01*
X56924486Y-82950500D01*
X57111118Y-82920940D01*
X57117196Y-82918965D01*
X57290832Y-82862547D01*
X57459199Y-82776760D01*
X57612073Y-82665690D01*
X57745690Y-82532073D01*
X57856760Y-82379199D01*
X57912758Y-82269297D01*
X61110500Y-82269297D01*
X61110500Y-84100682D01*
X61110501Y-84100707D01*
X61113402Y-84137570D01*
X61159254Y-84295394D01*
X61159255Y-84295397D01*
X61242916Y-84436861D01*
X61242923Y-84436870D01*
X61359129Y-84553076D01*
X61359133Y-84553079D01*
X61359135Y-84553081D01*
X61500601Y-84636744D01*
X61541247Y-84648553D01*
X61658425Y-84682597D01*
X61658428Y-84682597D01*
X61658430Y-84682598D01*
X61695305Y-84685500D01*
X63526694Y-84685499D01*
X63563570Y-84682598D01*
X63721399Y-84636744D01*
X63862865Y-84553081D01*
X63979081Y-84436865D01*
X64062744Y-84295399D01*
X64108598Y-84137570D01*
X64111500Y-84100695D01*
X64111499Y-83066902D01*
X71270500Y-83066902D01*
X71270500Y-83303097D01*
X71307446Y-83536368D01*
X71380433Y-83760996D01*
X71479622Y-83955663D01*
X71487657Y-83971433D01*
X71626483Y-84162510D01*
X71793490Y-84329517D01*
X71984567Y-84468343D01*
X72083991Y-84519002D01*
X72195003Y-84575566D01*
X72195005Y-84575566D01*
X72195008Y-84575568D01*
X72315412Y-84614689D01*
X72419631Y-84648553D01*
X72652903Y-84685500D01*
X72652908Y-84685500D01*
X72889097Y-84685500D01*
X73122368Y-84648553D01*
X73158712Y-84636744D01*
X73346992Y-84575568D01*
X73557433Y-84468343D01*
X73748510Y-84329517D01*
X73906664Y-84171362D01*
X73967984Y-84137880D01*
X74037675Y-84142864D01*
X74093609Y-84184735D01*
X74104825Y-84202747D01*
X74156285Y-84303744D01*
X74267355Y-84456618D01*
X74400972Y-84590235D01*
X74553846Y-84701305D01*
X74633392Y-84741835D01*
X74722208Y-84787090D01*
X74722210Y-84787090D01*
X74722213Y-84787092D01*
X74818542Y-84818391D01*
X74901926Y-84845485D01*
X75088559Y-84875045D01*
X75088564Y-84875045D01*
X75277531Y-84875045D01*
X75464163Y-84845485D01*
X75467253Y-84844481D01*
X75643877Y-84787092D01*
X75812244Y-84701305D01*
X75965118Y-84590235D01*
X76098735Y-84456618D01*
X76209805Y-84303744D01*
X76295592Y-84135377D01*
X76353985Y-83955663D01*
X76365683Y-83881804D01*
X76383545Y-83769031D01*
X76383545Y-83580058D01*
X84142545Y-83580058D01*
X84142545Y-83769031D01*
X84172104Y-83955663D01*
X84230499Y-84135381D01*
X84308856Y-84289163D01*
X84316285Y-84303744D01*
X84427355Y-84456618D01*
X84560972Y-84590235D01*
X84713846Y-84701305D01*
X84793392Y-84741835D01*
X84882208Y-84787090D01*
X84882210Y-84787090D01*
X84882213Y-84787092D01*
X84978542Y-84818391D01*
X85061926Y-84845485D01*
X85248559Y-84875045D01*
X85248564Y-84875045D01*
X85437531Y-84875045D01*
X85624163Y-84845485D01*
X85627253Y-84844481D01*
X85803877Y-84787092D01*
X85972244Y-84701305D01*
X86125118Y-84590235D01*
X86258735Y-84456618D01*
X86369805Y-84303744D01*
X86455592Y-84135377D01*
X86513985Y-83955663D01*
X86525683Y-83881804D01*
X86543545Y-83769031D01*
X86543545Y-83580058D01*
X86513985Y-83393426D01*
X86455590Y-83213708D01*
X86369804Y-83045345D01*
X86258735Y-82892472D01*
X86125118Y-82758855D01*
X85972244Y-82647785D01*
X85954041Y-82638510D01*
X85803881Y-82561999D01*
X85624163Y-82503604D01*
X85437531Y-82474045D01*
X85437526Y-82474045D01*
X85248564Y-82474045D01*
X85248559Y-82474045D01*
X85061926Y-82503604D01*
X84882208Y-82561999D01*
X84713845Y-82647785D01*
X84648435Y-82695309D01*
X84560972Y-82758855D01*
X84560970Y-82758857D01*
X84560969Y-82758857D01*
X84427357Y-82892469D01*
X84427357Y-82892470D01*
X84427355Y-82892472D01*
X84406672Y-82920940D01*
X84316285Y-83045345D01*
X84230499Y-83213708D01*
X84172104Y-83393426D01*
X84142545Y-83580058D01*
X76383545Y-83580058D01*
X76353985Y-83393426D01*
X76295590Y-83213708D01*
X76209804Y-83045345D01*
X76098735Y-82892472D01*
X75965118Y-82758855D01*
X75812244Y-82647785D01*
X75794041Y-82638510D01*
X75643881Y-82561999D01*
X75464163Y-82503604D01*
X75277531Y-82474045D01*
X75277526Y-82474045D01*
X75088564Y-82474045D01*
X75088559Y-82474045D01*
X74901926Y-82503604D01*
X74722208Y-82561999D01*
X74553845Y-82647785D01*
X74488435Y-82695309D01*
X74400972Y-82758855D01*
X74400970Y-82758857D01*
X74400963Y-82758862D01*
X74400099Y-82759727D01*
X74399690Y-82759950D01*
X74397268Y-82762019D01*
X74396833Y-82761509D01*
X74338772Y-82793205D01*
X74269081Y-82788213D01*
X74213152Y-82746335D01*
X74194497Y-82710354D01*
X74161568Y-82609008D01*
X74054343Y-82398567D01*
X73915517Y-82207490D01*
X73748510Y-82040483D01*
X73557433Y-81901657D01*
X73520242Y-81882707D01*
X73346996Y-81794433D01*
X73122368Y-81721446D01*
X72889097Y-81684500D01*
X72889092Y-81684500D01*
X72652908Y-81684500D01*
X72652903Y-81684500D01*
X72419631Y-81721446D01*
X72195003Y-81794433D01*
X71984566Y-81901657D01*
X71941241Y-81933135D01*
X71793490Y-82040483D01*
X71793488Y-82040485D01*
X71793487Y-82040485D01*
X71626485Y-82207487D01*
X71626485Y-82207488D01*
X71626483Y-82207490D01*
X71581572Y-82269305D01*
X71487657Y-82398566D01*
X71380433Y-82609003D01*
X71307446Y-82833631D01*
X71270500Y-83066902D01*
X64111499Y-83066902D01*
X64111499Y-82269306D01*
X64108598Y-82232430D01*
X64062744Y-82074601D01*
X63979081Y-81933135D01*
X63979079Y-81933133D01*
X63979076Y-81933129D01*
X63862870Y-81816923D01*
X63862861Y-81816916D01*
X63721397Y-81733255D01*
X63721394Y-81733254D01*
X63563574Y-81687402D01*
X63563568Y-81687401D01*
X63526695Y-81684500D01*
X61695317Y-81684500D01*
X61695292Y-81684501D01*
X61658429Y-81687402D01*
X61500605Y-81733254D01*
X61500602Y-81733255D01*
X61359138Y-81816916D01*
X61359129Y-81816923D01*
X61242923Y-81933129D01*
X61242916Y-81933138D01*
X61159255Y-82074602D01*
X61159254Y-82074605D01*
X61113402Y-82232425D01*
X61113401Y-82232431D01*
X61110500Y-82269297D01*
X57912758Y-82269297D01*
X57942547Y-82210832D01*
X58000940Y-82031118D01*
X58003910Y-82012368D01*
X58030500Y-81844486D01*
X58030500Y-81655513D01*
X58000940Y-81468881D01*
X57964600Y-81357041D01*
X57942547Y-81289168D01*
X57942545Y-81289165D01*
X57942545Y-81289163D01*
X57869303Y-81145419D01*
X57856760Y-81120801D01*
X57745690Y-80967927D01*
X57612073Y-80834310D01*
X57459199Y-80723240D01*
X57290836Y-80637454D01*
X57111118Y-80579059D01*
X56924486Y-80549500D01*
X56924481Y-80549500D01*
X56735519Y-80549500D01*
X56735514Y-80549500D01*
X56548881Y-80579059D01*
X56369163Y-80637454D01*
X56200800Y-80723240D01*
X56118041Y-80783369D01*
X56047927Y-80834310D01*
X56047925Y-80834312D01*
X56047924Y-80834312D01*
X55914312Y-80967924D01*
X55914312Y-80967925D01*
X55914310Y-80967927D01*
X55910532Y-80973127D01*
X55803240Y-81120800D01*
X55717454Y-81289163D01*
X55659059Y-81468881D01*
X55629500Y-81655513D01*
X47870500Y-81655513D01*
X47840940Y-81468881D01*
X47804600Y-81357041D01*
X47782547Y-81289168D01*
X47782545Y-81289165D01*
X47782545Y-81289163D01*
X47709303Y-81145419D01*
X47696760Y-81120801D01*
X47585690Y-80967927D01*
X47452073Y-80834310D01*
X47299199Y-80723240D01*
X47130836Y-80637454D01*
X46951118Y-80579059D01*
X46764486Y-80549500D01*
X46764481Y-80549500D01*
X46575519Y-80549500D01*
X46575514Y-80549500D01*
X46388881Y-80579059D01*
X46209163Y-80637454D01*
X46040800Y-80723240D01*
X45958041Y-80783369D01*
X45887927Y-80834310D01*
X45887925Y-80834312D01*
X45887924Y-80834312D01*
X45754312Y-80967924D01*
X45754312Y-80967925D01*
X45754310Y-80967927D01*
X45750532Y-80973127D01*
X45643240Y-81120800D01*
X45557454Y-81289163D01*
X45499059Y-81468881D01*
X45469500Y-81655513D01*
X43000500Y-81655513D01*
X43000500Y-77609041D01*
X50449500Y-77609041D01*
X50449500Y-77890958D01*
X50486295Y-78170439D01*
X50559259Y-78442743D01*
X50667135Y-78703179D01*
X50667140Y-78703190D01*
X50808083Y-78947309D01*
X50808088Y-78947317D01*
X50856283Y-79010125D01*
X50979704Y-79170970D01*
X51179029Y-79370295D01*
X51179033Y-79370298D01*
X51179035Y-79370300D01*
X51402683Y-79541912D01*
X51402690Y-79541916D01*
X51646809Y-79682859D01*
X51646814Y-79682861D01*
X51646817Y-79682863D01*
X51907261Y-79790742D01*
X52179558Y-79863704D01*
X52412043Y-79894311D01*
X52456253Y-79900132D01*
X52459049Y-79900500D01*
X52459056Y-79900500D01*
X52740944Y-79900500D01*
X52740951Y-79900500D01*
X53020442Y-79863704D01*
X53292739Y-79790742D01*
X53553183Y-79682863D01*
X53797317Y-79541912D01*
X54020965Y-79370300D01*
X54220300Y-79170965D01*
X54391912Y-78947317D01*
X54532863Y-78703183D01*
X54640742Y-78442739D01*
X54713704Y-78170442D01*
X54718462Y-78134298D01*
X60799500Y-78134298D01*
X60799500Y-79365701D01*
X60802401Y-79402567D01*
X60802402Y-79402573D01*
X60848254Y-79560393D01*
X60848255Y-79560396D01*
X60848256Y-79560398D01*
X60853734Y-79569660D01*
X60931917Y-79701862D01*
X60931923Y-79701870D01*
X61048129Y-79818076D01*
X61048133Y-79818079D01*
X61048135Y-79818081D01*
X61189602Y-79901744D01*
X61231224Y-79913836D01*
X61347426Y-79947597D01*
X61347429Y-79947597D01*
X61347431Y-79947598D01*
X61384306Y-79950500D01*
X61384314Y-79950500D01*
X62615686Y-79950500D01*
X62615694Y-79950500D01*
X62652569Y-79947598D01*
X62652571Y-79947597D01*
X62652573Y-79947597D01*
X62694191Y-79935505D01*
X62810398Y-79901744D01*
X62951865Y-79818081D01*
X63068081Y-79701865D01*
X63151744Y-79560398D01*
X63197598Y-79402569D01*
X63200500Y-79365694D01*
X63200500Y-78134306D01*
X63197598Y-78097431D01*
X63192969Y-78081499D01*
X63160235Y-77968829D01*
X63151744Y-77939602D01*
X63068081Y-77798135D01*
X63068079Y-77798133D01*
X63068076Y-77798129D01*
X62951870Y-77681923D01*
X62951862Y-77681917D01*
X62828648Y-77609049D01*
X62810398Y-77598256D01*
X62810397Y-77598255D01*
X62810396Y-77598255D01*
X62810393Y-77598254D01*
X62652573Y-77552402D01*
X62652567Y-77552401D01*
X62615701Y-77549500D01*
X62615694Y-77549500D01*
X61384306Y-77549500D01*
X61384298Y-77549500D01*
X61347432Y-77552401D01*
X61347426Y-77552402D01*
X61189606Y-77598254D01*
X61189603Y-77598255D01*
X61048137Y-77681917D01*
X61048129Y-77681923D01*
X60931923Y-77798129D01*
X60931917Y-77798137D01*
X60848255Y-77939603D01*
X60848254Y-77939606D01*
X60802402Y-78097426D01*
X60802401Y-78097432D01*
X60799500Y-78134298D01*
X54718462Y-78134298D01*
X54750500Y-77890951D01*
X54750500Y-77609049D01*
X54713704Y-77329558D01*
X54640742Y-77057261D01*
X54532863Y-76796817D01*
X54532861Y-76796814D01*
X54532859Y-76796809D01*
X54391916Y-76552690D01*
X54391912Y-76552683D01*
X54220300Y-76329035D01*
X54220298Y-76329033D01*
X54220295Y-76329029D01*
X54020970Y-76129704D01*
X54020965Y-76129700D01*
X53797317Y-75958088D01*
X53797311Y-75958084D01*
X53797309Y-75958083D01*
X53553190Y-75817140D01*
X53553179Y-75817135D01*
X53292743Y-75709259D01*
X53020439Y-75636295D01*
X52740958Y-75599500D01*
X52740951Y-75599500D01*
X52459049Y-75599500D01*
X52459041Y-75599500D01*
X52179560Y-75636295D01*
X51907256Y-75709259D01*
X51646820Y-75817135D01*
X51646809Y-75817140D01*
X51402690Y-75958083D01*
X51402682Y-75958089D01*
X51179029Y-76129704D01*
X50979704Y-76329029D01*
X50808089Y-76552682D01*
X50808083Y-76552690D01*
X50667140Y-76796809D01*
X50667135Y-76796820D01*
X50559259Y-77057256D01*
X50486295Y-77329560D01*
X50449500Y-77609041D01*
X43000500Y-77609041D01*
X43000500Y-72609041D01*
X50449500Y-72609041D01*
X50449500Y-72890958D01*
X50486295Y-73170439D01*
X50559259Y-73442743D01*
X50667135Y-73703179D01*
X50667140Y-73703190D01*
X50808083Y-73947309D01*
X50808088Y-73947317D01*
X50979700Y-74170965D01*
X50979704Y-74170970D01*
X51179029Y-74370295D01*
X51179033Y-74370298D01*
X51179035Y-74370300D01*
X51402683Y-74541912D01*
X51402690Y-74541916D01*
X51646809Y-74682859D01*
X51646814Y-74682861D01*
X51646817Y-74682863D01*
X51907261Y-74790742D01*
X52179558Y-74863704D01*
X52459049Y-74900500D01*
X52459056Y-74900500D01*
X52740944Y-74900500D01*
X52740951Y-74900500D01*
X53020442Y-74863704D01*
X53292739Y-74790742D01*
X53486430Y-74710513D01*
X61029500Y-74710513D01*
X61029500Y-74899486D01*
X61059059Y-75086118D01*
X61117454Y-75265836D01*
X61192891Y-75413888D01*
X61203240Y-75434199D01*
X61314310Y-75587073D01*
X61447927Y-75720690D01*
X61600801Y-75831760D01*
X61657230Y-75860512D01*
X61769163Y-75917545D01*
X61769165Y-75917545D01*
X61769168Y-75917547D01*
X61865497Y-75948846D01*
X61948881Y-75975940D01*
X62135514Y-76005500D01*
X62135519Y-76005500D01*
X62324486Y-76005500D01*
X62511118Y-75975940D01*
X62566060Y-75958088D01*
X62690832Y-75917547D01*
X62859199Y-75831760D01*
X63012073Y-75720690D01*
X63145690Y-75587073D01*
X63256760Y-75434199D01*
X63342547Y-75265832D01*
X63382069Y-75144195D01*
X63421507Y-75086521D01*
X63485866Y-75059323D01*
X63554712Y-75071238D01*
X63606188Y-75118482D01*
X63617931Y-75144196D01*
X63657454Y-75265836D01*
X63732891Y-75413888D01*
X63743240Y-75434199D01*
X63854310Y-75587073D01*
X63987927Y-75720690D01*
X64140801Y-75831760D01*
X64197230Y-75860512D01*
X64309163Y-75917545D01*
X64309165Y-75917545D01*
X64309168Y-75917547D01*
X64405497Y-75948846D01*
X64488881Y-75975940D01*
X64675514Y-76005500D01*
X64675519Y-76005500D01*
X64864486Y-76005500D01*
X65051118Y-75975940D01*
X65106060Y-75958088D01*
X65230832Y-75917547D01*
X65399199Y-75831760D01*
X65552073Y-75720690D01*
X65685690Y-75587073D01*
X65796760Y-75434199D01*
X65882547Y-75265832D01*
X65922069Y-75144195D01*
X65961507Y-75086521D01*
X66025866Y-75059323D01*
X66094712Y-75071238D01*
X66146188Y-75118482D01*
X66157931Y-75144196D01*
X66197454Y-75265836D01*
X66272891Y-75413888D01*
X66283240Y-75434199D01*
X66394310Y-75587073D01*
X66527927Y-75720690D01*
X66644220Y-75805182D01*
X66686885Y-75860512D01*
X66692864Y-75930126D01*
X66660258Y-75991921D01*
X66599419Y-76026278D01*
X66571334Y-76029500D01*
X65940406Y-76029500D01*
X65872343Y-76035685D01*
X65872339Y-76035686D01*
X65872335Y-76035687D01*
X65715736Y-76084485D01*
X65715727Y-76084488D01*
X65575351Y-76169348D01*
X65575347Y-76169351D01*
X65459351Y-76285347D01*
X65459348Y-76285351D01*
X65374488Y-76425727D01*
X65374485Y-76425736D01*
X65334925Y-76552690D01*
X65325685Y-76582343D01*
X65319500Y-76650406D01*
X65319500Y-78009594D01*
X65325685Y-78077657D01*
X65325686Y-78077662D01*
X65325687Y-78077664D01*
X65374485Y-78234263D01*
X65374488Y-78234272D01*
X65459348Y-78374648D01*
X65459351Y-78374652D01*
X65575347Y-78490648D01*
X65575351Y-78490651D01*
X65715727Y-78575511D01*
X65715730Y-78575512D01*
X65872343Y-78624315D01*
X65940406Y-78630500D01*
X65940409Y-78630500D01*
X66465500Y-78630500D01*
X66532539Y-78650185D01*
X66578294Y-78702989D01*
X66589500Y-78754500D01*
X66589500Y-80079594D01*
X66595685Y-80147657D01*
X66595686Y-80147662D01*
X66595687Y-80147664D01*
X66644485Y-80304263D01*
X66644488Y-80304272D01*
X66729348Y-80444648D01*
X66729351Y-80444652D01*
X66845347Y-80560648D01*
X66845351Y-80560651D01*
X66985727Y-80645511D01*
X66985730Y-80645512D01*
X67142343Y-80694315D01*
X67210406Y-80700500D01*
X67210409Y-80700500D01*
X67869591Y-80700500D01*
X67869594Y-80700500D01*
X67937657Y-80694315D01*
X68094270Y-80645512D01*
X68107602Y-80637453D01*
X68189870Y-80587720D01*
X69920046Y-80587720D01*
X69920046Y-80776693D01*
X69949605Y-80963325D01*
X70008000Y-81143043D01*
X70082453Y-81289163D01*
X70093786Y-81311406D01*
X70204856Y-81464280D01*
X70338473Y-81597897D01*
X70491347Y-81708967D01*
X70525161Y-81726196D01*
X70659709Y-81794752D01*
X70659711Y-81794752D01*
X70659714Y-81794754D01*
X70756043Y-81826053D01*
X70839427Y-81853147D01*
X71026060Y-81882707D01*
X71026065Y-81882707D01*
X71215032Y-81882707D01*
X71401664Y-81853147D01*
X71581378Y-81794754D01*
X71749745Y-81708967D01*
X71902619Y-81597897D01*
X72036236Y-81464280D01*
X72147306Y-81311406D01*
X72233093Y-81143039D01*
X72291486Y-80963325D01*
X72305544Y-80874566D01*
X72321046Y-80776693D01*
X72321046Y-80587720D01*
X80080046Y-80587720D01*
X80080046Y-80776693D01*
X80109605Y-80963325D01*
X80168000Y-81143043D01*
X80242453Y-81289163D01*
X80253786Y-81311406D01*
X80364856Y-81464280D01*
X80498473Y-81597897D01*
X80651347Y-81708967D01*
X80685161Y-81726196D01*
X80819709Y-81794752D01*
X80819711Y-81794752D01*
X80819714Y-81794754D01*
X80916043Y-81826053D01*
X80999427Y-81853147D01*
X81186060Y-81882707D01*
X81186065Y-81882707D01*
X81375032Y-81882707D01*
X81561664Y-81853147D01*
X81741378Y-81794754D01*
X81909745Y-81708967D01*
X82062619Y-81597897D01*
X82196236Y-81464280D01*
X82307306Y-81311406D01*
X82393093Y-81143039D01*
X82451486Y-80963325D01*
X82465544Y-80874566D01*
X82481046Y-80776693D01*
X82481046Y-80587720D01*
X82451486Y-80401088D01*
X82418862Y-80300683D01*
X82393093Y-80221375D01*
X82393090Y-80221371D01*
X82393090Y-80221368D01*
X82386758Y-80208941D01*
X82386757Y-80208940D01*
X82360553Y-80157511D01*
X97786500Y-80157511D01*
X97786500Y-80370488D01*
X97819815Y-80580829D01*
X97885623Y-80783369D01*
X97885624Y-80783372D01*
X97932091Y-80874567D01*
X97982310Y-80973127D01*
X98107489Y-81145421D01*
X98107491Y-81145423D01*
X98205765Y-81243697D01*
X98239250Y-81305020D01*
X98234266Y-81374712D01*
X98192394Y-81430645D01*
X98137481Y-81453851D01*
X98061696Y-81465854D01*
X97948658Y-81523450D01*
X97948657Y-81523451D01*
X97948652Y-81523454D01*
X97858954Y-81613152D01*
X97858951Y-81613157D01*
X97801352Y-81726198D01*
X97786500Y-81819975D01*
X97786500Y-83788017D01*
X97797292Y-83856157D01*
X97801354Y-83881804D01*
X97858950Y-83994842D01*
X97858952Y-83994844D01*
X97858954Y-83994847D01*
X97948652Y-84084545D01*
X97948654Y-84084546D01*
X97948658Y-84084550D01*
X98048419Y-84135381D01*
X98061698Y-84142147D01*
X98155475Y-84156999D01*
X98155481Y-84157000D01*
X100218518Y-84156999D01*
X100312304Y-84142146D01*
X100425342Y-84084550D01*
X100515050Y-83994842D01*
X100572646Y-83881804D01*
X100572646Y-83881802D01*
X100572647Y-83881801D01*
X100587499Y-83788024D01*
X100587500Y-83788019D01*
X100587499Y-81819982D01*
X100572646Y-81726196D01*
X100515050Y-81613158D01*
X100515048Y-81613156D01*
X100515046Y-81613153D01*
X100444795Y-81542902D01*
X101496500Y-81542902D01*
X101496500Y-81779097D01*
X101533446Y-82012368D01*
X101606433Y-82236996D01*
X101713657Y-82447433D01*
X101852483Y-82638510D01*
X102019490Y-82805517D01*
X102210567Y-82944343D01*
X102309991Y-82995002D01*
X102421003Y-83051566D01*
X102421005Y-83051566D01*
X102421008Y-83051568D01*
X102468220Y-83066908D01*
X102645631Y-83124553D01*
X102878903Y-83161500D01*
X102878908Y-83161500D01*
X103115097Y-83161500D01*
X103348368Y-83124553D01*
X103367628Y-83118295D01*
X103572992Y-83051568D01*
X103783433Y-82944343D01*
X103974510Y-82805517D01*
X104141517Y-82638510D01*
X104280343Y-82447433D01*
X104387568Y-82236992D01*
X104460553Y-82012368D01*
X104473103Y-81933129D01*
X104497500Y-81779097D01*
X104497500Y-81542902D01*
X104470493Y-81372388D01*
X104468062Y-81357041D01*
X106838500Y-81357041D01*
X106838500Y-81638958D01*
X106875295Y-81918439D01*
X106948259Y-82190743D01*
X107056135Y-82451179D01*
X107056140Y-82451190D01*
X107197083Y-82695309D01*
X107197088Y-82695317D01*
X107325409Y-82862547D01*
X107368704Y-82918970D01*
X107568029Y-83118295D01*
X107568033Y-83118298D01*
X107568035Y-83118300D01*
X107791683Y-83289912D01*
X107791690Y-83289916D01*
X108035809Y-83430859D01*
X108035814Y-83430861D01*
X108035817Y-83430863D01*
X108237261Y-83514303D01*
X108290529Y-83536368D01*
X108296261Y-83538742D01*
X108568558Y-83611704D01*
X108848049Y-83648500D01*
X108848056Y-83648500D01*
X109129944Y-83648500D01*
X109129951Y-83648500D01*
X109409442Y-83611704D01*
X109681739Y-83538742D01*
X109942183Y-83430863D01*
X110186317Y-83289912D01*
X110409965Y-83118300D01*
X110609300Y-82918965D01*
X110780912Y-82695317D01*
X110921863Y-82451183D01*
X111029742Y-82190739D01*
X111102704Y-81918442D01*
X111139500Y-81638951D01*
X111139500Y-81357049D01*
X111102704Y-81077558D01*
X111029742Y-80805261D01*
X110921863Y-80544817D01*
X110921861Y-80544814D01*
X110921859Y-80544809D01*
X110780916Y-80300690D01*
X110780912Y-80300683D01*
X110609300Y-80077035D01*
X110609298Y-80077033D01*
X110609295Y-80077029D01*
X110409970Y-79877704D01*
X110391725Y-79863704D01*
X110186317Y-79706088D01*
X110186311Y-79706084D01*
X110186309Y-79706083D01*
X109942190Y-79565140D01*
X109942179Y-79565135D01*
X109681743Y-79457259D01*
X109409439Y-79384295D01*
X109129958Y-79347500D01*
X109129951Y-79347500D01*
X108848049Y-79347500D01*
X108848041Y-79347500D01*
X108568560Y-79384295D01*
X108296256Y-79457259D01*
X108035820Y-79565135D01*
X108035809Y-79565140D01*
X107791690Y-79706083D01*
X107791682Y-79706089D01*
X107568029Y-79877704D01*
X107368704Y-80077029D01*
X107197089Y-80300682D01*
X107197083Y-80300690D01*
X107056140Y-80544809D01*
X107056135Y-80544820D01*
X106948259Y-80805256D01*
X106875295Y-81077560D01*
X106838500Y-81357041D01*
X104468062Y-81357041D01*
X104460553Y-81309631D01*
X104399198Y-81120801D01*
X104387568Y-81085008D01*
X104387566Y-81085005D01*
X104387566Y-81085003D01*
X104280342Y-80874566D01*
X104141517Y-80683490D01*
X103974510Y-80516483D01*
X103783433Y-80377657D01*
X103769353Y-80370483D01*
X103572996Y-80270433D01*
X103348368Y-80197446D01*
X103115097Y-80160500D01*
X103115092Y-80160500D01*
X102878908Y-80160500D01*
X102878903Y-80160500D01*
X102645631Y-80197446D01*
X102421003Y-80270433D01*
X102210566Y-80377657D01*
X102118355Y-80444653D01*
X102019490Y-80516483D01*
X102019488Y-80516485D01*
X102019487Y-80516485D01*
X101852485Y-80683487D01*
X101852485Y-80683488D01*
X101852483Y-80683490D01*
X101823603Y-80723240D01*
X101713657Y-80874566D01*
X101606433Y-81085003D01*
X101533446Y-81309631D01*
X101496500Y-81542902D01*
X100444795Y-81542902D01*
X100425347Y-81523454D01*
X100425344Y-81523452D01*
X100425342Y-81523450D01*
X100348517Y-81484305D01*
X100312301Y-81465852D01*
X100236518Y-81453850D01*
X100173383Y-81423921D01*
X100136452Y-81364609D01*
X100137450Y-81294747D01*
X100168231Y-81243700D01*
X100266511Y-81145421D01*
X100391690Y-80973127D01*
X100488375Y-80783372D01*
X100554185Y-80580828D01*
X100586364Y-80377657D01*
X100587500Y-80370488D01*
X100587500Y-80157511D01*
X100568118Y-80035146D01*
X100554185Y-79947172D01*
X100521280Y-79845900D01*
X100488376Y-79744630D01*
X100488375Y-79744627D01*
X100439111Y-79647942D01*
X100391690Y-79554873D01*
X100266511Y-79382579D01*
X100115921Y-79231989D01*
X99943627Y-79106810D01*
X99753872Y-79010124D01*
X99753869Y-79010123D01*
X99551329Y-78944315D01*
X99340988Y-78911000D01*
X99340983Y-78911000D01*
X99033017Y-78911000D01*
X99033012Y-78911000D01*
X98822670Y-78944315D01*
X98620130Y-79010123D01*
X98620127Y-79010124D01*
X98430372Y-79106810D01*
X98342071Y-79170965D01*
X98258079Y-79231989D01*
X98258077Y-79231991D01*
X98258076Y-79231991D01*
X98107491Y-79382576D01*
X98107491Y-79382577D01*
X98107489Y-79382579D01*
X98053729Y-79456572D01*
X97982310Y-79554872D01*
X97885624Y-79744627D01*
X97885623Y-79744630D01*
X97819815Y-79947170D01*
X97786500Y-80157511D01*
X82360553Y-80157511D01*
X82320852Y-80079594D01*
X82307306Y-80053008D01*
X82196236Y-79900134D01*
X82062619Y-79766517D01*
X81909745Y-79655447D01*
X81741382Y-79569661D01*
X81561664Y-79511266D01*
X81375032Y-79481707D01*
X81375027Y-79481707D01*
X81186065Y-79481707D01*
X81186060Y-79481707D01*
X80999427Y-79511266D01*
X80819709Y-79569661D01*
X80651346Y-79655447D01*
X80564125Y-79718817D01*
X80498473Y-79766517D01*
X80498471Y-79766519D01*
X80498470Y-79766519D01*
X80364858Y-79900131D01*
X80364858Y-79900132D01*
X80364856Y-79900134D01*
X80363686Y-79901745D01*
X80253786Y-80053007D01*
X80168000Y-80221370D01*
X80109605Y-80401088D01*
X80080046Y-80587720D01*
X72321046Y-80587720D01*
X72291486Y-80401088D01*
X72233091Y-80221370D01*
X72160852Y-80079594D01*
X72147306Y-80053008D01*
X72036236Y-79900134D01*
X71902619Y-79766517D01*
X71749745Y-79655447D01*
X71581382Y-79569661D01*
X71401664Y-79511266D01*
X71215032Y-79481707D01*
X71215027Y-79481707D01*
X71026065Y-79481707D01*
X71026060Y-79481707D01*
X70839427Y-79511266D01*
X70659709Y-79569661D01*
X70491346Y-79655447D01*
X70404125Y-79718817D01*
X70338473Y-79766517D01*
X70338471Y-79766519D01*
X70338470Y-79766519D01*
X70204858Y-79900131D01*
X70204858Y-79900132D01*
X70204856Y-79900134D01*
X70203686Y-79901745D01*
X70093786Y-80053007D01*
X70008000Y-80221370D01*
X69949605Y-80401088D01*
X69920046Y-80587720D01*
X68189870Y-80587720D01*
X68234648Y-80560651D01*
X68234647Y-80560651D01*
X68234653Y-80560648D01*
X68350648Y-80444653D01*
X68435512Y-80304270D01*
X68484315Y-80147657D01*
X68490500Y-80079594D01*
X68490500Y-78720406D01*
X68484315Y-78652343D01*
X68435512Y-78495730D01*
X68435511Y-78495727D01*
X68350651Y-78355351D01*
X68350648Y-78355347D01*
X68234652Y-78239351D01*
X68234648Y-78239348D01*
X68094272Y-78154488D01*
X68094263Y-78154485D01*
X67937664Y-78105687D01*
X67937662Y-78105686D01*
X67937657Y-78105685D01*
X67869594Y-78099500D01*
X67344500Y-78099500D01*
X67277461Y-78079815D01*
X67231706Y-78027011D01*
X67220500Y-77975500D01*
X67220500Y-76650408D01*
X67220500Y-76650406D01*
X67214315Y-76582343D01*
X67165512Y-76425730D01*
X67097606Y-76313399D01*
X69803500Y-76313399D01*
X69803500Y-76560600D01*
X69840911Y-76796809D01*
X69842171Y-76804760D01*
X69918561Y-77039863D01*
X70030788Y-77260121D01*
X70176090Y-77460112D01*
X70350888Y-77634910D01*
X70550879Y-77780212D01*
X70771137Y-77892439D01*
X71006240Y-77968829D01*
X71250399Y-78007500D01*
X71250400Y-78007500D01*
X71497600Y-78007500D01*
X71497601Y-78007500D01*
X71741760Y-77968829D01*
X71976863Y-77892439D01*
X72197121Y-77780212D01*
X72397112Y-77634910D01*
X72571910Y-77460112D01*
X72717212Y-77260121D01*
X72829439Y-77039863D01*
X72905829Y-76804760D01*
X72944500Y-76560601D01*
X72944500Y-76462902D01*
X86764500Y-76462902D01*
X86764500Y-76699097D01*
X86801446Y-76932368D01*
X86874433Y-77156996D01*
X86962359Y-77329558D01*
X86981657Y-77367433D01*
X87120483Y-77558510D01*
X87287490Y-77725517D01*
X87478567Y-77864343D01*
X87530802Y-77890958D01*
X87689003Y-77971566D01*
X87689005Y-77971566D01*
X87689008Y-77971568D01*
X87799595Y-78007500D01*
X87913631Y-78044553D01*
X88146903Y-78081500D01*
X88146908Y-78081500D01*
X88383097Y-78081500D01*
X88616368Y-78044553D01*
X88652712Y-78032744D01*
X88840992Y-77971568D01*
X89051433Y-77864343D01*
X89242510Y-77725517D01*
X89409517Y-77558510D01*
X89548343Y-77367433D01*
X89655568Y-77156992D01*
X89728553Y-76932368D01*
X89750022Y-76796817D01*
X89765500Y-76699097D01*
X89765500Y-76462902D01*
X89728553Y-76229631D01*
X89665536Y-76035687D01*
X89655568Y-76005008D01*
X89655566Y-76005005D01*
X89655566Y-76005003D01*
X89599002Y-75893991D01*
X89548343Y-75794567D01*
X89454423Y-75665297D01*
X101496500Y-75665297D01*
X101496500Y-77496682D01*
X101496501Y-77496707D01*
X101499402Y-77533570D01*
X101545254Y-77691394D01*
X101545255Y-77691397D01*
X101545256Y-77691399D01*
X101547573Y-77695317D01*
X101628916Y-77832861D01*
X101628923Y-77832870D01*
X101745129Y-77949076D01*
X101745133Y-77949079D01*
X101745135Y-77949081D01*
X101886601Y-78032744D01*
X101927247Y-78044553D01*
X102044425Y-78078597D01*
X102044428Y-78078597D01*
X102044430Y-78078598D01*
X102081305Y-78081500D01*
X103912694Y-78081499D01*
X103949570Y-78078598D01*
X104107399Y-78032744D01*
X104248865Y-77949081D01*
X104365081Y-77832865D01*
X104448744Y-77691399D01*
X104494598Y-77533570D01*
X104497500Y-77496695D01*
X104497499Y-76357041D01*
X106838500Y-76357041D01*
X106838500Y-76638958D01*
X106875295Y-76918439D01*
X106948259Y-77190743D01*
X107056135Y-77451179D01*
X107056140Y-77451190D01*
X107194826Y-77691399D01*
X107197088Y-77695317D01*
X107348346Y-77892439D01*
X107368704Y-77918970D01*
X107568029Y-78118295D01*
X107568033Y-78118298D01*
X107568035Y-78118300D01*
X107791683Y-78289912D01*
X107791690Y-78289916D01*
X108035809Y-78430859D01*
X108035814Y-78430861D01*
X108035817Y-78430863D01*
X108296261Y-78538742D01*
X108568558Y-78611704D01*
X108848049Y-78648500D01*
X108848056Y-78648500D01*
X109129944Y-78648500D01*
X109129951Y-78648500D01*
X109409442Y-78611704D01*
X109681739Y-78538742D01*
X109942183Y-78430863D01*
X110186317Y-78289912D01*
X110409965Y-78118300D01*
X110609300Y-77918965D01*
X110780912Y-77695317D01*
X110921863Y-77451183D01*
X111029742Y-77190739D01*
X111102704Y-76918442D01*
X111139500Y-76638951D01*
X111139500Y-76357049D01*
X111102704Y-76077558D01*
X111029742Y-75805261D01*
X110921863Y-75544817D01*
X110921861Y-75544814D01*
X110921859Y-75544809D01*
X110780916Y-75300690D01*
X110780912Y-75300683D01*
X110609300Y-75077035D01*
X110609298Y-75077033D01*
X110609295Y-75077029D01*
X110409970Y-74877704D01*
X110376017Y-74851651D01*
X110186317Y-74706088D01*
X110186311Y-74706084D01*
X110186309Y-74706083D01*
X109942190Y-74565140D01*
X109942179Y-74565135D01*
X109681743Y-74457259D01*
X109409439Y-74384295D01*
X109129958Y-74347500D01*
X109129951Y-74347500D01*
X108848049Y-74347500D01*
X108848041Y-74347500D01*
X108568560Y-74384295D01*
X108296256Y-74457259D01*
X108035820Y-74565135D01*
X108035809Y-74565140D01*
X107791690Y-74706083D01*
X107791684Y-74706087D01*
X107791683Y-74706088D01*
X107753160Y-74735648D01*
X107568029Y-74877704D01*
X107368704Y-75077029D01*
X107197089Y-75300682D01*
X107197083Y-75300690D01*
X107056140Y-75544809D01*
X107056135Y-75544820D01*
X106948259Y-75805256D01*
X106875295Y-76077560D01*
X106838500Y-76357041D01*
X104497499Y-76357041D01*
X104497499Y-75665306D01*
X104494598Y-75628430D01*
X104448744Y-75470601D01*
X104365081Y-75329135D01*
X104365079Y-75329133D01*
X104365076Y-75329129D01*
X104248870Y-75212923D01*
X104248861Y-75212916D01*
X104107397Y-75129255D01*
X104107394Y-75129254D01*
X103949574Y-75083402D01*
X103949568Y-75083401D01*
X103912695Y-75080500D01*
X102081317Y-75080500D01*
X102081292Y-75080501D01*
X102044429Y-75083402D01*
X101886605Y-75129254D01*
X101886602Y-75129255D01*
X101745138Y-75212916D01*
X101745129Y-75212923D01*
X101628923Y-75329129D01*
X101628916Y-75329138D01*
X101545255Y-75470602D01*
X101545254Y-75470605D01*
X101499402Y-75628425D01*
X101499401Y-75628431D01*
X101496500Y-75665297D01*
X89454423Y-75665297D01*
X89409517Y-75603490D01*
X89242510Y-75436483D01*
X89051433Y-75297657D01*
X88840996Y-75190433D01*
X88616368Y-75117446D01*
X88383097Y-75080500D01*
X88383092Y-75080500D01*
X88146908Y-75080500D01*
X88146903Y-75080500D01*
X87913631Y-75117446D01*
X87689003Y-75190433D01*
X87478566Y-75297657D01*
X87435241Y-75329135D01*
X87287490Y-75436483D01*
X87287488Y-75436485D01*
X87287487Y-75436485D01*
X87120485Y-75603487D01*
X87120485Y-75603488D01*
X87120483Y-75603490D01*
X87075572Y-75665305D01*
X86981657Y-75794566D01*
X86874433Y-76005003D01*
X86801446Y-76229631D01*
X86764500Y-76462902D01*
X72944500Y-76462902D01*
X72944500Y-76313399D01*
X72905829Y-76069240D01*
X72829439Y-75834137D01*
X72717212Y-75613879D01*
X72571910Y-75413888D01*
X72397112Y-75239090D01*
X72197121Y-75093788D01*
X71976863Y-74981561D01*
X71741760Y-74905171D01*
X71741758Y-74905170D01*
X71741757Y-74905170D01*
X71554199Y-74875464D01*
X71497601Y-74866500D01*
X71250399Y-74866500D01*
X71193800Y-74875464D01*
X71006243Y-74905170D01*
X70771134Y-74981562D01*
X70550878Y-75093788D01*
X70350885Y-75239092D01*
X70176092Y-75413885D01*
X70030788Y-75613878D01*
X69918562Y-75834134D01*
X69842170Y-76069243D01*
X69803500Y-76313399D01*
X67097606Y-76313399D01*
X67080648Y-76285347D01*
X66992609Y-76197308D01*
X66959124Y-76135985D01*
X66964108Y-76066293D01*
X67005980Y-76010360D01*
X67071444Y-75985943D01*
X67099684Y-75987153D01*
X67154874Y-75995894D01*
X67215515Y-76005500D01*
X67215519Y-76005500D01*
X67404486Y-76005500D01*
X67591118Y-75975940D01*
X67646060Y-75958088D01*
X67770832Y-75917547D01*
X67939199Y-75831760D01*
X68092073Y-75720690D01*
X68225690Y-75587073D01*
X68336760Y-75434199D01*
X68422547Y-75265832D01*
X68480940Y-75086118D01*
X68495926Y-74991500D01*
X68510500Y-74899486D01*
X68510500Y-74710513D01*
X68480940Y-74523881D01*
X68453248Y-74438654D01*
X68422547Y-74344168D01*
X68422545Y-74344165D01*
X68422545Y-74344163D01*
X68336759Y-74175800D01*
X68311968Y-74141678D01*
X68225690Y-74022927D01*
X68092073Y-73889310D01*
X67987591Y-73813399D01*
X79803500Y-73813399D01*
X79803500Y-74060600D01*
X79833933Y-74252751D01*
X79842171Y-74304760D01*
X79918561Y-74539863D01*
X80030788Y-74760121D01*
X80176090Y-74960112D01*
X80350888Y-75134910D01*
X80550879Y-75280212D01*
X80771137Y-75392439D01*
X81006240Y-75468829D01*
X81250399Y-75507500D01*
X81250400Y-75507500D01*
X81497600Y-75507500D01*
X81497601Y-75507500D01*
X81741760Y-75468829D01*
X81976863Y-75392439D01*
X82197121Y-75280212D01*
X82397112Y-75134910D01*
X82571910Y-74960112D01*
X82717212Y-74760121D01*
X82829439Y-74539863D01*
X82905829Y-74304760D01*
X82944500Y-74060601D01*
X82944500Y-73813399D01*
X82905829Y-73569240D01*
X82829439Y-73334137D01*
X82726192Y-73131504D01*
X87471795Y-73131504D01*
X87471795Y-73320477D01*
X87501354Y-73507109D01*
X87559749Y-73686827D01*
X87606327Y-73778240D01*
X87645535Y-73855190D01*
X87756605Y-74008064D01*
X87890222Y-74141681D01*
X88043096Y-74252751D01*
X88122642Y-74293281D01*
X88211458Y-74338536D01*
X88211460Y-74338536D01*
X88211463Y-74338538D01*
X88307792Y-74369837D01*
X88391176Y-74396931D01*
X88577809Y-74426491D01*
X88577814Y-74426491D01*
X88766781Y-74426491D01*
X88953413Y-74396931D01*
X88992302Y-74384295D01*
X89133127Y-74338538D01*
X89301494Y-74252751D01*
X89454368Y-74141681D01*
X89587985Y-74008064D01*
X89699055Y-73855190D01*
X89784842Y-73686823D01*
X89843235Y-73507109D01*
X89872795Y-73320477D01*
X89872795Y-73131504D01*
X90519795Y-73131504D01*
X90519795Y-73320477D01*
X90549354Y-73507109D01*
X90607749Y-73686827D01*
X90654327Y-73778240D01*
X90693535Y-73855190D01*
X90804605Y-74008064D01*
X90938222Y-74141681D01*
X91091096Y-74252751D01*
X91170642Y-74293281D01*
X91259458Y-74338536D01*
X91259460Y-74338536D01*
X91259463Y-74338538D01*
X91355792Y-74369837D01*
X91439176Y-74396931D01*
X91625809Y-74426491D01*
X91625814Y-74426491D01*
X91814781Y-74426491D01*
X92001413Y-74396931D01*
X92040302Y-74384295D01*
X92181127Y-74338538D01*
X92349494Y-74252751D01*
X92502368Y-74141681D01*
X92635985Y-74008064D01*
X92747055Y-73855190D01*
X92832842Y-73686823D01*
X92891235Y-73507109D01*
X92920795Y-73320477D01*
X92920795Y-73131504D01*
X93567795Y-73131504D01*
X93567795Y-73320477D01*
X93597354Y-73507109D01*
X93655749Y-73686827D01*
X93702327Y-73778240D01*
X93741535Y-73855190D01*
X93852605Y-74008064D01*
X93986222Y-74141681D01*
X94139096Y-74252751D01*
X94218642Y-74293281D01*
X94307458Y-74338536D01*
X94307460Y-74338536D01*
X94307463Y-74338538D01*
X94403792Y-74369837D01*
X94487176Y-74396931D01*
X94673809Y-74426491D01*
X94673814Y-74426491D01*
X94862781Y-74426491D01*
X95049413Y-74396931D01*
X95088302Y-74384295D01*
X95229127Y-74338538D01*
X95397494Y-74252751D01*
X95550368Y-74141681D01*
X95683985Y-74008064D01*
X95795055Y-73855190D01*
X95880842Y-73686823D01*
X95939235Y-73507109D01*
X95968795Y-73320477D01*
X95968795Y-73131504D01*
X95939235Y-72944872D01*
X95887850Y-72786727D01*
X95880842Y-72765159D01*
X95880840Y-72765156D01*
X95880840Y-72765154D01*
X95814477Y-72634910D01*
X95795055Y-72596792D01*
X95683985Y-72443918D01*
X95550368Y-72310301D01*
X95397494Y-72199231D01*
X95388172Y-72194481D01*
X95229131Y-72113445D01*
X95049413Y-72055050D01*
X94862781Y-72025491D01*
X94862776Y-72025491D01*
X94673814Y-72025491D01*
X94673809Y-72025491D01*
X94487176Y-72055050D01*
X94307458Y-72113445D01*
X94139095Y-72199231D01*
X94051874Y-72262601D01*
X93986222Y-72310301D01*
X93986220Y-72310303D01*
X93986219Y-72310303D01*
X93852607Y-72443915D01*
X93852607Y-72443916D01*
X93852605Y-72443918D01*
X93840838Y-72460114D01*
X93741535Y-72596791D01*
X93655749Y-72765154D01*
X93597354Y-72944872D01*
X93567795Y-73131504D01*
X92920795Y-73131504D01*
X92891235Y-72944872D01*
X92839850Y-72786727D01*
X92832842Y-72765159D01*
X92832840Y-72765156D01*
X92832840Y-72765154D01*
X92766477Y-72634910D01*
X92747055Y-72596792D01*
X92635985Y-72443918D01*
X92502368Y-72310301D01*
X92349494Y-72199231D01*
X92340172Y-72194481D01*
X92181131Y-72113445D01*
X92001413Y-72055050D01*
X91814781Y-72025491D01*
X91814776Y-72025491D01*
X91625814Y-72025491D01*
X91625809Y-72025491D01*
X91439176Y-72055050D01*
X91259458Y-72113445D01*
X91091095Y-72199231D01*
X91003874Y-72262601D01*
X90938222Y-72310301D01*
X90938220Y-72310303D01*
X90938219Y-72310303D01*
X90804607Y-72443915D01*
X90804607Y-72443916D01*
X90804605Y-72443918D01*
X90792838Y-72460114D01*
X90693535Y-72596791D01*
X90607749Y-72765154D01*
X90549354Y-72944872D01*
X90519795Y-73131504D01*
X89872795Y-73131504D01*
X89843235Y-72944872D01*
X89791850Y-72786727D01*
X89784842Y-72765159D01*
X89784840Y-72765156D01*
X89784840Y-72765154D01*
X89718477Y-72634910D01*
X89699055Y-72596792D01*
X89587985Y-72443918D01*
X89454368Y-72310301D01*
X89301494Y-72199231D01*
X89292172Y-72194481D01*
X89133131Y-72113445D01*
X88953413Y-72055050D01*
X88766781Y-72025491D01*
X88766776Y-72025491D01*
X88577814Y-72025491D01*
X88577809Y-72025491D01*
X88391176Y-72055050D01*
X88211458Y-72113445D01*
X88043095Y-72199231D01*
X87955874Y-72262601D01*
X87890222Y-72310301D01*
X87890220Y-72310303D01*
X87890219Y-72310303D01*
X87756607Y-72443915D01*
X87756607Y-72443916D01*
X87756605Y-72443918D01*
X87744838Y-72460114D01*
X87645535Y-72596791D01*
X87559749Y-72765154D01*
X87501354Y-72944872D01*
X87471795Y-73131504D01*
X82726192Y-73131504D01*
X82717212Y-73113879D01*
X82571910Y-72913888D01*
X82397112Y-72739090D01*
X82197121Y-72593788D01*
X81976863Y-72481561D01*
X81741760Y-72405171D01*
X81741758Y-72405170D01*
X81741757Y-72405170D01*
X81554199Y-72375464D01*
X81497601Y-72366500D01*
X81250399Y-72366500D01*
X81193800Y-72375464D01*
X81006243Y-72405170D01*
X80771134Y-72481562D01*
X80550878Y-72593788D01*
X80350885Y-72739092D01*
X80176092Y-72913885D01*
X80030788Y-73113878D01*
X79918562Y-73334134D01*
X79842170Y-73569243D01*
X79803500Y-73813399D01*
X67987591Y-73813399D01*
X67939199Y-73778240D01*
X67770836Y-73692454D01*
X67591118Y-73634059D01*
X67404486Y-73604500D01*
X67404481Y-73604500D01*
X67215519Y-73604500D01*
X67215514Y-73604500D01*
X67028881Y-73634059D01*
X66849163Y-73692454D01*
X66680800Y-73778240D01*
X66632409Y-73813399D01*
X66527927Y-73889310D01*
X66527925Y-73889312D01*
X66527924Y-73889312D01*
X66394312Y-74022924D01*
X66394312Y-74022925D01*
X66394310Y-74022927D01*
X66366939Y-74060600D01*
X66283240Y-74175800D01*
X66197454Y-74344163D01*
X66157931Y-74465803D01*
X66118493Y-74523478D01*
X66054134Y-74550676D01*
X65985288Y-74538761D01*
X65933812Y-74491516D01*
X65922069Y-74465803D01*
X65891036Y-74370295D01*
X65882547Y-74344168D01*
X65882545Y-74344165D01*
X65882545Y-74344163D01*
X65796759Y-74175800D01*
X65771968Y-74141678D01*
X65685690Y-74022927D01*
X65552073Y-73889310D01*
X65399199Y-73778240D01*
X65230836Y-73692454D01*
X65051118Y-73634059D01*
X64864486Y-73604500D01*
X64864481Y-73604500D01*
X64675519Y-73604500D01*
X64675514Y-73604500D01*
X64488881Y-73634059D01*
X64309163Y-73692454D01*
X64140800Y-73778240D01*
X64092409Y-73813399D01*
X63987927Y-73889310D01*
X63987925Y-73889312D01*
X63987924Y-73889312D01*
X63854312Y-74022924D01*
X63854312Y-74022925D01*
X63854310Y-74022927D01*
X63826939Y-74060600D01*
X63743240Y-74175800D01*
X63657454Y-74344163D01*
X63617931Y-74465803D01*
X63578493Y-74523478D01*
X63514134Y-74550676D01*
X63445288Y-74538761D01*
X63393812Y-74491516D01*
X63382069Y-74465803D01*
X63351036Y-74370295D01*
X63342547Y-74344168D01*
X63342545Y-74344165D01*
X63342545Y-74344163D01*
X63256759Y-74175800D01*
X63231968Y-74141678D01*
X63145690Y-74022927D01*
X63012073Y-73889310D01*
X62859199Y-73778240D01*
X62690836Y-73692454D01*
X62511118Y-73634059D01*
X62324486Y-73604500D01*
X62324481Y-73604500D01*
X62135519Y-73604500D01*
X62135514Y-73604500D01*
X61948881Y-73634059D01*
X61769163Y-73692454D01*
X61600800Y-73778240D01*
X61552409Y-73813399D01*
X61447927Y-73889310D01*
X61447925Y-73889312D01*
X61447924Y-73889312D01*
X61314312Y-74022924D01*
X61314312Y-74022925D01*
X61314310Y-74022927D01*
X61286939Y-74060600D01*
X61203240Y-74175800D01*
X61117454Y-74344163D01*
X61059059Y-74523881D01*
X61029500Y-74710513D01*
X53486430Y-74710513D01*
X53553183Y-74682863D01*
X53704899Y-74595270D01*
X53757090Y-74565137D01*
X53797317Y-74541912D01*
X54020965Y-74370300D01*
X54220300Y-74170965D01*
X54391912Y-73947317D01*
X54532863Y-73703183D01*
X54640742Y-73442739D01*
X54713704Y-73170442D01*
X54750500Y-72890951D01*
X54750500Y-72609049D01*
X54713704Y-72329558D01*
X54640742Y-72057261D01*
X54627582Y-72025491D01*
X54616303Y-71998261D01*
X54532863Y-71796817D01*
X54532861Y-71796814D01*
X54532859Y-71796809D01*
X54391916Y-71552690D01*
X54391912Y-71552683D01*
X54366502Y-71519568D01*
X54262489Y-71384016D01*
X54262487Y-71384014D01*
X54220295Y-71329029D01*
X54204665Y-71313399D01*
X69803500Y-71313399D01*
X69803500Y-71560600D01*
X69840911Y-71796809D01*
X69842171Y-71804760D01*
X69918561Y-72039863D01*
X70030788Y-72260121D01*
X70176090Y-72460112D01*
X70350888Y-72634910D01*
X70550879Y-72780212D01*
X70771137Y-72892439D01*
X71006240Y-72968829D01*
X71250399Y-73007500D01*
X71250400Y-73007500D01*
X71497600Y-73007500D01*
X71497601Y-73007500D01*
X71741760Y-72968829D01*
X71976863Y-72892439D01*
X72197121Y-72780212D01*
X72397112Y-72634910D01*
X72571910Y-72460112D01*
X72717212Y-72260121D01*
X72829439Y-72039863D01*
X72905829Y-71804760D01*
X72944500Y-71560601D01*
X72944500Y-71313399D01*
X72905829Y-71069240D01*
X72864293Y-70941406D01*
X97982500Y-70941406D01*
X97982500Y-72300594D01*
X97988685Y-72368657D01*
X97988686Y-72368662D01*
X97988687Y-72368664D01*
X98037485Y-72525263D01*
X98037488Y-72525272D01*
X98122348Y-72665648D01*
X98122351Y-72665652D01*
X98238347Y-72781648D01*
X98238351Y-72781651D01*
X98378727Y-72866511D01*
X98378730Y-72866512D01*
X98535343Y-72915315D01*
X98603406Y-72921500D01*
X98603409Y-72921500D01*
X99128500Y-72921500D01*
X99195539Y-72941185D01*
X99241294Y-72993989D01*
X99252500Y-73045500D01*
X99252500Y-74370594D01*
X99258685Y-74438657D01*
X99258686Y-74438662D01*
X99258687Y-74438664D01*
X99307485Y-74595263D01*
X99307488Y-74595272D01*
X99392348Y-74735648D01*
X99392351Y-74735652D01*
X99508347Y-74851648D01*
X99508351Y-74851651D01*
X99648727Y-74936511D01*
X99648730Y-74936512D01*
X99805343Y-74985315D01*
X99873406Y-74991500D01*
X99873409Y-74991500D01*
X100532591Y-74991500D01*
X100532594Y-74991500D01*
X100600657Y-74985315D01*
X100757270Y-74936512D01*
X100816842Y-74900500D01*
X100897648Y-74851651D01*
X100897647Y-74851651D01*
X100897653Y-74851648D01*
X101013648Y-74735653D01*
X101045560Y-74682864D01*
X101098511Y-74595272D01*
X101098514Y-74595263D01*
X101107902Y-74565137D01*
X101147315Y-74438657D01*
X101153500Y-74370594D01*
X101153500Y-73011406D01*
X101147315Y-72943343D01*
X101098512Y-72786730D01*
X101098511Y-72786727D01*
X101013651Y-72646351D01*
X101013648Y-72646347D01*
X100897652Y-72530351D01*
X100897648Y-72530348D01*
X100757272Y-72445488D01*
X100757263Y-72445485D01*
X100600664Y-72396687D01*
X100600662Y-72396686D01*
X100600657Y-72396685D01*
X100532594Y-72390500D01*
X100007500Y-72390500D01*
X99940461Y-72370815D01*
X99894706Y-72318011D01*
X99883500Y-72266500D01*
X99883500Y-72005513D01*
X102419500Y-72005513D01*
X102419500Y-72194486D01*
X102449059Y-72381118D01*
X102507454Y-72560836D01*
X102593240Y-72729199D01*
X102704310Y-72882073D01*
X102837927Y-73015690D01*
X102990801Y-73126760D01*
X103070347Y-73167290D01*
X103159163Y-73212545D01*
X103159165Y-73212545D01*
X103159168Y-73212547D01*
X103255497Y-73243846D01*
X103338881Y-73270940D01*
X103525514Y-73300500D01*
X103525519Y-73300500D01*
X103714486Y-73300500D01*
X103901118Y-73270940D01*
X104080832Y-73212547D01*
X104249199Y-73126760D01*
X104402073Y-73015690D01*
X104535690Y-72882073D01*
X104646760Y-72729199D01*
X104732547Y-72560832D01*
X104790940Y-72381118D01*
X104792572Y-72370815D01*
X104820500Y-72194486D01*
X104820500Y-72005513D01*
X112579500Y-72005513D01*
X112579500Y-72194486D01*
X112609059Y-72381118D01*
X112667454Y-72560836D01*
X112753240Y-72729199D01*
X112864310Y-72882073D01*
X112997927Y-73015690D01*
X113150801Y-73126760D01*
X113230347Y-73167290D01*
X113319163Y-73212545D01*
X113319165Y-73212545D01*
X113319168Y-73212547D01*
X113415497Y-73243846D01*
X113498881Y-73270940D01*
X113685514Y-73300500D01*
X113685519Y-73300500D01*
X113874486Y-73300500D01*
X114061118Y-73270940D01*
X114240832Y-73212547D01*
X114409199Y-73126760D01*
X114562073Y-73015690D01*
X114695690Y-72882073D01*
X114806760Y-72729199D01*
X114892547Y-72560832D01*
X114950940Y-72381118D01*
X114952572Y-72370815D01*
X114980500Y-72194486D01*
X114980500Y-72005513D01*
X114950940Y-71818881D01*
X114892545Y-71639163D01*
X114806759Y-71470800D01*
X114695690Y-71317927D01*
X114562073Y-71184310D01*
X114409199Y-71073240D01*
X114240836Y-70987454D01*
X114061118Y-70929059D01*
X113874486Y-70899500D01*
X113874481Y-70899500D01*
X113685519Y-70899500D01*
X113685514Y-70899500D01*
X113498881Y-70929059D01*
X113319163Y-70987454D01*
X113150800Y-71073240D01*
X113073091Y-71129700D01*
X112997927Y-71184310D01*
X112997925Y-71184312D01*
X112997924Y-71184312D01*
X112864312Y-71317924D01*
X112864312Y-71317925D01*
X112864310Y-71317927D01*
X112856244Y-71329029D01*
X112753240Y-71470800D01*
X112667454Y-71639163D01*
X112609059Y-71818881D01*
X112579500Y-72005513D01*
X104820500Y-72005513D01*
X104790940Y-71818881D01*
X104732545Y-71639163D01*
X104646759Y-71470800D01*
X104535690Y-71317927D01*
X104402073Y-71184310D01*
X104249199Y-71073240D01*
X104080836Y-70987454D01*
X103901118Y-70929059D01*
X103714486Y-70899500D01*
X103714481Y-70899500D01*
X103525519Y-70899500D01*
X103525514Y-70899500D01*
X103338881Y-70929059D01*
X103159163Y-70987454D01*
X102990800Y-71073240D01*
X102913091Y-71129700D01*
X102837927Y-71184310D01*
X102837925Y-71184312D01*
X102837924Y-71184312D01*
X102704312Y-71317924D01*
X102704312Y-71317925D01*
X102704310Y-71317927D01*
X102696244Y-71329029D01*
X102593240Y-71470800D01*
X102507454Y-71639163D01*
X102449059Y-71818881D01*
X102419500Y-72005513D01*
X99883500Y-72005513D01*
X99883500Y-70941408D01*
X99882378Y-70929059D01*
X99877315Y-70873343D01*
X99828512Y-70716730D01*
X99828511Y-70716727D01*
X99743651Y-70576351D01*
X99743648Y-70576347D01*
X99627652Y-70460351D01*
X99627648Y-70460348D01*
X99487272Y-70375488D01*
X99487263Y-70375485D01*
X99330664Y-70326687D01*
X99330662Y-70326686D01*
X99330657Y-70326685D01*
X99262594Y-70320500D01*
X98603406Y-70320500D01*
X98535343Y-70326685D01*
X98535339Y-70326686D01*
X98535335Y-70326687D01*
X98378736Y-70375485D01*
X98378727Y-70375488D01*
X98238351Y-70460348D01*
X98238347Y-70460351D01*
X98122351Y-70576347D01*
X98122348Y-70576351D01*
X98037488Y-70716727D01*
X98037485Y-70716736D01*
X98000902Y-70834137D01*
X97988685Y-70873343D01*
X97982500Y-70941406D01*
X72864293Y-70941406D01*
X72829439Y-70834137D01*
X72717212Y-70613879D01*
X72571910Y-70413888D01*
X72397112Y-70239090D01*
X72197121Y-70093788D01*
X71976863Y-69981561D01*
X71741760Y-69905171D01*
X71741758Y-69905170D01*
X71741757Y-69905170D01*
X71554199Y-69875464D01*
X71497601Y-69866500D01*
X71250399Y-69866500D01*
X71193800Y-69875464D01*
X71006243Y-69905170D01*
X70771134Y-69981562D01*
X70550878Y-70093788D01*
X70350885Y-70239092D01*
X70176092Y-70413885D01*
X70030788Y-70613878D01*
X69918562Y-70834134D01*
X69842170Y-71069243D01*
X69803500Y-71313399D01*
X54204665Y-71313399D01*
X54020970Y-71129704D01*
X53942176Y-71069243D01*
X53797317Y-70958088D01*
X53797311Y-70958084D01*
X53797309Y-70958083D01*
X53553190Y-70817140D01*
X53553179Y-70817135D01*
X53292743Y-70709259D01*
X53020439Y-70636295D01*
X52740958Y-70599500D01*
X52740951Y-70599500D01*
X52459049Y-70599500D01*
X52459041Y-70599500D01*
X52179560Y-70636295D01*
X51907256Y-70709259D01*
X51646820Y-70817135D01*
X51646809Y-70817140D01*
X51402690Y-70958083D01*
X51402682Y-70958089D01*
X51179029Y-71129704D01*
X50979704Y-71329029D01*
X50808089Y-71552682D01*
X50808083Y-71552690D01*
X50667140Y-71796809D01*
X50667135Y-71796820D01*
X50559259Y-72057256D01*
X50486295Y-72329560D01*
X50449500Y-72609041D01*
X43000500Y-72609041D01*
X43000500Y-68655513D01*
X45469500Y-68655513D01*
X45469500Y-68844486D01*
X45499059Y-69031118D01*
X45557454Y-69210836D01*
X45643240Y-69379199D01*
X45754310Y-69532073D01*
X45887927Y-69665690D01*
X46040801Y-69776760D01*
X46120347Y-69817290D01*
X46209163Y-69862545D01*
X46209165Y-69862545D01*
X46209168Y-69862547D01*
X46256309Y-69877864D01*
X46388881Y-69920940D01*
X46575514Y-69950500D01*
X46575519Y-69950500D01*
X46764486Y-69950500D01*
X46951118Y-69920940D01*
X47130832Y-69862547D01*
X47299199Y-69776760D01*
X47452073Y-69665690D01*
X47585690Y-69532073D01*
X47696760Y-69379199D01*
X47782547Y-69210832D01*
X47840940Y-69031118D01*
X47857111Y-68929017D01*
X47870500Y-68844486D01*
X47870500Y-68655513D01*
X55629500Y-68655513D01*
X55629500Y-68844486D01*
X55659059Y-69031118D01*
X55717454Y-69210836D01*
X55803240Y-69379199D01*
X55914310Y-69532073D01*
X56047927Y-69665690D01*
X56200801Y-69776760D01*
X56280347Y-69817290D01*
X56369163Y-69862545D01*
X56369165Y-69862545D01*
X56369168Y-69862547D01*
X56416309Y-69877864D01*
X56548881Y-69920940D01*
X56735514Y-69950500D01*
X56735519Y-69950500D01*
X56924486Y-69950500D01*
X57111118Y-69920940D01*
X57290832Y-69862547D01*
X57459199Y-69776760D01*
X57612073Y-69665690D01*
X57745690Y-69532073D01*
X57856760Y-69379199D01*
X57942547Y-69210832D01*
X58000940Y-69031118D01*
X58017111Y-68929017D01*
X58030500Y-68844486D01*
X58030500Y-68655513D01*
X58000940Y-68468881D01*
X57964243Y-68355940D01*
X57942547Y-68289168D01*
X57942545Y-68289165D01*
X57942545Y-68289163D01*
X57856759Y-68120800D01*
X57745690Y-67967927D01*
X57612073Y-67834310D01*
X57459199Y-67723240D01*
X57290836Y-67637454D01*
X57111118Y-67579059D01*
X56924486Y-67549500D01*
X56924481Y-67549500D01*
X56735519Y-67549500D01*
X56735514Y-67549500D01*
X56548881Y-67579059D01*
X56369163Y-67637454D01*
X56200800Y-67723240D01*
X56113579Y-67786610D01*
X56047927Y-67834310D01*
X56047925Y-67834312D01*
X56047924Y-67834312D01*
X55914312Y-67967924D01*
X55914312Y-67967925D01*
X55914310Y-67967927D01*
X55866610Y-68033579D01*
X55803240Y-68120800D01*
X55717454Y-68289163D01*
X55659059Y-68468881D01*
X55629500Y-68655513D01*
X47870500Y-68655513D01*
X47840940Y-68468881D01*
X47804243Y-68355940D01*
X47782547Y-68289168D01*
X47782545Y-68289165D01*
X47782545Y-68289163D01*
X47696759Y-68120800D01*
X47585690Y-67967927D01*
X47452073Y-67834310D01*
X47299199Y-67723240D01*
X47130836Y-67637454D01*
X46951118Y-67579059D01*
X46764486Y-67549500D01*
X46764481Y-67549500D01*
X46575519Y-67549500D01*
X46575514Y-67549500D01*
X46388881Y-67579059D01*
X46209163Y-67637454D01*
X46040800Y-67723240D01*
X45953579Y-67786610D01*
X45887927Y-67834310D01*
X45887925Y-67834312D01*
X45887924Y-67834312D01*
X45754312Y-67967924D01*
X45754312Y-67967925D01*
X45754310Y-67967927D01*
X45706610Y-68033579D01*
X45643240Y-68120800D01*
X45557454Y-68289163D01*
X45499059Y-68468881D01*
X45469500Y-68655513D01*
X43000500Y-68655513D01*
X43000500Y-67090513D01*
X58489500Y-67090513D01*
X58489500Y-67279486D01*
X58519059Y-67466118D01*
X58577454Y-67645836D01*
X58663240Y-67814199D01*
X58774310Y-67967073D01*
X58907927Y-68100690D01*
X59060801Y-68211760D01*
X59076410Y-68219713D01*
X59229163Y-68297545D01*
X59229165Y-68297545D01*
X59229168Y-68297547D01*
X59325497Y-68328846D01*
X59408881Y-68355940D01*
X59595514Y-68385500D01*
X59595519Y-68385500D01*
X59784486Y-68385500D01*
X59971118Y-68355940D01*
X60150832Y-68297547D01*
X60319199Y-68211760D01*
X60472073Y-68100690D01*
X60605690Y-67967073D01*
X60716760Y-67814199D01*
X60802547Y-67645832D01*
X60842069Y-67524195D01*
X60881507Y-67466521D01*
X60945866Y-67439323D01*
X61014712Y-67451238D01*
X61066188Y-67498482D01*
X61077930Y-67524194D01*
X61078049Y-67524560D01*
X61117454Y-67645836D01*
X61203240Y-67814199D01*
X61314310Y-67967073D01*
X61447927Y-68100690D01*
X61600801Y-68211760D01*
X61616410Y-68219713D01*
X61769163Y-68297545D01*
X61769165Y-68297545D01*
X61769168Y-68297547D01*
X61865497Y-68328846D01*
X61948881Y-68355940D01*
X62135514Y-68385500D01*
X62135519Y-68385500D01*
X62324486Y-68385500D01*
X62511118Y-68355940D01*
X62690832Y-68297547D01*
X62859199Y-68211760D01*
X63012073Y-68100690D01*
X63145690Y-67967073D01*
X63256760Y-67814199D01*
X63342547Y-67645832D01*
X63382069Y-67524195D01*
X63421507Y-67466521D01*
X63485866Y-67439323D01*
X63554712Y-67451238D01*
X63606188Y-67498482D01*
X63617930Y-67524194D01*
X63618049Y-67524560D01*
X63657454Y-67645836D01*
X63743240Y-67814199D01*
X63854310Y-67967073D01*
X63987927Y-68100690D01*
X64140801Y-68211760D01*
X64156410Y-68219713D01*
X64309163Y-68297545D01*
X64309165Y-68297545D01*
X64309168Y-68297547D01*
X64405497Y-68328846D01*
X64488881Y-68355940D01*
X64675514Y-68385500D01*
X64675519Y-68385500D01*
X64864486Y-68385500D01*
X65051118Y-68355940D01*
X65230832Y-68297547D01*
X65399199Y-68211760D01*
X65552073Y-68100690D01*
X65685690Y-67967073D01*
X65796760Y-67814199D01*
X65882547Y-67645832D01*
X65922069Y-67524195D01*
X65961507Y-67466521D01*
X66025866Y-67439323D01*
X66094712Y-67451238D01*
X66146188Y-67498482D01*
X66157930Y-67524194D01*
X66158049Y-67524560D01*
X66197454Y-67645836D01*
X66283240Y-67814199D01*
X66394310Y-67967073D01*
X66527927Y-68100690D01*
X66680801Y-68211760D01*
X66696410Y-68219713D01*
X66849163Y-68297545D01*
X66849165Y-68297545D01*
X66849168Y-68297547D01*
X66945497Y-68328846D01*
X67028881Y-68355940D01*
X67215514Y-68385500D01*
X67215519Y-68385500D01*
X67404486Y-68385500D01*
X67591118Y-68355940D01*
X67770832Y-68297547D01*
X67923590Y-68219713D01*
X75023500Y-68219713D01*
X75023500Y-68432286D01*
X75056040Y-68637739D01*
X75056754Y-68642243D01*
X75058623Y-68647996D01*
X75122444Y-68844414D01*
X75218951Y-69033820D01*
X75343890Y-69205786D01*
X75494213Y-69356109D01*
X75666179Y-69481048D01*
X75666181Y-69481049D01*
X75666184Y-69481051D01*
X75855588Y-69577557D01*
X76057757Y-69643246D01*
X76267713Y-69676500D01*
X76267714Y-69676500D01*
X76480286Y-69676500D01*
X76480287Y-69676500D01*
X76690243Y-69643246D01*
X76892412Y-69577557D01*
X77081816Y-69481051D01*
X77107259Y-69462566D01*
X77253786Y-69356109D01*
X77253788Y-69356106D01*
X77253792Y-69356104D01*
X77404104Y-69205792D01*
X77404106Y-69205788D01*
X77404109Y-69205786D01*
X77529048Y-69033820D01*
X77529047Y-69033820D01*
X77529051Y-69033816D01*
X77625557Y-68844412D01*
X77691246Y-68642243D01*
X77724500Y-68432287D01*
X77724500Y-68219713D01*
X77691246Y-68009757D01*
X77625557Y-67807588D01*
X77529051Y-67618184D01*
X77529049Y-67618181D01*
X77529048Y-67618179D01*
X77404109Y-67446213D01*
X77253786Y-67295890D01*
X77081820Y-67170951D01*
X76892414Y-67074444D01*
X76892413Y-67074443D01*
X76892412Y-67074443D01*
X76690243Y-67008754D01*
X76690241Y-67008753D01*
X76690240Y-67008753D01*
X76528957Y-66983208D01*
X76480287Y-66975500D01*
X76267713Y-66975500D01*
X76219042Y-66983208D01*
X76057760Y-67008753D01*
X75855585Y-67074444D01*
X75666179Y-67170951D01*
X75494213Y-67295890D01*
X75343890Y-67446213D01*
X75218951Y-67618179D01*
X75122444Y-67807585D01*
X75056753Y-68009760D01*
X75023500Y-68219713D01*
X67923590Y-68219713D01*
X67939199Y-68211760D01*
X68092073Y-68100690D01*
X68225690Y-67967073D01*
X68336760Y-67814199D01*
X68422547Y-67645832D01*
X68480940Y-67466118D01*
X68485184Y-67439323D01*
X68510500Y-67279486D01*
X68510500Y-67090513D01*
X68480940Y-66903881D01*
X68430190Y-66747690D01*
X68422547Y-66724168D01*
X68422545Y-66724165D01*
X68422545Y-66724163D01*
X68356656Y-66594850D01*
X68336760Y-66555801D01*
X68225690Y-66402927D01*
X68092073Y-66269310D01*
X67987182Y-66193102D01*
X67944518Y-66137773D01*
X67938539Y-66068159D01*
X67971145Y-66006364D01*
X68031984Y-65972007D01*
X68040671Y-65970312D01*
X68226118Y-65940940D01*
X68405832Y-65882547D01*
X68574199Y-65796760D01*
X68727073Y-65685690D01*
X68860690Y-65552073D01*
X68965076Y-65408399D01*
X69803500Y-65408399D01*
X69803500Y-65655601D01*
X69815169Y-65729279D01*
X69840124Y-65886839D01*
X69842171Y-65899760D01*
X69918561Y-66134863D01*
X70030788Y-66355121D01*
X70176090Y-66555112D01*
X70350888Y-66729910D01*
X70550879Y-66875212D01*
X70771137Y-66987439D01*
X71006240Y-67063829D01*
X71250399Y-67102500D01*
X71250400Y-67102500D01*
X71497600Y-67102500D01*
X71497601Y-67102500D01*
X71741760Y-67063829D01*
X71976863Y-66987439D01*
X72197121Y-66875212D01*
X72397112Y-66729910D01*
X72571910Y-66555112D01*
X72717212Y-66355121D01*
X72829439Y-66134863D01*
X72905829Y-65899760D01*
X72944500Y-65655601D01*
X72944500Y-65408399D01*
X72927095Y-65298511D01*
X98167500Y-65298511D01*
X98167500Y-65511488D01*
X98200815Y-65721829D01*
X98266623Y-65924369D01*
X98266624Y-65924372D01*
X98363310Y-66114127D01*
X98488489Y-66286421D01*
X98488491Y-66286423D01*
X98586765Y-66384697D01*
X98620250Y-66446020D01*
X98615266Y-66515712D01*
X98573394Y-66571645D01*
X98518481Y-66594851D01*
X98442696Y-66606854D01*
X98329658Y-66664450D01*
X98329657Y-66664451D01*
X98329652Y-66664454D01*
X98239954Y-66754152D01*
X98239951Y-66754157D01*
X98182352Y-66867198D01*
X98167500Y-66960975D01*
X98167500Y-68929017D01*
X98178292Y-68997157D01*
X98182354Y-69022804D01*
X98239950Y-69135842D01*
X98239952Y-69135844D01*
X98239954Y-69135847D01*
X98329652Y-69225545D01*
X98329654Y-69225546D01*
X98329658Y-69225550D01*
X98442694Y-69283145D01*
X98442698Y-69283147D01*
X98536475Y-69297999D01*
X98536481Y-69298000D01*
X100599518Y-69297999D01*
X100693304Y-69283146D01*
X100806342Y-69225550D01*
X100896050Y-69135842D01*
X100953646Y-69022804D01*
X100953646Y-69022802D01*
X100953647Y-69022801D01*
X100968500Y-68929024D01*
X100968500Y-67953902D01*
X101496500Y-67953902D01*
X101496500Y-68190097D01*
X101533446Y-68423368D01*
X101606433Y-68647996D01*
X101706513Y-68844412D01*
X101713657Y-68858433D01*
X101852483Y-69049510D01*
X102019490Y-69216517D01*
X102210567Y-69355343D01*
X102309991Y-69406002D01*
X102421003Y-69462566D01*
X102421005Y-69462566D01*
X102421008Y-69462568D01*
X102477893Y-69481051D01*
X102645631Y-69535553D01*
X102878903Y-69572500D01*
X102878908Y-69572500D01*
X103115097Y-69572500D01*
X103348368Y-69535553D01*
X103359078Y-69532073D01*
X103572992Y-69462568D01*
X103783433Y-69355343D01*
X103974510Y-69216517D01*
X104141517Y-69049510D01*
X104280343Y-68858433D01*
X104387568Y-68647992D01*
X104460553Y-68423368D01*
X104469728Y-68365439D01*
X104497500Y-68190097D01*
X104497500Y-67953902D01*
X104476195Y-67819388D01*
X104473764Y-67804041D01*
X106849500Y-67804041D01*
X106849500Y-68085958D01*
X106886295Y-68365439D01*
X106959259Y-68637743D01*
X107067135Y-68898179D01*
X107067140Y-68898190D01*
X107208083Y-69142309D01*
X107208088Y-69142317D01*
X107372137Y-69356109D01*
X107379704Y-69365970D01*
X107579029Y-69565295D01*
X107579033Y-69565298D01*
X107579035Y-69565300D01*
X107802683Y-69736912D01*
X107802690Y-69736916D01*
X108046809Y-69877859D01*
X108046814Y-69877861D01*
X108046817Y-69877863D01*
X108222179Y-69950500D01*
X108297169Y-69981562D01*
X108307261Y-69985742D01*
X108579558Y-70058704D01*
X108859049Y-70095500D01*
X108859056Y-70095500D01*
X109140944Y-70095500D01*
X109140951Y-70095500D01*
X109420442Y-70058704D01*
X109692739Y-69985742D01*
X109953183Y-69877863D01*
X110197317Y-69736912D01*
X110420965Y-69565300D01*
X110620300Y-69365965D01*
X110791912Y-69142317D01*
X110932863Y-68898183D01*
X111040742Y-68637739D01*
X111113704Y-68365442D01*
X111150500Y-68085951D01*
X111150500Y-67804049D01*
X111113704Y-67524558D01*
X111040742Y-67252261D01*
X110932863Y-66991817D01*
X110932861Y-66991814D01*
X110932859Y-66991809D01*
X110791916Y-66747690D01*
X110791912Y-66747683D01*
X110620300Y-66524035D01*
X110620298Y-66524033D01*
X110620295Y-66524029D01*
X110420970Y-66324704D01*
X110420965Y-66324700D01*
X110197317Y-66153088D01*
X110197311Y-66153084D01*
X110197309Y-66153083D01*
X109953190Y-66012140D01*
X109953179Y-66012135D01*
X109692743Y-65904259D01*
X109420439Y-65831295D01*
X109140958Y-65794500D01*
X109140951Y-65794500D01*
X108859049Y-65794500D01*
X108859041Y-65794500D01*
X108579560Y-65831295D01*
X108307256Y-65904259D01*
X108046820Y-66012135D01*
X108046809Y-66012140D01*
X107802690Y-66153083D01*
X107802682Y-66153089D01*
X107579029Y-66324704D01*
X107379704Y-66524029D01*
X107208089Y-66747682D01*
X107208083Y-66747690D01*
X107067140Y-66991809D01*
X107067135Y-66991820D01*
X106959259Y-67252256D01*
X106886295Y-67524560D01*
X106849500Y-67804041D01*
X104473764Y-67804041D01*
X104460553Y-67720631D01*
X104414553Y-67579059D01*
X104387568Y-67496008D01*
X104387566Y-67496005D01*
X104387566Y-67496003D01*
X104331002Y-67384991D01*
X104280343Y-67285567D01*
X104141517Y-67094490D01*
X103974510Y-66927483D01*
X103783433Y-66788657D01*
X103760082Y-66776759D01*
X103572996Y-66681433D01*
X103348368Y-66608446D01*
X103115097Y-66571500D01*
X103115092Y-66571500D01*
X102878908Y-66571500D01*
X102878903Y-66571500D01*
X102645631Y-66608446D01*
X102421003Y-66681433D01*
X102210566Y-66788657D01*
X102108869Y-66862545D01*
X102019490Y-66927483D01*
X102019488Y-66927485D01*
X102019487Y-66927485D01*
X101852485Y-67094487D01*
X101852485Y-67094488D01*
X101852483Y-67094490D01*
X101796932Y-67170949D01*
X101713657Y-67285566D01*
X101606433Y-67496003D01*
X101533446Y-67720631D01*
X101496500Y-67953902D01*
X100968500Y-67953902D01*
X100968500Y-67949036D01*
X100968499Y-66960982D01*
X100963194Y-66927485D01*
X100953646Y-66867196D01*
X100896050Y-66754158D01*
X100896046Y-66754154D01*
X100896045Y-66754152D01*
X100806347Y-66664454D01*
X100806344Y-66664452D01*
X100806342Y-66664450D01*
X100729517Y-66625305D01*
X100693301Y-66606852D01*
X100617518Y-66594850D01*
X100554383Y-66564921D01*
X100517452Y-66505609D01*
X100518450Y-66435747D01*
X100549231Y-66384700D01*
X100647511Y-66286421D01*
X100772690Y-66114127D01*
X100869375Y-65924372D01*
X100935185Y-65721828D01*
X100962071Y-65552075D01*
X100968500Y-65511488D01*
X100968500Y-65298511D01*
X100941683Y-65129199D01*
X100935185Y-65088172D01*
X100869375Y-64885628D01*
X100869375Y-64885627D01*
X100793599Y-64736910D01*
X100772690Y-64695873D01*
X100647511Y-64523579D01*
X100496921Y-64372989D01*
X100324627Y-64247810D01*
X100303276Y-64236931D01*
X100134872Y-64151124D01*
X100134869Y-64151123D01*
X99932329Y-64085315D01*
X99721988Y-64052000D01*
X99721983Y-64052000D01*
X99414017Y-64052000D01*
X99414012Y-64052000D01*
X99203670Y-64085315D01*
X99001130Y-64151123D01*
X99001127Y-64151124D01*
X98811372Y-64247810D01*
X98726928Y-64309163D01*
X98639079Y-64372989D01*
X98639077Y-64372991D01*
X98639076Y-64372991D01*
X98488491Y-64523576D01*
X98488491Y-64523577D01*
X98488489Y-64523579D01*
X98459246Y-64563829D01*
X98363310Y-64695872D01*
X98266624Y-64885627D01*
X98266623Y-64885630D01*
X98200815Y-65088170D01*
X98167500Y-65298511D01*
X72927095Y-65298511D01*
X72905829Y-65164240D01*
X72829439Y-64929137D01*
X72717212Y-64708879D01*
X72571910Y-64508888D01*
X72397112Y-64334090D01*
X72197121Y-64188788D01*
X72027563Y-64102394D01*
X71976865Y-64076562D01*
X71976864Y-64076561D01*
X71976863Y-64076561D01*
X71741760Y-64000171D01*
X71741758Y-64000170D01*
X71741757Y-64000170D01*
X71554199Y-63970464D01*
X71497601Y-63961500D01*
X71250399Y-63961500D01*
X71193800Y-63970464D01*
X71006243Y-64000170D01*
X70771134Y-64076562D01*
X70550878Y-64188788D01*
X70350885Y-64334092D01*
X70176092Y-64508885D01*
X70030788Y-64708878D01*
X69918562Y-64929134D01*
X69842170Y-65164243D01*
X69818603Y-65313043D01*
X69803500Y-65408399D01*
X68965076Y-65408399D01*
X68971760Y-65399199D01*
X69057547Y-65230832D01*
X69115940Y-65051118D01*
X69145500Y-64864486D01*
X69145500Y-64675513D01*
X69115940Y-64488881D01*
X69076003Y-64365970D01*
X69057547Y-64309168D01*
X69057545Y-64309165D01*
X69057545Y-64309163D01*
X69011338Y-64218478D01*
X68971760Y-64140801D01*
X68860690Y-63987927D01*
X68727073Y-63854310D01*
X68574199Y-63743240D01*
X68405836Y-63657454D01*
X68226118Y-63599059D01*
X68039486Y-63569500D01*
X68039481Y-63569500D01*
X67850519Y-63569500D01*
X67850514Y-63569500D01*
X67663881Y-63599059D01*
X67484163Y-63657454D01*
X67315800Y-63743240D01*
X67228579Y-63806610D01*
X67162927Y-63854310D01*
X67162925Y-63854312D01*
X67162924Y-63854312D01*
X67029312Y-63987924D01*
X67029312Y-63987925D01*
X67029310Y-63987927D01*
X66992085Y-64039163D01*
X66918240Y-64140800D01*
X66832454Y-64309163D01*
X66774059Y-64488881D01*
X66744500Y-64675513D01*
X66744500Y-64864486D01*
X66774059Y-65051118D01*
X66832454Y-65230836D01*
X66891762Y-65347233D01*
X66918240Y-65399199D01*
X67029310Y-65552073D01*
X67162927Y-65685690D01*
X67267817Y-65761897D01*
X67310481Y-65817226D01*
X67316460Y-65886839D01*
X67283854Y-65948634D01*
X67223015Y-65982992D01*
X67214329Y-65984687D01*
X67028880Y-66014060D01*
X66849163Y-66072454D01*
X66680800Y-66158240D01*
X66632816Y-66193103D01*
X66527927Y-66269310D01*
X66527925Y-66269312D01*
X66527924Y-66269312D01*
X66394312Y-66402924D01*
X66394312Y-66402925D01*
X66394310Y-66402927D01*
X66363001Y-66446020D01*
X66283240Y-66555800D01*
X66197454Y-66724163D01*
X66157931Y-66845803D01*
X66118493Y-66903478D01*
X66054134Y-66930676D01*
X65985288Y-66918761D01*
X65933812Y-66871516D01*
X65922069Y-66845803D01*
X65890190Y-66747690D01*
X65882547Y-66724168D01*
X65882545Y-66724165D01*
X65882545Y-66724163D01*
X65816656Y-66594850D01*
X65796760Y-66555801D01*
X65685690Y-66402927D01*
X65552073Y-66269310D01*
X65399199Y-66158240D01*
X65389078Y-66153083D01*
X65230836Y-66072454D01*
X65051118Y-66014059D01*
X64864486Y-65984500D01*
X64864481Y-65984500D01*
X64675519Y-65984500D01*
X64675514Y-65984500D01*
X64488881Y-66014059D01*
X64309163Y-66072454D01*
X64140800Y-66158240D01*
X64092816Y-66193103D01*
X63987927Y-66269310D01*
X63987925Y-66269312D01*
X63987924Y-66269312D01*
X63854312Y-66402924D01*
X63854312Y-66402925D01*
X63854310Y-66402927D01*
X63823001Y-66446020D01*
X63743240Y-66555800D01*
X63657454Y-66724163D01*
X63617931Y-66845803D01*
X63578493Y-66903478D01*
X63514134Y-66930676D01*
X63445288Y-66918761D01*
X63393812Y-66871516D01*
X63382069Y-66845803D01*
X63350190Y-66747690D01*
X63342547Y-66724168D01*
X63342545Y-66724165D01*
X63342545Y-66724163D01*
X63276656Y-66594850D01*
X63256760Y-66555801D01*
X63145690Y-66402927D01*
X63012073Y-66269310D01*
X62859199Y-66158240D01*
X62849078Y-66153083D01*
X62690836Y-66072454D01*
X62511118Y-66014059D01*
X62324486Y-65984500D01*
X62324481Y-65984500D01*
X62135519Y-65984500D01*
X62135514Y-65984500D01*
X61948881Y-66014059D01*
X61769163Y-66072454D01*
X61600800Y-66158240D01*
X61552816Y-66193103D01*
X61447927Y-66269310D01*
X61447925Y-66269312D01*
X61447924Y-66269312D01*
X61314312Y-66402924D01*
X61314312Y-66402925D01*
X61314310Y-66402927D01*
X61283001Y-66446020D01*
X61203240Y-66555800D01*
X61117454Y-66724163D01*
X61077931Y-66845803D01*
X61038493Y-66903478D01*
X60974134Y-66930676D01*
X60905288Y-66918761D01*
X60853812Y-66871516D01*
X60842069Y-66845803D01*
X60810190Y-66747690D01*
X60802547Y-66724168D01*
X60802545Y-66724165D01*
X60802545Y-66724163D01*
X60736656Y-66594850D01*
X60716760Y-66555801D01*
X60605690Y-66402927D01*
X60472073Y-66269310D01*
X60319199Y-66158240D01*
X60309078Y-66153083D01*
X60150836Y-66072454D01*
X59971118Y-66014059D01*
X59784486Y-65984500D01*
X59784481Y-65984500D01*
X59595519Y-65984500D01*
X59595514Y-65984500D01*
X59408881Y-66014059D01*
X59229163Y-66072454D01*
X59060800Y-66158240D01*
X59012816Y-66193103D01*
X58907927Y-66269310D01*
X58907925Y-66269312D01*
X58907924Y-66269312D01*
X58774312Y-66402924D01*
X58774312Y-66402925D01*
X58774310Y-66402927D01*
X58743001Y-66446020D01*
X58663240Y-66555800D01*
X58577454Y-66724163D01*
X58519059Y-66903881D01*
X58489500Y-67090513D01*
X43000500Y-67090513D01*
X43000500Y-65655513D01*
X55629500Y-65655513D01*
X55629500Y-65844486D01*
X55659059Y-66031118D01*
X55717454Y-66210836D01*
X55755968Y-66286423D01*
X55803240Y-66379199D01*
X55914310Y-66532073D01*
X56047927Y-66665690D01*
X56200801Y-66776760D01*
X56280347Y-66817290D01*
X56369163Y-66862545D01*
X56369165Y-66862545D01*
X56369168Y-66862547D01*
X56396772Y-66871516D01*
X56548881Y-66920940D01*
X56735514Y-66950500D01*
X56735519Y-66950500D01*
X56924486Y-66950500D01*
X57111118Y-66920940D01*
X57117824Y-66918761D01*
X57290832Y-66862547D01*
X57459199Y-66776760D01*
X57612073Y-66665690D01*
X57745690Y-66532073D01*
X57856760Y-66379199D01*
X57942547Y-66210832D01*
X58000940Y-66031118D01*
X58008294Y-65984687D01*
X58030500Y-65844486D01*
X58030500Y-65655513D01*
X58000940Y-65468881D01*
X57973846Y-65385497D01*
X57942547Y-65289168D01*
X57942545Y-65289165D01*
X57942545Y-65289163D01*
X57856759Y-65120800D01*
X57745690Y-64967927D01*
X57616818Y-64839055D01*
X57583334Y-64777732D01*
X57580500Y-64751374D01*
X57580500Y-64182229D01*
X57600185Y-64115190D01*
X57616819Y-64094548D01*
X58440548Y-63270819D01*
X58501871Y-63237334D01*
X58528229Y-63234500D01*
X59032857Y-63234500D01*
X59099896Y-63254185D01*
X59145651Y-63306989D01*
X59155595Y-63376147D01*
X59126570Y-63439703D01*
X59089153Y-63468984D01*
X59080803Y-63473238D01*
X59007051Y-63526823D01*
X58927927Y-63584310D01*
X58927925Y-63584312D01*
X58927924Y-63584312D01*
X58794312Y-63717924D01*
X58794312Y-63717925D01*
X58794310Y-63717927D01*
X58773854Y-63746082D01*
X58683240Y-63870800D01*
X58597454Y-64039163D01*
X58539059Y-64218881D01*
X58509500Y-64405513D01*
X58509500Y-64594486D01*
X58539059Y-64781118D01*
X58597454Y-64960836D01*
X58678961Y-65120801D01*
X58683240Y-65129199D01*
X58794310Y-65282073D01*
X58927927Y-65415690D01*
X59080801Y-65526760D01*
X59130481Y-65552073D01*
X59249163Y-65612545D01*
X59249165Y-65612545D01*
X59249168Y-65612547D01*
X59345497Y-65643846D01*
X59428881Y-65670940D01*
X59615514Y-65700500D01*
X59615519Y-65700500D01*
X59804486Y-65700500D01*
X59991118Y-65670940D01*
X60038329Y-65655600D01*
X60170832Y-65612547D01*
X60339199Y-65526760D01*
X60492073Y-65415690D01*
X60625690Y-65282073D01*
X60736760Y-65129199D01*
X60822547Y-64960832D01*
X60862069Y-64839195D01*
X60901507Y-64781521D01*
X60965866Y-64754323D01*
X61034712Y-64766238D01*
X61086188Y-64813482D01*
X61097930Y-64839194D01*
X61106148Y-64864486D01*
X61137454Y-64960836D01*
X61218961Y-65120801D01*
X61223240Y-65129199D01*
X61334310Y-65282073D01*
X61467927Y-65415690D01*
X61620801Y-65526760D01*
X61670481Y-65552073D01*
X61789163Y-65612545D01*
X61789165Y-65612545D01*
X61789168Y-65612547D01*
X61885497Y-65643846D01*
X61968881Y-65670940D01*
X62155514Y-65700500D01*
X62155519Y-65700500D01*
X62344486Y-65700500D01*
X62531118Y-65670940D01*
X62578329Y-65655600D01*
X62710832Y-65612547D01*
X62879199Y-65526760D01*
X63032073Y-65415690D01*
X63165690Y-65282073D01*
X63276760Y-65129199D01*
X63362547Y-64960832D01*
X63420940Y-64781118D01*
X63427941Y-64736916D01*
X63450500Y-64594486D01*
X63450500Y-64405513D01*
X63420940Y-64218881D01*
X63383091Y-64102397D01*
X63362547Y-64039168D01*
X63362545Y-64039165D01*
X63362545Y-64039163D01*
X63295558Y-63907694D01*
X63276760Y-63870801D01*
X63165690Y-63717927D01*
X63032073Y-63584310D01*
X62879199Y-63473240D01*
X62870846Y-63468984D01*
X62710836Y-63387454D01*
X62531118Y-63329059D01*
X62407114Y-63309419D01*
X62343979Y-63279490D01*
X62307048Y-63220178D01*
X62308046Y-63150315D01*
X62346656Y-63092083D01*
X62357606Y-63083855D01*
X62382904Y-63066952D01*
X62541457Y-62908399D01*
X79803500Y-62908399D01*
X79803500Y-63155601D01*
X79804272Y-63160473D01*
X79840221Y-63387453D01*
X79842171Y-63399760D01*
X79918561Y-63634863D01*
X80030788Y-63855121D01*
X80176090Y-64055112D01*
X80350888Y-64229910D01*
X80550879Y-64375212D01*
X80771137Y-64487439D01*
X81006240Y-64563829D01*
X81250399Y-64602500D01*
X81250400Y-64602500D01*
X81497600Y-64602500D01*
X81497601Y-64602500D01*
X81741760Y-64563829D01*
X81976863Y-64487439D01*
X82197121Y-64375212D01*
X82397112Y-64229910D01*
X82571910Y-64055112D01*
X82717212Y-63855121D01*
X82829439Y-63634863D01*
X82905829Y-63399760D01*
X82943728Y-63160475D01*
X87471794Y-63160475D01*
X87501354Y-63347109D01*
X87559749Y-63526827D01*
X87645535Y-63695190D01*
X87756605Y-63848064D01*
X87890222Y-63981681D01*
X88043096Y-64092751D01*
X88117903Y-64130867D01*
X88211458Y-64178536D01*
X88211460Y-64178536D01*
X88211463Y-64178538D01*
X88307792Y-64209837D01*
X88391176Y-64236931D01*
X88577809Y-64266491D01*
X88577814Y-64266491D01*
X88766781Y-64266491D01*
X88953413Y-64236931D01*
X88975021Y-64229910D01*
X89133127Y-64178538D01*
X89301494Y-64092751D01*
X89454368Y-63981681D01*
X89587985Y-63848064D01*
X89699055Y-63695190D01*
X89784842Y-63526823D01*
X89843235Y-63347109D01*
X89846094Y-63329059D01*
X89872795Y-63160475D01*
X90519794Y-63160475D01*
X90549354Y-63347109D01*
X90607749Y-63526827D01*
X90693535Y-63695190D01*
X90804605Y-63848064D01*
X90938222Y-63981681D01*
X91091096Y-64092751D01*
X91165903Y-64130867D01*
X91259458Y-64178536D01*
X91259460Y-64178536D01*
X91259463Y-64178538D01*
X91355792Y-64209837D01*
X91439176Y-64236931D01*
X91625809Y-64266491D01*
X91625814Y-64266491D01*
X91814781Y-64266491D01*
X92001413Y-64236931D01*
X92023021Y-64229910D01*
X92181127Y-64178538D01*
X92349494Y-64092751D01*
X92502368Y-63981681D01*
X92635985Y-63848064D01*
X92747055Y-63695190D01*
X92832842Y-63526823D01*
X92891235Y-63347109D01*
X92894094Y-63329059D01*
X92920795Y-63160475D01*
X93567794Y-63160475D01*
X93597354Y-63347109D01*
X93655749Y-63526827D01*
X93741535Y-63695190D01*
X93852605Y-63848064D01*
X93986222Y-63981681D01*
X94139096Y-64092751D01*
X94213903Y-64130867D01*
X94307458Y-64178536D01*
X94307460Y-64178536D01*
X94307463Y-64178538D01*
X94403792Y-64209837D01*
X94487176Y-64236931D01*
X94673809Y-64266491D01*
X94673814Y-64266491D01*
X94862781Y-64266491D01*
X95049413Y-64236931D01*
X95071021Y-64229910D01*
X95229127Y-64178538D01*
X95397494Y-64092751D01*
X95550368Y-63981681D01*
X95683985Y-63848064D01*
X95795055Y-63695190D01*
X95880842Y-63526823D01*
X95939235Y-63347109D01*
X95942094Y-63329059D01*
X95968795Y-63160475D01*
X95968795Y-62971504D01*
X95939235Y-62784872D01*
X95880840Y-62605154D01*
X95795054Y-62436791D01*
X95789491Y-62429134D01*
X95683985Y-62283918D01*
X95550368Y-62150301D01*
X95448511Y-62076297D01*
X101496500Y-62076297D01*
X101496500Y-63907682D01*
X101496501Y-63907707D01*
X101499402Y-63944570D01*
X101545254Y-64102394D01*
X101545255Y-64102397D01*
X101628916Y-64243861D01*
X101628923Y-64243870D01*
X101745129Y-64360076D01*
X101745138Y-64360083D01*
X101770718Y-64375211D01*
X101886601Y-64443744D01*
X101928223Y-64455836D01*
X102044425Y-64489597D01*
X102044428Y-64489597D01*
X102044430Y-64489598D01*
X102081305Y-64492500D01*
X103912694Y-64492499D01*
X103949570Y-64489598D01*
X104107399Y-64443744D01*
X104248865Y-64360081D01*
X104365081Y-64243865D01*
X104448744Y-64102399D01*
X104494598Y-63944570D01*
X104497500Y-63907695D01*
X104497499Y-62804041D01*
X106849500Y-62804041D01*
X106849500Y-63085958D01*
X106886295Y-63365439D01*
X106959259Y-63637743D01*
X107067135Y-63898179D01*
X107067140Y-63898190D01*
X107208083Y-64142309D01*
X107208088Y-64142317D01*
X107355243Y-64334092D01*
X107379704Y-64365970D01*
X107579029Y-64565295D01*
X107579033Y-64565298D01*
X107579035Y-64565300D01*
X107802683Y-64736912D01*
X107802690Y-64736916D01*
X108046809Y-64877859D01*
X108046814Y-64877861D01*
X108046817Y-64877863D01*
X108307261Y-64985742D01*
X108579558Y-65058704D01*
X108859049Y-65095500D01*
X108859056Y-65095500D01*
X109140944Y-65095500D01*
X109140951Y-65095500D01*
X109420442Y-65058704D01*
X109692739Y-64985742D01*
X109953183Y-64877863D01*
X110197317Y-64736912D01*
X110420965Y-64565300D01*
X110620300Y-64365965D01*
X110791912Y-64142317D01*
X110932863Y-63898183D01*
X111040742Y-63637739D01*
X111113704Y-63365442D01*
X111150500Y-63085951D01*
X111150500Y-62804049D01*
X111113704Y-62524558D01*
X111040742Y-62252261D01*
X110932863Y-61991817D01*
X110932861Y-61991814D01*
X110932859Y-61991809D01*
X110791916Y-61747690D01*
X110791912Y-61747683D01*
X110620300Y-61524035D01*
X110620298Y-61524033D01*
X110620295Y-61524029D01*
X110420970Y-61324704D01*
X110420965Y-61324700D01*
X110197317Y-61153088D01*
X110197311Y-61153084D01*
X110197309Y-61153083D01*
X109953190Y-61012140D01*
X109953179Y-61012135D01*
X109692743Y-60904259D01*
X109420439Y-60831295D01*
X109140958Y-60794500D01*
X109140951Y-60794500D01*
X108859049Y-60794500D01*
X108859041Y-60794500D01*
X108579560Y-60831295D01*
X108307256Y-60904259D01*
X108046820Y-61012135D01*
X108046809Y-61012140D01*
X107802690Y-61153083D01*
X107802682Y-61153089D01*
X107579029Y-61324704D01*
X107379704Y-61524029D01*
X107355852Y-61555114D01*
X107213885Y-61740129D01*
X107208089Y-61747682D01*
X107208083Y-61747690D01*
X107067140Y-61991809D01*
X107067135Y-61991820D01*
X106959259Y-62252256D01*
X106886295Y-62524560D01*
X106849500Y-62804041D01*
X104497499Y-62804041D01*
X104497499Y-62076306D01*
X104494598Y-62039430D01*
X104448744Y-61881601D01*
X104365081Y-61740135D01*
X104365079Y-61740133D01*
X104365076Y-61740129D01*
X104248870Y-61623923D01*
X104248861Y-61623916D01*
X104107397Y-61540255D01*
X104107394Y-61540254D01*
X103949574Y-61494402D01*
X103949568Y-61494401D01*
X103912695Y-61491500D01*
X102081317Y-61491500D01*
X102081292Y-61491501D01*
X102044429Y-61494402D01*
X101886605Y-61540254D01*
X101886602Y-61540255D01*
X101745138Y-61623916D01*
X101745129Y-61623923D01*
X101628923Y-61740129D01*
X101628916Y-61740138D01*
X101545255Y-61881602D01*
X101545254Y-61881605D01*
X101499402Y-62039425D01*
X101499401Y-62039431D01*
X101496500Y-62076297D01*
X95448511Y-62076297D01*
X95397494Y-62039231D01*
X95229131Y-61953445D01*
X95049413Y-61895050D01*
X94862781Y-61865491D01*
X94862776Y-61865491D01*
X94673814Y-61865491D01*
X94673809Y-61865491D01*
X94487176Y-61895050D01*
X94307458Y-61953445D01*
X94139095Y-62039231D01*
X94052014Y-62102500D01*
X93986222Y-62150301D01*
X93986220Y-62150303D01*
X93986219Y-62150303D01*
X93852607Y-62283915D01*
X93852607Y-62283916D01*
X93852605Y-62283918D01*
X93804905Y-62349570D01*
X93741535Y-62436791D01*
X93655749Y-62605154D01*
X93597354Y-62784872D01*
X93567795Y-62971504D01*
X93567795Y-63160473D01*
X93567794Y-63160475D01*
X92920795Y-63160475D01*
X92920795Y-62971504D01*
X92891235Y-62784872D01*
X92832840Y-62605154D01*
X92747054Y-62436791D01*
X92741491Y-62429134D01*
X92635985Y-62283918D01*
X92502368Y-62150301D01*
X92349494Y-62039231D01*
X92181131Y-61953445D01*
X92001413Y-61895050D01*
X91814781Y-61865491D01*
X91814776Y-61865491D01*
X91625814Y-61865491D01*
X91625809Y-61865491D01*
X91439176Y-61895050D01*
X91259458Y-61953445D01*
X91091095Y-62039231D01*
X91004014Y-62102500D01*
X90938222Y-62150301D01*
X90938220Y-62150303D01*
X90938219Y-62150303D01*
X90804607Y-62283915D01*
X90804607Y-62283916D01*
X90804605Y-62283918D01*
X90756905Y-62349570D01*
X90693535Y-62436791D01*
X90607749Y-62605154D01*
X90549354Y-62784872D01*
X90519795Y-62971504D01*
X90519795Y-63160473D01*
X90519794Y-63160475D01*
X89872795Y-63160475D01*
X89872795Y-62971504D01*
X89843235Y-62784872D01*
X89784840Y-62605154D01*
X89699054Y-62436791D01*
X89693491Y-62429134D01*
X89587985Y-62283918D01*
X89454368Y-62150301D01*
X89301494Y-62039231D01*
X89133131Y-61953445D01*
X88953413Y-61895050D01*
X88766781Y-61865491D01*
X88766776Y-61865491D01*
X88577814Y-61865491D01*
X88577809Y-61865491D01*
X88391176Y-61895050D01*
X88211458Y-61953445D01*
X88043095Y-62039231D01*
X87956014Y-62102500D01*
X87890222Y-62150301D01*
X87890220Y-62150303D01*
X87890219Y-62150303D01*
X87756607Y-62283915D01*
X87756607Y-62283916D01*
X87756605Y-62283918D01*
X87708905Y-62349570D01*
X87645535Y-62436791D01*
X87559749Y-62605154D01*
X87501354Y-62784872D01*
X87471795Y-62971504D01*
X87471795Y-63160473D01*
X87471794Y-63160475D01*
X82943728Y-63160475D01*
X82944500Y-63155601D01*
X82944500Y-62908399D01*
X82905829Y-62664240D01*
X82829439Y-62429137D01*
X82717212Y-62208879D01*
X82571910Y-62008888D01*
X82397112Y-61834090D01*
X82197121Y-61688788D01*
X81976863Y-61576561D01*
X81741760Y-61500171D01*
X81741758Y-61500170D01*
X81741757Y-61500170D01*
X81554199Y-61470464D01*
X81497601Y-61461500D01*
X81250399Y-61461500D01*
X81193800Y-61470464D01*
X81006243Y-61500170D01*
X80771134Y-61576562D01*
X80550878Y-61688788D01*
X80350885Y-61834092D01*
X80176092Y-62008885D01*
X80030788Y-62208878D01*
X79918562Y-62429134D01*
X79842170Y-62664243D01*
X79820027Y-62804049D01*
X79803500Y-62908399D01*
X62541457Y-62908399D01*
X64545597Y-60904259D01*
X66497036Y-58952819D01*
X66558359Y-58919334D01*
X66584717Y-58916500D01*
X70568777Y-58916500D01*
X70635816Y-58936185D01*
X70681571Y-58988989D01*
X70691515Y-59058147D01*
X70662490Y-59121703D01*
X70625072Y-59150985D01*
X70550878Y-59188788D01*
X70350885Y-59334092D01*
X70176092Y-59508885D01*
X70030788Y-59708878D01*
X69918562Y-59929134D01*
X69842170Y-60164243D01*
X69821532Y-60294547D01*
X69803500Y-60408399D01*
X69803500Y-60655601D01*
X69842171Y-60899760D01*
X69918561Y-61134863D01*
X70030788Y-61355121D01*
X70176090Y-61555112D01*
X70350888Y-61729910D01*
X70550879Y-61875212D01*
X70771137Y-61987439D01*
X71006240Y-62063829D01*
X71250399Y-62102500D01*
X71250400Y-62102500D01*
X71497600Y-62102500D01*
X71497601Y-62102500D01*
X71741760Y-62063829D01*
X71976863Y-61987439D01*
X72197121Y-61875212D01*
X72397112Y-61729910D01*
X72571910Y-61555112D01*
X72717212Y-61355121D01*
X72829439Y-61134863D01*
X72905829Y-60899760D01*
X72944500Y-60655601D01*
X72944500Y-60408399D01*
X72905829Y-60164240D01*
X72829439Y-59929137D01*
X72717212Y-59708879D01*
X72571910Y-59508888D01*
X72397112Y-59334090D01*
X72197121Y-59188788D01*
X72122927Y-59150984D01*
X72072132Y-59103011D01*
X72055337Y-59035190D01*
X72077874Y-58969055D01*
X72132589Y-58925603D01*
X72179223Y-58916500D01*
X79956920Y-58916500D01*
X80012151Y-58905513D01*
X90299500Y-58905513D01*
X90299500Y-59094486D01*
X90329059Y-59281118D01*
X90387454Y-59460836D01*
X90441033Y-59565989D01*
X90473240Y-59629199D01*
X90584310Y-59782073D01*
X90717927Y-59915690D01*
X90870801Y-60026760D01*
X90950347Y-60067290D01*
X91039163Y-60112545D01*
X91039165Y-60112545D01*
X91039168Y-60112547D01*
X91135497Y-60143846D01*
X91218881Y-60170940D01*
X91405514Y-60200500D01*
X91405519Y-60200500D01*
X91594486Y-60200500D01*
X91781118Y-60170940D01*
X91801738Y-60164240D01*
X91960832Y-60112547D01*
X92129199Y-60026760D01*
X92282073Y-59915690D01*
X92415690Y-59782073D01*
X92526760Y-59629199D01*
X92596179Y-59492955D01*
X92644153Y-59442159D01*
X92711974Y-59425364D01*
X92778109Y-59447901D01*
X92821561Y-59502616D01*
X92824595Y-59510931D01*
X92867454Y-59642836D01*
X92953240Y-59811199D01*
X93064310Y-59964073D01*
X93197927Y-60097690D01*
X93350801Y-60208760D01*
X93430347Y-60249290D01*
X93519163Y-60294545D01*
X93519165Y-60294545D01*
X93519168Y-60294547D01*
X93615497Y-60325846D01*
X93698881Y-60352940D01*
X93885514Y-60382500D01*
X93885519Y-60382500D01*
X94074486Y-60382500D01*
X94261118Y-60352940D01*
X94440832Y-60294547D01*
X94609199Y-60208760D01*
X94762073Y-60097690D01*
X94895690Y-59964073D01*
X95006760Y-59811199D01*
X95092547Y-59642832D01*
X95150940Y-59463118D01*
X95163210Y-59385646D01*
X95180500Y-59276484D01*
X102939499Y-59276484D01*
X102969059Y-59463118D01*
X103027454Y-59642836D01*
X103113240Y-59811199D01*
X103224310Y-59964073D01*
X103357927Y-60097690D01*
X103510801Y-60208760D01*
X103590347Y-60249290D01*
X103679163Y-60294545D01*
X103679165Y-60294545D01*
X103679168Y-60294547D01*
X103775497Y-60325846D01*
X103858881Y-60352940D01*
X104045514Y-60382500D01*
X104045519Y-60382500D01*
X104234486Y-60382500D01*
X104421118Y-60352940D01*
X104600832Y-60294547D01*
X104769199Y-60208760D01*
X104922073Y-60097690D01*
X105055690Y-59964073D01*
X105166760Y-59811199D01*
X105252547Y-59642832D01*
X105310940Y-59463118D01*
X105323210Y-59385646D01*
X105340500Y-59276484D01*
X105340500Y-59087513D01*
X105310940Y-58900881D01*
X105261575Y-58748954D01*
X105252547Y-58721168D01*
X105252545Y-58721165D01*
X105252545Y-58721163D01*
X105166759Y-58552800D01*
X105156851Y-58539163D01*
X105055690Y-58399927D01*
X104922073Y-58266310D01*
X104769199Y-58155240D01*
X104662751Y-58101002D01*
X104600836Y-58069454D01*
X104421118Y-58011059D01*
X104336443Y-57997648D01*
X106499500Y-57997648D01*
X106499500Y-58202352D01*
X106501966Y-58217924D01*
X106531522Y-58404534D01*
X106594781Y-58599223D01*
X106687715Y-58781613D01*
X106808028Y-58947213D01*
X106952786Y-59091971D01*
X107086046Y-59188788D01*
X107118390Y-59212287D01*
X107182338Y-59244870D01*
X107300776Y-59305218D01*
X107300778Y-59305218D01*
X107300781Y-59305220D01*
X107371045Y-59328050D01*
X107495465Y-59368477D01*
X107596557Y-59384488D01*
X107697648Y-59400500D01*
X107697649Y-59400500D01*
X107902351Y-59400500D01*
X107902352Y-59400500D01*
X108104534Y-59368477D01*
X108299219Y-59305220D01*
X108481610Y-59212287D01*
X108601337Y-59125301D01*
X108647213Y-59091971D01*
X108647215Y-59091968D01*
X108647219Y-59091966D01*
X108791966Y-58947219D01*
X108815180Y-58915266D01*
X108870508Y-58872599D01*
X108940121Y-58866618D01*
X109001918Y-58899222D01*
X109036277Y-58960060D01*
X109039500Y-58988146D01*
X109039500Y-59031516D01*
X109048369Y-59087513D01*
X109054354Y-59125304D01*
X109111950Y-59238342D01*
X109111952Y-59238344D01*
X109111954Y-59238347D01*
X109201652Y-59328045D01*
X109201654Y-59328046D01*
X109201658Y-59328050D01*
X109314694Y-59385645D01*
X109314698Y-59385647D01*
X109408475Y-59400499D01*
X109408481Y-59400500D01*
X111271518Y-59400499D01*
X111365304Y-59385646D01*
X111478342Y-59328050D01*
X111568050Y-59238342D01*
X111625646Y-59125304D01*
X111625646Y-59125302D01*
X111625647Y-59125301D01*
X111636282Y-59058147D01*
X111640500Y-59031519D01*
X111640499Y-57168482D01*
X111625646Y-57074696D01*
X111568050Y-56961658D01*
X111568046Y-56961654D01*
X111568045Y-56961652D01*
X111478347Y-56871954D01*
X111478344Y-56871952D01*
X111478342Y-56871950D01*
X111398998Y-56831522D01*
X111365301Y-56814352D01*
X111271524Y-56799500D01*
X109408482Y-56799500D01*
X109327519Y-56812323D01*
X109314696Y-56814354D01*
X109201658Y-56871950D01*
X109201657Y-56871951D01*
X109201652Y-56871954D01*
X109111954Y-56961652D01*
X109111951Y-56961657D01*
X109111950Y-56961658D01*
X109098674Y-56987713D01*
X109054352Y-57074698D01*
X109039500Y-57168475D01*
X109039500Y-57211849D01*
X109019815Y-57278888D01*
X108967011Y-57324643D01*
X108897853Y-57334587D01*
X108834297Y-57305562D01*
X108815182Y-57284734D01*
X108791971Y-57252786D01*
X108647213Y-57108028D01*
X108481613Y-56987715D01*
X108481612Y-56987714D01*
X108481610Y-56987713D01*
X108424653Y-56958691D01*
X108299223Y-56894781D01*
X108104534Y-56831522D01*
X107929995Y-56803878D01*
X107902352Y-56799500D01*
X107697648Y-56799500D01*
X107673329Y-56803351D01*
X107495465Y-56831522D01*
X107300776Y-56894781D01*
X107118386Y-56987715D01*
X106952786Y-57108028D01*
X106808028Y-57252786D01*
X106687715Y-57418386D01*
X106594781Y-57600776D01*
X106531522Y-57795465D01*
X106516953Y-57887453D01*
X106499500Y-57997648D01*
X104336443Y-57997648D01*
X104234486Y-57981500D01*
X104234481Y-57981500D01*
X104045519Y-57981500D01*
X104045514Y-57981500D01*
X103858881Y-58011059D01*
X103679163Y-58069454D01*
X103510800Y-58155240D01*
X103445957Y-58202352D01*
X103357927Y-58266310D01*
X103357925Y-58266312D01*
X103357924Y-58266312D01*
X103224312Y-58399924D01*
X103224312Y-58399925D01*
X103224310Y-58399927D01*
X103220963Y-58404534D01*
X103113240Y-58552800D01*
X103027454Y-58721163D01*
X102969059Y-58900881D01*
X102939500Y-59087513D01*
X102939500Y-59087519D01*
X102939500Y-59276481D01*
X102939500Y-59276484D01*
X102939499Y-59276484D01*
X95180500Y-59276484D01*
X95180500Y-59087513D01*
X95150940Y-58900881D01*
X95101575Y-58748954D01*
X95092547Y-58721168D01*
X95092545Y-58721165D01*
X95092545Y-58721163D01*
X95006759Y-58552800D01*
X94996851Y-58539163D01*
X94895690Y-58399927D01*
X94762073Y-58266310D01*
X94609199Y-58155240D01*
X94440836Y-58069454D01*
X94261118Y-58011059D01*
X94074486Y-57981500D01*
X94074481Y-57981500D01*
X93885519Y-57981500D01*
X93885514Y-57981500D01*
X93698881Y-58011059D01*
X93519163Y-58069454D01*
X93350800Y-58155240D01*
X93285957Y-58202352D01*
X93197927Y-58266310D01*
X93197925Y-58266312D01*
X93197924Y-58266312D01*
X93064312Y-58399924D01*
X93064312Y-58399925D01*
X93064310Y-58399927D01*
X93060963Y-58404534D01*
X92953240Y-58552800D01*
X92883820Y-58689044D01*
X92835845Y-58739840D01*
X92768024Y-58756635D01*
X92701889Y-58734097D01*
X92658438Y-58679382D01*
X92655404Y-58671068D01*
X92629629Y-58591742D01*
X92612547Y-58539168D01*
X92612545Y-58539165D01*
X92612545Y-58539163D01*
X92567290Y-58450347D01*
X92526760Y-58370801D01*
X92415690Y-58217927D01*
X92282073Y-58084310D01*
X92129199Y-57973240D01*
X91960836Y-57887454D01*
X91781118Y-57829059D01*
X91594486Y-57799500D01*
X91594481Y-57799500D01*
X91405519Y-57799500D01*
X91405514Y-57799500D01*
X91218881Y-57829059D01*
X91039163Y-57887454D01*
X90870800Y-57973240D01*
X90818746Y-58011060D01*
X90717927Y-58084310D01*
X90717925Y-58084312D01*
X90717924Y-58084312D01*
X90584312Y-58217924D01*
X90584312Y-58217925D01*
X90584310Y-58217927D01*
X90549158Y-58266310D01*
X90473240Y-58370800D01*
X90387454Y-58539163D01*
X90329059Y-58718881D01*
X90299500Y-58905513D01*
X80012151Y-58905513D01*
X80054462Y-58897096D01*
X80101913Y-58887658D01*
X80238495Y-58831084D01*
X80287729Y-58798186D01*
X80288402Y-58797735D01*
X80288797Y-58797473D01*
X80288797Y-58797472D01*
X80361416Y-58748952D01*
X82513548Y-56596818D01*
X82574871Y-56563334D01*
X82601229Y-56560500D01*
X82946375Y-56560500D01*
X83013414Y-56580185D01*
X83034056Y-56596819D01*
X83162927Y-56725690D01*
X83315801Y-56836760D01*
X83384873Y-56871954D01*
X83484163Y-56922545D01*
X83484165Y-56922545D01*
X83484168Y-56922547D01*
X83580497Y-56953846D01*
X83663881Y-56980940D01*
X83850514Y-57010500D01*
X83850519Y-57010500D01*
X84039486Y-57010500D01*
X84226118Y-56980940D01*
X84405832Y-56922547D01*
X84574199Y-56836760D01*
X84727073Y-56725690D01*
X84860690Y-56592073D01*
X84971760Y-56439199D01*
X85057547Y-56270832D01*
X85115940Y-56091118D01*
X85126204Y-56026313D01*
X85145500Y-55904486D01*
X85145500Y-55715513D01*
X85115940Y-55528881D01*
X85070311Y-55388452D01*
X85057547Y-55349168D01*
X85057545Y-55349165D01*
X85057545Y-55349163D01*
X84995324Y-55227048D01*
X84971760Y-55180801D01*
X84860690Y-55027927D01*
X84727073Y-54894310D01*
X84574199Y-54783240D01*
X84564739Y-54778420D01*
X84405836Y-54697454D01*
X84331472Y-54673291D01*
X84284195Y-54657930D01*
X84226521Y-54618493D01*
X84199323Y-54554134D01*
X84211238Y-54485288D01*
X84258482Y-54433812D01*
X84284194Y-54422069D01*
X84405832Y-54382547D01*
X84574199Y-54296760D01*
X84727073Y-54185690D01*
X84860690Y-54052073D01*
X84971760Y-53899199D01*
X85057547Y-53730832D01*
X85115940Y-53551118D01*
X85123682Y-53502236D01*
X85145500Y-53364486D01*
X85145500Y-53175513D01*
X85115940Y-52988881D01*
X85088846Y-52905497D01*
X85057547Y-52809168D01*
X85057545Y-52809165D01*
X85057545Y-52809163D01*
X85005069Y-52706173D01*
X84971760Y-52640801D01*
X84860690Y-52487927D01*
X84727073Y-52354310D01*
X84574199Y-52243240D01*
X84542146Y-52226908D01*
X84405836Y-52157454D01*
X84331472Y-52133291D01*
X84284195Y-52117930D01*
X84226521Y-52078493D01*
X84199323Y-52014134D01*
X84211238Y-51945288D01*
X84258482Y-51893812D01*
X84284194Y-51882069D01*
X84405832Y-51842547D01*
X84574199Y-51756760D01*
X84727073Y-51645690D01*
X84855944Y-51516819D01*
X84917267Y-51483334D01*
X84943625Y-51480500D01*
X86054770Y-51480500D01*
X86121809Y-51500185D01*
X86142451Y-51516819D01*
X88374048Y-53748415D01*
X88374049Y-53748416D01*
X88438583Y-53812950D01*
X88478585Y-53852952D01*
X88601498Y-53935080D01*
X88601511Y-53935087D01*
X88738082Y-53991656D01*
X88738087Y-53991658D01*
X88738091Y-53991658D01*
X88738092Y-53991659D01*
X88883079Y-54020500D01*
X88883082Y-54020500D01*
X90566375Y-54020500D01*
X90633414Y-54040185D01*
X90654056Y-54056819D01*
X90782927Y-54185690D01*
X90935801Y-54296760D01*
X91015347Y-54337290D01*
X91104163Y-54382545D01*
X91104165Y-54382545D01*
X91104168Y-54382547D01*
X91193734Y-54411649D01*
X91225803Y-54422069D01*
X91283478Y-54461507D01*
X91310676Y-54525866D01*
X91298761Y-54594712D01*
X91251516Y-54646188D01*
X91225803Y-54657931D01*
X91104163Y-54697454D01*
X90935800Y-54783240D01*
X90848579Y-54846610D01*
X90782927Y-54894310D01*
X90782925Y-54894312D01*
X90782924Y-54894312D01*
X90649312Y-55027924D01*
X90649312Y-55027925D01*
X90649310Y-55027927D01*
X90628430Y-55056666D01*
X90538240Y-55180800D01*
X90452454Y-55349163D01*
X90394059Y-55528881D01*
X90364500Y-55715513D01*
X90364500Y-55904486D01*
X90394059Y-56091118D01*
X90452454Y-56270836D01*
X90519244Y-56401918D01*
X90538240Y-56439199D01*
X90649310Y-56592073D01*
X90782927Y-56725690D01*
X90935801Y-56836760D01*
X91004873Y-56871954D01*
X91104163Y-56922545D01*
X91104165Y-56922545D01*
X91104168Y-56922547D01*
X91200497Y-56953846D01*
X91283881Y-56980940D01*
X91470514Y-57010500D01*
X91470519Y-57010500D01*
X91659486Y-57010500D01*
X91846118Y-56980940D01*
X92025832Y-56922547D01*
X92194199Y-56836760D01*
X92347073Y-56725690D01*
X92480690Y-56592073D01*
X92591760Y-56439199D01*
X92677547Y-56270832D01*
X92735940Y-56091118D01*
X92746204Y-56026313D01*
X92765500Y-55904486D01*
X92765500Y-55715513D01*
X92735940Y-55528881D01*
X92690311Y-55388452D01*
X92677547Y-55349168D01*
X92677545Y-55349165D01*
X92677545Y-55349163D01*
X92615324Y-55227048D01*
X92591760Y-55180801D01*
X92480690Y-55027927D01*
X92347073Y-54894310D01*
X92194199Y-54783240D01*
X92184739Y-54778420D01*
X92025836Y-54697454D01*
X91951472Y-54673291D01*
X91904195Y-54657930D01*
X91880213Y-54641531D01*
X91854734Y-54627581D01*
X91851721Y-54622049D01*
X91846521Y-54618493D01*
X91835211Y-54591731D01*
X91821319Y-54566220D01*
X91821775Y-54559937D01*
X91819323Y-54554134D01*
X91824277Y-54525505D01*
X91826383Y-54496534D01*
X91830163Y-54491495D01*
X91831238Y-54485288D01*
X91836360Y-54479707D01*
X102684869Y-54479707D01*
X102684869Y-54726909D01*
X102723540Y-54971068D01*
X102799930Y-55206171D01*
X102912157Y-55426429D01*
X103057459Y-55626420D01*
X103232257Y-55801218D01*
X103432248Y-55946520D01*
X103652506Y-56058747D01*
X103887609Y-56135137D01*
X104131768Y-56173808D01*
X104131769Y-56173808D01*
X104378969Y-56173808D01*
X104378970Y-56173808D01*
X104623129Y-56135137D01*
X104858232Y-56058747D01*
X105078490Y-55946520D01*
X105278481Y-55801218D01*
X105453279Y-55626420D01*
X105598581Y-55426429D01*
X105710808Y-55206171D01*
X105787198Y-54971068D01*
X105825869Y-54726909D01*
X105825869Y-54479707D01*
X105787198Y-54235548D01*
X105710808Y-54000445D01*
X105598581Y-53780187D01*
X105453279Y-53580196D01*
X105278481Y-53405398D01*
X105078490Y-53260096D01*
X104858232Y-53147869D01*
X104623129Y-53071479D01*
X104623127Y-53071478D01*
X104623126Y-53071478D01*
X104422541Y-53039709D01*
X104378970Y-53032808D01*
X104131768Y-53032808D01*
X104088197Y-53039709D01*
X103887612Y-53071478D01*
X103652503Y-53147870D01*
X103432247Y-53260096D01*
X103232254Y-53405400D01*
X103057461Y-53580193D01*
X102912157Y-53780186D01*
X102799931Y-54000442D01*
X102723539Y-54235551D01*
X102697414Y-54400500D01*
X102684869Y-54479707D01*
X91836360Y-54479707D01*
X91850883Y-54463883D01*
X91868318Y-54440648D01*
X91875731Y-54436809D01*
X91878482Y-54433812D01*
X91899314Y-54423769D01*
X91901742Y-54422866D01*
X92025832Y-54382547D01*
X92194199Y-54296760D01*
X92347073Y-54185690D01*
X92480690Y-54052073D01*
X92591760Y-53899199D01*
X92677547Y-53730832D01*
X92735940Y-53551118D01*
X92743682Y-53502236D01*
X92765500Y-53364486D01*
X92765500Y-53175514D01*
X92754965Y-53109003D01*
X92763919Y-53039709D01*
X92808915Y-52986257D01*
X92875666Y-52965617D01*
X92942980Y-52984341D01*
X92977755Y-53016717D01*
X93057459Y-53126420D01*
X93232257Y-53301218D01*
X93432248Y-53446520D01*
X93652506Y-53558747D01*
X93887609Y-53635137D01*
X94131768Y-53673808D01*
X94131769Y-53673808D01*
X94378969Y-53673808D01*
X94378970Y-53673808D01*
X94623129Y-53635137D01*
X94858232Y-53558747D01*
X95078490Y-53446520D01*
X95278481Y-53301218D01*
X95453279Y-53126420D01*
X95598581Y-52926429D01*
X95710808Y-52706171D01*
X95787198Y-52471068D01*
X95825869Y-52226909D01*
X95825869Y-51979707D01*
X95787198Y-51735548D01*
X95710808Y-51500445D01*
X95598581Y-51280187D01*
X95453279Y-51080196D01*
X95278481Y-50905398D01*
X95078490Y-50760096D01*
X94858232Y-50647869D01*
X94623129Y-50571479D01*
X94623127Y-50571478D01*
X94623126Y-50571478D01*
X94435568Y-50541772D01*
X94378970Y-50532808D01*
X94131768Y-50532808D01*
X94075169Y-50541772D01*
X93887612Y-50571478D01*
X93887609Y-50571479D01*
X93746797Y-50617232D01*
X93652503Y-50647870D01*
X93432247Y-50760096D01*
X93232254Y-50905400D01*
X93057461Y-51080193D01*
X92912157Y-51280186D01*
X92799931Y-51500442D01*
X92799930Y-51500444D01*
X92799930Y-51500445D01*
X92796151Y-51512075D01*
X92723539Y-51735551D01*
X92684869Y-51979707D01*
X92684869Y-52226909D01*
X92684868Y-52226909D01*
X92713855Y-52409924D01*
X92704900Y-52479217D01*
X92659904Y-52532669D01*
X92593152Y-52553308D01*
X92525839Y-52534583D01*
X92491064Y-52502206D01*
X92480690Y-52487927D01*
X92347073Y-52354310D01*
X92194199Y-52243240D01*
X92162146Y-52226908D01*
X92025836Y-52157454D01*
X91951472Y-52133291D01*
X91904195Y-52117930D01*
X91846521Y-52078493D01*
X91819323Y-52014134D01*
X91831238Y-51945288D01*
X91878482Y-51893812D01*
X91904194Y-51882069D01*
X92025832Y-51842547D01*
X92194199Y-51756760D01*
X92347073Y-51645690D01*
X92480690Y-51512073D01*
X92591760Y-51359199D01*
X92677547Y-51190832D01*
X92735940Y-51011118D01*
X92746171Y-50946520D01*
X92765500Y-50824486D01*
X92765500Y-50635513D01*
X92735940Y-50448881D01*
X92701942Y-50344247D01*
X92677547Y-50269168D01*
X92677545Y-50269165D01*
X92677545Y-50269163D01*
X92591759Y-50100800D01*
X92589588Y-50097812D01*
X92480690Y-49947927D01*
X92347073Y-49814310D01*
X92194199Y-49703240D01*
X92025836Y-49617454D01*
X91983246Y-49603616D01*
X91949853Y-49592765D01*
X91904197Y-49577931D01*
X91846521Y-49538493D01*
X91821678Y-49479707D01*
X102684869Y-49479707D01*
X102684869Y-49726908D01*
X102721757Y-49959815D01*
X102723540Y-49971068D01*
X102799930Y-50206171D01*
X102912157Y-50426429D01*
X103057459Y-50626420D01*
X103232257Y-50801218D01*
X103432248Y-50946520D01*
X103652506Y-51058747D01*
X103887609Y-51135137D01*
X104131768Y-51173808D01*
X104131769Y-51173808D01*
X104378969Y-51173808D01*
X104378970Y-51173808D01*
X104623129Y-51135137D01*
X104858232Y-51058747D01*
X105078490Y-50946520D01*
X105278481Y-50801218D01*
X105453279Y-50626420D01*
X105598581Y-50426429D01*
X105710808Y-50206171D01*
X105787198Y-49971068D01*
X105825869Y-49726909D01*
X105825869Y-49479707D01*
X105787198Y-49235548D01*
X105710808Y-49000445D01*
X105598581Y-48780187D01*
X105453279Y-48580196D01*
X105278481Y-48405398D01*
X105078490Y-48260096D01*
X104858232Y-48147869D01*
X104623129Y-48071479D01*
X104623127Y-48071478D01*
X104623126Y-48071478D01*
X104435568Y-48041772D01*
X104378970Y-48032808D01*
X104131768Y-48032808D01*
X104075169Y-48041772D01*
X103887612Y-48071478D01*
X103652503Y-48147870D01*
X103432247Y-48260096D01*
X103232254Y-48405400D01*
X103057461Y-48580193D01*
X102912157Y-48780186D01*
X102799931Y-49000442D01*
X102723539Y-49235551D01*
X102684869Y-49479707D01*
X91821678Y-49479707D01*
X91819323Y-49474135D01*
X91831238Y-49405288D01*
X91878482Y-49353813D01*
X91904194Y-49342069D01*
X92025832Y-49302547D01*
X92194199Y-49216760D01*
X92347073Y-49105690D01*
X92480690Y-48972073D01*
X92591760Y-48819199D01*
X92677547Y-48650832D01*
X92735940Y-48471118D01*
X92746349Y-48405398D01*
X92765500Y-48284486D01*
X92765500Y-48095513D01*
X92746456Y-47975282D01*
X92735940Y-47908882D01*
X92731011Y-47893713D01*
X113649500Y-47893713D01*
X113649500Y-48106286D01*
X113665571Y-48207758D01*
X113682754Y-48316243D01*
X113733076Y-48471118D01*
X113748444Y-48518414D01*
X113844951Y-48707820D01*
X113969890Y-48879786D01*
X114120213Y-49030109D01*
X114292179Y-49155048D01*
X114292181Y-49155049D01*
X114292184Y-49155051D01*
X114481588Y-49251557D01*
X114683757Y-49317246D01*
X114893713Y-49350500D01*
X114893714Y-49350500D01*
X115106286Y-49350500D01*
X115106287Y-49350500D01*
X115316243Y-49317246D01*
X115518412Y-49251557D01*
X115707816Y-49155051D01*
X115775760Y-49105687D01*
X115879786Y-49030109D01*
X115879788Y-49030106D01*
X115879792Y-49030104D01*
X116030104Y-48879792D01*
X116030106Y-48879788D01*
X116030109Y-48879786D01*
X116155048Y-48707820D01*
X116155047Y-48707820D01*
X116155051Y-48707816D01*
X116251557Y-48518412D01*
X116317246Y-48316243D01*
X116350500Y-48106287D01*
X116350500Y-47893713D01*
X116317246Y-47683757D01*
X116251557Y-47481588D01*
X116155051Y-47292184D01*
X116155049Y-47292181D01*
X116155048Y-47292179D01*
X116030109Y-47120213D01*
X115879786Y-46969890D01*
X115707820Y-46844951D01*
X115518414Y-46748444D01*
X115518413Y-46748443D01*
X115518412Y-46748443D01*
X115316243Y-46682754D01*
X115316241Y-46682753D01*
X115316240Y-46682753D01*
X115154957Y-46657208D01*
X115106287Y-46649500D01*
X114893713Y-46649500D01*
X114845042Y-46657208D01*
X114683760Y-46682753D01*
X114481585Y-46748444D01*
X114292179Y-46844951D01*
X114120213Y-46969890D01*
X113969890Y-47120213D01*
X113844951Y-47292179D01*
X113748444Y-47481585D01*
X113682753Y-47683760D01*
X113649500Y-47893713D01*
X92731011Y-47893713D01*
X92677547Y-47729168D01*
X92677545Y-47729165D01*
X92677545Y-47729163D01*
X92591759Y-47560800D01*
X92480690Y-47407927D01*
X92347073Y-47274310D01*
X92194199Y-47163240D01*
X92025836Y-47077454D01*
X91846118Y-47019059D01*
X91659486Y-46989500D01*
X91659481Y-46989500D01*
X91470519Y-46989500D01*
X91470514Y-46989500D01*
X91283881Y-47019059D01*
X91104163Y-47077454D01*
X90935800Y-47163240D01*
X90848579Y-47226610D01*
X90782927Y-47274310D01*
X90782925Y-47274312D01*
X90782924Y-47274312D01*
X90649312Y-47407924D01*
X90649312Y-47407925D01*
X90649310Y-47407927D01*
X90601610Y-47473579D01*
X90538240Y-47560800D01*
X90452454Y-47729163D01*
X90394059Y-47908881D01*
X90364500Y-48095513D01*
X90364500Y-48284486D01*
X90394059Y-48471118D01*
X90452454Y-48650836D01*
X90518362Y-48780186D01*
X90538240Y-48819199D01*
X90649310Y-48972073D01*
X90782927Y-49105690D01*
X90935801Y-49216760D01*
X90972675Y-49235548D01*
X91104163Y-49302545D01*
X91104165Y-49302545D01*
X91104168Y-49302547D01*
X91149407Y-49317246D01*
X91225803Y-49342069D01*
X91283478Y-49381507D01*
X91310676Y-49445866D01*
X91298761Y-49514712D01*
X91251516Y-49566188D01*
X91225803Y-49577931D01*
X91104163Y-49617454D01*
X90935800Y-49703240D01*
X90848579Y-49766610D01*
X90782927Y-49814310D01*
X90782925Y-49814312D01*
X90782924Y-49814312D01*
X90649312Y-49947924D01*
X90649312Y-49947925D01*
X90649310Y-49947927D01*
X90605417Y-50008340D01*
X90538240Y-50100800D01*
X90452454Y-50269163D01*
X90394059Y-50448881D01*
X90364500Y-50635513D01*
X90364500Y-50824486D01*
X90394059Y-51011118D01*
X90452454Y-51190836D01*
X90513167Y-51309990D01*
X90538240Y-51359199D01*
X90649310Y-51512073D01*
X90782927Y-51645690D01*
X90935801Y-51756760D01*
X91015347Y-51797290D01*
X91104163Y-51842545D01*
X91104165Y-51842545D01*
X91104168Y-51842547D01*
X91193734Y-51871649D01*
X91225803Y-51882069D01*
X91283478Y-51921507D01*
X91310676Y-51985866D01*
X91298761Y-52054712D01*
X91251516Y-52106188D01*
X91225803Y-52117931D01*
X91104163Y-52157454D01*
X90935800Y-52243240D01*
X90859375Y-52298767D01*
X90782927Y-52354310D01*
X90782925Y-52354312D01*
X90782924Y-52354312D01*
X90654056Y-52483181D01*
X90592733Y-52516666D01*
X90566375Y-52519500D01*
X89319229Y-52519500D01*
X89252190Y-52499815D01*
X89231548Y-52483181D01*
X86895421Y-50147052D01*
X86895414Y-50147046D01*
X86821729Y-50097812D01*
X86821729Y-50097813D01*
X86772491Y-50064913D01*
X86635917Y-50008343D01*
X86635907Y-50008340D01*
X86490920Y-49979500D01*
X86490918Y-49979500D01*
X84943625Y-49979500D01*
X84876586Y-49959815D01*
X84855944Y-49943181D01*
X84727075Y-49814312D01*
X84727073Y-49814310D01*
X84574199Y-49703240D01*
X84405836Y-49617454D01*
X84226118Y-49559059D01*
X84039486Y-49529500D01*
X84039481Y-49529500D01*
X83850519Y-49529500D01*
X83850514Y-49529500D01*
X83663881Y-49559059D01*
X83484163Y-49617454D01*
X83315800Y-49703240D01*
X83228579Y-49766610D01*
X83162927Y-49814310D01*
X83162925Y-49814312D01*
X83162924Y-49814312D01*
X83029312Y-49947924D01*
X83029312Y-49947925D01*
X83029310Y-49947927D01*
X82985417Y-50008340D01*
X82918240Y-50100800D01*
X82832454Y-50269163D01*
X82774059Y-50448881D01*
X82744500Y-50635513D01*
X82744500Y-50824486D01*
X82774059Y-51011118D01*
X82832454Y-51190836D01*
X82893167Y-51309990D01*
X82918240Y-51359199D01*
X83029310Y-51512073D01*
X83162927Y-51645690D01*
X83315801Y-51756760D01*
X83395347Y-51797290D01*
X83484163Y-51842545D01*
X83484165Y-51842545D01*
X83484168Y-51842547D01*
X83573734Y-51871649D01*
X83605803Y-51882069D01*
X83663478Y-51921507D01*
X83690676Y-51985866D01*
X83678761Y-52054712D01*
X83631516Y-52106188D01*
X83605803Y-52117931D01*
X83484163Y-52157454D01*
X83315800Y-52243240D01*
X83239375Y-52298767D01*
X83162927Y-52354310D01*
X83162925Y-52354312D01*
X83162924Y-52354312D01*
X83029312Y-52487924D01*
X83029312Y-52487925D01*
X83029310Y-52487927D01*
X83008430Y-52516666D01*
X82918240Y-52640800D01*
X82832454Y-52809163D01*
X82774059Y-52988881D01*
X82744500Y-53175513D01*
X82744500Y-53364486D01*
X82774059Y-53551118D01*
X82832454Y-53730836D01*
X82894676Y-53852952D01*
X82918240Y-53899199D01*
X83029310Y-54052073D01*
X83162927Y-54185690D01*
X83315801Y-54296760D01*
X83395347Y-54337290D01*
X83484163Y-54382545D01*
X83484165Y-54382545D01*
X83484168Y-54382547D01*
X83573734Y-54411649D01*
X83605803Y-54422069D01*
X83663478Y-54461507D01*
X83690676Y-54525866D01*
X83678761Y-54594712D01*
X83631516Y-54646188D01*
X83605803Y-54657931D01*
X83484163Y-54697454D01*
X83315800Y-54783240D01*
X83228579Y-54846610D01*
X83162927Y-54894310D01*
X83162925Y-54894312D01*
X83162924Y-54894312D01*
X83034056Y-55023181D01*
X82972733Y-55056666D01*
X82946375Y-55059500D01*
X82165080Y-55059500D01*
X82020092Y-55088340D01*
X82020082Y-55088343D01*
X81883511Y-55144912D01*
X81883498Y-55144919D01*
X81760584Y-55227048D01*
X81760580Y-55227051D01*
X81599180Y-55388452D01*
X81537857Y-55421937D01*
X81468165Y-55416953D01*
X81412232Y-55375081D01*
X81387815Y-55309617D01*
X81387499Y-55300771D01*
X81387499Y-54109482D01*
X81387498Y-54109475D01*
X81372646Y-54015696D01*
X81315050Y-53902658D01*
X81315046Y-53902654D01*
X81315045Y-53902652D01*
X81225347Y-53812954D01*
X81225344Y-53812952D01*
X81225342Y-53812950D01*
X81148517Y-53773805D01*
X81112301Y-53755352D01*
X81018524Y-53740500D01*
X79255482Y-53740500D01*
X79174519Y-53753323D01*
X79161696Y-53755354D01*
X79048658Y-53812950D01*
X79048657Y-53812951D01*
X79048652Y-53812954D01*
X78958954Y-53902652D01*
X78958951Y-53902657D01*
X78901352Y-54015698D01*
X78886500Y-54109475D01*
X78886500Y-55872517D01*
X78893532Y-55916914D01*
X78901354Y-55966304D01*
X78958950Y-56079342D01*
X78958952Y-56079344D01*
X78958954Y-56079347D01*
X79048652Y-56169045D01*
X79048654Y-56169046D01*
X79048658Y-56169050D01*
X79139401Y-56215286D01*
X79161698Y-56226647D01*
X79255475Y-56241499D01*
X79255481Y-56241500D01*
X80446770Y-56241499D01*
X80513809Y-56261184D01*
X80559564Y-56313987D01*
X80569508Y-56383146D01*
X80540483Y-56446702D01*
X80534451Y-56453180D01*
X79608451Y-57379181D01*
X79547128Y-57412666D01*
X79520770Y-57415500D01*
X76494823Y-57415500D01*
X76427784Y-57395815D01*
X76382029Y-57343011D01*
X76372085Y-57273853D01*
X76401110Y-57210297D01*
X76438528Y-57181015D01*
X76463127Y-57168481D01*
X76504187Y-57147560D01*
X76657061Y-57036490D01*
X76790678Y-56902873D01*
X76901748Y-56749999D01*
X76987535Y-56581632D01*
X77045928Y-56401918D01*
X77059855Y-56313987D01*
X77075488Y-56215286D01*
X77075488Y-56026313D01*
X77045928Y-55839681D01*
X76987533Y-55659963D01*
X76942278Y-55571147D01*
X76901748Y-55491601D01*
X76790678Y-55338727D01*
X76657061Y-55205110D01*
X76504187Y-55094040D01*
X76493000Y-55088340D01*
X76335824Y-55008254D01*
X76156106Y-54949859D01*
X75969474Y-54920300D01*
X75969469Y-54920300D01*
X75780507Y-54920300D01*
X75780502Y-54920300D01*
X75593869Y-54949859D01*
X75414151Y-55008254D01*
X75245788Y-55094040D01*
X75175760Y-55144919D01*
X75092915Y-55205110D01*
X75092913Y-55205112D01*
X75092912Y-55205112D01*
X74959300Y-55338724D01*
X74959300Y-55338725D01*
X74959298Y-55338727D01*
X74911677Y-55404272D01*
X74848228Y-55491600D01*
X74762442Y-55659963D01*
X74704047Y-55839681D01*
X74674488Y-56026313D01*
X74674488Y-56215286D01*
X74704047Y-56401918D01*
X74762442Y-56581636D01*
X74835840Y-56725687D01*
X74848228Y-56749999D01*
X74959298Y-56902873D01*
X75092915Y-57036490D01*
X75245789Y-57147560D01*
X75286837Y-57168475D01*
X75311448Y-57181015D01*
X75362244Y-57228990D01*
X75379039Y-57296811D01*
X75356501Y-57362946D01*
X75301786Y-57406397D01*
X75255153Y-57415500D01*
X66148568Y-57415500D01*
X66003580Y-57444340D01*
X66003570Y-57444343D01*
X65866999Y-57500912D01*
X65866986Y-57500919D01*
X65744072Y-57583048D01*
X65744068Y-57583051D01*
X65039181Y-58287939D01*
X64977858Y-58321424D01*
X64908166Y-58316440D01*
X64852233Y-58274568D01*
X64827816Y-58209104D01*
X64827500Y-58200258D01*
X64827500Y-57677313D01*
X64827499Y-57677298D01*
X64824598Y-57640432D01*
X64824597Y-57640426D01*
X64778745Y-57482606D01*
X64778744Y-57482603D01*
X64778744Y-57482602D01*
X64695081Y-57341135D01*
X64695079Y-57341133D01*
X64695076Y-57341129D01*
X64578870Y-57224923D01*
X64578862Y-57224917D01*
X64483423Y-57168475D01*
X64437398Y-57141256D01*
X64437397Y-57141255D01*
X64437396Y-57141255D01*
X64437393Y-57141254D01*
X64279573Y-57095402D01*
X64279567Y-57095401D01*
X64242701Y-57092500D01*
X64242694Y-57092500D01*
X63011306Y-57092500D01*
X63011298Y-57092500D01*
X62974432Y-57095401D01*
X62974426Y-57095402D01*
X62816606Y-57141254D01*
X62816603Y-57141255D01*
X62675137Y-57224917D01*
X62675129Y-57224923D01*
X62558923Y-57341129D01*
X62558917Y-57341137D01*
X62475255Y-57482603D01*
X62475254Y-57482606D01*
X62429402Y-57640426D01*
X62429401Y-57640432D01*
X62426500Y-57677298D01*
X62426500Y-58908701D01*
X62429401Y-58945567D01*
X62429402Y-58945573D01*
X62475254Y-59103393D01*
X62475255Y-59103396D01*
X62558917Y-59244862D01*
X62558923Y-59244870D01*
X62675129Y-59361076D01*
X62675133Y-59361079D01*
X62675135Y-59361081D01*
X62816602Y-59444744D01*
X62858224Y-59456836D01*
X62974426Y-59490597D01*
X62974429Y-59490597D01*
X62974431Y-59490598D01*
X63011306Y-59493500D01*
X63534259Y-59493500D01*
X63601298Y-59513185D01*
X63647053Y-59565989D01*
X63656997Y-59635147D01*
X63627972Y-59698703D01*
X63621941Y-59705179D01*
X62532620Y-60794500D01*
X61629939Y-61697181D01*
X61568616Y-61730666D01*
X61542258Y-61733500D01*
X58092080Y-61733500D01*
X57947092Y-61762340D01*
X57947082Y-61762343D01*
X57810511Y-61818912D01*
X57810498Y-61818919D01*
X57687584Y-61901048D01*
X57687580Y-61901051D01*
X56247052Y-63341578D01*
X56247049Y-63341581D01*
X56216399Y-63387452D01*
X56216400Y-63387453D01*
X56164914Y-63464508D01*
X56108343Y-63601082D01*
X56108340Y-63601092D01*
X56079500Y-63746079D01*
X56079500Y-64751374D01*
X56059815Y-64818413D01*
X56043182Y-64839055D01*
X55914309Y-64967928D01*
X55803240Y-65120800D01*
X55717454Y-65289163D01*
X55659059Y-65468881D01*
X55629500Y-65655513D01*
X43000500Y-65655513D01*
X43000500Y-56410041D01*
X50277500Y-56410041D01*
X50277500Y-56691958D01*
X50314295Y-56971439D01*
X50387259Y-57243743D01*
X50495135Y-57504179D01*
X50495140Y-57504190D01*
X50611820Y-57706284D01*
X50636088Y-57748317D01*
X50807700Y-57971965D01*
X50807704Y-57971970D01*
X51007029Y-58171295D01*
X51007033Y-58171298D01*
X51007035Y-58171300D01*
X51230683Y-58342912D01*
X51230690Y-58342916D01*
X51474809Y-58483859D01*
X51474814Y-58483861D01*
X51474817Y-58483863D01*
X51735261Y-58591742D01*
X52007558Y-58664704D01*
X52287049Y-58701500D01*
X52287056Y-58701500D01*
X52568944Y-58701500D01*
X52568951Y-58701500D01*
X52848442Y-58664704D01*
X53120739Y-58591742D01*
X53381183Y-58483863D01*
X53625317Y-58342912D01*
X53848965Y-58171300D01*
X54048300Y-57971965D01*
X54219912Y-57748317D01*
X54360863Y-57504183D01*
X54468742Y-57243739D01*
X54541704Y-56971442D01*
X54578500Y-56691951D01*
X54578500Y-56410049D01*
X54541704Y-56130558D01*
X54468742Y-55858261D01*
X54360863Y-55597817D01*
X54360861Y-55597814D01*
X54360859Y-55597809D01*
X54219916Y-55353690D01*
X54219912Y-55353683D01*
X54048300Y-55130035D01*
X54048298Y-55130033D01*
X54048295Y-55130029D01*
X53848970Y-54930704D01*
X53835411Y-54920300D01*
X53656792Y-54783240D01*
X53625325Y-54759094D01*
X53625318Y-54759089D01*
X53625317Y-54759088D01*
X53625312Y-54759085D01*
X53625309Y-54759083D01*
X53540810Y-54710297D01*
X56999500Y-54710297D01*
X56999500Y-56541682D01*
X56999501Y-56541707D01*
X57002402Y-56578570D01*
X57048254Y-56736394D01*
X57048255Y-56736397D01*
X57131916Y-56877861D01*
X57131923Y-56877870D01*
X57248129Y-56994076D01*
X57248133Y-56994079D01*
X57248135Y-56994081D01*
X57389601Y-57077744D01*
X57431223Y-57089836D01*
X57547425Y-57123597D01*
X57547428Y-57123597D01*
X57547430Y-57123598D01*
X57584305Y-57126500D01*
X59415694Y-57126499D01*
X59452570Y-57123598D01*
X59610399Y-57077744D01*
X59751865Y-56994081D01*
X59868081Y-56877865D01*
X59951744Y-56736399D01*
X59992296Y-56596819D01*
X59997597Y-56578574D01*
X59997598Y-56578568D01*
X60000499Y-56541702D01*
X60000500Y-56541695D01*
X60000499Y-54778414D01*
X69574971Y-54778414D01*
X69574971Y-54991391D01*
X69608286Y-55201732D01*
X69674094Y-55404272D01*
X69674095Y-55404275D01*
X69737586Y-55528881D01*
X69770781Y-55594030D01*
X69895960Y-55766324D01*
X70046550Y-55916914D01*
X70218844Y-56042093D01*
X70291949Y-56079342D01*
X70408598Y-56138778D01*
X70408601Y-56138779D01*
X70501752Y-56169045D01*
X70611143Y-56204588D01*
X70708563Y-56220017D01*
X70821483Y-56237903D01*
X70821488Y-56237903D01*
X71129459Y-56237903D01*
X71231429Y-56221751D01*
X71339799Y-56204588D01*
X71542343Y-56138778D01*
X71732098Y-56042093D01*
X71904392Y-55916914D01*
X72054982Y-55766324D01*
X72180161Y-55594030D01*
X72276846Y-55404275D01*
X72342656Y-55201731D01*
X72370184Y-55027925D01*
X72375971Y-54991391D01*
X72375971Y-54778414D01*
X72353899Y-54639060D01*
X72342656Y-54568075D01*
X72300163Y-54437295D01*
X72276847Y-54365533D01*
X72276846Y-54365530D01*
X72185212Y-54185690D01*
X72180161Y-54175776D01*
X72054982Y-54003482D01*
X71904392Y-53852892D01*
X71732098Y-53727713D01*
X71542343Y-53631027D01*
X71542340Y-53631026D01*
X71339800Y-53565218D01*
X71129459Y-53531903D01*
X71129454Y-53531903D01*
X70821488Y-53531903D01*
X70821483Y-53531903D01*
X70611141Y-53565218D01*
X70408601Y-53631026D01*
X70408598Y-53631027D01*
X70218843Y-53727713D01*
X70180802Y-53755352D01*
X70046550Y-53852892D01*
X70046548Y-53852894D01*
X70046547Y-53852894D01*
X69895962Y-54003479D01*
X69895962Y-54003480D01*
X69895960Y-54003482D01*
X69842200Y-54077475D01*
X69770781Y-54175775D01*
X69674095Y-54365530D01*
X69674094Y-54365533D01*
X69608286Y-54568073D01*
X69574971Y-54778414D01*
X60000499Y-54778414D01*
X60000499Y-54710306D01*
X59997598Y-54673430D01*
X59951744Y-54515601D01*
X59868081Y-54374135D01*
X59868079Y-54374133D01*
X59868076Y-54374129D01*
X59751870Y-54257923D01*
X59751861Y-54257916D01*
X59610397Y-54174255D01*
X59610394Y-54174254D01*
X59452574Y-54128402D01*
X59452568Y-54128401D01*
X59415695Y-54125500D01*
X57584317Y-54125500D01*
X57584292Y-54125501D01*
X57547429Y-54128402D01*
X57389605Y-54174254D01*
X57389602Y-54174255D01*
X57248138Y-54257916D01*
X57248129Y-54257923D01*
X57131923Y-54374129D01*
X57131916Y-54374138D01*
X57048255Y-54515602D01*
X57048254Y-54515605D01*
X57002402Y-54673425D01*
X57002401Y-54673431D01*
X56999500Y-54710297D01*
X53540810Y-54710297D01*
X53381190Y-54618140D01*
X53381179Y-54618135D01*
X53120743Y-54510259D01*
X52848439Y-54437295D01*
X52568958Y-54400500D01*
X52568951Y-54400500D01*
X52287049Y-54400500D01*
X52287041Y-54400500D01*
X52007560Y-54437295D01*
X51735256Y-54510259D01*
X51474820Y-54618135D01*
X51474809Y-54618140D01*
X51230690Y-54759083D01*
X51230682Y-54759089D01*
X51007029Y-54930704D01*
X50807704Y-55130029D01*
X50683814Y-55291485D01*
X50639553Y-55349168D01*
X50636089Y-55353682D01*
X50636083Y-55353690D01*
X50495140Y-55597809D01*
X50495135Y-55597820D01*
X50387259Y-55858256D01*
X50314295Y-56130560D01*
X50277500Y-56410041D01*
X43000500Y-56410041D01*
X43000500Y-51309951D01*
X48641500Y-51309951D01*
X48641500Y-51506048D01*
X48647775Y-51628428D01*
X48647775Y-51628431D01*
X48684693Y-51842547D01*
X48697763Y-51918352D01*
X48786762Y-52198763D01*
X48786764Y-52198767D01*
X48786766Y-52198772D01*
X48913115Y-52464448D01*
X49074464Y-52710444D01*
X49074466Y-52710446D01*
X49074467Y-52710447D01*
X49267814Y-52932186D01*
X49470596Y-53109003D01*
X49489553Y-53125533D01*
X49489555Y-53125535D01*
X49735551Y-53286884D01*
X49735554Y-53286885D01*
X49735555Y-53286886D01*
X50001237Y-53413238D01*
X50281648Y-53502237D01*
X50571567Y-53552224D01*
X50593828Y-53553365D01*
X50693951Y-53558499D01*
X50693977Y-53558499D01*
X50693984Y-53558500D01*
X50693990Y-53558500D01*
X54390010Y-53558500D01*
X54390016Y-53558500D01*
X54390022Y-53558499D01*
X54390048Y-53558499D01*
X54477451Y-53554017D01*
X54512433Y-53552224D01*
X54802352Y-53502237D01*
X55082763Y-53413238D01*
X55348445Y-53286886D01*
X55518245Y-53175514D01*
X55594444Y-53125535D01*
X55594444Y-53125534D01*
X55594447Y-53125533D01*
X55816186Y-52932186D01*
X56009533Y-52710447D01*
X56170886Y-52464445D01*
X56297238Y-52198763D01*
X56386237Y-51918352D01*
X56436224Y-51628433D01*
X56438017Y-51593451D01*
X56442499Y-51506048D01*
X56442500Y-51506009D01*
X56442500Y-51409951D01*
X56841500Y-51409951D01*
X56841500Y-51606048D01*
X56847775Y-51728428D01*
X56847775Y-51728431D01*
X56891100Y-51979707D01*
X56897763Y-52018352D01*
X56986762Y-52298763D01*
X56986764Y-52298767D01*
X56986766Y-52298772D01*
X57113115Y-52564448D01*
X57274464Y-52810444D01*
X57274466Y-52810446D01*
X57274467Y-52810447D01*
X57467814Y-53032186D01*
X57600486Y-53147870D01*
X57689553Y-53225533D01*
X57689555Y-53225535D01*
X57935551Y-53386884D01*
X57935554Y-53386885D01*
X57935555Y-53386886D01*
X58201237Y-53513238D01*
X58481648Y-53602237D01*
X58771567Y-53652224D01*
X58793828Y-53653365D01*
X58893951Y-53658499D01*
X58893977Y-53658499D01*
X58893984Y-53658500D01*
X58893990Y-53658500D01*
X62590010Y-53658500D01*
X62590016Y-53658500D01*
X62590022Y-53658499D01*
X62590048Y-53658499D01*
X62677451Y-53654017D01*
X62712433Y-53652224D01*
X63002352Y-53602237D01*
X63282763Y-53513238D01*
X63548445Y-53386886D01*
X63794447Y-53225533D01*
X64016186Y-53032186D01*
X64209533Y-52810447D01*
X64370886Y-52564445D01*
X64497238Y-52298763D01*
X64586237Y-52018352D01*
X64636224Y-51728433D01*
X64640466Y-51645690D01*
X64642499Y-51606048D01*
X64642500Y-51606009D01*
X64642500Y-51409990D01*
X64642499Y-51409951D01*
X64636224Y-51287571D01*
X64636224Y-51287568D01*
X64636224Y-51287567D01*
X64586237Y-50997648D01*
X64497238Y-50717237D01*
X64370886Y-50451555D01*
X64370885Y-50451554D01*
X64370884Y-50451551D01*
X64209535Y-50205555D01*
X64209533Y-50205553D01*
X64194540Y-50188358D01*
X64016186Y-49983814D01*
X63794447Y-49790467D01*
X63794446Y-49790466D01*
X63794444Y-49790464D01*
X63548448Y-49629115D01*
X63282772Y-49502766D01*
X63282767Y-49502764D01*
X63282763Y-49502762D01*
X63002352Y-49413763D01*
X63002348Y-49413762D01*
X63002347Y-49413762D01*
X62712429Y-49363775D01*
X62590048Y-49357500D01*
X62590016Y-49357500D01*
X58893984Y-49357500D01*
X58893951Y-49357500D01*
X58771571Y-49363775D01*
X58771568Y-49363775D01*
X58481652Y-49413762D01*
X58481648Y-49413763D01*
X58201237Y-49502762D01*
X58201234Y-49502763D01*
X58201232Y-49502764D01*
X58201227Y-49502766D01*
X57935551Y-49629115D01*
X57689555Y-49790464D01*
X57689553Y-49790466D01*
X57467814Y-49983814D01*
X57274466Y-50205553D01*
X57274464Y-50205555D01*
X57113115Y-50451551D01*
X56986766Y-50717227D01*
X56986764Y-50717232D01*
X56986762Y-50717237D01*
X56913991Y-50946519D01*
X56897763Y-50997648D01*
X56897762Y-50997652D01*
X56847775Y-51287568D01*
X56847775Y-51287571D01*
X56841500Y-51409951D01*
X56442500Y-51409951D01*
X56442500Y-51309990D01*
X56442499Y-51309951D01*
X56437658Y-51215552D01*
X56436224Y-51187567D01*
X56386237Y-50897648D01*
X56297238Y-50617237D01*
X56170886Y-50351555D01*
X56170885Y-50351554D01*
X56170884Y-50351551D01*
X56009535Y-50105555D01*
X56009533Y-50105553D01*
X55974099Y-50064916D01*
X55816186Y-49883814D01*
X55594447Y-49690467D01*
X55594446Y-49690466D01*
X55594444Y-49690464D01*
X55348448Y-49529115D01*
X55082772Y-49402766D01*
X55082767Y-49402764D01*
X55082763Y-49402762D01*
X54802352Y-49313763D01*
X54802348Y-49313762D01*
X54802347Y-49313762D01*
X54624528Y-49283103D01*
X54512429Y-49263775D01*
X54390048Y-49257500D01*
X54390016Y-49257500D01*
X50693984Y-49257500D01*
X50693951Y-49257500D01*
X50571571Y-49263775D01*
X50571568Y-49263775D01*
X50281652Y-49313762D01*
X50281648Y-49313763D01*
X50001237Y-49402762D01*
X50001234Y-49402763D01*
X50001232Y-49402764D01*
X50001227Y-49402766D01*
X49735551Y-49529115D01*
X49489555Y-49690464D01*
X49489553Y-49690466D01*
X49267814Y-49883814D01*
X49074466Y-50105553D01*
X49074464Y-50105555D01*
X48913115Y-50351551D01*
X48786766Y-50617227D01*
X48786764Y-50617232D01*
X48786762Y-50617237D01*
X48702506Y-50882704D01*
X48697763Y-50897648D01*
X48697762Y-50897652D01*
X48647775Y-51187568D01*
X48647775Y-51187571D01*
X48641500Y-51309951D01*
X43000500Y-51309951D01*
X43000500Y-47893713D01*
X44649500Y-47893713D01*
X44649500Y-48106286D01*
X44665571Y-48207758D01*
X44682754Y-48316243D01*
X44733076Y-48471118D01*
X44748444Y-48518414D01*
X44844951Y-48707820D01*
X44969890Y-48879786D01*
X45120213Y-49030109D01*
X45292179Y-49155048D01*
X45292181Y-49155049D01*
X45292184Y-49155051D01*
X45481588Y-49251557D01*
X45683757Y-49317246D01*
X45893713Y-49350500D01*
X45893714Y-49350500D01*
X46106286Y-49350500D01*
X46106287Y-49350500D01*
X46316243Y-49317246D01*
X46518412Y-49251557D01*
X46686763Y-49165778D01*
X65401500Y-49165778D01*
X65401500Y-49386221D01*
X65435985Y-49603952D01*
X65504103Y-49813603D01*
X65504104Y-49813606D01*
X65539878Y-49883814D01*
X65603329Y-50008343D01*
X65604187Y-50010025D01*
X65733752Y-50188358D01*
X65733756Y-50188363D01*
X65889636Y-50344243D01*
X65889641Y-50344247D01*
X66002756Y-50426429D01*
X66067978Y-50473815D01*
X66183757Y-50532808D01*
X66264393Y-50573895D01*
X66264396Y-50573896D01*
X66369221Y-50607955D01*
X66474049Y-50642015D01*
X66691778Y-50676500D01*
X66691779Y-50676500D01*
X66912221Y-50676500D01*
X66912222Y-50676500D01*
X67129951Y-50642015D01*
X67339606Y-50573895D01*
X67536022Y-50473815D01*
X67714365Y-50344242D01*
X67870242Y-50188365D01*
X67999815Y-50010022D01*
X68099895Y-49813606D01*
X68168015Y-49603951D01*
X68202500Y-49386222D01*
X68202500Y-49165778D01*
X68168015Y-48948049D01*
X68168014Y-48948045D01*
X68137565Y-48854329D01*
X68126696Y-48820878D01*
X69574971Y-48820878D01*
X69574971Y-50788920D01*
X69580604Y-50824486D01*
X69589825Y-50882707D01*
X69647421Y-50995745D01*
X69647423Y-50995747D01*
X69647425Y-50995750D01*
X69737123Y-51085448D01*
X69737125Y-51085449D01*
X69737129Y-51085453D01*
X69834639Y-51135137D01*
X69850169Y-51143050D01*
X69943946Y-51157902D01*
X69943952Y-51157903D01*
X72006989Y-51157902D01*
X72100775Y-51143049D01*
X72213813Y-51085453D01*
X72303521Y-50995745D01*
X72361117Y-50882707D01*
X72361117Y-50882705D01*
X72361118Y-50882704D01*
X72371753Y-50815550D01*
X72375971Y-50788922D01*
X72375970Y-49589411D01*
X78799500Y-49589411D01*
X78799500Y-50820814D01*
X78802401Y-50857680D01*
X78802402Y-50857686D01*
X78848254Y-51015506D01*
X78848255Y-51015509D01*
X78931917Y-51156975D01*
X78931923Y-51156983D01*
X79048129Y-51273189D01*
X79048133Y-51273192D01*
X79048135Y-51273194D01*
X79189602Y-51356857D01*
X79231224Y-51368949D01*
X79347426Y-51402710D01*
X79347429Y-51402710D01*
X79347431Y-51402711D01*
X79384306Y-51405613D01*
X79384314Y-51405613D01*
X80615686Y-51405613D01*
X80615694Y-51405613D01*
X80652569Y-51402711D01*
X80652571Y-51402710D01*
X80652573Y-51402710D01*
X80694191Y-51390618D01*
X80810398Y-51356857D01*
X80951865Y-51273194D01*
X81068081Y-51156978D01*
X81151744Y-51015511D01*
X81185987Y-50897648D01*
X81197597Y-50857686D01*
X81197598Y-50857680D01*
X81200210Y-50824486D01*
X81200500Y-50820807D01*
X81200500Y-49589419D01*
X81197598Y-49552544D01*
X81190791Y-49529115D01*
X81151745Y-49394719D01*
X81151744Y-49394716D01*
X81151744Y-49394715D01*
X81068081Y-49253248D01*
X81068079Y-49253246D01*
X81068076Y-49253242D01*
X80951870Y-49137036D01*
X80951862Y-49137030D01*
X80810396Y-49053368D01*
X80810393Y-49053367D01*
X80652573Y-49007515D01*
X80652567Y-49007514D01*
X80615701Y-49004613D01*
X80615694Y-49004613D01*
X79384306Y-49004613D01*
X79384298Y-49004613D01*
X79347432Y-49007514D01*
X79347426Y-49007515D01*
X79189606Y-49053367D01*
X79189603Y-49053368D01*
X79048137Y-49137030D01*
X79048129Y-49137036D01*
X78931923Y-49253242D01*
X78931917Y-49253250D01*
X78848255Y-49394716D01*
X78848254Y-49394719D01*
X78802402Y-49552539D01*
X78802401Y-49552545D01*
X78799500Y-49589411D01*
X72375970Y-49589411D01*
X72375970Y-48820885D01*
X72361117Y-48727099D01*
X72303521Y-48614061D01*
X72303517Y-48614057D01*
X72303516Y-48614055D01*
X72213818Y-48524357D01*
X72213815Y-48524355D01*
X72213813Y-48524353D01*
X72136988Y-48485208D01*
X72100772Y-48466755D01*
X72006995Y-48451903D01*
X69943953Y-48451903D01*
X69862990Y-48464726D01*
X69850167Y-48466757D01*
X69737129Y-48524353D01*
X69737128Y-48524354D01*
X69737123Y-48524357D01*
X69647425Y-48614055D01*
X69647422Y-48614060D01*
X69589823Y-48727101D01*
X69574971Y-48820878D01*
X68126696Y-48820878D01*
X68099896Y-48738396D01*
X68099895Y-48738393D01*
X68065237Y-48670375D01*
X67999815Y-48541978D01*
X67900586Y-48405400D01*
X67870247Y-48363641D01*
X67870243Y-48363636D01*
X67714363Y-48207756D01*
X67714358Y-48207752D01*
X67536025Y-48078187D01*
X67536024Y-48078186D01*
X67536022Y-48078185D01*
X67446966Y-48032808D01*
X67339606Y-47978104D01*
X67339603Y-47978103D01*
X67129952Y-47909985D01*
X67021086Y-47892742D01*
X66912222Y-47875500D01*
X66691778Y-47875500D01*
X66619201Y-47886995D01*
X66474047Y-47909985D01*
X66264396Y-47978103D01*
X66264393Y-47978104D01*
X66067974Y-48078187D01*
X65889641Y-48207752D01*
X65889636Y-48207756D01*
X65733756Y-48363636D01*
X65733752Y-48363641D01*
X65604187Y-48541974D01*
X65504104Y-48738393D01*
X65504103Y-48738396D01*
X65435985Y-48948047D01*
X65401500Y-49165778D01*
X46686763Y-49165778D01*
X46707816Y-49155051D01*
X46775760Y-49105687D01*
X46879786Y-49030109D01*
X46879788Y-49030106D01*
X46879792Y-49030104D01*
X47030104Y-48879792D01*
X47030106Y-48879788D01*
X47030109Y-48879786D01*
X47155048Y-48707820D01*
X47155047Y-48707820D01*
X47155051Y-48707816D01*
X47251557Y-48518412D01*
X47317246Y-48316243D01*
X47350500Y-48106287D01*
X47350500Y-47893713D01*
X47317246Y-47683757D01*
X47251557Y-47481588D01*
X47155051Y-47292184D01*
X47155049Y-47292181D01*
X47155048Y-47292179D01*
X47030109Y-47120213D01*
X46879786Y-46969890D01*
X46707820Y-46844951D01*
X46518414Y-46748444D01*
X46518413Y-46748443D01*
X46518412Y-46748443D01*
X46316243Y-46682754D01*
X46316241Y-46682753D01*
X46316240Y-46682753D01*
X46154957Y-46657208D01*
X46106287Y-46649500D01*
X45893713Y-46649500D01*
X45845042Y-46657208D01*
X45683760Y-46682753D01*
X45481585Y-46748444D01*
X45292179Y-46844951D01*
X45120213Y-46969890D01*
X44969890Y-47120213D01*
X44844951Y-47292179D01*
X44748444Y-47481585D01*
X44682753Y-47683760D01*
X44649500Y-47893713D01*
X43000500Y-47893713D01*
X43000500Y-45124500D01*
X43020185Y-45057461D01*
X43072989Y-45011706D01*
X43124500Y-45000500D01*
X117875500Y-45000500D01*
X117942539Y-45020185D01*
G37*
G04 #@! TD.AperFunction*
M02*
