M48
; DRILL file {KiCad 9.0.4} date 2025-09-18T15:30:14+0200
; FORMAT={-:-/ absolute / metric / decimal}
; #@! TF.CreationDate,2025-09-18T15:30:14+02:00
; #@! TF.GenerationSoftware,Kicad,Pcbnew,9.0.4
; #@! TF.FileFunction,Plated,1,4,PTH
FMAT,2
METRIC
; #@! TA.AperFunction,Plated,PTH,ComponentDrill
T1C0.750
; #@! TA.AperFunction,Plated,PTH,ComponentDrill
T2C0.800
; #@! TA.AperFunction,Plated,PTH,ComponentDrill
T3C0.900
; #@! TA.AperFunction,Plated,PTH,ComponentDrill
T4C1.000
; #@! TA.AperFunction,Plated,PTH,ComponentDrill
T5C1.100
; #@! TA.AperFunction,Plated,PTH,ComponentDrill
T6C1.200
; #@! TA.AperFunction,Plated,PTH,ComponentDrill
T7C1.300
%
G90
G05
T1
X65.0Y-79.0
X66.27Y-77.73
X67.54Y-79.0
X97.663Y-73.291
X98.933Y-72.021
X100.203Y-73.291
T2
X46.67Y-65.75
X46.67Y-68.75
X46.67Y-81.75
X46.67Y-84.75
X56.83Y-65.75
X56.83Y-68.75
X56.83Y-81.75
X56.83Y-84.75
X59.5Y-78.75
X59.69Y-67.185
X59.69Y-74.805
X59.71Y-64.5
X61.127Y-58.293
X62.0Y-78.75
X62.23Y-67.185
X62.23Y-74.805
X62.25Y-64.5
X63.627Y-58.293
X64.77Y-67.185
X64.77Y-74.805
X67.31Y-67.185
X67.31Y-74.805
X67.945Y-59.77
X67.945Y-64.77
X71.121Y-80.682
X75.183Y-83.675
X75.875Y-51.121
X75.875Y-56.121
X80.0Y-47.705
X80.0Y-50.205
X81.281Y-80.682
X83.945Y-48.19
X83.945Y-50.73
X83.945Y-53.27
X83.945Y-55.81
X85.343Y-83.675
X86.5Y-59.0
X88.672Y-63.066
X88.672Y-73.226
X91.5Y-59.0
X91.565Y-48.19
X91.565Y-50.73
X91.565Y-53.27
X91.565Y-55.81
X91.694Y-76.581
X91.694Y-86.741
X91.72Y-63.066
X91.72Y-73.226
X93.98Y-59.182
X94.768Y-63.066
X94.768Y-73.226
X94.94Y-87.018
X103.62Y-72.1
X104.14Y-59.182
X105.1Y-87.018
X113.78Y-72.1
T3
X107.8Y-58.1
X107.96Y-86.3
X110.34Y-58.1
X110.5Y-86.3
T4
X52.6Y-88.1
X66.802Y-49.276
X66.802Y-54.276
X80.137Y-54.991
T5
X58.5Y-55.626
X58.5Y-60.706
X62.0Y-86.5
X62.611Y-83.185
X70.975Y-49.805
X70.975Y-52.345
X70.975Y-54.885
X72.16Y-86.5
X72.771Y-83.185
X75.183Y-86.767
X85.343Y-86.767
X88.265Y-76.581
X88.265Y-86.741
X99.187Y-77.724
X99.187Y-80.264
X99.187Y-82.804
X99.568Y-62.865
X99.568Y-65.405
X99.568Y-67.945
X102.997Y-62.992
X102.997Y-68.072
X102.997Y-76.581
X102.997Y-81.661
T6
X52.428Y-56.551
X52.428Y-61.551
X52.6Y-72.75
X52.6Y-77.75
X108.989Y-76.498
X108.989Y-81.498
X109.0Y-62.945
X109.0Y-67.945
T7
X71.374Y-60.532
X71.374Y-65.532
X71.374Y-71.437
X71.374Y-76.437
X81.374Y-63.032
X81.374Y-73.937
X94.255Y-52.103
X104.255Y-49.603
X104.255Y-54.603
T2
X50.642Y-52.008G85X50.642Y-50.808
G05
X54.442Y-52.008G85X54.442Y-50.808
G05
X58.842Y-52.108G85X58.842Y-50.908
G05
X62.642Y-52.108G85X62.642Y-50.908
G05
M30
